G04 #@! TF.GenerationSoftware,KiCad,Pcbnew,(5.0.2)-1*
G04 #@! TF.CreationDate,2019-04-08T19:56:43-07:00*
G04 #@! TF.ProjectId,smartplug,736d6172-7470-46c7-9567-2e6b69636164,rev?*
G04 #@! TF.SameCoordinates,Original*
G04 #@! TF.FileFunction,Soldermask,Bot*
G04 #@! TF.FilePolarity,Negative*
%FSLAX46Y46*%
G04 Gerber Fmt 4.6, Leading zero omitted, Abs format (unit mm)*
G04 Created by KiCad (PCBNEW (5.0.2)-1) date 4/8/2019 7:56:43 PM*
%MOMM*%
%LPD*%
G01*
G04 APERTURE LIST*
%ADD10C,0.100000*%
G04 APERTURE END LIST*
D10*
G36*
X238519000Y-103179000D02*
X234861000Y-103179000D01*
X234861000Y-99521000D01*
X238519000Y-99521000D01*
X238519000Y-103179000D01*
X238519000Y-103179000D01*
G37*
G36*
X152451000Y-101651000D02*
X149749000Y-101651000D01*
X149749000Y-98949000D01*
X152451000Y-98949000D01*
X152451000Y-101651000D01*
X152451000Y-101651000D01*
G37*
G36*
X160805000Y-100925000D02*
X159195000Y-100925000D01*
X159195000Y-99315000D01*
X160805000Y-99315000D01*
X160805000Y-100925000D01*
X160805000Y-100925000D01*
G37*
G36*
X144556000Y-100611000D02*
X140644000Y-100611000D01*
X140644000Y-96269000D01*
X144556000Y-96269000D01*
X144556000Y-100611000D01*
X144556000Y-100611000D01*
G37*
G36*
X213050250Y-97462843D02*
X213135322Y-97479765D01*
X213205735Y-97508931D01*
X213375728Y-97579344D01*
X213592092Y-97723914D01*
X213776086Y-97907908D01*
X213920656Y-98124272D01*
X214020235Y-98364679D01*
X214071000Y-98619891D01*
X214071000Y-98880109D01*
X214020235Y-99135321D01*
X213920656Y-99375728D01*
X213776086Y-99592092D01*
X213592092Y-99776086D01*
X213375728Y-99920656D01*
X213205735Y-99991069D01*
X213135322Y-100020235D01*
X213050250Y-100037157D01*
X212880109Y-100071000D01*
X212619891Y-100071000D01*
X212449750Y-100037157D01*
X212364678Y-100020235D01*
X212294265Y-99991069D01*
X212124272Y-99920656D01*
X211907908Y-99776086D01*
X211723914Y-99592092D01*
X211579344Y-99375728D01*
X211479765Y-99135321D01*
X211429000Y-98880109D01*
X211429000Y-98619891D01*
X211479765Y-98364679D01*
X211579344Y-98124272D01*
X211723914Y-97907908D01*
X211907908Y-97723914D01*
X212124272Y-97579344D01*
X212294265Y-97508931D01*
X212364678Y-97479765D01*
X212449750Y-97462843D01*
X212619891Y-97429000D01*
X212880109Y-97429000D01*
X213050250Y-97462843D01*
X213050250Y-97462843D01*
G37*
G36*
X218050250Y-97462843D02*
X218135322Y-97479765D01*
X218205735Y-97508931D01*
X218375728Y-97579344D01*
X218592092Y-97723914D01*
X218776086Y-97907908D01*
X218920656Y-98124272D01*
X219020235Y-98364679D01*
X219071000Y-98619891D01*
X219071000Y-98880109D01*
X219020235Y-99135321D01*
X218920656Y-99375728D01*
X218776086Y-99592092D01*
X218592092Y-99776086D01*
X218375728Y-99920656D01*
X218205735Y-99991069D01*
X218135322Y-100020235D01*
X218050250Y-100037157D01*
X217880109Y-100071000D01*
X217619891Y-100071000D01*
X217449750Y-100037157D01*
X217364678Y-100020235D01*
X217294265Y-99991069D01*
X217124272Y-99920656D01*
X216907908Y-99776086D01*
X216723914Y-99592092D01*
X216579344Y-99375728D01*
X216479765Y-99135321D01*
X216429000Y-98880109D01*
X216429000Y-98619891D01*
X216479765Y-98364679D01*
X216579344Y-98124272D01*
X216723914Y-97907908D01*
X216907908Y-97723914D01*
X217124272Y-97579344D01*
X217294265Y-97508931D01*
X217364678Y-97479765D01*
X217449750Y-97462843D01*
X217619891Y-97429000D01*
X217880109Y-97429000D01*
X218050250Y-97462843D01*
X218050250Y-97462843D01*
G37*
G36*
X198009367Y-97894971D02*
X198009369Y-97894972D01*
X198009370Y-97894972D01*
X198040600Y-97907908D01*
X198171195Y-97962002D01*
X198316835Y-98059316D01*
X198440684Y-98183165D01*
X198537998Y-98328805D01*
X198605029Y-98490633D01*
X198639200Y-98662420D01*
X198639200Y-98837580D01*
X198605029Y-99009367D01*
X198537998Y-99171195D01*
X198440684Y-99316835D01*
X198316835Y-99440684D01*
X198171195Y-99537998D01*
X198069147Y-99580268D01*
X198009370Y-99605028D01*
X198009369Y-99605028D01*
X198009367Y-99605029D01*
X197837580Y-99639200D01*
X197662420Y-99639200D01*
X197490633Y-99605029D01*
X197490631Y-99605028D01*
X197490630Y-99605028D01*
X197430853Y-99580268D01*
X197328805Y-99537998D01*
X197183165Y-99440684D01*
X197059316Y-99316835D01*
X196962002Y-99171195D01*
X196894971Y-99009367D01*
X196860800Y-98837580D01*
X196860800Y-98662420D01*
X196894971Y-98490633D01*
X196962002Y-98328805D01*
X197059316Y-98183165D01*
X197183165Y-98059316D01*
X197328805Y-97962002D01*
X197459400Y-97907908D01*
X197490630Y-97894972D01*
X197490631Y-97894972D01*
X197490633Y-97894971D01*
X197662420Y-97860800D01*
X197837580Y-97860800D01*
X198009367Y-97894971D01*
X198009367Y-97894971D01*
G37*
G36*
X241236820Y-93206143D02*
X241413500Y-93241287D01*
X241551373Y-93298396D01*
X241746355Y-93379160D01*
X242045923Y-93579325D01*
X242300675Y-93834077D01*
X242500840Y-94133645D01*
X242638713Y-94466501D01*
X242709000Y-94819858D01*
X242709000Y-95180142D01*
X242638713Y-95533499D01*
X242500840Y-95866355D01*
X242300675Y-96165923D01*
X242045923Y-96420675D01*
X241746355Y-96620840D01*
X241551373Y-96701604D01*
X241413500Y-96758713D01*
X241236821Y-96793856D01*
X241060142Y-96829000D01*
X240699858Y-96829000D01*
X240523179Y-96793856D01*
X240346500Y-96758713D01*
X240208627Y-96701604D01*
X240013645Y-96620840D01*
X239714077Y-96420675D01*
X239459325Y-96165923D01*
X239259160Y-95866355D01*
X239121287Y-95533499D01*
X239051000Y-95180142D01*
X239051000Y-94819858D01*
X239121287Y-94466501D01*
X239259160Y-94133645D01*
X239459325Y-93834077D01*
X239714077Y-93579325D01*
X240013645Y-93379160D01*
X240208627Y-93298396D01*
X240346500Y-93241287D01*
X240523179Y-93206144D01*
X240699858Y-93171000D01*
X241060142Y-93171000D01*
X241236820Y-93206143D01*
X241236820Y-93206143D01*
G37*
G36*
X151363567Y-93974959D02*
X151494072Y-94000918D01*
X151739939Y-94102759D01*
X151931864Y-94231000D01*
X151961215Y-94250612D01*
X152149388Y-94438785D01*
X152149390Y-94438788D01*
X152297241Y-94660061D01*
X152399082Y-94905928D01*
X152451000Y-95166938D01*
X152451000Y-95433062D01*
X152399082Y-95694072D01*
X152297241Y-95939939D01*
X152149890Y-96160464D01*
X152149388Y-96161215D01*
X151961215Y-96349388D01*
X151961212Y-96349390D01*
X151739939Y-96497241D01*
X151494072Y-96599082D01*
X151384692Y-96620839D01*
X151233063Y-96651000D01*
X150966937Y-96651000D01*
X150815308Y-96620839D01*
X150705928Y-96599082D01*
X150460061Y-96497241D01*
X150238788Y-96349390D01*
X150238785Y-96349388D01*
X150050612Y-96161215D01*
X150050110Y-96160464D01*
X149902759Y-95939939D01*
X149800918Y-95694072D01*
X149749000Y-95433062D01*
X149749000Y-95166938D01*
X149800918Y-94905928D01*
X149902759Y-94660061D01*
X150050610Y-94438788D01*
X150050612Y-94438785D01*
X150238785Y-94250612D01*
X150268136Y-94231000D01*
X150460061Y-94102759D01*
X150705928Y-94000918D01*
X150836433Y-93974959D01*
X150966937Y-93949000D01*
X151233063Y-93949000D01*
X151363567Y-93974959D01*
X151363567Y-93974959D01*
G37*
G36*
X144556000Y-94231000D02*
X140644000Y-94231000D01*
X140644000Y-89889000D01*
X144556000Y-89889000D01*
X144556000Y-94231000D01*
X144556000Y-94231000D01*
G37*
G36*
X188234807Y-91725935D02*
X188234809Y-91725936D01*
X188234810Y-91725936D01*
X188381310Y-91786618D01*
X188381311Y-91786619D01*
X188513161Y-91874718D01*
X188625282Y-91986839D01*
X188625284Y-91986842D01*
X188713382Y-92118690D01*
X188721877Y-92139200D01*
X188774065Y-92265193D01*
X188805000Y-92420713D01*
X188805000Y-92579286D01*
X188774064Y-92734810D01*
X188713382Y-92881310D01*
X188713381Y-92881311D01*
X188625282Y-93013161D01*
X188513161Y-93125282D01*
X188513158Y-93125284D01*
X188381310Y-93213382D01*
X188234810Y-93274064D01*
X188234809Y-93274064D01*
X188234807Y-93274065D01*
X188079287Y-93305000D01*
X187920713Y-93305000D01*
X187765193Y-93274065D01*
X187765191Y-93274064D01*
X187765190Y-93274064D01*
X187618690Y-93213382D01*
X187486842Y-93125284D01*
X187486839Y-93125282D01*
X187374718Y-93013161D01*
X187286619Y-92881311D01*
X187286618Y-92881310D01*
X187225936Y-92734810D01*
X187195000Y-92579286D01*
X187195000Y-92420713D01*
X187225935Y-92265193D01*
X187278123Y-92139200D01*
X187286618Y-92118690D01*
X187374716Y-91986842D01*
X187374718Y-91986839D01*
X187486839Y-91874718D01*
X187618689Y-91786619D01*
X187618690Y-91786618D01*
X187765190Y-91725936D01*
X187765191Y-91725936D01*
X187765193Y-91725935D01*
X187920713Y-91695000D01*
X188079287Y-91695000D01*
X188234807Y-91725935D01*
X188234807Y-91725935D01*
G37*
G36*
X213050250Y-89962843D02*
X213135322Y-89979765D01*
X213205735Y-90008931D01*
X213375728Y-90079344D01*
X213592092Y-90223914D01*
X213776086Y-90407908D01*
X213920656Y-90624272D01*
X213991069Y-90794265D01*
X214020235Y-90864678D01*
X214071000Y-91119893D01*
X214071000Y-91380107D01*
X214027444Y-91599082D01*
X214020235Y-91635321D01*
X213920656Y-91875728D01*
X213776086Y-92092092D01*
X213592092Y-92276086D01*
X213375728Y-92420656D01*
X213205735Y-92491069D01*
X213135322Y-92520235D01*
X213050250Y-92537157D01*
X212880109Y-92571000D01*
X212619891Y-92571000D01*
X212449750Y-92537157D01*
X212364678Y-92520235D01*
X212294265Y-92491069D01*
X212124272Y-92420656D01*
X211907908Y-92276086D01*
X211723914Y-92092092D01*
X211579344Y-91875728D01*
X211479765Y-91635321D01*
X211472557Y-91599082D01*
X211429000Y-91380107D01*
X211429000Y-91119893D01*
X211479765Y-90864678D01*
X211508931Y-90794265D01*
X211579344Y-90624272D01*
X211723914Y-90407908D01*
X211907908Y-90223914D01*
X212124272Y-90079344D01*
X212294265Y-90008931D01*
X212364678Y-89979765D01*
X212449750Y-89962843D01*
X212619891Y-89929000D01*
X212880109Y-89929000D01*
X213050250Y-89962843D01*
X213050250Y-89962843D01*
G37*
G36*
X218050250Y-89962843D02*
X218135322Y-89979765D01*
X218205735Y-90008931D01*
X218375728Y-90079344D01*
X218592092Y-90223914D01*
X218776086Y-90407908D01*
X218920656Y-90624272D01*
X218991069Y-90794265D01*
X219020235Y-90864678D01*
X219071000Y-91119893D01*
X219071000Y-91380107D01*
X219027444Y-91599082D01*
X219020235Y-91635321D01*
X218920656Y-91875728D01*
X218776086Y-92092092D01*
X218592092Y-92276086D01*
X218375728Y-92420656D01*
X218205735Y-92491069D01*
X218135322Y-92520235D01*
X218050250Y-92537157D01*
X217880109Y-92571000D01*
X217619891Y-92571000D01*
X217449750Y-92537157D01*
X217364678Y-92520235D01*
X217294265Y-92491069D01*
X217124272Y-92420656D01*
X216907908Y-92276086D01*
X216723914Y-92092092D01*
X216579344Y-91875728D01*
X216479765Y-91635321D01*
X216472557Y-91599082D01*
X216429000Y-91380107D01*
X216429000Y-91119893D01*
X216479765Y-90864678D01*
X216508931Y-90794265D01*
X216579344Y-90624272D01*
X216723914Y-90407908D01*
X216907908Y-90223914D01*
X217124272Y-90079344D01*
X217294265Y-90008931D01*
X217364678Y-89979765D01*
X217449750Y-89962843D01*
X217619891Y-89929000D01*
X217880109Y-89929000D01*
X218050250Y-89962843D01*
X218050250Y-89962843D01*
G37*
G36*
X198009367Y-90394971D02*
X198009369Y-90394972D01*
X198009370Y-90394972D01*
X198069147Y-90419732D01*
X198171195Y-90462002D01*
X198316835Y-90559316D01*
X198440684Y-90683165D01*
X198537998Y-90828805D01*
X198605029Y-90990633D01*
X198639200Y-91162420D01*
X198639200Y-91337580D01*
X198605029Y-91509367D01*
X198537998Y-91671195D01*
X198440684Y-91816835D01*
X198316835Y-91940684D01*
X198171195Y-92037998D01*
X198069147Y-92080268D01*
X198009370Y-92105028D01*
X198009369Y-92105028D01*
X198009367Y-92105029D01*
X197837580Y-92139200D01*
X197662420Y-92139200D01*
X197490633Y-92105029D01*
X197490631Y-92105028D01*
X197490630Y-92105028D01*
X197430853Y-92080268D01*
X197328805Y-92037998D01*
X197183165Y-91940684D01*
X197059316Y-91816835D01*
X196962002Y-91671195D01*
X196894971Y-91509367D01*
X196860800Y-91337580D01*
X196860800Y-91162420D01*
X196894971Y-90990633D01*
X196962002Y-90828805D01*
X197059316Y-90683165D01*
X197183165Y-90559316D01*
X197328805Y-90462002D01*
X197430853Y-90419732D01*
X197490630Y-90394972D01*
X197490631Y-90394972D01*
X197490633Y-90394971D01*
X197662420Y-90360800D01*
X197837580Y-90360800D01*
X198009367Y-90394971D01*
X198009367Y-90394971D01*
G37*
G36*
X151363567Y-88974959D02*
X151494072Y-89000918D01*
X151739939Y-89102759D01*
X151960464Y-89250110D01*
X151961215Y-89250612D01*
X152149388Y-89438785D01*
X152149390Y-89438788D01*
X152297241Y-89660061D01*
X152392070Y-89889000D01*
X152399082Y-89905929D01*
X152451000Y-90166937D01*
X152451000Y-90433063D01*
X152425887Y-90559314D01*
X152399082Y-90694072D01*
X152297241Y-90939939D01*
X152149890Y-91160464D01*
X152149388Y-91161215D01*
X151961215Y-91349388D01*
X151961212Y-91349390D01*
X151739939Y-91497241D01*
X151494072Y-91599082D01*
X151363567Y-91625041D01*
X151233063Y-91651000D01*
X150966937Y-91651000D01*
X150836433Y-91625041D01*
X150705928Y-91599082D01*
X150460061Y-91497241D01*
X150238788Y-91349390D01*
X150238785Y-91349388D01*
X150050612Y-91161215D01*
X150050110Y-91160464D01*
X149902759Y-90939939D01*
X149800918Y-90694072D01*
X149774113Y-90559314D01*
X149749000Y-90433063D01*
X149749000Y-90166937D01*
X149800918Y-89905929D01*
X149807930Y-89889000D01*
X149902759Y-89660061D01*
X150050610Y-89438788D01*
X150050612Y-89438785D01*
X150238785Y-89250612D01*
X150239536Y-89250110D01*
X150460061Y-89102759D01*
X150705928Y-89000918D01*
X150836433Y-88974959D01*
X150966937Y-88949000D01*
X151233063Y-88949000D01*
X151363567Y-88974959D01*
X151363567Y-88974959D01*
G37*
G36*
X237046820Y-86856143D02*
X237223500Y-86891287D01*
X237361373Y-86948396D01*
X237556355Y-87029160D01*
X237855923Y-87229325D01*
X238110675Y-87484077D01*
X238310840Y-87783645D01*
X238448713Y-88116501D01*
X238519000Y-88469858D01*
X238519000Y-88830142D01*
X238448713Y-89183499D01*
X238310840Y-89516355D01*
X238110675Y-89815923D01*
X237855923Y-90070675D01*
X237556355Y-90270840D01*
X237361373Y-90351604D01*
X237223500Y-90408713D01*
X237101088Y-90433062D01*
X236870142Y-90479000D01*
X236509858Y-90479000D01*
X236278912Y-90433062D01*
X236156500Y-90408713D01*
X236018627Y-90351604D01*
X235823645Y-90270840D01*
X235524077Y-90070675D01*
X235269325Y-89815923D01*
X235069160Y-89516355D01*
X234931287Y-89183499D01*
X234861000Y-88830142D01*
X234861000Y-88469858D01*
X234931287Y-88116501D01*
X235069160Y-87783645D01*
X235269325Y-87484077D01*
X235524077Y-87229325D01*
X235823645Y-87029160D01*
X236018627Y-86948396D01*
X236156500Y-86891287D01*
X236333179Y-86856144D01*
X236509858Y-86821000D01*
X236870142Y-86821000D01*
X237046820Y-86856143D01*
X237046820Y-86856143D01*
G37*
G36*
X160234807Y-84105935D02*
X160234809Y-84105936D01*
X160234810Y-84105936D01*
X160381310Y-84166618D01*
X160381311Y-84166619D01*
X160513161Y-84254718D01*
X160625282Y-84366839D01*
X160625284Y-84366842D01*
X160713382Y-84498690D01*
X160774064Y-84645190D01*
X160805000Y-84800714D01*
X160805000Y-84959286D01*
X160774064Y-85114810D01*
X160713382Y-85261310D01*
X160713381Y-85261311D01*
X160625282Y-85393161D01*
X160513161Y-85505282D01*
X160513158Y-85505284D01*
X160381310Y-85593382D01*
X160234810Y-85654064D01*
X160234809Y-85654064D01*
X160234807Y-85654065D01*
X160079287Y-85685000D01*
X159920713Y-85685000D01*
X159765193Y-85654065D01*
X159765191Y-85654064D01*
X159765190Y-85654064D01*
X159618690Y-85593382D01*
X159486842Y-85505284D01*
X159486839Y-85505282D01*
X159374718Y-85393161D01*
X159286619Y-85261311D01*
X159286618Y-85261310D01*
X159225936Y-85114810D01*
X159195000Y-84959286D01*
X159195000Y-84800714D01*
X159225936Y-84645190D01*
X159286618Y-84498690D01*
X159374716Y-84366842D01*
X159374718Y-84366839D01*
X159486839Y-84254718D01*
X159618689Y-84166619D01*
X159618690Y-84166618D01*
X159765190Y-84105936D01*
X159765191Y-84105936D01*
X159765193Y-84105935D01*
X159920713Y-84075000D01*
X160079287Y-84075000D01*
X160234807Y-84105935D01*
X160234807Y-84105935D01*
G37*
G36*
X188234807Y-84105935D02*
X188234809Y-84105936D01*
X188234810Y-84105936D01*
X188381310Y-84166618D01*
X188381311Y-84166619D01*
X188513161Y-84254718D01*
X188625282Y-84366839D01*
X188625284Y-84366842D01*
X188713382Y-84498690D01*
X188774064Y-84645190D01*
X188805000Y-84800714D01*
X188805000Y-84959286D01*
X188774064Y-85114810D01*
X188713382Y-85261310D01*
X188713381Y-85261311D01*
X188625282Y-85393161D01*
X188513161Y-85505282D01*
X188513158Y-85505284D01*
X188381310Y-85593382D01*
X188234810Y-85654064D01*
X188234809Y-85654064D01*
X188234807Y-85654065D01*
X188079287Y-85685000D01*
X187920713Y-85685000D01*
X187765193Y-85654065D01*
X187765191Y-85654064D01*
X187765190Y-85654064D01*
X187618690Y-85593382D01*
X187486842Y-85505284D01*
X187486839Y-85505282D01*
X187374718Y-85393161D01*
X187286619Y-85261311D01*
X187286618Y-85261310D01*
X187225936Y-85114810D01*
X187195000Y-84959286D01*
X187195000Y-84800714D01*
X187225936Y-84645190D01*
X187286618Y-84498690D01*
X187374716Y-84366842D01*
X187374718Y-84366839D01*
X187486839Y-84254718D01*
X187618689Y-84166619D01*
X187618690Y-84166618D01*
X187765190Y-84105936D01*
X187765191Y-84105936D01*
X187765193Y-84105935D01*
X187920713Y-84075000D01*
X188079287Y-84075000D01*
X188234807Y-84105935D01*
X188234807Y-84105935D01*
G37*
M02*
