G04 #@! TF.GenerationSoftware,KiCad,Pcbnew,5.0.2-bee76a0~70~ubuntu18.04.1*
G04 #@! TF.CreationDate,2019-04-07T15:27:48-07:00*
G04 #@! TF.ProjectId,smartplug,736d6172-7470-46c7-9567-2e6b69636164,rev?*
G04 #@! TF.SameCoordinates,Original*
G04 #@! TF.FileFunction,Paste,Top*
G04 #@! TF.FilePolarity,Positive*
%FSLAX46Y46*%
G04 Gerber Fmt 4.6, Leading zero omitted, Abs format (unit mm)*
G04 Created by KiCad (PCBNEW 5.0.2-bee76a0~70~ubuntu18.04.1) date Sun 07 Apr 2019 03:27:48 PM PDT*
%MOMM*%
%LPD*%
G01*
G04 APERTURE LIST*
%ADD10C,0.100000*%
%ADD11C,0.975000*%
%ADD12R,2.500000X2.300000*%
%ADD13C,0.875000*%
%ADD14R,2.895600X5.410200*%
%ADD15R,3.810000X4.240000*%
%ADD16R,1.970000X0.600000*%
%ADD17R,2.290000X2.290000*%
%ADD18R,1.016000X0.558800*%
G04 APERTURE END LIST*
D10*
G04 #@! TO.C,U2*
G36*
X157280000Y-99680000D02*
X158090000Y-99680000D01*
X158090000Y-100490000D01*
X157280000Y-100490000D01*
X157280000Y-99680000D01*
G37*
G36*
X158310000Y-99680000D02*
X159120000Y-99680000D01*
X159120000Y-100490000D01*
X158310000Y-100490000D01*
X158310000Y-99680000D01*
G37*
G36*
X158310000Y-100710000D02*
X159120000Y-100710000D01*
X159120000Y-101520000D01*
X158310000Y-101520000D01*
X158310000Y-100710000D01*
G37*
G36*
X157280000Y-100710000D02*
X158090000Y-100710000D01*
X158090000Y-101520000D01*
X157280000Y-101520000D01*
X157280000Y-100710000D01*
G37*
G04 #@! TD*
G04 #@! TO.C,R1*
G36*
X152395142Y-101901174D02*
X152418803Y-101904684D01*
X152442007Y-101910496D01*
X152464529Y-101918554D01*
X152486153Y-101928782D01*
X152506670Y-101941079D01*
X152525883Y-101955329D01*
X152543607Y-101971393D01*
X152559671Y-101989117D01*
X152573921Y-102008330D01*
X152586218Y-102028847D01*
X152596446Y-102050471D01*
X152604504Y-102072993D01*
X152610316Y-102096197D01*
X152613826Y-102119858D01*
X152615000Y-102143750D01*
X152615000Y-103056250D01*
X152613826Y-103080142D01*
X152610316Y-103103803D01*
X152604504Y-103127007D01*
X152596446Y-103149529D01*
X152586218Y-103171153D01*
X152573921Y-103191670D01*
X152559671Y-103210883D01*
X152543607Y-103228607D01*
X152525883Y-103244671D01*
X152506670Y-103258921D01*
X152486153Y-103271218D01*
X152464529Y-103281446D01*
X152442007Y-103289504D01*
X152418803Y-103295316D01*
X152395142Y-103298826D01*
X152371250Y-103300000D01*
X151883750Y-103300000D01*
X151859858Y-103298826D01*
X151836197Y-103295316D01*
X151812993Y-103289504D01*
X151790471Y-103281446D01*
X151768847Y-103271218D01*
X151748330Y-103258921D01*
X151729117Y-103244671D01*
X151711393Y-103228607D01*
X151695329Y-103210883D01*
X151681079Y-103191670D01*
X151668782Y-103171153D01*
X151658554Y-103149529D01*
X151650496Y-103127007D01*
X151644684Y-103103803D01*
X151641174Y-103080142D01*
X151640000Y-103056250D01*
X151640000Y-102143750D01*
X151641174Y-102119858D01*
X151644684Y-102096197D01*
X151650496Y-102072993D01*
X151658554Y-102050471D01*
X151668782Y-102028847D01*
X151681079Y-102008330D01*
X151695329Y-101989117D01*
X151711393Y-101971393D01*
X151729117Y-101955329D01*
X151748330Y-101941079D01*
X151768847Y-101928782D01*
X151790471Y-101918554D01*
X151812993Y-101910496D01*
X151836197Y-101904684D01*
X151859858Y-101901174D01*
X151883750Y-101900000D01*
X152371250Y-101900000D01*
X152395142Y-101901174D01*
X152395142Y-101901174D01*
G37*
D11*
X152127500Y-102600000D03*
D10*
G36*
X154270142Y-101901174D02*
X154293803Y-101904684D01*
X154317007Y-101910496D01*
X154339529Y-101918554D01*
X154361153Y-101928782D01*
X154381670Y-101941079D01*
X154400883Y-101955329D01*
X154418607Y-101971393D01*
X154434671Y-101989117D01*
X154448921Y-102008330D01*
X154461218Y-102028847D01*
X154471446Y-102050471D01*
X154479504Y-102072993D01*
X154485316Y-102096197D01*
X154488826Y-102119858D01*
X154490000Y-102143750D01*
X154490000Y-103056250D01*
X154488826Y-103080142D01*
X154485316Y-103103803D01*
X154479504Y-103127007D01*
X154471446Y-103149529D01*
X154461218Y-103171153D01*
X154448921Y-103191670D01*
X154434671Y-103210883D01*
X154418607Y-103228607D01*
X154400883Y-103244671D01*
X154381670Y-103258921D01*
X154361153Y-103271218D01*
X154339529Y-103281446D01*
X154317007Y-103289504D01*
X154293803Y-103295316D01*
X154270142Y-103298826D01*
X154246250Y-103300000D01*
X153758750Y-103300000D01*
X153734858Y-103298826D01*
X153711197Y-103295316D01*
X153687993Y-103289504D01*
X153665471Y-103281446D01*
X153643847Y-103271218D01*
X153623330Y-103258921D01*
X153604117Y-103244671D01*
X153586393Y-103228607D01*
X153570329Y-103210883D01*
X153556079Y-103191670D01*
X153543782Y-103171153D01*
X153533554Y-103149529D01*
X153525496Y-103127007D01*
X153519684Y-103103803D01*
X153516174Y-103080142D01*
X153515000Y-103056250D01*
X153515000Y-102143750D01*
X153516174Y-102119858D01*
X153519684Y-102096197D01*
X153525496Y-102072993D01*
X153533554Y-102050471D01*
X153543782Y-102028847D01*
X153556079Y-102008330D01*
X153570329Y-101989117D01*
X153586393Y-101971393D01*
X153604117Y-101955329D01*
X153623330Y-101941079D01*
X153643847Y-101928782D01*
X153665471Y-101918554D01*
X153687993Y-101910496D01*
X153711197Y-101904684D01*
X153734858Y-101901174D01*
X153758750Y-101900000D01*
X154246250Y-101900000D01*
X154270142Y-101901174D01*
X154270142Y-101901174D01*
G37*
D11*
X154002500Y-102600000D03*
G04 #@! TD*
D10*
G04 #@! TO.C,C1*
G36*
X152780142Y-93626174D02*
X152803803Y-93629684D01*
X152827007Y-93635496D01*
X152849529Y-93643554D01*
X152871153Y-93653782D01*
X152891670Y-93666079D01*
X152910883Y-93680329D01*
X152928607Y-93696393D01*
X152944671Y-93714117D01*
X152958921Y-93733330D01*
X152971218Y-93753847D01*
X152981446Y-93775471D01*
X152989504Y-93797993D01*
X152995316Y-93821197D01*
X152998826Y-93844858D01*
X153000000Y-93868750D01*
X153000000Y-94356250D01*
X152998826Y-94380142D01*
X152995316Y-94403803D01*
X152989504Y-94427007D01*
X152981446Y-94449529D01*
X152971218Y-94471153D01*
X152958921Y-94491670D01*
X152944671Y-94510883D01*
X152928607Y-94528607D01*
X152910883Y-94544671D01*
X152891670Y-94558921D01*
X152871153Y-94571218D01*
X152849529Y-94581446D01*
X152827007Y-94589504D01*
X152803803Y-94595316D01*
X152780142Y-94598826D01*
X152756250Y-94600000D01*
X151843750Y-94600000D01*
X151819858Y-94598826D01*
X151796197Y-94595316D01*
X151772993Y-94589504D01*
X151750471Y-94581446D01*
X151728847Y-94571218D01*
X151708330Y-94558921D01*
X151689117Y-94544671D01*
X151671393Y-94528607D01*
X151655329Y-94510883D01*
X151641079Y-94491670D01*
X151628782Y-94471153D01*
X151618554Y-94449529D01*
X151610496Y-94427007D01*
X151604684Y-94403803D01*
X151601174Y-94380142D01*
X151600000Y-94356250D01*
X151600000Y-93868750D01*
X151601174Y-93844858D01*
X151604684Y-93821197D01*
X151610496Y-93797993D01*
X151618554Y-93775471D01*
X151628782Y-93753847D01*
X151641079Y-93733330D01*
X151655329Y-93714117D01*
X151671393Y-93696393D01*
X151689117Y-93680329D01*
X151708330Y-93666079D01*
X151728847Y-93653782D01*
X151750471Y-93643554D01*
X151772993Y-93635496D01*
X151796197Y-93629684D01*
X151819858Y-93626174D01*
X151843750Y-93625000D01*
X152756250Y-93625000D01*
X152780142Y-93626174D01*
X152780142Y-93626174D01*
G37*
D11*
X152300000Y-94112500D03*
D10*
G36*
X152780142Y-95501174D02*
X152803803Y-95504684D01*
X152827007Y-95510496D01*
X152849529Y-95518554D01*
X152871153Y-95528782D01*
X152891670Y-95541079D01*
X152910883Y-95555329D01*
X152928607Y-95571393D01*
X152944671Y-95589117D01*
X152958921Y-95608330D01*
X152971218Y-95628847D01*
X152981446Y-95650471D01*
X152989504Y-95672993D01*
X152995316Y-95696197D01*
X152998826Y-95719858D01*
X153000000Y-95743750D01*
X153000000Y-96231250D01*
X152998826Y-96255142D01*
X152995316Y-96278803D01*
X152989504Y-96302007D01*
X152981446Y-96324529D01*
X152971218Y-96346153D01*
X152958921Y-96366670D01*
X152944671Y-96385883D01*
X152928607Y-96403607D01*
X152910883Y-96419671D01*
X152891670Y-96433921D01*
X152871153Y-96446218D01*
X152849529Y-96456446D01*
X152827007Y-96464504D01*
X152803803Y-96470316D01*
X152780142Y-96473826D01*
X152756250Y-96475000D01*
X151843750Y-96475000D01*
X151819858Y-96473826D01*
X151796197Y-96470316D01*
X151772993Y-96464504D01*
X151750471Y-96456446D01*
X151728847Y-96446218D01*
X151708330Y-96433921D01*
X151689117Y-96419671D01*
X151671393Y-96403607D01*
X151655329Y-96385883D01*
X151641079Y-96366670D01*
X151628782Y-96346153D01*
X151618554Y-96324529D01*
X151610496Y-96302007D01*
X151604684Y-96278803D01*
X151601174Y-96255142D01*
X151600000Y-96231250D01*
X151600000Y-95743750D01*
X151601174Y-95719858D01*
X151604684Y-95696197D01*
X151610496Y-95672993D01*
X151618554Y-95650471D01*
X151628782Y-95628847D01*
X151641079Y-95608330D01*
X151655329Y-95589117D01*
X151671393Y-95571393D01*
X151689117Y-95555329D01*
X151708330Y-95541079D01*
X151728847Y-95528782D01*
X151750471Y-95518554D01*
X151772993Y-95510496D01*
X151796197Y-95504684D01*
X151819858Y-95501174D01*
X151843750Y-95500000D01*
X152756250Y-95500000D01*
X152780142Y-95501174D01*
X152780142Y-95501174D01*
G37*
D11*
X152300000Y-95987500D03*
G04 #@! TD*
D10*
G04 #@! TO.C,C2*
G36*
X159080142Y-94601174D02*
X159103803Y-94604684D01*
X159127007Y-94610496D01*
X159149529Y-94618554D01*
X159171153Y-94628782D01*
X159191670Y-94641079D01*
X159210883Y-94655329D01*
X159228607Y-94671393D01*
X159244671Y-94689117D01*
X159258921Y-94708330D01*
X159271218Y-94728847D01*
X159281446Y-94750471D01*
X159289504Y-94772993D01*
X159295316Y-94796197D01*
X159298826Y-94819858D01*
X159300000Y-94843750D01*
X159300000Y-95756250D01*
X159298826Y-95780142D01*
X159295316Y-95803803D01*
X159289504Y-95827007D01*
X159281446Y-95849529D01*
X159271218Y-95871153D01*
X159258921Y-95891670D01*
X159244671Y-95910883D01*
X159228607Y-95928607D01*
X159210883Y-95944671D01*
X159191670Y-95958921D01*
X159171153Y-95971218D01*
X159149529Y-95981446D01*
X159127007Y-95989504D01*
X159103803Y-95995316D01*
X159080142Y-95998826D01*
X159056250Y-96000000D01*
X158568750Y-96000000D01*
X158544858Y-95998826D01*
X158521197Y-95995316D01*
X158497993Y-95989504D01*
X158475471Y-95981446D01*
X158453847Y-95971218D01*
X158433330Y-95958921D01*
X158414117Y-95944671D01*
X158396393Y-95928607D01*
X158380329Y-95910883D01*
X158366079Y-95891670D01*
X158353782Y-95871153D01*
X158343554Y-95849529D01*
X158335496Y-95827007D01*
X158329684Y-95803803D01*
X158326174Y-95780142D01*
X158325000Y-95756250D01*
X158325000Y-94843750D01*
X158326174Y-94819858D01*
X158329684Y-94796197D01*
X158335496Y-94772993D01*
X158343554Y-94750471D01*
X158353782Y-94728847D01*
X158366079Y-94708330D01*
X158380329Y-94689117D01*
X158396393Y-94671393D01*
X158414117Y-94655329D01*
X158433330Y-94641079D01*
X158453847Y-94628782D01*
X158475471Y-94618554D01*
X158497993Y-94610496D01*
X158521197Y-94604684D01*
X158544858Y-94601174D01*
X158568750Y-94600000D01*
X159056250Y-94600000D01*
X159080142Y-94601174D01*
X159080142Y-94601174D01*
G37*
D11*
X158812500Y-95300000D03*
D10*
G36*
X160955142Y-94601174D02*
X160978803Y-94604684D01*
X161002007Y-94610496D01*
X161024529Y-94618554D01*
X161046153Y-94628782D01*
X161066670Y-94641079D01*
X161085883Y-94655329D01*
X161103607Y-94671393D01*
X161119671Y-94689117D01*
X161133921Y-94708330D01*
X161146218Y-94728847D01*
X161156446Y-94750471D01*
X161164504Y-94772993D01*
X161170316Y-94796197D01*
X161173826Y-94819858D01*
X161175000Y-94843750D01*
X161175000Y-95756250D01*
X161173826Y-95780142D01*
X161170316Y-95803803D01*
X161164504Y-95827007D01*
X161156446Y-95849529D01*
X161146218Y-95871153D01*
X161133921Y-95891670D01*
X161119671Y-95910883D01*
X161103607Y-95928607D01*
X161085883Y-95944671D01*
X161066670Y-95958921D01*
X161046153Y-95971218D01*
X161024529Y-95981446D01*
X161002007Y-95989504D01*
X160978803Y-95995316D01*
X160955142Y-95998826D01*
X160931250Y-96000000D01*
X160443750Y-96000000D01*
X160419858Y-95998826D01*
X160396197Y-95995316D01*
X160372993Y-95989504D01*
X160350471Y-95981446D01*
X160328847Y-95971218D01*
X160308330Y-95958921D01*
X160289117Y-95944671D01*
X160271393Y-95928607D01*
X160255329Y-95910883D01*
X160241079Y-95891670D01*
X160228782Y-95871153D01*
X160218554Y-95849529D01*
X160210496Y-95827007D01*
X160204684Y-95803803D01*
X160201174Y-95780142D01*
X160200000Y-95756250D01*
X160200000Y-94843750D01*
X160201174Y-94819858D01*
X160204684Y-94796197D01*
X160210496Y-94772993D01*
X160218554Y-94750471D01*
X160228782Y-94728847D01*
X160241079Y-94708330D01*
X160255329Y-94689117D01*
X160271393Y-94671393D01*
X160289117Y-94655329D01*
X160308330Y-94641079D01*
X160328847Y-94628782D01*
X160350471Y-94618554D01*
X160372993Y-94610496D01*
X160396197Y-94604684D01*
X160419858Y-94601174D01*
X160443750Y-94600000D01*
X160931250Y-94600000D01*
X160955142Y-94601174D01*
X160955142Y-94601174D01*
G37*
D11*
X160687500Y-95300000D03*
G04 #@! TD*
D10*
G04 #@! TO.C,C3*
G36*
X148430142Y-86376174D02*
X148453803Y-86379684D01*
X148477007Y-86385496D01*
X148499529Y-86393554D01*
X148521153Y-86403782D01*
X148541670Y-86416079D01*
X148560883Y-86430329D01*
X148578607Y-86446393D01*
X148594671Y-86464117D01*
X148608921Y-86483330D01*
X148621218Y-86503847D01*
X148631446Y-86525471D01*
X148639504Y-86547993D01*
X148645316Y-86571197D01*
X148648826Y-86594858D01*
X148650000Y-86618750D01*
X148650000Y-87106250D01*
X148648826Y-87130142D01*
X148645316Y-87153803D01*
X148639504Y-87177007D01*
X148631446Y-87199529D01*
X148621218Y-87221153D01*
X148608921Y-87241670D01*
X148594671Y-87260883D01*
X148578607Y-87278607D01*
X148560883Y-87294671D01*
X148541670Y-87308921D01*
X148521153Y-87321218D01*
X148499529Y-87331446D01*
X148477007Y-87339504D01*
X148453803Y-87345316D01*
X148430142Y-87348826D01*
X148406250Y-87350000D01*
X147493750Y-87350000D01*
X147469858Y-87348826D01*
X147446197Y-87345316D01*
X147422993Y-87339504D01*
X147400471Y-87331446D01*
X147378847Y-87321218D01*
X147358330Y-87308921D01*
X147339117Y-87294671D01*
X147321393Y-87278607D01*
X147305329Y-87260883D01*
X147291079Y-87241670D01*
X147278782Y-87221153D01*
X147268554Y-87199529D01*
X147260496Y-87177007D01*
X147254684Y-87153803D01*
X147251174Y-87130142D01*
X147250000Y-87106250D01*
X147250000Y-86618750D01*
X147251174Y-86594858D01*
X147254684Y-86571197D01*
X147260496Y-86547993D01*
X147268554Y-86525471D01*
X147278782Y-86503847D01*
X147291079Y-86483330D01*
X147305329Y-86464117D01*
X147321393Y-86446393D01*
X147339117Y-86430329D01*
X147358330Y-86416079D01*
X147378847Y-86403782D01*
X147400471Y-86393554D01*
X147422993Y-86385496D01*
X147446197Y-86379684D01*
X147469858Y-86376174D01*
X147493750Y-86375000D01*
X148406250Y-86375000D01*
X148430142Y-86376174D01*
X148430142Y-86376174D01*
G37*
D11*
X147950000Y-86862500D03*
D10*
G36*
X148430142Y-88251174D02*
X148453803Y-88254684D01*
X148477007Y-88260496D01*
X148499529Y-88268554D01*
X148521153Y-88278782D01*
X148541670Y-88291079D01*
X148560883Y-88305329D01*
X148578607Y-88321393D01*
X148594671Y-88339117D01*
X148608921Y-88358330D01*
X148621218Y-88378847D01*
X148631446Y-88400471D01*
X148639504Y-88422993D01*
X148645316Y-88446197D01*
X148648826Y-88469858D01*
X148650000Y-88493750D01*
X148650000Y-88981250D01*
X148648826Y-89005142D01*
X148645316Y-89028803D01*
X148639504Y-89052007D01*
X148631446Y-89074529D01*
X148621218Y-89096153D01*
X148608921Y-89116670D01*
X148594671Y-89135883D01*
X148578607Y-89153607D01*
X148560883Y-89169671D01*
X148541670Y-89183921D01*
X148521153Y-89196218D01*
X148499529Y-89206446D01*
X148477007Y-89214504D01*
X148453803Y-89220316D01*
X148430142Y-89223826D01*
X148406250Y-89225000D01*
X147493750Y-89225000D01*
X147469858Y-89223826D01*
X147446197Y-89220316D01*
X147422993Y-89214504D01*
X147400471Y-89206446D01*
X147378847Y-89196218D01*
X147358330Y-89183921D01*
X147339117Y-89169671D01*
X147321393Y-89153607D01*
X147305329Y-89135883D01*
X147291079Y-89116670D01*
X147278782Y-89096153D01*
X147268554Y-89074529D01*
X147260496Y-89052007D01*
X147254684Y-89028803D01*
X147251174Y-89005142D01*
X147250000Y-88981250D01*
X147250000Y-88493750D01*
X147251174Y-88469858D01*
X147254684Y-88446197D01*
X147260496Y-88422993D01*
X147268554Y-88400471D01*
X147278782Y-88378847D01*
X147291079Y-88358330D01*
X147305329Y-88339117D01*
X147321393Y-88321393D01*
X147339117Y-88305329D01*
X147358330Y-88291079D01*
X147378847Y-88278782D01*
X147400471Y-88268554D01*
X147422993Y-88260496D01*
X147446197Y-88254684D01*
X147469858Y-88251174D01*
X147493750Y-88250000D01*
X148406250Y-88250000D01*
X148430142Y-88251174D01*
X148430142Y-88251174D01*
G37*
D11*
X147950000Y-88737500D03*
G04 #@! TD*
D10*
G04 #@! TO.C,C4*
G36*
X153230142Y-86438674D02*
X153253803Y-86442184D01*
X153277007Y-86447996D01*
X153299529Y-86456054D01*
X153321153Y-86466282D01*
X153341670Y-86478579D01*
X153360883Y-86492829D01*
X153378607Y-86508893D01*
X153394671Y-86526617D01*
X153408921Y-86545830D01*
X153421218Y-86566347D01*
X153431446Y-86587971D01*
X153439504Y-86610493D01*
X153445316Y-86633697D01*
X153448826Y-86657358D01*
X153450000Y-86681250D01*
X153450000Y-87168750D01*
X153448826Y-87192642D01*
X153445316Y-87216303D01*
X153439504Y-87239507D01*
X153431446Y-87262029D01*
X153421218Y-87283653D01*
X153408921Y-87304170D01*
X153394671Y-87323383D01*
X153378607Y-87341107D01*
X153360883Y-87357171D01*
X153341670Y-87371421D01*
X153321153Y-87383718D01*
X153299529Y-87393946D01*
X153277007Y-87402004D01*
X153253803Y-87407816D01*
X153230142Y-87411326D01*
X153206250Y-87412500D01*
X152293750Y-87412500D01*
X152269858Y-87411326D01*
X152246197Y-87407816D01*
X152222993Y-87402004D01*
X152200471Y-87393946D01*
X152178847Y-87383718D01*
X152158330Y-87371421D01*
X152139117Y-87357171D01*
X152121393Y-87341107D01*
X152105329Y-87323383D01*
X152091079Y-87304170D01*
X152078782Y-87283653D01*
X152068554Y-87262029D01*
X152060496Y-87239507D01*
X152054684Y-87216303D01*
X152051174Y-87192642D01*
X152050000Y-87168750D01*
X152050000Y-86681250D01*
X152051174Y-86657358D01*
X152054684Y-86633697D01*
X152060496Y-86610493D01*
X152068554Y-86587971D01*
X152078782Y-86566347D01*
X152091079Y-86545830D01*
X152105329Y-86526617D01*
X152121393Y-86508893D01*
X152139117Y-86492829D01*
X152158330Y-86478579D01*
X152178847Y-86466282D01*
X152200471Y-86456054D01*
X152222993Y-86447996D01*
X152246197Y-86442184D01*
X152269858Y-86438674D01*
X152293750Y-86437500D01*
X153206250Y-86437500D01*
X153230142Y-86438674D01*
X153230142Y-86438674D01*
G37*
D11*
X152750000Y-86925000D03*
D10*
G36*
X153230142Y-88313674D02*
X153253803Y-88317184D01*
X153277007Y-88322996D01*
X153299529Y-88331054D01*
X153321153Y-88341282D01*
X153341670Y-88353579D01*
X153360883Y-88367829D01*
X153378607Y-88383893D01*
X153394671Y-88401617D01*
X153408921Y-88420830D01*
X153421218Y-88441347D01*
X153431446Y-88462971D01*
X153439504Y-88485493D01*
X153445316Y-88508697D01*
X153448826Y-88532358D01*
X153450000Y-88556250D01*
X153450000Y-89043750D01*
X153448826Y-89067642D01*
X153445316Y-89091303D01*
X153439504Y-89114507D01*
X153431446Y-89137029D01*
X153421218Y-89158653D01*
X153408921Y-89179170D01*
X153394671Y-89198383D01*
X153378607Y-89216107D01*
X153360883Y-89232171D01*
X153341670Y-89246421D01*
X153321153Y-89258718D01*
X153299529Y-89268946D01*
X153277007Y-89277004D01*
X153253803Y-89282816D01*
X153230142Y-89286326D01*
X153206250Y-89287500D01*
X152293750Y-89287500D01*
X152269858Y-89286326D01*
X152246197Y-89282816D01*
X152222993Y-89277004D01*
X152200471Y-89268946D01*
X152178847Y-89258718D01*
X152158330Y-89246421D01*
X152139117Y-89232171D01*
X152121393Y-89216107D01*
X152105329Y-89198383D01*
X152091079Y-89179170D01*
X152078782Y-89158653D01*
X152068554Y-89137029D01*
X152060496Y-89114507D01*
X152054684Y-89091303D01*
X152051174Y-89067642D01*
X152050000Y-89043750D01*
X152050000Y-88556250D01*
X152051174Y-88532358D01*
X152054684Y-88508697D01*
X152060496Y-88485493D01*
X152068554Y-88462971D01*
X152078782Y-88441347D01*
X152091079Y-88420830D01*
X152105329Y-88401617D01*
X152121393Y-88383893D01*
X152139117Y-88367829D01*
X152158330Y-88353579D01*
X152178847Y-88341282D01*
X152200471Y-88331054D01*
X152222993Y-88322996D01*
X152246197Y-88317184D01*
X152269858Y-88313674D01*
X152293750Y-88312500D01*
X153206250Y-88312500D01*
X153230142Y-88313674D01*
X153230142Y-88313674D01*
G37*
D11*
X152750000Y-88800000D03*
G04 #@! TD*
D12*
G04 #@! TO.C,D1*
X160700000Y-90350000D03*
X156400000Y-90350000D03*
G04 #@! TD*
D10*
G04 #@! TO.C,D2*
G36*
X170152691Y-71176053D02*
X170173926Y-71179203D01*
X170194750Y-71184419D01*
X170214962Y-71191651D01*
X170234368Y-71200830D01*
X170252781Y-71211866D01*
X170270024Y-71224654D01*
X170285930Y-71239070D01*
X170300346Y-71254976D01*
X170313134Y-71272219D01*
X170324170Y-71290632D01*
X170333349Y-71310038D01*
X170340581Y-71330250D01*
X170345797Y-71351074D01*
X170348947Y-71372309D01*
X170350000Y-71393750D01*
X170350000Y-71906250D01*
X170348947Y-71927691D01*
X170345797Y-71948926D01*
X170340581Y-71969750D01*
X170333349Y-71989962D01*
X170324170Y-72009368D01*
X170313134Y-72027781D01*
X170300346Y-72045024D01*
X170285930Y-72060930D01*
X170270024Y-72075346D01*
X170252781Y-72088134D01*
X170234368Y-72099170D01*
X170214962Y-72108349D01*
X170194750Y-72115581D01*
X170173926Y-72120797D01*
X170152691Y-72123947D01*
X170131250Y-72125000D01*
X169693750Y-72125000D01*
X169672309Y-72123947D01*
X169651074Y-72120797D01*
X169630250Y-72115581D01*
X169610038Y-72108349D01*
X169590632Y-72099170D01*
X169572219Y-72088134D01*
X169554976Y-72075346D01*
X169539070Y-72060930D01*
X169524654Y-72045024D01*
X169511866Y-72027781D01*
X169500830Y-72009368D01*
X169491651Y-71989962D01*
X169484419Y-71969750D01*
X169479203Y-71948926D01*
X169476053Y-71927691D01*
X169475000Y-71906250D01*
X169475000Y-71393750D01*
X169476053Y-71372309D01*
X169479203Y-71351074D01*
X169484419Y-71330250D01*
X169491651Y-71310038D01*
X169500830Y-71290632D01*
X169511866Y-71272219D01*
X169524654Y-71254976D01*
X169539070Y-71239070D01*
X169554976Y-71224654D01*
X169572219Y-71211866D01*
X169590632Y-71200830D01*
X169610038Y-71191651D01*
X169630250Y-71184419D01*
X169651074Y-71179203D01*
X169672309Y-71176053D01*
X169693750Y-71175000D01*
X170131250Y-71175000D01*
X170152691Y-71176053D01*
X170152691Y-71176053D01*
G37*
D13*
X169912500Y-71650000D03*
D10*
G36*
X171727691Y-71176053D02*
X171748926Y-71179203D01*
X171769750Y-71184419D01*
X171789962Y-71191651D01*
X171809368Y-71200830D01*
X171827781Y-71211866D01*
X171845024Y-71224654D01*
X171860930Y-71239070D01*
X171875346Y-71254976D01*
X171888134Y-71272219D01*
X171899170Y-71290632D01*
X171908349Y-71310038D01*
X171915581Y-71330250D01*
X171920797Y-71351074D01*
X171923947Y-71372309D01*
X171925000Y-71393750D01*
X171925000Y-71906250D01*
X171923947Y-71927691D01*
X171920797Y-71948926D01*
X171915581Y-71969750D01*
X171908349Y-71989962D01*
X171899170Y-72009368D01*
X171888134Y-72027781D01*
X171875346Y-72045024D01*
X171860930Y-72060930D01*
X171845024Y-72075346D01*
X171827781Y-72088134D01*
X171809368Y-72099170D01*
X171789962Y-72108349D01*
X171769750Y-72115581D01*
X171748926Y-72120797D01*
X171727691Y-72123947D01*
X171706250Y-72125000D01*
X171268750Y-72125000D01*
X171247309Y-72123947D01*
X171226074Y-72120797D01*
X171205250Y-72115581D01*
X171185038Y-72108349D01*
X171165632Y-72099170D01*
X171147219Y-72088134D01*
X171129976Y-72075346D01*
X171114070Y-72060930D01*
X171099654Y-72045024D01*
X171086866Y-72027781D01*
X171075830Y-72009368D01*
X171066651Y-71989962D01*
X171059419Y-71969750D01*
X171054203Y-71948926D01*
X171051053Y-71927691D01*
X171050000Y-71906250D01*
X171050000Y-71393750D01*
X171051053Y-71372309D01*
X171054203Y-71351074D01*
X171059419Y-71330250D01*
X171066651Y-71310038D01*
X171075830Y-71290632D01*
X171086866Y-71272219D01*
X171099654Y-71254976D01*
X171114070Y-71239070D01*
X171129976Y-71224654D01*
X171147219Y-71211866D01*
X171165632Y-71200830D01*
X171185038Y-71191651D01*
X171205250Y-71184419D01*
X171226074Y-71179203D01*
X171247309Y-71176053D01*
X171268750Y-71175000D01*
X171706250Y-71175000D01*
X171727691Y-71176053D01*
X171727691Y-71176053D01*
G37*
D13*
X171487500Y-71650000D03*
G04 #@! TD*
D14*
G04 #@! TO.C,L1*
X153348600Y-78150000D03*
X163051400Y-78150000D03*
G04 #@! TD*
D10*
G04 #@! TO.C,R2*
G36*
X167480142Y-71026174D02*
X167503803Y-71029684D01*
X167527007Y-71035496D01*
X167549529Y-71043554D01*
X167571153Y-71053782D01*
X167591670Y-71066079D01*
X167610883Y-71080329D01*
X167628607Y-71096393D01*
X167644671Y-71114117D01*
X167658921Y-71133330D01*
X167671218Y-71153847D01*
X167681446Y-71175471D01*
X167689504Y-71197993D01*
X167695316Y-71221197D01*
X167698826Y-71244858D01*
X167700000Y-71268750D01*
X167700000Y-71756250D01*
X167698826Y-71780142D01*
X167695316Y-71803803D01*
X167689504Y-71827007D01*
X167681446Y-71849529D01*
X167671218Y-71871153D01*
X167658921Y-71891670D01*
X167644671Y-71910883D01*
X167628607Y-71928607D01*
X167610883Y-71944671D01*
X167591670Y-71958921D01*
X167571153Y-71971218D01*
X167549529Y-71981446D01*
X167527007Y-71989504D01*
X167503803Y-71995316D01*
X167480142Y-71998826D01*
X167456250Y-72000000D01*
X166543750Y-72000000D01*
X166519858Y-71998826D01*
X166496197Y-71995316D01*
X166472993Y-71989504D01*
X166450471Y-71981446D01*
X166428847Y-71971218D01*
X166408330Y-71958921D01*
X166389117Y-71944671D01*
X166371393Y-71928607D01*
X166355329Y-71910883D01*
X166341079Y-71891670D01*
X166328782Y-71871153D01*
X166318554Y-71849529D01*
X166310496Y-71827007D01*
X166304684Y-71803803D01*
X166301174Y-71780142D01*
X166300000Y-71756250D01*
X166300000Y-71268750D01*
X166301174Y-71244858D01*
X166304684Y-71221197D01*
X166310496Y-71197993D01*
X166318554Y-71175471D01*
X166328782Y-71153847D01*
X166341079Y-71133330D01*
X166355329Y-71114117D01*
X166371393Y-71096393D01*
X166389117Y-71080329D01*
X166408330Y-71066079D01*
X166428847Y-71053782D01*
X166450471Y-71043554D01*
X166472993Y-71035496D01*
X166496197Y-71029684D01*
X166519858Y-71026174D01*
X166543750Y-71025000D01*
X167456250Y-71025000D01*
X167480142Y-71026174D01*
X167480142Y-71026174D01*
G37*
D11*
X167000000Y-71512500D03*
D10*
G36*
X167480142Y-72901174D02*
X167503803Y-72904684D01*
X167527007Y-72910496D01*
X167549529Y-72918554D01*
X167571153Y-72928782D01*
X167591670Y-72941079D01*
X167610883Y-72955329D01*
X167628607Y-72971393D01*
X167644671Y-72989117D01*
X167658921Y-73008330D01*
X167671218Y-73028847D01*
X167681446Y-73050471D01*
X167689504Y-73072993D01*
X167695316Y-73096197D01*
X167698826Y-73119858D01*
X167700000Y-73143750D01*
X167700000Y-73631250D01*
X167698826Y-73655142D01*
X167695316Y-73678803D01*
X167689504Y-73702007D01*
X167681446Y-73724529D01*
X167671218Y-73746153D01*
X167658921Y-73766670D01*
X167644671Y-73785883D01*
X167628607Y-73803607D01*
X167610883Y-73819671D01*
X167591670Y-73833921D01*
X167571153Y-73846218D01*
X167549529Y-73856446D01*
X167527007Y-73864504D01*
X167503803Y-73870316D01*
X167480142Y-73873826D01*
X167456250Y-73875000D01*
X166543750Y-73875000D01*
X166519858Y-73873826D01*
X166496197Y-73870316D01*
X166472993Y-73864504D01*
X166450471Y-73856446D01*
X166428847Y-73846218D01*
X166408330Y-73833921D01*
X166389117Y-73819671D01*
X166371393Y-73803607D01*
X166355329Y-73785883D01*
X166341079Y-73766670D01*
X166328782Y-73746153D01*
X166318554Y-73724529D01*
X166310496Y-73702007D01*
X166304684Y-73678803D01*
X166301174Y-73655142D01*
X166300000Y-73631250D01*
X166300000Y-73143750D01*
X166301174Y-73119858D01*
X166304684Y-73096197D01*
X166310496Y-73072993D01*
X166318554Y-73050471D01*
X166328782Y-73028847D01*
X166341079Y-73008330D01*
X166355329Y-72989117D01*
X166371393Y-72971393D01*
X166389117Y-72955329D01*
X166408330Y-72941079D01*
X166428847Y-72928782D01*
X166450471Y-72918554D01*
X166472993Y-72910496D01*
X166496197Y-72904684D01*
X166519858Y-72901174D01*
X166543750Y-72900000D01*
X167456250Y-72900000D01*
X167480142Y-72901174D01*
X167480142Y-72901174D01*
G37*
D11*
X167000000Y-73387500D03*
G04 #@! TD*
D15*
G04 #@! TO.C,RV1*
X95800000Y-104440000D03*
X95800000Y-98060000D03*
G04 #@! TD*
D16*
G04 #@! TO.C,U2*
X160675000Y-98695000D03*
X160675000Y-99965000D03*
X160675000Y-101235000D03*
X160675000Y-102505000D03*
X155725000Y-98695000D03*
X155725000Y-99965000D03*
X155725000Y-101235000D03*
X155725000Y-102505000D03*
D17*
X158200000Y-100600000D03*
G04 #@! TD*
D18*
G04 #@! TO.C,U4*
X192255400Y-92010200D03*
X192255400Y-93889800D03*
X194744600Y-92950000D03*
G04 #@! TD*
M02*
