M48
;DRILL file {KiCad 5.0.2-bee76a0~70~ubuntu18.04.1} date Sun 07 Apr 2019 03:27:43 PM PDT
;FORMAT={-:-/ absolute / inch / decimal}
FMAT,2
INCH,TZ
T1C0.0157
T2C0.0394
T3C0.0400
T4C0.0512
T5C0.0551
T6C0.0787
T7C0.1000
T8C0.1181
T9C0.1575
%
G90
G05
T1
X6.1083Y-3.8465
X6.1673Y-2.9035
X6.1732Y-3.3957
X6.2008Y-3.7303
X6.4075Y-4.0394
T2
X7.8051Y-3.5374
X7.8051Y-3.8327
X4.7008Y-3.7059
X4.7008Y-4.3059
X5.8031Y-3.7059
X5.8031Y-4.0059
T3
X6.7067Y-3.2248
X6.7067Y-3.3248
X6.7067Y-3.4248
X6.7067Y-3.5248
X6.7067Y-3.6248
X6.7067Y-3.7248
X6.7067Y-3.8248
X6.7067Y-3.9248
X6.7067Y-4.0248
X6.7067Y-4.1248
X6.7067Y-4.2248
X6.7067Y-4.3248
X7.4067Y-3.2248
X7.4067Y-3.3248
X7.4067Y-3.4248
X7.4067Y-3.5248
X7.4067Y-3.6248
X7.4067Y-3.7248
X7.4067Y-3.8248
X7.4067Y-3.9248
X7.4067Y-4.0248
X7.4067Y-4.1248
X7.4067Y-4.2248
X7.4067Y-4.3248
T4
X4.2913Y-3.8051
X4.2913Y-4.002
X4.2913Y-4.1988
T5
X8.3957Y-3.5374
X8.3957Y-3.8327
X8.5925Y-3.5374
X8.5925Y-3.8327
T6
X5.124Y-3.9705
X5.5492Y-3.6555
X6.4193Y-4.3071
X7.5748Y-4.4665
T7
X9.2114Y-3.6752
X9.3764Y-3.4252
X9.3764Y-3.9252
T8
X5.5689Y-3.9055
T9
X3.7697Y-4.3524
X3.7756Y-3.6102
T0
M30
