G04 #@! TF.GenerationSoftware,KiCad,Pcbnew,(5.0.2)-1*
G04 #@! TF.CreationDate,2019-04-08T19:56:43-07:00*
G04 #@! TF.ProjectId,smartplug,736d6172-7470-46c7-9567-2e6b69636164,rev?*
G04 #@! TF.SameCoordinates,Original*
G04 #@! TF.FileFunction,Legend,Bot*
G04 #@! TF.FilePolarity,Positive*
%FSLAX46Y46*%
G04 Gerber Fmt 4.6, Leading zero omitted, Abs format (unit mm)*
G04 Created by KiCad (PCBNEW (5.0.2)-1) date 4/8/2019 7:56:43 PM*
%MOMM*%
%LPD*%
G01*
G04 APERTURE LIST*
%ADD10C,0.200000*%
%ADD11C,0.050000*%
G04 APERTURE END LIST*
D10*
G04 #@! TO.C,RV1*
X145115000Y-100113000D02*
X145115000Y-90387000D01*
X140085000Y-90387000D02*
X140085000Y-100113000D01*
X143023610Y-101250000D02*
G75*
G03X143023610Y-101250000I-223610J0D01*
G01*
D11*
X147776088Y-89997672D02*
X147028626Y-89474449D01*
X147776088Y-89100718D02*
X146206418Y-89100718D01*
X146206418Y-89698687D01*
X146281165Y-89848180D01*
X146355911Y-89922926D01*
X146505403Y-89997672D01*
X146729642Y-89997672D01*
X146879134Y-89922926D01*
X146953880Y-89848180D01*
X147028626Y-89698687D01*
X147028626Y-89100718D01*
X146206418Y-90446149D02*
X147776088Y-90969373D01*
X146206418Y-91492596D01*
X147776088Y-92838027D02*
X147776088Y-91941073D01*
X147776088Y-92389550D02*
X146206418Y-92389550D01*
X146430657Y-92240058D01*
X146580149Y-92090565D01*
X146654895Y-91941073D01*
X146349234Y-94005799D02*
X147890024Y-94519395D01*
X146349234Y-95032992D01*
X147890024Y-96206927D02*
X147082943Y-96206927D01*
X146936201Y-96133556D01*
X146862830Y-95986815D01*
X146862830Y-95693331D01*
X146936201Y-95546589D01*
X147816653Y-96206927D02*
X147890024Y-96060185D01*
X147890024Y-95693331D01*
X147816653Y-95546589D01*
X147669911Y-95473218D01*
X147523169Y-95473218D01*
X147376427Y-95546589D01*
X147303056Y-95693331D01*
X147303056Y-96060185D01*
X147229685Y-96206927D01*
X147890024Y-96940637D02*
X146862830Y-96940637D01*
X147156314Y-96940637D02*
X147009572Y-97014008D01*
X146936201Y-97087379D01*
X146862830Y-97234121D01*
X146862830Y-97380863D01*
X147890024Y-97894459D02*
X146862830Y-97894459D01*
X146349234Y-97894459D02*
X146422605Y-97821088D01*
X146495975Y-97894459D01*
X146422605Y-97967830D01*
X146349234Y-97894459D01*
X146495975Y-97894459D01*
X147816653Y-98554798D02*
X147890024Y-98701540D01*
X147890024Y-98995024D01*
X147816653Y-99141765D01*
X147669911Y-99215136D01*
X147596540Y-99215136D01*
X147449798Y-99141765D01*
X147376427Y-98995024D01*
X147376427Y-98774911D01*
X147303056Y-98628169D01*
X147156314Y-98554798D01*
X147082943Y-98554798D01*
X146936201Y-98628169D01*
X146862830Y-98774911D01*
X146862830Y-98995024D01*
X146936201Y-99141765D01*
X146862830Y-99655362D02*
X146862830Y-100242330D01*
X146349234Y-99875475D02*
X147669911Y-99875475D01*
X147816653Y-99948846D01*
X147890024Y-100095588D01*
X147890024Y-100242330D01*
X147890024Y-100976039D02*
X147816653Y-100829297D01*
X147743282Y-100755926D01*
X147596540Y-100682555D01*
X147156314Y-100682555D01*
X147009572Y-100755926D01*
X146936201Y-100829297D01*
X146862830Y-100976039D01*
X146862830Y-101196152D01*
X146936201Y-101342894D01*
X147009572Y-101416265D01*
X147156314Y-101489636D01*
X147596540Y-101489636D01*
X147743282Y-101416265D01*
X147816653Y-101342894D01*
X147890024Y-101196152D01*
X147890024Y-100976039D01*
X147890024Y-102149975D02*
X146862830Y-102149975D01*
X147156314Y-102149975D02*
X147009572Y-102223345D01*
X146936201Y-102296716D01*
X146862830Y-102443458D01*
X146862830Y-102590200D01*
G04 #@! TD*
M02*
