G04 #@! TF.GenerationSoftware,KiCad,Pcbnew,5.0.2-bee76a0~70~ubuntu18.04.1*
G04 #@! TF.CreationDate,2019-04-07T15:27:48-07:00*
G04 #@! TF.ProjectId,smartplug,736d6172-7470-46c7-9567-2e6b69636164,rev?*
G04 #@! TF.SameCoordinates,Original*
G04 #@! TF.FileFunction,Soldermask,Bot*
G04 #@! TF.FilePolarity,Negative*
%FSLAX46Y46*%
G04 Gerber Fmt 4.6, Leading zero omitted, Abs format (unit mm)*
G04 Created by KiCad (PCBNEW 5.0.2-bee76a0~70~ubuntu18.04.1) date Sun 07 Apr 2019 03:27:48 PM PDT*
%MOMM*%
%LPD*%
G01*
G04 APERTURE LIST*
%ADD10C,0.100000*%
G04 APERTURE END LIST*
D10*
G36*
X188419003Y-108897275D02*
X188419005Y-108897276D01*
X188419006Y-108897276D01*
X188599320Y-108971964D01*
X188599321Y-108971965D01*
X188761601Y-109080397D01*
X188899603Y-109218399D01*
X188899605Y-109218402D01*
X189008036Y-109380680D01*
X189082724Y-109560994D01*
X189120800Y-109752415D01*
X189120800Y-109947585D01*
X189082724Y-110139006D01*
X189008036Y-110319320D01*
X189008035Y-110319321D01*
X188899603Y-110481601D01*
X188761601Y-110619603D01*
X188761598Y-110619605D01*
X188599320Y-110728036D01*
X188419006Y-110802724D01*
X188419005Y-110802724D01*
X188419003Y-110802725D01*
X188227587Y-110840800D01*
X188032413Y-110840800D01*
X187840997Y-110802725D01*
X187840995Y-110802724D01*
X187840994Y-110802724D01*
X187660680Y-110728036D01*
X187498402Y-110619605D01*
X187498399Y-110619603D01*
X187360397Y-110481601D01*
X187251965Y-110319321D01*
X187251964Y-110319320D01*
X187177276Y-110139006D01*
X187139200Y-109947585D01*
X187139200Y-109752415D01*
X187177276Y-109560994D01*
X187251964Y-109380680D01*
X187360395Y-109218402D01*
X187360397Y-109218399D01*
X187498399Y-109080397D01*
X187660679Y-108971965D01*
X187660680Y-108971964D01*
X187840994Y-108897276D01*
X187840995Y-108897276D01*
X187840997Y-108897275D01*
X188032413Y-108859200D01*
X188227587Y-108859200D01*
X188419003Y-108897275D01*
X188419003Y-108897275D01*
G37*
G36*
X170639003Y-108897275D02*
X170639005Y-108897276D01*
X170639006Y-108897276D01*
X170819320Y-108971964D01*
X170819321Y-108971965D01*
X170981601Y-109080397D01*
X171119603Y-109218399D01*
X171119605Y-109218402D01*
X171228036Y-109380680D01*
X171302724Y-109560994D01*
X171340800Y-109752415D01*
X171340800Y-109947585D01*
X171302724Y-110139006D01*
X171228036Y-110319320D01*
X171228035Y-110319321D01*
X171119603Y-110481601D01*
X170981601Y-110619603D01*
X170981598Y-110619605D01*
X170819320Y-110728036D01*
X170639006Y-110802724D01*
X170639005Y-110802724D01*
X170639003Y-110802725D01*
X170447587Y-110840800D01*
X170252413Y-110840800D01*
X170060997Y-110802725D01*
X170060995Y-110802724D01*
X170060994Y-110802724D01*
X169880680Y-110728036D01*
X169718402Y-110619605D01*
X169718399Y-110619603D01*
X169580397Y-110481601D01*
X169471965Y-110319321D01*
X169471964Y-110319320D01*
X169397276Y-110139006D01*
X169359200Y-109947585D01*
X169359200Y-109752415D01*
X169397276Y-109560994D01*
X169471964Y-109380680D01*
X169580395Y-109218402D01*
X169580397Y-109218399D01*
X169718399Y-109080397D01*
X169880679Y-108971965D01*
X169880680Y-108971964D01*
X170060994Y-108897276D01*
X170060995Y-108897276D01*
X170060997Y-108897275D01*
X170252413Y-108859200D01*
X170447587Y-108859200D01*
X170639003Y-108897275D01*
X170639003Y-108897275D01*
G37*
G36*
X120205000Y-110175000D02*
X118595000Y-110175000D01*
X118595000Y-108565000D01*
X120205000Y-108565000D01*
X120205000Y-110175000D01*
X120205000Y-110175000D01*
G37*
G36*
X188419003Y-106357275D02*
X188419005Y-106357276D01*
X188419006Y-106357276D01*
X188599320Y-106431964D01*
X188599321Y-106431965D01*
X188761601Y-106540397D01*
X188899603Y-106678399D01*
X188899605Y-106678402D01*
X189008036Y-106840680D01*
X189082724Y-107020994D01*
X189120800Y-107212415D01*
X189120800Y-107407585D01*
X189082724Y-107599006D01*
X189008036Y-107779320D01*
X189008035Y-107779321D01*
X188899603Y-107941601D01*
X188761601Y-108079603D01*
X188761598Y-108079605D01*
X188599320Y-108188036D01*
X188419006Y-108262724D01*
X188419005Y-108262724D01*
X188419003Y-108262725D01*
X188227587Y-108300800D01*
X188032413Y-108300800D01*
X187840997Y-108262725D01*
X187840995Y-108262724D01*
X187840994Y-108262724D01*
X187660680Y-108188036D01*
X187498402Y-108079605D01*
X187498399Y-108079603D01*
X187360397Y-107941601D01*
X187251965Y-107779321D01*
X187251964Y-107779320D01*
X187177276Y-107599006D01*
X187139200Y-107407585D01*
X187139200Y-107212415D01*
X187177276Y-107020994D01*
X187251964Y-106840680D01*
X187360395Y-106678402D01*
X187360397Y-106678399D01*
X187498399Y-106540397D01*
X187660679Y-106431965D01*
X187660680Y-106431964D01*
X187840994Y-106357276D01*
X187840995Y-106357276D01*
X187840997Y-106357275D01*
X188032413Y-106319200D01*
X188227587Y-106319200D01*
X188419003Y-106357275D01*
X188419003Y-106357275D01*
G37*
G36*
X170639003Y-106357275D02*
X170639005Y-106357276D01*
X170639006Y-106357276D01*
X170819320Y-106431964D01*
X170819321Y-106431965D01*
X170981601Y-106540397D01*
X171119603Y-106678399D01*
X171119605Y-106678402D01*
X171228036Y-106840680D01*
X171302724Y-107020994D01*
X171340800Y-107212415D01*
X171340800Y-107407585D01*
X171302724Y-107599006D01*
X171228036Y-107779320D01*
X171228035Y-107779321D01*
X171119603Y-107941601D01*
X170981601Y-108079603D01*
X170981598Y-108079605D01*
X170819320Y-108188036D01*
X170639006Y-108262724D01*
X170639005Y-108262724D01*
X170639003Y-108262725D01*
X170447587Y-108300800D01*
X170252413Y-108300800D01*
X170060997Y-108262725D01*
X170060995Y-108262724D01*
X170060994Y-108262724D01*
X169880680Y-108188036D01*
X169718402Y-108079605D01*
X169718399Y-108079603D01*
X169580397Y-107941601D01*
X169471965Y-107779321D01*
X169471964Y-107779320D01*
X169397276Y-107599006D01*
X169359200Y-107407585D01*
X169359200Y-107212415D01*
X169397276Y-107020994D01*
X169471964Y-106840680D01*
X169580395Y-106678402D01*
X169580397Y-106678399D01*
X169718399Y-106540397D01*
X169880679Y-106431965D01*
X169880680Y-106431964D01*
X170060994Y-106357276D01*
X170060995Y-106357276D01*
X170060997Y-106357275D01*
X170252413Y-106319200D01*
X170447587Y-106319200D01*
X170639003Y-106357275D01*
X170639003Y-106357275D01*
G37*
G36*
X110351000Y-108001000D02*
X107649000Y-108001000D01*
X107649000Y-105299000D01*
X110351000Y-105299000D01*
X110351000Y-108001000D01*
X110351000Y-108001000D01*
G37*
G36*
X170639003Y-103817275D02*
X170639005Y-103817276D01*
X170639006Y-103817276D01*
X170819320Y-103891964D01*
X170819321Y-103891965D01*
X170981601Y-104000397D01*
X171119603Y-104138399D01*
X171119605Y-104138402D01*
X171228036Y-104300680D01*
X171302724Y-104480994D01*
X171340800Y-104672415D01*
X171340800Y-104867585D01*
X171302724Y-105059006D01*
X171228036Y-105239320D01*
X171228035Y-105239321D01*
X171119603Y-105401601D01*
X170981601Y-105539603D01*
X170981598Y-105539605D01*
X170819320Y-105648036D01*
X170639006Y-105722724D01*
X170639005Y-105722724D01*
X170639003Y-105722725D01*
X170447587Y-105760800D01*
X170252413Y-105760800D01*
X170060997Y-105722725D01*
X170060995Y-105722724D01*
X170060994Y-105722724D01*
X169880680Y-105648036D01*
X169718402Y-105539605D01*
X169718399Y-105539603D01*
X169580397Y-105401601D01*
X169471965Y-105239321D01*
X169471964Y-105239320D01*
X169397276Y-105059006D01*
X169359200Y-104867585D01*
X169359200Y-104672415D01*
X169397276Y-104480994D01*
X169471964Y-104300680D01*
X169580395Y-104138402D01*
X169580397Y-104138399D01*
X169718399Y-104000397D01*
X169880679Y-103891965D01*
X169880680Y-103891964D01*
X170060994Y-103817276D01*
X170060995Y-103817276D01*
X170060997Y-103817275D01*
X170252413Y-103779200D01*
X170447587Y-103779200D01*
X170639003Y-103817275D01*
X170639003Y-103817275D01*
G37*
G36*
X188419003Y-103817275D02*
X188419005Y-103817276D01*
X188419006Y-103817276D01*
X188599320Y-103891964D01*
X188599321Y-103891965D01*
X188761601Y-104000397D01*
X188899603Y-104138399D01*
X188899605Y-104138402D01*
X189008036Y-104300680D01*
X189082724Y-104480994D01*
X189120800Y-104672415D01*
X189120800Y-104867585D01*
X189082724Y-105059006D01*
X189008036Y-105239320D01*
X189008035Y-105239321D01*
X188899603Y-105401601D01*
X188761601Y-105539603D01*
X188761598Y-105539605D01*
X188599320Y-105648036D01*
X188419006Y-105722724D01*
X188419005Y-105722724D01*
X188419003Y-105722725D01*
X188227587Y-105760800D01*
X188032413Y-105760800D01*
X187840997Y-105722725D01*
X187840995Y-105722724D01*
X187840994Y-105722724D01*
X187660680Y-105648036D01*
X187498402Y-105539605D01*
X187498399Y-105539603D01*
X187360397Y-105401601D01*
X187251965Y-105239321D01*
X187251964Y-105239320D01*
X187177276Y-105059006D01*
X187139200Y-104867585D01*
X187139200Y-104672415D01*
X187177276Y-104480994D01*
X187251964Y-104300680D01*
X187360395Y-104138402D01*
X187360397Y-104138399D01*
X187498399Y-104000397D01*
X187660679Y-103891965D01*
X187660680Y-103891964D01*
X187840994Y-103817276D01*
X187840995Y-103817276D01*
X187840997Y-103817275D01*
X188032413Y-103779200D01*
X188227587Y-103779200D01*
X188419003Y-103817275D01*
X188419003Y-103817275D01*
G37*
G36*
X170639003Y-101277275D02*
X170639005Y-101277276D01*
X170639006Y-101277276D01*
X170819320Y-101351964D01*
X170844352Y-101368690D01*
X170981601Y-101460397D01*
X171119603Y-101598399D01*
X171119605Y-101598402D01*
X171228036Y-101760680D01*
X171302724Y-101940994D01*
X171302725Y-101940997D01*
X171340800Y-102132413D01*
X171340800Y-102327587D01*
X171304275Y-102511212D01*
X171302724Y-102519006D01*
X171228036Y-102699320D01*
X171227989Y-102699390D01*
X171119603Y-102861601D01*
X170981601Y-102999603D01*
X170981598Y-102999605D01*
X170819320Y-103108036D01*
X170639006Y-103182724D01*
X170639005Y-103182724D01*
X170639003Y-103182725D01*
X170447587Y-103220800D01*
X170252413Y-103220800D01*
X170060997Y-103182725D01*
X170060995Y-103182724D01*
X170060994Y-103182724D01*
X169880680Y-103108036D01*
X169718402Y-102999605D01*
X169718399Y-102999603D01*
X169580397Y-102861601D01*
X169472011Y-102699390D01*
X169471964Y-102699320D01*
X169397276Y-102519006D01*
X169395726Y-102511212D01*
X169359200Y-102327587D01*
X169359200Y-102132413D01*
X169397275Y-101940997D01*
X169397276Y-101940994D01*
X169471964Y-101760680D01*
X169580395Y-101598402D01*
X169580397Y-101598399D01*
X169718399Y-101460397D01*
X169855648Y-101368690D01*
X169880680Y-101351964D01*
X170060994Y-101277276D01*
X170060995Y-101277276D01*
X170060997Y-101277275D01*
X170252413Y-101239200D01*
X170447587Y-101239200D01*
X170639003Y-101277275D01*
X170639003Y-101277275D01*
G37*
G36*
X188419003Y-101277275D02*
X188419005Y-101277276D01*
X188419006Y-101277276D01*
X188599320Y-101351964D01*
X188624352Y-101368690D01*
X188761601Y-101460397D01*
X188899603Y-101598399D01*
X188899605Y-101598402D01*
X189008036Y-101760680D01*
X189082724Y-101940994D01*
X189082725Y-101940997D01*
X189120800Y-102132413D01*
X189120800Y-102327587D01*
X189084275Y-102511212D01*
X189082724Y-102519006D01*
X189008036Y-102699320D01*
X189007989Y-102699390D01*
X188899603Y-102861601D01*
X188761601Y-102999603D01*
X188761598Y-102999605D01*
X188599320Y-103108036D01*
X188419006Y-103182724D01*
X188419005Y-103182724D01*
X188419003Y-103182725D01*
X188227587Y-103220800D01*
X188032413Y-103220800D01*
X187840997Y-103182725D01*
X187840995Y-103182724D01*
X187840994Y-103182724D01*
X187660680Y-103108036D01*
X187498402Y-102999605D01*
X187498399Y-102999603D01*
X187360397Y-102861601D01*
X187252011Y-102699390D01*
X187251964Y-102699320D01*
X187177276Y-102519006D01*
X187175726Y-102511212D01*
X187139200Y-102327587D01*
X187139200Y-102132413D01*
X187177275Y-101940997D01*
X187177276Y-101940994D01*
X187251964Y-101760680D01*
X187360395Y-101598402D01*
X187360397Y-101598399D01*
X187498399Y-101460397D01*
X187635648Y-101368690D01*
X187660680Y-101351964D01*
X187840994Y-101277276D01*
X187840995Y-101277276D01*
X187840997Y-101277275D01*
X188032413Y-101239200D01*
X188227587Y-101239200D01*
X188419003Y-101277275D01*
X188419003Y-101277275D01*
G37*
G36*
X109246670Y-100321598D02*
X109394072Y-100350918D01*
X109639939Y-100452759D01*
X109860464Y-100600110D01*
X109861215Y-100600612D01*
X110049388Y-100788785D01*
X110049390Y-100788788D01*
X110197241Y-101010061D01*
X110299082Y-101255928D01*
X110321512Y-101368690D01*
X110351000Y-101516937D01*
X110351000Y-101783063D01*
X110341805Y-101829287D01*
X110299082Y-102044072D01*
X110197241Y-102289939D01*
X110081350Y-102463381D01*
X110049388Y-102511215D01*
X109861215Y-102699388D01*
X109861212Y-102699390D01*
X109639939Y-102847241D01*
X109394072Y-102949082D01*
X109263567Y-102975041D01*
X109133063Y-103001000D01*
X108866937Y-103001000D01*
X108736433Y-102975041D01*
X108605928Y-102949082D01*
X108360061Y-102847241D01*
X108138788Y-102699390D01*
X108138785Y-102699388D01*
X107950612Y-102511215D01*
X107918650Y-102463381D01*
X107802759Y-102289939D01*
X107700918Y-102044072D01*
X107658195Y-101829287D01*
X107649000Y-101783063D01*
X107649000Y-101516937D01*
X107678488Y-101368690D01*
X107700918Y-101255928D01*
X107802759Y-101010061D01*
X107950610Y-100788788D01*
X107950612Y-100788785D01*
X108138785Y-100600612D01*
X108139536Y-100600110D01*
X108360061Y-100452759D01*
X108605928Y-100350918D01*
X108753330Y-100321598D01*
X108866937Y-100299000D01*
X109133063Y-100299000D01*
X109246670Y-100321598D01*
X109246670Y-100321598D01*
G37*
G36*
X147634807Y-100975935D02*
X147634809Y-100975936D01*
X147634810Y-100975936D01*
X147781310Y-101036618D01*
X147781311Y-101036619D01*
X147913161Y-101124718D01*
X148025282Y-101236839D01*
X148025284Y-101236842D01*
X148113382Y-101368690D01*
X148151367Y-101460395D01*
X148174065Y-101515193D01*
X148190616Y-101598402D01*
X148205000Y-101670714D01*
X148205000Y-101829286D01*
X148174064Y-101984810D01*
X148113382Y-102131310D01*
X148026470Y-102261383D01*
X148025282Y-102263161D01*
X147913161Y-102375282D01*
X147913158Y-102375284D01*
X147781310Y-102463382D01*
X147634810Y-102524064D01*
X147634809Y-102524064D01*
X147634807Y-102524065D01*
X147479287Y-102555000D01*
X147320713Y-102555000D01*
X147165193Y-102524065D01*
X147165191Y-102524064D01*
X147165190Y-102524064D01*
X147018690Y-102463382D01*
X146886842Y-102375284D01*
X146886839Y-102375282D01*
X146774718Y-102263161D01*
X146773530Y-102261383D01*
X146686618Y-102131310D01*
X146625936Y-101984810D01*
X146595000Y-101829286D01*
X146595000Y-101670714D01*
X146609384Y-101598402D01*
X146625935Y-101515193D01*
X146648633Y-101460395D01*
X146686618Y-101368690D01*
X146774716Y-101236842D01*
X146774718Y-101236839D01*
X146886839Y-101124718D01*
X147018689Y-101036619D01*
X147018690Y-101036618D01*
X147165190Y-100975936D01*
X147165191Y-100975936D01*
X147165193Y-100975935D01*
X147320713Y-100945000D01*
X147479287Y-100945000D01*
X147634807Y-100975935D01*
X147634807Y-100975935D01*
G37*
G36*
X239989000Y-101529000D02*
X236331000Y-101529000D01*
X236331000Y-97871000D01*
X239989000Y-97871000D01*
X239989000Y-101529000D01*
X239989000Y-101529000D01*
G37*
G36*
X188419003Y-98737275D02*
X188419005Y-98737276D01*
X188419006Y-98737276D01*
X188599320Y-98811964D01*
X188599321Y-98811965D01*
X188761601Y-98920397D01*
X188899603Y-99058399D01*
X188899605Y-99058402D01*
X189008036Y-99220680D01*
X189082724Y-99400994D01*
X189120800Y-99592415D01*
X189120800Y-99787585D01*
X189082724Y-99979006D01*
X189008036Y-100159320D01*
X189008035Y-100159321D01*
X188899603Y-100321601D01*
X188761601Y-100459603D01*
X188761598Y-100459605D01*
X188599320Y-100568036D01*
X188419006Y-100642724D01*
X188419005Y-100642724D01*
X188419003Y-100642725D01*
X188227587Y-100680800D01*
X188032413Y-100680800D01*
X187840997Y-100642725D01*
X187840995Y-100642724D01*
X187840994Y-100642724D01*
X187660680Y-100568036D01*
X187498402Y-100459605D01*
X187498399Y-100459603D01*
X187360397Y-100321601D01*
X187251965Y-100159321D01*
X187251964Y-100159320D01*
X187177276Y-99979006D01*
X187139200Y-99787585D01*
X187139200Y-99592415D01*
X187177276Y-99400994D01*
X187251964Y-99220680D01*
X187360395Y-99058402D01*
X187360397Y-99058399D01*
X187498399Y-98920397D01*
X187660679Y-98811965D01*
X187660680Y-98811964D01*
X187840994Y-98737276D01*
X187840995Y-98737276D01*
X187840997Y-98737275D01*
X188032413Y-98699200D01*
X188227587Y-98699200D01*
X188419003Y-98737275D01*
X188419003Y-98737275D01*
G37*
G36*
X170639003Y-98737275D02*
X170639005Y-98737276D01*
X170639006Y-98737276D01*
X170819320Y-98811964D01*
X170819321Y-98811965D01*
X170981601Y-98920397D01*
X171119603Y-99058399D01*
X171119605Y-99058402D01*
X171228036Y-99220680D01*
X171302724Y-99400994D01*
X171340800Y-99592415D01*
X171340800Y-99787585D01*
X171302724Y-99979006D01*
X171228036Y-100159320D01*
X171228035Y-100159321D01*
X171119603Y-100321601D01*
X170981601Y-100459603D01*
X170981598Y-100459605D01*
X170819320Y-100568036D01*
X170639006Y-100642724D01*
X170639005Y-100642724D01*
X170639003Y-100642725D01*
X170447587Y-100680800D01*
X170252413Y-100680800D01*
X170060997Y-100642725D01*
X170060995Y-100642724D01*
X170060994Y-100642724D01*
X169880680Y-100568036D01*
X169718402Y-100459605D01*
X169718399Y-100459603D01*
X169580397Y-100321601D01*
X169471965Y-100159321D01*
X169471964Y-100159320D01*
X169397276Y-99979006D01*
X169359200Y-99787585D01*
X169359200Y-99592415D01*
X169397276Y-99400994D01*
X169471964Y-99220680D01*
X169580395Y-99058402D01*
X169580397Y-99058399D01*
X169718399Y-98920397D01*
X169880679Y-98811965D01*
X169880680Y-98811964D01*
X170060994Y-98737276D01*
X170060995Y-98737276D01*
X170060997Y-98737275D01*
X170252413Y-98699200D01*
X170447587Y-98699200D01*
X170639003Y-98737275D01*
X170639003Y-98737275D01*
G37*
G36*
X218550250Y-96062843D02*
X218635322Y-96079765D01*
X218705735Y-96108931D01*
X218875728Y-96179344D01*
X219092092Y-96323914D01*
X219276086Y-96507908D01*
X219420656Y-96724272D01*
X219520235Y-96964679D01*
X219571000Y-97219891D01*
X219571000Y-97480109D01*
X219520235Y-97735321D01*
X219420656Y-97975728D01*
X219276086Y-98192092D01*
X219092092Y-98376086D01*
X218875728Y-98520656D01*
X218705735Y-98591069D01*
X218635322Y-98620235D01*
X218550250Y-98637157D01*
X218380109Y-98671000D01*
X218119891Y-98671000D01*
X217949750Y-98637157D01*
X217864678Y-98620235D01*
X217794265Y-98591069D01*
X217624272Y-98520656D01*
X217407908Y-98376086D01*
X217223914Y-98192092D01*
X217079344Y-97975728D01*
X216979765Y-97735321D01*
X216929000Y-97480109D01*
X216929000Y-97219891D01*
X216979765Y-96964679D01*
X217079344Y-96724272D01*
X217223914Y-96507908D01*
X217407908Y-96323914D01*
X217624272Y-96179344D01*
X217794265Y-96108931D01*
X217864678Y-96079765D01*
X217949750Y-96062843D01*
X218119891Y-96029000D01*
X218380109Y-96029000D01*
X218550250Y-96062843D01*
X218550250Y-96062843D01*
G37*
G36*
X213550250Y-96062843D02*
X213635322Y-96079765D01*
X213705735Y-96108931D01*
X213875728Y-96179344D01*
X214092092Y-96323914D01*
X214276086Y-96507908D01*
X214420656Y-96724272D01*
X214520235Y-96964679D01*
X214571000Y-97219891D01*
X214571000Y-97480109D01*
X214520235Y-97735321D01*
X214420656Y-97975728D01*
X214276086Y-98192092D01*
X214092092Y-98376086D01*
X213875728Y-98520656D01*
X213705735Y-98591069D01*
X213635322Y-98620235D01*
X213550250Y-98637157D01*
X213380109Y-98671000D01*
X213119891Y-98671000D01*
X212949750Y-98637157D01*
X212864678Y-98620235D01*
X212794265Y-98591069D01*
X212624272Y-98520656D01*
X212407908Y-98376086D01*
X212223914Y-98192092D01*
X212079344Y-97975728D01*
X211979765Y-97735321D01*
X211929000Y-97480109D01*
X211929000Y-97219891D01*
X211979765Y-96964679D01*
X212079344Y-96724272D01*
X212223914Y-96507908D01*
X212407908Y-96323914D01*
X212624272Y-96179344D01*
X212794265Y-96108931D01*
X212864678Y-96079765D01*
X212949750Y-96062843D01*
X213119891Y-96029000D01*
X213380109Y-96029000D01*
X213550250Y-96062843D01*
X213550250Y-96062843D01*
G37*
G36*
X198509367Y-96494971D02*
X198509369Y-96494972D01*
X198509370Y-96494972D01*
X198565935Y-96518402D01*
X198671195Y-96562002D01*
X198816835Y-96659316D01*
X198940684Y-96783165D01*
X199037998Y-96928805D01*
X199037998Y-96928806D01*
X199085743Y-97044071D01*
X199105029Y-97090633D01*
X199139200Y-97262420D01*
X199139200Y-97437580D01*
X199130741Y-97480107D01*
X199105028Y-97609370D01*
X199100906Y-97619321D01*
X199037998Y-97771195D01*
X198940684Y-97916835D01*
X198816835Y-98040684D01*
X198671195Y-98137998D01*
X198569147Y-98180268D01*
X198509370Y-98205028D01*
X198509369Y-98205028D01*
X198509367Y-98205029D01*
X198337580Y-98239200D01*
X198162420Y-98239200D01*
X197990633Y-98205029D01*
X197990631Y-98205028D01*
X197990630Y-98205028D01*
X197930853Y-98180268D01*
X197828805Y-98137998D01*
X197683165Y-98040684D01*
X197559316Y-97916835D01*
X197462002Y-97771195D01*
X197399094Y-97619321D01*
X197394972Y-97609370D01*
X197369260Y-97480107D01*
X197360800Y-97437580D01*
X197360800Y-97262420D01*
X197394971Y-97090633D01*
X197414258Y-97044071D01*
X197462002Y-96928806D01*
X197462002Y-96928805D01*
X197559316Y-96783165D01*
X197683165Y-96659316D01*
X197828805Y-96562002D01*
X197934065Y-96518402D01*
X197990630Y-96494972D01*
X197990631Y-96494972D01*
X197990633Y-96494971D01*
X198162420Y-96460800D01*
X198337580Y-96460800D01*
X198509367Y-96494971D01*
X198509367Y-96494971D01*
G37*
G36*
X188419003Y-96197275D02*
X188419005Y-96197276D01*
X188419006Y-96197276D01*
X188599320Y-96271964D01*
X188599321Y-96271965D01*
X188761601Y-96380397D01*
X188899603Y-96518399D01*
X188899605Y-96518402D01*
X189008036Y-96680680D01*
X189082724Y-96860994D01*
X189082725Y-96860997D01*
X189120800Y-97052413D01*
X189120800Y-97247587D01*
X189112376Y-97289939D01*
X189082724Y-97439006D01*
X189008036Y-97619320D01*
X189008035Y-97619321D01*
X188899603Y-97781601D01*
X188761601Y-97919603D01*
X188761598Y-97919605D01*
X188599320Y-98028036D01*
X188419006Y-98102724D01*
X188419005Y-98102724D01*
X188419003Y-98102725D01*
X188227587Y-98140800D01*
X188032413Y-98140800D01*
X187840997Y-98102725D01*
X187840995Y-98102724D01*
X187840994Y-98102724D01*
X187660680Y-98028036D01*
X187498402Y-97919605D01*
X187498399Y-97919603D01*
X187360397Y-97781601D01*
X187251965Y-97619321D01*
X187251964Y-97619320D01*
X187177276Y-97439006D01*
X187147625Y-97289939D01*
X187139200Y-97247587D01*
X187139200Y-97052413D01*
X187177275Y-96860997D01*
X187177276Y-96860994D01*
X187251964Y-96680680D01*
X187360395Y-96518402D01*
X187360397Y-96518399D01*
X187498399Y-96380397D01*
X187660679Y-96271965D01*
X187660680Y-96271964D01*
X187840994Y-96197276D01*
X187840995Y-96197276D01*
X187840997Y-96197275D01*
X188032413Y-96159200D01*
X188227587Y-96159200D01*
X188419003Y-96197275D01*
X188419003Y-96197275D01*
G37*
G36*
X170639003Y-96197275D02*
X170639005Y-96197276D01*
X170639006Y-96197276D01*
X170819320Y-96271964D01*
X170819321Y-96271965D01*
X170981601Y-96380397D01*
X171119603Y-96518399D01*
X171119605Y-96518402D01*
X171228036Y-96680680D01*
X171302724Y-96860994D01*
X171302725Y-96860997D01*
X171340800Y-97052413D01*
X171340800Y-97247587D01*
X171332376Y-97289939D01*
X171302724Y-97439006D01*
X171228036Y-97619320D01*
X171228035Y-97619321D01*
X171119603Y-97781601D01*
X170981601Y-97919603D01*
X170981598Y-97919605D01*
X170819320Y-98028036D01*
X170639006Y-98102724D01*
X170639005Y-98102724D01*
X170639003Y-98102725D01*
X170447587Y-98140800D01*
X170252413Y-98140800D01*
X170060997Y-98102725D01*
X170060995Y-98102724D01*
X170060994Y-98102724D01*
X169880680Y-98028036D01*
X169718402Y-97919605D01*
X169718399Y-97919603D01*
X169580397Y-97781601D01*
X169471965Y-97619321D01*
X169471964Y-97619320D01*
X169397276Y-97439006D01*
X169367625Y-97289939D01*
X169359200Y-97247587D01*
X169359200Y-97052413D01*
X169397275Y-96860997D01*
X169397276Y-96860994D01*
X169471964Y-96680680D01*
X169580395Y-96518402D01*
X169580397Y-96518399D01*
X169718399Y-96380397D01*
X169880679Y-96271965D01*
X169880680Y-96271964D01*
X170060994Y-96197276D01*
X170060995Y-96197276D01*
X170060997Y-96197275D01*
X170252413Y-96159200D01*
X170447587Y-96159200D01*
X170639003Y-96197275D01*
X170639003Y-96197275D01*
G37*
G36*
X109263567Y-95324959D02*
X109394072Y-95350918D01*
X109639939Y-95452759D01*
X109860464Y-95600110D01*
X109861215Y-95600612D01*
X110049388Y-95788785D01*
X110049390Y-95788788D01*
X110197241Y-96010061D01*
X110299082Y-96255928D01*
X110299082Y-96255929D01*
X110349205Y-96507911D01*
X110351000Y-96516938D01*
X110351000Y-96783062D01*
X110299082Y-97044072D01*
X110197241Y-97289939D01*
X110049890Y-97510464D01*
X110049388Y-97511215D01*
X109861215Y-97699388D01*
X109861212Y-97699390D01*
X109639939Y-97847241D01*
X109394072Y-97949082D01*
X109263567Y-97975041D01*
X109133063Y-98001000D01*
X108866937Y-98001000D01*
X108736433Y-97975041D01*
X108605928Y-97949082D01*
X108360061Y-97847241D01*
X108138788Y-97699390D01*
X108138785Y-97699388D01*
X107950612Y-97511215D01*
X107950110Y-97510464D01*
X107802759Y-97289939D01*
X107700918Y-97044072D01*
X107649000Y-96783062D01*
X107649000Y-96516938D01*
X107650796Y-96507911D01*
X107700918Y-96255929D01*
X107700918Y-96255928D01*
X107802759Y-96010061D01*
X107950610Y-95788788D01*
X107950612Y-95788785D01*
X108138785Y-95600612D01*
X108139536Y-95600110D01*
X108360061Y-95452759D01*
X108605928Y-95350918D01*
X108736433Y-95324959D01*
X108866937Y-95299000D01*
X109133063Y-95299000D01*
X109263567Y-95324959D01*
X109263567Y-95324959D01*
G37*
G36*
X170639003Y-93657275D02*
X170639005Y-93657276D01*
X170639006Y-93657276D01*
X170819320Y-93731964D01*
X170844352Y-93748690D01*
X170981601Y-93840397D01*
X171119603Y-93978399D01*
X171119605Y-93978402D01*
X171228036Y-94140680D01*
X171302724Y-94320994D01*
X171302725Y-94320997D01*
X171340800Y-94512413D01*
X171340800Y-94707587D01*
X171313789Y-94843382D01*
X171302724Y-94899006D01*
X171228036Y-95079320D01*
X171228035Y-95079321D01*
X171119603Y-95241601D01*
X170981601Y-95379603D01*
X170981598Y-95379605D01*
X170819320Y-95488036D01*
X170639006Y-95562724D01*
X170639005Y-95562724D01*
X170639003Y-95562725D01*
X170447587Y-95600800D01*
X170252413Y-95600800D01*
X170060997Y-95562725D01*
X170060995Y-95562724D01*
X170060994Y-95562724D01*
X169880680Y-95488036D01*
X169718402Y-95379605D01*
X169718399Y-95379603D01*
X169580397Y-95241601D01*
X169471965Y-95079321D01*
X169471964Y-95079320D01*
X169397276Y-94899006D01*
X169386212Y-94843382D01*
X169359200Y-94707587D01*
X169359200Y-94512413D01*
X169397275Y-94320997D01*
X169397276Y-94320994D01*
X169471964Y-94140680D01*
X169580395Y-93978402D01*
X169580397Y-93978399D01*
X169718399Y-93840397D01*
X169855648Y-93748690D01*
X169880680Y-93731964D01*
X170060994Y-93657276D01*
X170060995Y-93657276D01*
X170060997Y-93657275D01*
X170252413Y-93619200D01*
X170447587Y-93619200D01*
X170639003Y-93657275D01*
X170639003Y-93657275D01*
G37*
G36*
X188419003Y-93657275D02*
X188419005Y-93657276D01*
X188419006Y-93657276D01*
X188599320Y-93731964D01*
X188624352Y-93748690D01*
X188761601Y-93840397D01*
X188899603Y-93978399D01*
X188899605Y-93978402D01*
X189008036Y-94140680D01*
X189082724Y-94320994D01*
X189082725Y-94320997D01*
X189120800Y-94512413D01*
X189120800Y-94707587D01*
X189093789Y-94843382D01*
X189082724Y-94899006D01*
X189008036Y-95079320D01*
X189008035Y-95079321D01*
X188899603Y-95241601D01*
X188761601Y-95379603D01*
X188761598Y-95379605D01*
X188599320Y-95488036D01*
X188419006Y-95562724D01*
X188419005Y-95562724D01*
X188419003Y-95562725D01*
X188227587Y-95600800D01*
X188032413Y-95600800D01*
X187840997Y-95562725D01*
X187840995Y-95562724D01*
X187840994Y-95562724D01*
X187660680Y-95488036D01*
X187498402Y-95379605D01*
X187498399Y-95379603D01*
X187360397Y-95241601D01*
X187251965Y-95079321D01*
X187251964Y-95079320D01*
X187177276Y-94899006D01*
X187166212Y-94843382D01*
X187139200Y-94707587D01*
X187139200Y-94512413D01*
X187177275Y-94320997D01*
X187177276Y-94320994D01*
X187251964Y-94140680D01*
X187360395Y-93978402D01*
X187360397Y-93978399D01*
X187498399Y-93840397D01*
X187635648Y-93748690D01*
X187660680Y-93731964D01*
X187840994Y-93657276D01*
X187840995Y-93657276D01*
X187840997Y-93657275D01*
X188032413Y-93619200D01*
X188227587Y-93619200D01*
X188419003Y-93657275D01*
X188419003Y-93657275D01*
G37*
G36*
X234326821Y-91556144D02*
X234503500Y-91591287D01*
X234641373Y-91648396D01*
X234836355Y-91729160D01*
X235135923Y-91929325D01*
X235390675Y-92184077D01*
X235590840Y-92483645D01*
X235728713Y-92816501D01*
X235799000Y-93169858D01*
X235799000Y-93530142D01*
X235763857Y-93706820D01*
X235728713Y-93883500D01*
X235689404Y-93978399D01*
X235590840Y-94216355D01*
X235390675Y-94515923D01*
X235135923Y-94770675D01*
X234836355Y-94970840D01*
X234641373Y-95051604D01*
X234503500Y-95108713D01*
X234326820Y-95143857D01*
X234150142Y-95179000D01*
X233789858Y-95179000D01*
X233613180Y-95143857D01*
X233436500Y-95108713D01*
X233298627Y-95051604D01*
X233103645Y-94970840D01*
X232804077Y-94770675D01*
X232549325Y-94515923D01*
X232349160Y-94216355D01*
X232250596Y-93978399D01*
X232211287Y-93883500D01*
X232176143Y-93706820D01*
X232141000Y-93530142D01*
X232141000Y-93169858D01*
X232211287Y-92816501D01*
X232349160Y-92483645D01*
X232549325Y-92184077D01*
X232804077Y-91929325D01*
X233103645Y-91729160D01*
X233298627Y-91648396D01*
X233436500Y-91591287D01*
X233613179Y-91556144D01*
X233789858Y-91521000D01*
X234150142Y-91521000D01*
X234326821Y-91556144D01*
X234326821Y-91556144D01*
G37*
G36*
X119634807Y-93355935D02*
X119634809Y-93355936D01*
X119634810Y-93355936D01*
X119781310Y-93416618D01*
X119781311Y-93416619D01*
X119913161Y-93504718D01*
X120025282Y-93616839D01*
X120025284Y-93616842D01*
X120113382Y-93748690D01*
X120151367Y-93840395D01*
X120174065Y-93895193D01*
X120190616Y-93978402D01*
X120205000Y-94050714D01*
X120205000Y-94209286D01*
X120174064Y-94364810D01*
X120113382Y-94511310D01*
X120026470Y-94641383D01*
X120025282Y-94643161D01*
X119913161Y-94755282D01*
X119913158Y-94755284D01*
X119781310Y-94843382D01*
X119634810Y-94904064D01*
X119634809Y-94904064D01*
X119634807Y-94904065D01*
X119479287Y-94935000D01*
X119320713Y-94935000D01*
X119165193Y-94904065D01*
X119165191Y-94904064D01*
X119165190Y-94904064D01*
X119018690Y-94843382D01*
X118886842Y-94755284D01*
X118886839Y-94755282D01*
X118774718Y-94643161D01*
X118773530Y-94641383D01*
X118686618Y-94511310D01*
X118625936Y-94364810D01*
X118595000Y-94209286D01*
X118595000Y-94050714D01*
X118609384Y-93978402D01*
X118625935Y-93895193D01*
X118648633Y-93840395D01*
X118686618Y-93748690D01*
X118774716Y-93616842D01*
X118774718Y-93616839D01*
X118886839Y-93504718D01*
X119018689Y-93416619D01*
X119018690Y-93416618D01*
X119165190Y-93355936D01*
X119165191Y-93355936D01*
X119165193Y-93355935D01*
X119320713Y-93325000D01*
X119479287Y-93325000D01*
X119634807Y-93355935D01*
X119634807Y-93355935D01*
G37*
G36*
X147634807Y-93355935D02*
X147634809Y-93355936D01*
X147634810Y-93355936D01*
X147781310Y-93416618D01*
X147781311Y-93416619D01*
X147913161Y-93504718D01*
X148025282Y-93616839D01*
X148025284Y-93616842D01*
X148113382Y-93748690D01*
X148151367Y-93840395D01*
X148174065Y-93895193D01*
X148190616Y-93978402D01*
X148205000Y-94050714D01*
X148205000Y-94209286D01*
X148174064Y-94364810D01*
X148113382Y-94511310D01*
X148026470Y-94641383D01*
X148025282Y-94643161D01*
X147913161Y-94755282D01*
X147913158Y-94755284D01*
X147781310Y-94843382D01*
X147634810Y-94904064D01*
X147634809Y-94904064D01*
X147634807Y-94904065D01*
X147479287Y-94935000D01*
X147320713Y-94935000D01*
X147165193Y-94904065D01*
X147165191Y-94904064D01*
X147165190Y-94904064D01*
X147018690Y-94843382D01*
X146886842Y-94755284D01*
X146886839Y-94755282D01*
X146774718Y-94643161D01*
X146773530Y-94641383D01*
X146686618Y-94511310D01*
X146625936Y-94364810D01*
X146595000Y-94209286D01*
X146595000Y-94050714D01*
X146609384Y-93978402D01*
X146625935Y-93895193D01*
X146648633Y-93840395D01*
X146686618Y-93748690D01*
X146774716Y-93616842D01*
X146774718Y-93616839D01*
X146886839Y-93504718D01*
X147018689Y-93416619D01*
X147018690Y-93416618D01*
X147165190Y-93355936D01*
X147165191Y-93355936D01*
X147165193Y-93355935D01*
X147320713Y-93325000D01*
X147479287Y-93325000D01*
X147634807Y-93355935D01*
X147634807Y-93355935D01*
G37*
G36*
X170639003Y-91117275D02*
X170639005Y-91117276D01*
X170639006Y-91117276D01*
X170819320Y-91191964D01*
X170819321Y-91191965D01*
X170981601Y-91300397D01*
X171119603Y-91438399D01*
X171119605Y-91438402D01*
X171228036Y-91600680D01*
X171281254Y-91729161D01*
X171302725Y-91780997D01*
X171332229Y-91929325D01*
X171340800Y-91972415D01*
X171340800Y-92167585D01*
X171302724Y-92359006D01*
X171228036Y-92539320D01*
X171228035Y-92539321D01*
X171119603Y-92701601D01*
X170981601Y-92839603D01*
X170981598Y-92839605D01*
X170819320Y-92948036D01*
X170639006Y-93022724D01*
X170639005Y-93022724D01*
X170639003Y-93022725D01*
X170447587Y-93060800D01*
X170252413Y-93060800D01*
X170060997Y-93022725D01*
X170060995Y-93022724D01*
X170060994Y-93022724D01*
X169880680Y-92948036D01*
X169718402Y-92839605D01*
X169718399Y-92839603D01*
X169580397Y-92701601D01*
X169471965Y-92539321D01*
X169471964Y-92539320D01*
X169397276Y-92359006D01*
X169359200Y-92167585D01*
X169359200Y-91972415D01*
X169367771Y-91929325D01*
X169397275Y-91780997D01*
X169418746Y-91729161D01*
X169471964Y-91600680D01*
X169580395Y-91438402D01*
X169580397Y-91438399D01*
X169718399Y-91300397D01*
X169880679Y-91191965D01*
X169880680Y-91191964D01*
X170060994Y-91117276D01*
X170060995Y-91117276D01*
X170060997Y-91117275D01*
X170252413Y-91079200D01*
X170447587Y-91079200D01*
X170639003Y-91117275D01*
X170639003Y-91117275D01*
G37*
G36*
X188419003Y-91117275D02*
X188419005Y-91117276D01*
X188419006Y-91117276D01*
X188599320Y-91191964D01*
X188599321Y-91191965D01*
X188761601Y-91300397D01*
X188899603Y-91438399D01*
X188899605Y-91438402D01*
X189008036Y-91600680D01*
X189061254Y-91729161D01*
X189082725Y-91780997D01*
X189112229Y-91929325D01*
X189120800Y-91972415D01*
X189120800Y-92167585D01*
X189082724Y-92359006D01*
X189008036Y-92539320D01*
X189008035Y-92539321D01*
X188899603Y-92701601D01*
X188761601Y-92839603D01*
X188761598Y-92839605D01*
X188599320Y-92948036D01*
X188419006Y-93022724D01*
X188419005Y-93022724D01*
X188419003Y-93022725D01*
X188227587Y-93060800D01*
X188032413Y-93060800D01*
X187840997Y-93022725D01*
X187840995Y-93022724D01*
X187840994Y-93022724D01*
X187660680Y-92948036D01*
X187498402Y-92839605D01*
X187498399Y-92839603D01*
X187360397Y-92701601D01*
X187251965Y-92539321D01*
X187251964Y-92539320D01*
X187177276Y-92359006D01*
X187139200Y-92167585D01*
X187139200Y-91972415D01*
X187147771Y-91929325D01*
X187177275Y-91780997D01*
X187198746Y-91729161D01*
X187251964Y-91600680D01*
X187360395Y-91438402D01*
X187360397Y-91438399D01*
X187498399Y-91300397D01*
X187660679Y-91191965D01*
X187660680Y-91191964D01*
X187840994Y-91117276D01*
X187840995Y-91117276D01*
X187840997Y-91117275D01*
X188032413Y-91079200D01*
X188227587Y-91079200D01*
X188419003Y-91117275D01*
X188419003Y-91117275D01*
G37*
G36*
X213550250Y-88562843D02*
X213635322Y-88579765D01*
X213705735Y-88608931D01*
X213875728Y-88679344D01*
X214092092Y-88823914D01*
X214276086Y-89007908D01*
X214420656Y-89224272D01*
X214520235Y-89464679D01*
X214571000Y-89719891D01*
X214571000Y-89980109D01*
X214520235Y-90235321D01*
X214420656Y-90475728D01*
X214276086Y-90692092D01*
X214092092Y-90876086D01*
X213875728Y-91020656D01*
X213734389Y-91079200D01*
X213635322Y-91120235D01*
X213550250Y-91137157D01*
X213380109Y-91171000D01*
X213119891Y-91171000D01*
X212949750Y-91137157D01*
X212864678Y-91120235D01*
X212765611Y-91079200D01*
X212624272Y-91020656D01*
X212407908Y-90876086D01*
X212223914Y-90692092D01*
X212079344Y-90475728D01*
X211979765Y-90235321D01*
X211929000Y-89980109D01*
X211929000Y-89719891D01*
X211979765Y-89464679D01*
X212079344Y-89224272D01*
X212223914Y-89007908D01*
X212407908Y-88823914D01*
X212624272Y-88679344D01*
X212794265Y-88608931D01*
X212864678Y-88579765D01*
X212949750Y-88562843D01*
X213119891Y-88529000D01*
X213380109Y-88529000D01*
X213550250Y-88562843D01*
X213550250Y-88562843D01*
G37*
G36*
X218550250Y-88562843D02*
X218635322Y-88579765D01*
X218705735Y-88608931D01*
X218875728Y-88679344D01*
X219092092Y-88823914D01*
X219276086Y-89007908D01*
X219420656Y-89224272D01*
X219520235Y-89464679D01*
X219571000Y-89719891D01*
X219571000Y-89980109D01*
X219520235Y-90235321D01*
X219420656Y-90475728D01*
X219276086Y-90692092D01*
X219092092Y-90876086D01*
X218875728Y-91020656D01*
X218734389Y-91079200D01*
X218635322Y-91120235D01*
X218550250Y-91137157D01*
X218380109Y-91171000D01*
X218119891Y-91171000D01*
X217949750Y-91137157D01*
X217864678Y-91120235D01*
X217765611Y-91079200D01*
X217624272Y-91020656D01*
X217407908Y-90876086D01*
X217223914Y-90692092D01*
X217079344Y-90475728D01*
X216979765Y-90235321D01*
X216929000Y-89980109D01*
X216929000Y-89719891D01*
X216979765Y-89464679D01*
X217079344Y-89224272D01*
X217223914Y-89007908D01*
X217407908Y-88823914D01*
X217624272Y-88679344D01*
X217794265Y-88608931D01*
X217864678Y-88579765D01*
X217949750Y-88562843D01*
X218119891Y-88529000D01*
X218380109Y-88529000D01*
X218550250Y-88562843D01*
X218550250Y-88562843D01*
G37*
G36*
X198509367Y-88994971D02*
X198509369Y-88994972D01*
X198509370Y-88994972D01*
X198540600Y-89007908D01*
X198671195Y-89062002D01*
X198816835Y-89159316D01*
X198940684Y-89283165D01*
X199037998Y-89428805D01*
X199105029Y-89590633D01*
X199139200Y-89762420D01*
X199139200Y-89937580D01*
X199105029Y-90109367D01*
X199037998Y-90271195D01*
X198940684Y-90416835D01*
X198816835Y-90540684D01*
X198671195Y-90637998D01*
X198569147Y-90680268D01*
X198509370Y-90705028D01*
X198509369Y-90705028D01*
X198509367Y-90705029D01*
X198337580Y-90739200D01*
X198162420Y-90739200D01*
X197990633Y-90705029D01*
X197990631Y-90705028D01*
X197990630Y-90705028D01*
X197930853Y-90680268D01*
X197828805Y-90637998D01*
X197683165Y-90540684D01*
X197559316Y-90416835D01*
X197462002Y-90271195D01*
X197394971Y-90109367D01*
X197360800Y-89937580D01*
X197360800Y-89762420D01*
X197394971Y-89590633D01*
X197462002Y-89428805D01*
X197559316Y-89283165D01*
X197683165Y-89159316D01*
X197828805Y-89062002D01*
X197959400Y-89007908D01*
X197990630Y-88994972D01*
X197990631Y-88994972D01*
X197990633Y-88994971D01*
X198162420Y-88960800D01*
X198337580Y-88960800D01*
X198509367Y-88994971D01*
X198509367Y-88994971D01*
G37*
G36*
X170639003Y-88577275D02*
X170639005Y-88577276D01*
X170639006Y-88577276D01*
X170819320Y-88651964D01*
X170819321Y-88651965D01*
X170981601Y-88760397D01*
X171119603Y-88898399D01*
X171119605Y-88898402D01*
X171228036Y-89060680D01*
X171302724Y-89240994D01*
X171302725Y-89240997D01*
X171340800Y-89432413D01*
X171340800Y-89627587D01*
X171313980Y-89762421D01*
X171302724Y-89819006D01*
X171228036Y-89999320D01*
X171228035Y-89999321D01*
X171119603Y-90161601D01*
X170981601Y-90299603D01*
X170981598Y-90299605D01*
X170819320Y-90408036D01*
X170639006Y-90482724D01*
X170639005Y-90482724D01*
X170639003Y-90482725D01*
X170447587Y-90520800D01*
X170252413Y-90520800D01*
X170060997Y-90482725D01*
X170060995Y-90482724D01*
X170060994Y-90482724D01*
X169880680Y-90408036D01*
X169718402Y-90299605D01*
X169718399Y-90299603D01*
X169580397Y-90161601D01*
X169471965Y-89999321D01*
X169471964Y-89999320D01*
X169397276Y-89819006D01*
X169386021Y-89762421D01*
X169359200Y-89627587D01*
X169359200Y-89432413D01*
X169397275Y-89240997D01*
X169397276Y-89240994D01*
X169471964Y-89060680D01*
X169580395Y-88898402D01*
X169580397Y-88898399D01*
X169718399Y-88760397D01*
X169880679Y-88651965D01*
X169880680Y-88651964D01*
X170060994Y-88577276D01*
X170060995Y-88577276D01*
X170060997Y-88577275D01*
X170252413Y-88539200D01*
X170447587Y-88539200D01*
X170639003Y-88577275D01*
X170639003Y-88577275D01*
G37*
G36*
X188419003Y-88577275D02*
X188419005Y-88577276D01*
X188419006Y-88577276D01*
X188599320Y-88651964D01*
X188599321Y-88651965D01*
X188761601Y-88760397D01*
X188899603Y-88898399D01*
X188899605Y-88898402D01*
X189008036Y-89060680D01*
X189082724Y-89240994D01*
X189082725Y-89240997D01*
X189120800Y-89432413D01*
X189120800Y-89627587D01*
X189093980Y-89762421D01*
X189082724Y-89819006D01*
X189008036Y-89999320D01*
X189008035Y-89999321D01*
X188899603Y-90161601D01*
X188761601Y-90299603D01*
X188761598Y-90299605D01*
X188599320Y-90408036D01*
X188419006Y-90482724D01*
X188419005Y-90482724D01*
X188419003Y-90482725D01*
X188227587Y-90520800D01*
X188032413Y-90520800D01*
X187840997Y-90482725D01*
X187840995Y-90482724D01*
X187840994Y-90482724D01*
X187660680Y-90408036D01*
X187498402Y-90299605D01*
X187498399Y-90299603D01*
X187360397Y-90161601D01*
X187251965Y-89999321D01*
X187251964Y-89999320D01*
X187177276Y-89819006D01*
X187166021Y-89762421D01*
X187139200Y-89627587D01*
X187139200Y-89432413D01*
X187177275Y-89240997D01*
X187177276Y-89240994D01*
X187251964Y-89060680D01*
X187360395Y-88898402D01*
X187360397Y-88898399D01*
X187498399Y-88760397D01*
X187660679Y-88651965D01*
X187660680Y-88651964D01*
X187840994Y-88577276D01*
X187840995Y-88577276D01*
X187840997Y-88577275D01*
X188032413Y-88539200D01*
X188227587Y-88539200D01*
X188419003Y-88577275D01*
X188419003Y-88577275D01*
G37*
G36*
X238516820Y-85206143D02*
X238693500Y-85241287D01*
X238831373Y-85298396D01*
X239026355Y-85379160D01*
X239325923Y-85579325D01*
X239580675Y-85834077D01*
X239780840Y-86133645D01*
X239918713Y-86466501D01*
X239989000Y-86819858D01*
X239989000Y-87180142D01*
X239918713Y-87533499D01*
X239780840Y-87866355D01*
X239580675Y-88165923D01*
X239325923Y-88420675D01*
X239026355Y-88620840D01*
X238885113Y-88679344D01*
X238693500Y-88758713D01*
X238516820Y-88793857D01*
X238340142Y-88829000D01*
X237979858Y-88829000D01*
X237803180Y-88793857D01*
X237626500Y-88758713D01*
X237434887Y-88679344D01*
X237293645Y-88620840D01*
X236994077Y-88420675D01*
X236739325Y-88165923D01*
X236539160Y-87866355D01*
X236401287Y-87533499D01*
X236331000Y-87180142D01*
X236331000Y-86819858D01*
X236401287Y-86466501D01*
X236539160Y-86133645D01*
X236739325Y-85834077D01*
X236994077Y-85579325D01*
X237293645Y-85379160D01*
X237488627Y-85298396D01*
X237626500Y-85241287D01*
X237803180Y-85206143D01*
X237979858Y-85171000D01*
X238340142Y-85171000D01*
X238516820Y-85206143D01*
X238516820Y-85206143D01*
G37*
G36*
X170639003Y-86037275D02*
X170639005Y-86037276D01*
X170639006Y-86037276D01*
X170819320Y-86111964D01*
X170979410Y-86218933D01*
X170981601Y-86220397D01*
X171119603Y-86358399D01*
X171119605Y-86358402D01*
X171228036Y-86520680D01*
X171302724Y-86700994D01*
X171302725Y-86700997D01*
X171340800Y-86892413D01*
X171340800Y-87087587D01*
X171322390Y-87180142D01*
X171302724Y-87279006D01*
X171228036Y-87459320D01*
X171228035Y-87459321D01*
X171119603Y-87621601D01*
X170981601Y-87759603D01*
X170981598Y-87759605D01*
X170819320Y-87868036D01*
X170639006Y-87942724D01*
X170639005Y-87942724D01*
X170639003Y-87942725D01*
X170447587Y-87980800D01*
X170252413Y-87980800D01*
X170060997Y-87942725D01*
X170060995Y-87942724D01*
X170060994Y-87942724D01*
X169880680Y-87868036D01*
X169718402Y-87759605D01*
X169718399Y-87759603D01*
X169580397Y-87621601D01*
X169471965Y-87459321D01*
X169471964Y-87459320D01*
X169397276Y-87279006D01*
X169377611Y-87180142D01*
X169359200Y-87087587D01*
X169359200Y-86892413D01*
X169397275Y-86700997D01*
X169397276Y-86700994D01*
X169471964Y-86520680D01*
X169580395Y-86358402D01*
X169580397Y-86358399D01*
X169718399Y-86220397D01*
X169720590Y-86218933D01*
X169880680Y-86111964D01*
X170060994Y-86037276D01*
X170060995Y-86037276D01*
X170060997Y-86037275D01*
X170252413Y-85999200D01*
X170447587Y-85999200D01*
X170639003Y-86037275D01*
X170639003Y-86037275D01*
G37*
G36*
X188419003Y-86037275D02*
X188419005Y-86037276D01*
X188419006Y-86037276D01*
X188599320Y-86111964D01*
X188759410Y-86218933D01*
X188761601Y-86220397D01*
X188899603Y-86358399D01*
X188899605Y-86358402D01*
X189008036Y-86520680D01*
X189082724Y-86700994D01*
X189082725Y-86700997D01*
X189120800Y-86892413D01*
X189120800Y-87087587D01*
X189102390Y-87180142D01*
X189082724Y-87279006D01*
X189008036Y-87459320D01*
X189008035Y-87459321D01*
X188899603Y-87621601D01*
X188761601Y-87759603D01*
X188761598Y-87759605D01*
X188599320Y-87868036D01*
X188419006Y-87942724D01*
X188419005Y-87942724D01*
X188419003Y-87942725D01*
X188227587Y-87980800D01*
X188032413Y-87980800D01*
X187840997Y-87942725D01*
X187840995Y-87942724D01*
X187840994Y-87942724D01*
X187660680Y-87868036D01*
X187498402Y-87759605D01*
X187498399Y-87759603D01*
X187360397Y-87621601D01*
X187251965Y-87459321D01*
X187251964Y-87459320D01*
X187177276Y-87279006D01*
X187157611Y-87180142D01*
X187139200Y-87087587D01*
X187139200Y-86892413D01*
X187177275Y-86700997D01*
X187177276Y-86700994D01*
X187251964Y-86520680D01*
X187360395Y-86358402D01*
X187360397Y-86358399D01*
X187498399Y-86220397D01*
X187500590Y-86218933D01*
X187660680Y-86111964D01*
X187840994Y-86037276D01*
X187840995Y-86037276D01*
X187840997Y-86037275D01*
X188032413Y-85999200D01*
X188227587Y-85999200D01*
X188419003Y-86037275D01*
X188419003Y-86037275D01*
G37*
G36*
X170639003Y-83497275D02*
X170639005Y-83497276D01*
X170639006Y-83497276D01*
X170819320Y-83571964D01*
X170819321Y-83571965D01*
X170981601Y-83680397D01*
X171119603Y-83818399D01*
X171119605Y-83818402D01*
X171228036Y-83980680D01*
X171302724Y-84160994D01*
X171340800Y-84352415D01*
X171340800Y-84547585D01*
X171302724Y-84739006D01*
X171228036Y-84919320D01*
X171228035Y-84919321D01*
X171119603Y-85081601D01*
X170981601Y-85219603D01*
X170981598Y-85219605D01*
X170819320Y-85328036D01*
X170639006Y-85402724D01*
X170639005Y-85402724D01*
X170639003Y-85402725D01*
X170447587Y-85440800D01*
X170252413Y-85440800D01*
X170060997Y-85402725D01*
X170060995Y-85402724D01*
X170060994Y-85402724D01*
X169880680Y-85328036D01*
X169718402Y-85219605D01*
X169718399Y-85219603D01*
X169580397Y-85081601D01*
X169471965Y-84919321D01*
X169471964Y-84919320D01*
X169397276Y-84739006D01*
X169359200Y-84547585D01*
X169359200Y-84352415D01*
X169397276Y-84160994D01*
X169471964Y-83980680D01*
X169580395Y-83818402D01*
X169580397Y-83818399D01*
X169718399Y-83680397D01*
X169880679Y-83571965D01*
X169880680Y-83571964D01*
X170060994Y-83497276D01*
X170060995Y-83497276D01*
X170060997Y-83497275D01*
X170252413Y-83459200D01*
X170447587Y-83459200D01*
X170639003Y-83497275D01*
X170639003Y-83497275D01*
G37*
G36*
X188419003Y-83497275D02*
X188419005Y-83497276D01*
X188419006Y-83497276D01*
X188599320Y-83571964D01*
X188599321Y-83571965D01*
X188761601Y-83680397D01*
X188899603Y-83818399D01*
X188899605Y-83818402D01*
X189008036Y-83980680D01*
X189082724Y-84160994D01*
X189120800Y-84352415D01*
X189120800Y-84547585D01*
X189082724Y-84739006D01*
X189008036Y-84919320D01*
X189008035Y-84919321D01*
X188899603Y-85081601D01*
X188761601Y-85219603D01*
X188761598Y-85219605D01*
X188599320Y-85328036D01*
X188419006Y-85402724D01*
X188419005Y-85402724D01*
X188419003Y-85402725D01*
X188227587Y-85440800D01*
X188032413Y-85440800D01*
X187840997Y-85402725D01*
X187840995Y-85402724D01*
X187840994Y-85402724D01*
X187660680Y-85328036D01*
X187498402Y-85219605D01*
X187498399Y-85219603D01*
X187360397Y-85081601D01*
X187251965Y-84919321D01*
X187251964Y-84919320D01*
X187177276Y-84739006D01*
X187139200Y-84547585D01*
X187139200Y-84352415D01*
X187177276Y-84160994D01*
X187251964Y-83980680D01*
X187360395Y-83818402D01*
X187360397Y-83818399D01*
X187498399Y-83680397D01*
X187660679Y-83571965D01*
X187660680Y-83571964D01*
X187840994Y-83497276D01*
X187840995Y-83497276D01*
X187840997Y-83497275D01*
X188032413Y-83459200D01*
X188227587Y-83459200D01*
X188419003Y-83497275D01*
X188419003Y-83497275D01*
G37*
G36*
X171340800Y-82900800D02*
X169359200Y-82900800D01*
X169359200Y-80919200D01*
X171340800Y-80919200D01*
X171340800Y-82900800D01*
X171340800Y-82900800D01*
G37*
G36*
X188419003Y-80957275D02*
X188419005Y-80957276D01*
X188419006Y-80957276D01*
X188599320Y-81031964D01*
X188599321Y-81031965D01*
X188761601Y-81140397D01*
X188899603Y-81278399D01*
X188899605Y-81278402D01*
X189008036Y-81440680D01*
X189082724Y-81620994D01*
X189120800Y-81812415D01*
X189120800Y-82007585D01*
X189082724Y-82199006D01*
X189008036Y-82379320D01*
X189008035Y-82379321D01*
X188899603Y-82541601D01*
X188761601Y-82679603D01*
X188761598Y-82679605D01*
X188599320Y-82788036D01*
X188419006Y-82862724D01*
X188419005Y-82862724D01*
X188419003Y-82862725D01*
X188227587Y-82900800D01*
X188032413Y-82900800D01*
X187840997Y-82862725D01*
X187840995Y-82862724D01*
X187840994Y-82862724D01*
X187660680Y-82788036D01*
X187498402Y-82679605D01*
X187498399Y-82679603D01*
X187360397Y-82541601D01*
X187251965Y-82379321D01*
X187251964Y-82379320D01*
X187177276Y-82199006D01*
X187139200Y-82007585D01*
X187139200Y-81812415D01*
X187177276Y-81620994D01*
X187251964Y-81440680D01*
X187360395Y-81278402D01*
X187360397Y-81278399D01*
X187498399Y-81140397D01*
X187660679Y-81031965D01*
X187660680Y-81031964D01*
X187840994Y-80957276D01*
X187840995Y-80957276D01*
X187840997Y-80957275D01*
X188032413Y-80919200D01*
X188227587Y-80919200D01*
X188419003Y-80957275D01*
X188419003Y-80957275D01*
G37*
M02*
