G04 #@! TF.GenerationSoftware,KiCad,Pcbnew,5.0.2-bee76a0~70~ubuntu18.04.1*
G04 #@! TF.CreationDate,2019-04-07T15:27:48-07:00*
G04 #@! TF.ProjectId,smartplug,736d6172-7470-46c7-9567-2e6b69636164,rev?*
G04 #@! TF.SameCoordinates,Original*
G04 #@! TF.FileFunction,Legend,Top*
G04 #@! TF.FilePolarity,Positive*
%FSLAX46Y46*%
G04 Gerber Fmt 4.6, Leading zero omitted, Abs format (unit mm)*
G04 Created by KiCad (PCBNEW 5.0.2-bee76a0~70~ubuntu18.04.1) date Sun 07 Apr 2019 03:27:48 PM PDT*
%MOMM*%
%LPD*%
G01*
G04 APERTURE LIST*
%ADD10C,0.300000*%
%ADD11C,0.120000*%
%ADD12C,0.150000*%
%ADD13C,0.127000*%
%ADD14C,0.200000*%
%ADD15C,0.101600*%
%ADD16C,0.152400*%
%ADD17C,0.010000*%
%ADD18C,0.050000*%
G04 APERTURE END LIST*
D10*
X135750000Y-63178571D02*
X135750000Y-64250000D01*
X135678571Y-64464285D01*
X135535714Y-64607142D01*
X135321428Y-64678571D01*
X135178571Y-64678571D01*
X137035714Y-64607142D02*
X136892857Y-64678571D01*
X136607142Y-64678571D01*
X136464285Y-64607142D01*
X136392857Y-64464285D01*
X136392857Y-63892857D01*
X136464285Y-63750000D01*
X136607142Y-63678571D01*
X136892857Y-63678571D01*
X137035714Y-63750000D01*
X137107142Y-63892857D01*
X137107142Y-64035714D01*
X136392857Y-64178571D01*
X137750000Y-64678571D02*
X137750000Y-63678571D01*
X137750000Y-63964285D02*
X137821428Y-63821428D01*
X137892857Y-63750000D01*
X138035714Y-63678571D01*
X138178571Y-63678571D01*
X139250000Y-64607142D02*
X139107142Y-64678571D01*
X138821428Y-64678571D01*
X138678571Y-64607142D01*
X138607142Y-64464285D01*
X138607142Y-63892857D01*
X138678571Y-63750000D01*
X138821428Y-63678571D01*
X139107142Y-63678571D01*
X139250000Y-63750000D01*
X139321428Y-63892857D01*
X139321428Y-64035714D01*
X138607142Y-64178571D01*
X139964285Y-64678571D02*
X139964285Y-63678571D01*
X139964285Y-63821428D02*
X140035714Y-63750000D01*
X140178571Y-63678571D01*
X140392857Y-63678571D01*
X140535714Y-63750000D01*
X140607142Y-63892857D01*
X140607142Y-64678571D01*
X140607142Y-63892857D02*
X140678571Y-63750000D01*
X140821428Y-63678571D01*
X141035714Y-63678571D01*
X141178571Y-63750000D01*
X141250000Y-63892857D01*
X141250000Y-64678571D01*
X141964285Y-64678571D02*
X141964285Y-63678571D01*
X141964285Y-63178571D02*
X141892857Y-63250000D01*
X141964285Y-63321428D01*
X142035714Y-63250000D01*
X141964285Y-63178571D01*
X141964285Y-63321428D01*
X143321428Y-64678571D02*
X143321428Y-63892857D01*
X143250000Y-63750000D01*
X143107142Y-63678571D01*
X142821428Y-63678571D01*
X142678571Y-63750000D01*
X143321428Y-64607142D02*
X143178571Y-64678571D01*
X142821428Y-64678571D01*
X142678571Y-64607142D01*
X142607142Y-64464285D01*
X142607142Y-64321428D01*
X142678571Y-64178571D01*
X142821428Y-64107142D01*
X143178571Y-64107142D01*
X143321428Y-64035714D01*
X144035714Y-64678571D02*
X144035714Y-63178571D01*
X144678571Y-64678571D02*
X144678571Y-63892857D01*
X144607142Y-63750000D01*
X144464285Y-63678571D01*
X144250000Y-63678571D01*
X144107142Y-63750000D01*
X144035714Y-63821428D01*
X146535714Y-64678571D02*
X146535714Y-63178571D01*
X147035714Y-64250000D01*
X147535714Y-63178571D01*
X147535714Y-64678571D01*
X148892857Y-64678571D02*
X148892857Y-63892857D01*
X148821428Y-63750000D01*
X148678571Y-63678571D01*
X148392857Y-63678571D01*
X148250000Y-63750000D01*
X148892857Y-64607142D02*
X148750000Y-64678571D01*
X148392857Y-64678571D01*
X148250000Y-64607142D01*
X148178571Y-64464285D01*
X148178571Y-64321428D01*
X148250000Y-64178571D01*
X148392857Y-64107142D01*
X148750000Y-64107142D01*
X148892857Y-64035714D01*
X149607142Y-64678571D02*
X149607142Y-63678571D01*
X149607142Y-63964285D02*
X149678571Y-63821428D01*
X149750000Y-63750000D01*
X149892857Y-63678571D01*
X150035714Y-63678571D01*
X151178571Y-64607142D02*
X151035714Y-64678571D01*
X150750000Y-64678571D01*
X150607142Y-64607142D01*
X150535714Y-64535714D01*
X150464285Y-64392857D01*
X150464285Y-63964285D01*
X150535714Y-63821428D01*
X150607142Y-63750000D01*
X150750000Y-63678571D01*
X151035714Y-63678571D01*
X151178571Y-63750000D01*
X152464285Y-63678571D02*
X152464285Y-64678571D01*
X151821428Y-63678571D02*
X151821428Y-64464285D01*
X151892857Y-64607142D01*
X152035714Y-64678571D01*
X152250000Y-64678571D01*
X152392857Y-64607142D01*
X152464285Y-64535714D01*
X153178571Y-64678571D02*
X153178571Y-63678571D01*
X153178571Y-63821428D02*
X153250000Y-63750000D01*
X153392857Y-63678571D01*
X153607142Y-63678571D01*
X153750000Y-63750000D01*
X153821428Y-63892857D01*
X153821428Y-64678571D01*
X153821428Y-63892857D02*
X153892857Y-63750000D01*
X154035714Y-63678571D01*
X154250000Y-63678571D01*
X154392857Y-63750000D01*
X154464285Y-63892857D01*
X154464285Y-64678571D01*
X155250000Y-64607142D02*
X155250000Y-64678571D01*
X155178571Y-64821428D01*
X155107142Y-64892857D01*
X157892857Y-64678571D02*
X157392857Y-63964285D01*
X157035714Y-64678571D02*
X157035714Y-63178571D01*
X157607142Y-63178571D01*
X157749999Y-63250000D01*
X157821428Y-63321428D01*
X157892857Y-63464285D01*
X157892857Y-63678571D01*
X157821428Y-63821428D01*
X157749999Y-63892857D01*
X157607142Y-63964285D01*
X157035714Y-63964285D01*
X158535714Y-64678571D02*
X158535714Y-63678571D01*
X158535714Y-63178571D02*
X158464285Y-63250000D01*
X158535714Y-63321428D01*
X158607142Y-63250000D01*
X158535714Y-63178571D01*
X158535714Y-63321428D01*
X159464285Y-64678571D02*
X159321428Y-64607142D01*
X159249999Y-64464285D01*
X159249999Y-63178571D01*
X160607142Y-64607142D02*
X160464285Y-64678571D01*
X160178571Y-64678571D01*
X160035714Y-64607142D01*
X159964285Y-64464285D01*
X159964285Y-63892857D01*
X160035714Y-63750000D01*
X160178571Y-63678571D01*
X160464285Y-63678571D01*
X160607142Y-63750000D01*
X160678571Y-63892857D01*
X160678571Y-64035714D01*
X159964285Y-64178571D01*
X161178571Y-63678571D02*
X161535714Y-64678571D01*
X161892857Y-63678571D02*
X161535714Y-64678571D01*
X161392857Y-65035714D01*
X161321428Y-65107142D01*
X161178571Y-65178571D01*
X164321428Y-64678571D02*
X163607142Y-64678571D01*
X163607142Y-63178571D01*
X164678571Y-63678571D02*
X165035714Y-64678571D01*
X165392857Y-63678571D02*
X165035714Y-64678571D01*
X164892857Y-65035714D01*
X164821428Y-65107142D01*
X164678571Y-65178571D01*
X165964285Y-64678571D02*
X165964285Y-63678571D01*
X165964285Y-63821428D02*
X166035714Y-63750000D01*
X166178571Y-63678571D01*
X166392857Y-63678571D01*
X166535714Y-63750000D01*
X166607142Y-63892857D01*
X166607142Y-64678571D01*
X166607142Y-63892857D02*
X166678571Y-63750000D01*
X166821428Y-63678571D01*
X167035714Y-63678571D01*
X167178571Y-63750000D01*
X167249999Y-63892857D01*
X167249999Y-64678571D01*
X168607142Y-64678571D02*
X168607142Y-63892857D01*
X168535714Y-63750000D01*
X168392857Y-63678571D01*
X168107142Y-63678571D01*
X167964285Y-63750000D01*
X168607142Y-64607142D02*
X168464285Y-64678571D01*
X168107142Y-64678571D01*
X167964285Y-64607142D01*
X167892857Y-64464285D01*
X167892857Y-64321428D01*
X167964285Y-64178571D01*
X168107142Y-64107142D01*
X168464285Y-64107142D01*
X168607142Y-64035714D01*
X169321428Y-63678571D02*
X169321428Y-64678571D01*
X169321428Y-63821428D02*
X169392857Y-63750000D01*
X169535714Y-63678571D01*
X169749999Y-63678571D01*
X169892857Y-63750000D01*
X169964285Y-63892857D01*
X169964285Y-64678571D01*
X170749999Y-64607142D02*
X170749999Y-64678571D01*
X170678571Y-64821428D01*
X170607142Y-64892857D01*
X172535714Y-64678571D02*
X172535714Y-63178571D01*
X172892857Y-63178571D01*
X173107142Y-63250000D01*
X173250000Y-63392857D01*
X173321428Y-63535714D01*
X173392857Y-63821428D01*
X173392857Y-64035714D01*
X173321428Y-64321428D01*
X173250000Y-64464285D01*
X173107142Y-64607142D01*
X172892857Y-64678571D01*
X172535714Y-64678571D01*
X174678571Y-64678571D02*
X174678571Y-63892857D01*
X174607142Y-63750000D01*
X174464285Y-63678571D01*
X174178571Y-63678571D01*
X174035714Y-63750000D01*
X174678571Y-64607142D02*
X174535714Y-64678571D01*
X174178571Y-64678571D01*
X174035714Y-64607142D01*
X173964285Y-64464285D01*
X173964285Y-64321428D01*
X174035714Y-64178571D01*
X174178571Y-64107142D01*
X174535714Y-64107142D01*
X174678571Y-64035714D01*
X175392857Y-64678571D02*
X175392857Y-63678571D01*
X175392857Y-63821428D02*
X175464285Y-63750000D01*
X175607142Y-63678571D01*
X175821428Y-63678571D01*
X175964285Y-63750000D01*
X176035714Y-63892857D01*
X176035714Y-64678571D01*
X176035714Y-63892857D02*
X176107142Y-63750000D01*
X176250000Y-63678571D01*
X176464285Y-63678571D01*
X176607142Y-63750000D01*
X176678571Y-63892857D01*
X176678571Y-64678571D01*
X177607142Y-64678571D02*
X177464285Y-64607142D01*
X177392857Y-64535714D01*
X177321428Y-64392857D01*
X177321428Y-63964285D01*
X177392857Y-63821428D01*
X177464285Y-63750000D01*
X177607142Y-63678571D01*
X177821428Y-63678571D01*
X177964285Y-63750000D01*
X178035714Y-63821428D01*
X178107142Y-63964285D01*
X178107142Y-64392857D01*
X178035714Y-64535714D01*
X177964285Y-64607142D01*
X177821428Y-64678571D01*
X177607142Y-64678571D01*
X178750000Y-63678571D02*
X178750000Y-64678571D01*
X178750000Y-63821428D02*
X178821428Y-63750000D01*
X178964285Y-63678571D01*
X179178571Y-63678571D01*
X179321428Y-63750000D01*
X179392857Y-63892857D01*
X179392857Y-64678571D01*
X181178571Y-64250000D02*
X181892857Y-64250000D01*
X181035714Y-64678571D02*
X181535714Y-63178571D01*
X182035714Y-64678571D01*
X182535714Y-63678571D02*
X182535714Y-64678571D01*
X182535714Y-63821428D02*
X182607142Y-63750000D01*
X182750000Y-63678571D01*
X182964285Y-63678571D01*
X183107142Y-63750000D01*
X183178571Y-63892857D01*
X183178571Y-64678571D01*
X184535714Y-64678571D02*
X184535714Y-63178571D01*
X184535714Y-64607142D02*
X184392857Y-64678571D01*
X184107142Y-64678571D01*
X183964285Y-64607142D01*
X183892857Y-64535714D01*
X183821428Y-64392857D01*
X183821428Y-63964285D01*
X183892857Y-63821428D01*
X183964285Y-63750000D01*
X184107142Y-63678571D01*
X184392857Y-63678571D01*
X184535714Y-63750000D01*
X185821428Y-64607142D02*
X185678571Y-64678571D01*
X185392857Y-64678571D01*
X185250000Y-64607142D01*
X185178571Y-64464285D01*
X185178571Y-63892857D01*
X185250000Y-63750000D01*
X185392857Y-63678571D01*
X185678571Y-63678571D01*
X185821428Y-63750000D01*
X185892857Y-63892857D01*
X185892857Y-64035714D01*
X185178571Y-64178571D01*
X186535714Y-64678571D02*
X186535714Y-63678571D01*
X186535714Y-63964285D02*
X186607142Y-63821428D01*
X186678571Y-63750000D01*
X186821428Y-63678571D01*
X186964285Y-63678571D01*
X187392857Y-64607142D02*
X187535714Y-64678571D01*
X187821428Y-64678571D01*
X187964285Y-64607142D01*
X188035714Y-64464285D01*
X188035714Y-64392857D01*
X187964285Y-64250000D01*
X187821428Y-64178571D01*
X187607142Y-64178571D01*
X187464285Y-64107142D01*
X187392857Y-63964285D01*
X187392857Y-63892857D01*
X187464285Y-63750000D01*
X187607142Y-63678571D01*
X187821428Y-63678571D01*
X187964285Y-63750000D01*
X188892857Y-64678571D02*
X188749999Y-64607142D01*
X188678571Y-64535714D01*
X188607142Y-64392857D01*
X188607142Y-63964285D01*
X188678571Y-63821428D01*
X188749999Y-63750000D01*
X188892857Y-63678571D01*
X189107142Y-63678571D01*
X189249999Y-63750000D01*
X189321428Y-63821428D01*
X189392857Y-63964285D01*
X189392857Y-64392857D01*
X189321428Y-64535714D01*
X189249999Y-64607142D01*
X189107142Y-64678571D01*
X188892857Y-64678571D01*
X190035714Y-63678571D02*
X190035714Y-64678571D01*
X190035714Y-63821428D02*
X190107142Y-63750000D01*
X190250000Y-63678571D01*
X190464285Y-63678571D01*
X190607142Y-63750000D01*
X190678571Y-63892857D01*
X190678571Y-64678571D01*
D11*
G04 #@! TO.C,R1*
X152806422Y-101890000D02*
X153323578Y-101890000D01*
X152806422Y-103310000D02*
X153323578Y-103310000D01*
D12*
G04 #@! TO.C,J1*
X104900000Y-109150000D02*
X104900000Y-94150000D01*
X104900000Y-94150000D02*
X113100000Y-94150000D01*
X113100000Y-94150000D02*
X113100000Y-109150000D01*
X113100000Y-109150000D02*
X104900000Y-109150000D01*
D11*
G04 #@! TO.C,C1*
X153010000Y-95308578D02*
X153010000Y-94791422D01*
X151590000Y-95308578D02*
X151590000Y-94791422D01*
G04 #@! TO.C,C2*
X160008578Y-94590000D02*
X159491422Y-94590000D01*
X160008578Y-96010000D02*
X159491422Y-96010000D01*
G04 #@! TO.C,C3*
X148660000Y-87541422D02*
X148660000Y-88058578D01*
X147240000Y-87541422D02*
X147240000Y-88058578D01*
G04 #@! TO.C,C4*
X153460000Y-87603922D02*
X153460000Y-88121078D01*
X152040000Y-87603922D02*
X152040000Y-88121078D01*
G04 #@! TO.C,D1*
X162100000Y-92500000D02*
X162100000Y-88200000D01*
X162100000Y-88200000D02*
X156400000Y-88200000D01*
X162100000Y-92500000D02*
X156400000Y-92500000D01*
G04 #@! TO.C,D2*
X171500000Y-70915000D02*
X169215000Y-70915000D01*
X169215000Y-70915000D02*
X169215000Y-72385000D01*
X169215000Y-72385000D02*
X171500000Y-72385000D01*
D13*
G04 #@! TO.C,K1*
X196500000Y-99600000D02*
X220500000Y-99600000D01*
X220500000Y-99600000D02*
X220500000Y-87600000D01*
X220500000Y-87600000D02*
X196500000Y-87600000D01*
X196500000Y-87600000D02*
X196500000Y-99600000D01*
D12*
G04 #@! TO.C,L1*
X151850000Y-74721000D02*
X151850000Y-71800000D01*
X151850000Y-71800000D02*
X164550000Y-71800000D01*
X164550000Y-71800000D02*
X164550000Y-74721000D01*
X164550000Y-84500000D02*
X151850000Y-84500000D01*
X164550000Y-84500000D02*
X164550000Y-81579000D01*
X151850000Y-81579000D02*
X151850000Y-84500000D01*
D11*
G04 #@! TO.C,R2*
X167710000Y-72191422D02*
X167710000Y-72708578D01*
X166290000Y-72191422D02*
X166290000Y-72708578D01*
D14*
G04 #@! TO.C,RV1*
X93285000Y-106113000D02*
X93285000Y-96387000D01*
X98315000Y-96387000D02*
X98315000Y-106113000D01*
X95823610Y-107250000D02*
G75*
G03X95823610Y-107250000I-223610J0D01*
G01*
D13*
G04 #@! TO.C,U1*
X116550000Y-90650000D02*
X150250000Y-90650000D01*
X116550000Y-112850000D02*
X116550000Y-90650000D01*
X150250000Y-90650000D02*
X150250000Y-112850000D01*
X150250000Y-112850000D02*
X116550000Y-112850000D01*
D10*
X115000000Y-109550000D02*
G75*
G03X115000000Y-109550000I-100000J0D01*
G01*
D13*
G04 #@! TO.C,U2*
X160200000Y-98081000D02*
X156200000Y-98081000D01*
X160200000Y-103119000D02*
X156200000Y-103119000D01*
D10*
X154350000Y-98695000D02*
G75*
G03X154350000Y-98695000I-50000J0D01*
G01*
D15*
G04 #@! TO.C,U3*
X169925000Y-77475000D02*
X168950000Y-77475000D01*
X168950000Y-77475000D02*
X168950000Y-81400000D01*
X168950000Y-110625000D02*
X168950000Y-111175000D01*
X168950000Y-111175000D02*
X170500000Y-114300000D01*
X170500000Y-114300000D02*
X171975000Y-114300000D01*
X189600000Y-110500000D02*
X189600000Y-111200000D01*
X189600000Y-111200000D02*
X188275000Y-114350000D01*
X188275000Y-114350000D02*
X186675000Y-114350000D01*
X188675000Y-77475000D02*
X189525000Y-77475000D01*
X189525000Y-77475000D02*
X189525000Y-78150000D01*
D16*
G04 #@! TO.C,U4*
X194211200Y-92340400D02*
X194211200Y-91426000D01*
X192915800Y-94474000D02*
X194211200Y-94474000D01*
X194211200Y-94474000D02*
X194211200Y-93559600D01*
X194211200Y-91426000D02*
X193804800Y-91426000D01*
X193804800Y-91426000D02*
X193195200Y-91426000D01*
X193195200Y-91426000D02*
X192915800Y-91426000D01*
X192788800Y-92594400D02*
X192788800Y-93305600D01*
X193804800Y-91426000D02*
G75*
G02X193195200Y-91426000I-304800J0D01*
G01*
D17*
G04 #@! TO.C,G\002A\002A\002A*
G36*
X108849840Y-63873624D02*
X108962408Y-63952932D01*
X109034186Y-64071420D01*
X109051158Y-64218691D01*
X109048817Y-64238000D01*
X108996676Y-64372261D01*
X108896742Y-64469657D01*
X108767564Y-64522743D01*
X108627688Y-64524074D01*
X108495664Y-64466205D01*
X108490318Y-64462177D01*
X108404493Y-64355961D01*
X108369482Y-64223691D01*
X108382858Y-64086320D01*
X108442195Y-63964805D01*
X108545067Y-63880098D01*
X108558398Y-63874150D01*
X108710497Y-63843897D01*
X108849840Y-63873624D01*
X108849840Y-63873624D01*
G37*
X108849840Y-63873624D02*
X108962408Y-63952932D01*
X109034186Y-64071420D01*
X109051158Y-64218691D01*
X109048817Y-64238000D01*
X108996676Y-64372261D01*
X108896742Y-64469657D01*
X108767564Y-64522743D01*
X108627688Y-64524074D01*
X108495664Y-64466205D01*
X108490318Y-64462177D01*
X108404493Y-64355961D01*
X108369482Y-64223691D01*
X108382858Y-64086320D01*
X108442195Y-63964805D01*
X108545067Y-63880098D01*
X108558398Y-63874150D01*
X108710497Y-63843897D01*
X108849840Y-63873624D01*
G36*
X108254721Y-64156806D02*
X108252031Y-64335156D01*
X107905087Y-64319319D01*
X107725966Y-64316000D01*
X107575635Y-64322450D01*
X107473370Y-64337660D01*
X107457498Y-64342742D01*
X107356853Y-64382000D01*
X107366783Y-65008500D01*
X107376714Y-65635000D01*
X108251886Y-65655266D01*
X108257328Y-66016000D01*
X107634210Y-66016000D01*
X107403811Y-66015325D01*
X107232968Y-66012396D01*
X107108670Y-66005857D01*
X107017907Y-65994350D01*
X106947669Y-65976520D01*
X106884946Y-65951009D01*
X106851175Y-65934357D01*
X106768991Y-65886070D01*
X106706952Y-65829427D01*
X106662220Y-65754009D01*
X106631956Y-65649394D01*
X106613322Y-65505161D01*
X106603479Y-65310890D01*
X106599588Y-65056160D01*
X106599332Y-65009806D01*
X106601315Y-64734642D01*
X106611675Y-64521600D01*
X106632673Y-64360488D01*
X106666569Y-64241115D01*
X106715624Y-64153289D01*
X106782099Y-64086818D01*
X106808291Y-64067800D01*
X106852126Y-64044011D01*
X106911107Y-64026115D01*
X106996206Y-64013010D01*
X107118396Y-64003598D01*
X107288648Y-63996777D01*
X107517935Y-63991448D01*
X107581206Y-63990299D01*
X108257412Y-63978455D01*
X108254721Y-64156806D01*
X108254721Y-64156806D01*
G37*
X108254721Y-64156806D02*
X108252031Y-64335156D01*
X107905087Y-64319319D01*
X107725966Y-64316000D01*
X107575635Y-64322450D01*
X107473370Y-64337660D01*
X107457498Y-64342742D01*
X107356853Y-64382000D01*
X107366783Y-65008500D01*
X107376714Y-65635000D01*
X108251886Y-65655266D01*
X108257328Y-66016000D01*
X107634210Y-66016000D01*
X107403811Y-66015325D01*
X107232968Y-66012396D01*
X107108670Y-66005857D01*
X107017907Y-65994350D01*
X106947669Y-65976520D01*
X106884946Y-65951009D01*
X106851175Y-65934357D01*
X106768991Y-65886070D01*
X106706952Y-65829427D01*
X106662220Y-65754009D01*
X106631956Y-65649394D01*
X106613322Y-65505161D01*
X106603479Y-65310890D01*
X106599588Y-65056160D01*
X106599332Y-65009806D01*
X106601315Y-64734642D01*
X106611675Y-64521600D01*
X106632673Y-64360488D01*
X106666569Y-64241115D01*
X106715624Y-64153289D01*
X106782099Y-64086818D01*
X106808291Y-64067800D01*
X106852126Y-64044011D01*
X106911107Y-64026115D01*
X106996206Y-64013010D01*
X107118396Y-64003598D01*
X107288648Y-63996777D01*
X107517935Y-63991448D01*
X107581206Y-63990299D01*
X108257412Y-63978455D01*
X108254721Y-64156806D01*
G36*
X106124231Y-64809500D02*
X106223798Y-65050910D01*
X106320642Y-65280792D01*
X106409492Y-65487012D01*
X106485081Y-65657436D01*
X106542140Y-65779930D01*
X106565360Y-65825500D01*
X106669763Y-66016000D01*
X105691243Y-66016000D01*
X105712131Y-65911561D01*
X105707634Y-65788314D01*
X105658835Y-65639418D01*
X105584652Y-65471715D01*
X104682365Y-65471715D01*
X104602469Y-65657437D01*
X104555469Y-65794210D01*
X104540798Y-65902740D01*
X104544264Y-65929580D01*
X104552249Y-65973315D01*
X104539612Y-65999058D01*
X104492365Y-66011577D01*
X104396520Y-66015638D01*
X104290649Y-66016000D01*
X104015344Y-66016000D01*
X104087210Y-65915073D01*
X104122120Y-65855265D01*
X104182724Y-65739821D01*
X104263975Y-65578844D01*
X104360829Y-65382437D01*
X104468240Y-65160704D01*
X104481903Y-65132075D01*
X104854857Y-65132075D01*
X104888278Y-65138144D01*
X104977094Y-65142714D01*
X105104128Y-65145012D01*
X105145143Y-65145143D01*
X105279957Y-65142959D01*
X105381472Y-65137155D01*
X105432517Y-65128853D01*
X105435428Y-65126172D01*
X105421900Y-65081088D01*
X105386793Y-64989323D01*
X105338329Y-64870369D01*
X105284727Y-64743717D01*
X105234208Y-64628858D01*
X105194992Y-64545283D01*
X105177276Y-64514043D01*
X105154803Y-64534244D01*
X105110302Y-64603811D01*
X105052348Y-64706304D01*
X104989515Y-64825287D01*
X104930380Y-64944322D01*
X104883519Y-65046970D01*
X104857505Y-65116794D01*
X104854857Y-65132075D01*
X104481903Y-65132075D01*
X104560452Y-64967497D01*
X104686866Y-64698804D01*
X104783622Y-64487829D01*
X104853575Y-64327410D01*
X104899580Y-64210384D01*
X104924493Y-64129588D01*
X104931169Y-64077859D01*
X104925209Y-64052424D01*
X104913749Y-64023984D01*
X104922602Y-64004751D01*
X104962595Y-63992932D01*
X105044559Y-63986732D01*
X105179323Y-63984355D01*
X105338047Y-63984000D01*
X105787504Y-63984000D01*
X106124231Y-64809500D01*
X106124231Y-64809500D01*
G37*
X106124231Y-64809500D02*
X106223798Y-65050910D01*
X106320642Y-65280792D01*
X106409492Y-65487012D01*
X106485081Y-65657436D01*
X106542140Y-65779930D01*
X106565360Y-65825500D01*
X106669763Y-66016000D01*
X105691243Y-66016000D01*
X105712131Y-65911561D01*
X105707634Y-65788314D01*
X105658835Y-65639418D01*
X105584652Y-65471715D01*
X104682365Y-65471715D01*
X104602469Y-65657437D01*
X104555469Y-65794210D01*
X104540798Y-65902740D01*
X104544264Y-65929580D01*
X104552249Y-65973315D01*
X104539612Y-65999058D01*
X104492365Y-66011577D01*
X104396520Y-66015638D01*
X104290649Y-66016000D01*
X104015344Y-66016000D01*
X104087210Y-65915073D01*
X104122120Y-65855265D01*
X104182724Y-65739821D01*
X104263975Y-65578844D01*
X104360829Y-65382437D01*
X104468240Y-65160704D01*
X104481903Y-65132075D01*
X104854857Y-65132075D01*
X104888278Y-65138144D01*
X104977094Y-65142714D01*
X105104128Y-65145012D01*
X105145143Y-65145143D01*
X105279957Y-65142959D01*
X105381472Y-65137155D01*
X105432517Y-65128853D01*
X105435428Y-65126172D01*
X105421900Y-65081088D01*
X105386793Y-64989323D01*
X105338329Y-64870369D01*
X105284727Y-64743717D01*
X105234208Y-64628858D01*
X105194992Y-64545283D01*
X105177276Y-64514043D01*
X105154803Y-64534244D01*
X105110302Y-64603811D01*
X105052348Y-64706304D01*
X104989515Y-64825287D01*
X104930380Y-64944322D01*
X104883519Y-65046970D01*
X104857505Y-65116794D01*
X104854857Y-65132075D01*
X104481903Y-65132075D01*
X104560452Y-64967497D01*
X104686866Y-64698804D01*
X104783622Y-64487829D01*
X104853575Y-64327410D01*
X104899580Y-64210384D01*
X104924493Y-64129588D01*
X104931169Y-64077859D01*
X104925209Y-64052424D01*
X104913749Y-64023984D01*
X104922602Y-64004751D01*
X104962595Y-63992932D01*
X105044559Y-63986732D01*
X105179323Y-63984355D01*
X105338047Y-63984000D01*
X105787504Y-63984000D01*
X106124231Y-64809500D01*
G36*
X102786571Y-63984203D02*
X103039102Y-63985837D01*
X103273207Y-63990313D01*
X103476854Y-63997172D01*
X103638008Y-64005958D01*
X103744635Y-64016213D01*
X103773706Y-64021738D01*
X103907787Y-64079766D01*
X103995302Y-64172534D01*
X104042733Y-64310983D01*
X104056571Y-64499279D01*
X104050241Y-64674139D01*
X104026582Y-64790457D01*
X103978595Y-64861528D01*
X103899279Y-64900641D01*
X103838371Y-64913572D01*
X103742239Y-64937342D01*
X103717993Y-64964720D01*
X103765202Y-64993236D01*
X103856158Y-65015591D01*
X103944808Y-65043036D01*
X104003479Y-65094303D01*
X104037845Y-65182180D01*
X104053581Y-65319458D01*
X104056571Y-65467306D01*
X104053675Y-65620888D01*
X104042091Y-65722524D01*
X104017477Y-65792710D01*
X103975488Y-65851941D01*
X103974928Y-65852591D01*
X103925790Y-65900018D01*
X103863806Y-65937375D01*
X103780346Y-65965825D01*
X103666778Y-65986529D01*
X103514468Y-66000652D01*
X103314785Y-66009356D01*
X103059098Y-66013803D01*
X102768428Y-66015135D01*
X101933857Y-66016000D01*
X101933857Y-65653143D01*
X102714000Y-65653143D01*
X103297887Y-65653143D01*
X103287158Y-65408215D01*
X103276428Y-65163286D01*
X102714000Y-65142090D01*
X102714000Y-65653143D01*
X101933857Y-65653143D01*
X101933857Y-64643289D01*
X102718080Y-64643289D01*
X102722683Y-64736570D01*
X102728943Y-64768889D01*
X102773525Y-64796307D01*
X102867736Y-64813620D01*
X102989176Y-64819587D01*
X103115445Y-64812967D01*
X103212928Y-64795701D01*
X103259206Y-64775381D01*
X103283788Y-64733559D01*
X103293311Y-64651240D01*
X103294571Y-64561984D01*
X103292826Y-64443166D01*
X103281105Y-64377738D01*
X103249678Y-64346517D01*
X103188817Y-64330323D01*
X103175826Y-64327869D01*
X103061591Y-64316289D01*
X102926587Y-64315405D01*
X102894612Y-64317153D01*
X102732143Y-64328714D01*
X102721010Y-64523961D01*
X102718080Y-64643289D01*
X101933857Y-64643289D01*
X101933857Y-63984000D01*
X102786571Y-63984203D01*
X102786571Y-63984203D01*
G37*
X102786571Y-63984203D02*
X103039102Y-63985837D01*
X103273207Y-63990313D01*
X103476854Y-63997172D01*
X103638008Y-64005958D01*
X103744635Y-64016213D01*
X103773706Y-64021738D01*
X103907787Y-64079766D01*
X103995302Y-64172534D01*
X104042733Y-64310983D01*
X104056571Y-64499279D01*
X104050241Y-64674139D01*
X104026582Y-64790457D01*
X103978595Y-64861528D01*
X103899279Y-64900641D01*
X103838371Y-64913572D01*
X103742239Y-64937342D01*
X103717993Y-64964720D01*
X103765202Y-64993236D01*
X103856158Y-65015591D01*
X103944808Y-65043036D01*
X104003479Y-65094303D01*
X104037845Y-65182180D01*
X104053581Y-65319458D01*
X104056571Y-65467306D01*
X104053675Y-65620888D01*
X104042091Y-65722524D01*
X104017477Y-65792710D01*
X103975488Y-65851941D01*
X103974928Y-65852591D01*
X103925790Y-65900018D01*
X103863806Y-65937375D01*
X103780346Y-65965825D01*
X103666778Y-65986529D01*
X103514468Y-66000652D01*
X103314785Y-66009356D01*
X103059098Y-66013803D01*
X102768428Y-66015135D01*
X101933857Y-66016000D01*
X101933857Y-65653143D01*
X102714000Y-65653143D01*
X103297887Y-65653143D01*
X103287158Y-65408215D01*
X103276428Y-65163286D01*
X102714000Y-65142090D01*
X102714000Y-65653143D01*
X101933857Y-65653143D01*
X101933857Y-64643289D01*
X102718080Y-64643289D01*
X102722683Y-64736570D01*
X102728943Y-64768889D01*
X102773525Y-64796307D01*
X102867736Y-64813620D01*
X102989176Y-64819587D01*
X103115445Y-64812967D01*
X103212928Y-64795701D01*
X103259206Y-64775381D01*
X103283788Y-64733559D01*
X103293311Y-64651240D01*
X103294571Y-64561984D01*
X103292826Y-64443166D01*
X103281105Y-64377738D01*
X103249678Y-64346517D01*
X103188817Y-64330323D01*
X103175826Y-64327869D01*
X103061591Y-64316289D01*
X102926587Y-64315405D01*
X102894612Y-64317153D01*
X102732143Y-64328714D01*
X102721010Y-64523961D01*
X102718080Y-64643289D01*
X101933857Y-64643289D01*
X101933857Y-63984000D01*
X102786571Y-63984203D01*
G36*
X108888193Y-65522105D02*
X108957934Y-65577780D01*
X109038185Y-65700824D01*
X109057216Y-65833535D01*
X109022049Y-65960886D01*
X108939705Y-66067848D01*
X108817205Y-66139396D01*
X108685374Y-66161143D01*
X108599555Y-66136998D01*
X108504310Y-66077334D01*
X108485909Y-66061357D01*
X108393100Y-65933997D01*
X108363477Y-65793518D01*
X108397545Y-65656435D01*
X108470584Y-65560696D01*
X108601928Y-65483446D01*
X108747119Y-65470793D01*
X108888193Y-65522105D01*
X108888193Y-65522105D01*
G37*
X108888193Y-65522105D02*
X108957934Y-65577780D01*
X109038185Y-65700824D01*
X109057216Y-65833535D01*
X109022049Y-65960886D01*
X108939705Y-66067848D01*
X108817205Y-66139396D01*
X108685374Y-66161143D01*
X108599555Y-66136998D01*
X108504310Y-66077334D01*
X108485909Y-66061357D01*
X108393100Y-65933997D01*
X108363477Y-65793518D01*
X108397545Y-65656435D01*
X108470584Y-65560696D01*
X108601928Y-65483446D01*
X108747119Y-65470793D01*
X108888193Y-65522105D01*
G36*
X105703261Y-60954491D02*
X106190096Y-61059520D01*
X106660361Y-61222568D01*
X107108498Y-61442127D01*
X107528952Y-61716689D01*
X107916166Y-62044747D01*
X108264583Y-62424792D01*
X108568648Y-62855317D01*
X108791928Y-63267954D01*
X108862250Y-63421800D01*
X108922326Y-63562223D01*
X108963807Y-63669252D01*
X108976204Y-63708752D01*
X108989093Y-63780217D01*
X108971069Y-63797808D01*
X108933359Y-63785263D01*
X108740686Y-63734077D01*
X108564437Y-63752875D01*
X108399454Y-63842351D01*
X108377368Y-63860215D01*
X108300920Y-63915141D01*
X108267622Y-63914278D01*
X108265714Y-63902949D01*
X108247787Y-63833364D01*
X108199387Y-63717630D01*
X108128581Y-63571088D01*
X108043441Y-63409079D01*
X107952034Y-63246945D01*
X107862430Y-63100026D01*
X107782698Y-62983664D01*
X107780988Y-62981395D01*
X107460824Y-62614315D01*
X107102534Y-62304731D01*
X106712631Y-62053102D01*
X106297629Y-61859888D01*
X105864043Y-61725547D01*
X105418387Y-61650538D01*
X104967174Y-61635323D01*
X104516919Y-61680359D01*
X104074137Y-61786106D01*
X103645340Y-61953023D01*
X103237044Y-62181570D01*
X102855762Y-62472207D01*
X102695339Y-62622768D01*
X102374366Y-62992618D01*
X102115562Y-63393883D01*
X101919288Y-63819943D01*
X101785908Y-64264174D01*
X101715786Y-64719956D01*
X101709285Y-65180664D01*
X101766769Y-65639679D01*
X101888601Y-66090377D01*
X102075144Y-66526137D01*
X102326762Y-66940337D01*
X102449448Y-67103175D01*
X102779060Y-67459655D01*
X103147497Y-67758618D01*
X103548023Y-67999035D01*
X103973905Y-68179879D01*
X104418407Y-68300119D01*
X104874795Y-68358729D01*
X105336333Y-68354678D01*
X105796287Y-68286939D01*
X106247921Y-68154483D01*
X106684502Y-67956281D01*
X106957135Y-67791627D01*
X107202898Y-67607357D01*
X107445930Y-67389348D01*
X107666696Y-67156967D01*
X107845659Y-66929582D01*
X107882600Y-66874189D01*
X107965600Y-66736784D01*
X108051469Y-66582255D01*
X108132311Y-66426404D01*
X108200226Y-66285035D01*
X108247318Y-66173949D01*
X108265688Y-66108950D01*
X108265714Y-66107620D01*
X108284352Y-66058031D01*
X108323519Y-66064644D01*
X108352036Y-66108353D01*
X108414464Y-66179243D01*
X108525989Y-66229045D01*
X108665165Y-66253704D01*
X108810544Y-66249166D01*
X108927928Y-66217219D01*
X108968786Y-66206457D01*
X108986088Y-66224758D01*
X108978067Y-66280253D01*
X108942954Y-66381070D01*
X108878983Y-66535338D01*
X108838479Y-66628543D01*
X108596688Y-67096861D01*
X108298425Y-67523805D01*
X107937784Y-67917814D01*
X107933615Y-67921835D01*
X107567291Y-68244588D01*
X107199449Y-68505071D01*
X106815386Y-68712378D01*
X106400402Y-68875603D01*
X106382076Y-68881629D01*
X105844798Y-69019952D01*
X105302383Y-69086055D01*
X104756445Y-69079804D01*
X104437571Y-69042780D01*
X103922679Y-68928048D01*
X103435394Y-68750271D01*
X102979881Y-68514562D01*
X102560306Y-68226038D01*
X102180832Y-67889814D01*
X101845624Y-67511004D01*
X101558847Y-67094725D01*
X101324666Y-66646091D01*
X101147244Y-66170218D01*
X101030746Y-65672221D01*
X100979338Y-65157214D01*
X100983653Y-64800429D01*
X101048624Y-64254017D01*
X101180046Y-63732504D01*
X101379747Y-63230390D01*
X101649555Y-62742180D01*
X101687530Y-62683040D01*
X101794161Y-62540077D01*
X101943204Y-62367874D01*
X102119579Y-62181479D01*
X102308210Y-61995941D01*
X102494018Y-61826310D01*
X102661925Y-61687635D01*
X102745420Y-61627150D01*
X103214996Y-61352402D01*
X103701340Y-61144720D01*
X104198894Y-61002595D01*
X104702104Y-60924521D01*
X105205411Y-60908989D01*
X105703261Y-60954491D01*
X105703261Y-60954491D01*
G37*
X105703261Y-60954491D02*
X106190096Y-61059520D01*
X106660361Y-61222568D01*
X107108498Y-61442127D01*
X107528952Y-61716689D01*
X107916166Y-62044747D01*
X108264583Y-62424792D01*
X108568648Y-62855317D01*
X108791928Y-63267954D01*
X108862250Y-63421800D01*
X108922326Y-63562223D01*
X108963807Y-63669252D01*
X108976204Y-63708752D01*
X108989093Y-63780217D01*
X108971069Y-63797808D01*
X108933359Y-63785263D01*
X108740686Y-63734077D01*
X108564437Y-63752875D01*
X108399454Y-63842351D01*
X108377368Y-63860215D01*
X108300920Y-63915141D01*
X108267622Y-63914278D01*
X108265714Y-63902949D01*
X108247787Y-63833364D01*
X108199387Y-63717630D01*
X108128581Y-63571088D01*
X108043441Y-63409079D01*
X107952034Y-63246945D01*
X107862430Y-63100026D01*
X107782698Y-62983664D01*
X107780988Y-62981395D01*
X107460824Y-62614315D01*
X107102534Y-62304731D01*
X106712631Y-62053102D01*
X106297629Y-61859888D01*
X105864043Y-61725547D01*
X105418387Y-61650538D01*
X104967174Y-61635323D01*
X104516919Y-61680359D01*
X104074137Y-61786106D01*
X103645340Y-61953023D01*
X103237044Y-62181570D01*
X102855762Y-62472207D01*
X102695339Y-62622768D01*
X102374366Y-62992618D01*
X102115562Y-63393883D01*
X101919288Y-63819943D01*
X101785908Y-64264174D01*
X101715786Y-64719956D01*
X101709285Y-65180664D01*
X101766769Y-65639679D01*
X101888601Y-66090377D01*
X102075144Y-66526137D01*
X102326762Y-66940337D01*
X102449448Y-67103175D01*
X102779060Y-67459655D01*
X103147497Y-67758618D01*
X103548023Y-67999035D01*
X103973905Y-68179879D01*
X104418407Y-68300119D01*
X104874795Y-68358729D01*
X105336333Y-68354678D01*
X105796287Y-68286939D01*
X106247921Y-68154483D01*
X106684502Y-67956281D01*
X106957135Y-67791627D01*
X107202898Y-67607357D01*
X107445930Y-67389348D01*
X107666696Y-67156967D01*
X107845659Y-66929582D01*
X107882600Y-66874189D01*
X107965600Y-66736784D01*
X108051469Y-66582255D01*
X108132311Y-66426404D01*
X108200226Y-66285035D01*
X108247318Y-66173949D01*
X108265688Y-66108950D01*
X108265714Y-66107620D01*
X108284352Y-66058031D01*
X108323519Y-66064644D01*
X108352036Y-66108353D01*
X108414464Y-66179243D01*
X108525989Y-66229045D01*
X108665165Y-66253704D01*
X108810544Y-66249166D01*
X108927928Y-66217219D01*
X108968786Y-66206457D01*
X108986088Y-66224758D01*
X108978067Y-66280253D01*
X108942954Y-66381070D01*
X108878983Y-66535338D01*
X108838479Y-66628543D01*
X108596688Y-67096861D01*
X108298425Y-67523805D01*
X107937784Y-67917814D01*
X107933615Y-67921835D01*
X107567291Y-68244588D01*
X107199449Y-68505071D01*
X106815386Y-68712378D01*
X106400402Y-68875603D01*
X106382076Y-68881629D01*
X105844798Y-69019952D01*
X105302383Y-69086055D01*
X104756445Y-69079804D01*
X104437571Y-69042780D01*
X103922679Y-68928048D01*
X103435394Y-68750271D01*
X102979881Y-68514562D01*
X102560306Y-68226038D01*
X102180832Y-67889814D01*
X101845624Y-67511004D01*
X101558847Y-67094725D01*
X101324666Y-66646091D01*
X101147244Y-66170218D01*
X101030746Y-65672221D01*
X100979338Y-65157214D01*
X100983653Y-64800429D01*
X101048624Y-64254017D01*
X101180046Y-63732504D01*
X101379747Y-63230390D01*
X101649555Y-62742180D01*
X101687530Y-62683040D01*
X101794161Y-62540077D01*
X101943204Y-62367874D01*
X102119579Y-62181479D01*
X102308210Y-61995941D01*
X102494018Y-61826310D01*
X102661925Y-61687635D01*
X102745420Y-61627150D01*
X103214996Y-61352402D01*
X103701340Y-61144720D01*
X104198894Y-61002595D01*
X104702104Y-60924521D01*
X105205411Y-60908989D01*
X105703261Y-60954491D01*
G36*
X121993650Y-64782492D02*
X122007620Y-64784100D01*
X122008992Y-64889344D01*
X122010365Y-64994588D01*
X122051249Y-64979514D01*
X122070271Y-64972668D01*
X122085645Y-64967446D01*
X122094898Y-64964677D01*
X122096274Y-64964440D01*
X122100160Y-64968565D01*
X122103892Y-64977432D01*
X122105557Y-64985776D01*
X122104922Y-64988210D01*
X122099909Y-64990344D01*
X122087162Y-64995216D01*
X122068512Y-65002140D01*
X122045792Y-65010430D01*
X122041624Y-65011937D01*
X121979680Y-65034310D01*
X121979680Y-64780885D01*
X121993650Y-64782492D01*
X121993650Y-64782492D01*
G37*
X121993650Y-64782492D02*
X122007620Y-64784100D01*
X122008992Y-64889344D01*
X122010365Y-64994588D01*
X122051249Y-64979514D01*
X122070271Y-64972668D01*
X122085645Y-64967446D01*
X122094898Y-64964677D01*
X122096274Y-64964440D01*
X122100160Y-64968565D01*
X122103892Y-64977432D01*
X122105557Y-64985776D01*
X122104922Y-64988210D01*
X122099909Y-64990344D01*
X122087162Y-64995216D01*
X122068512Y-65002140D01*
X122045792Y-65010430D01*
X122041624Y-65011937D01*
X121979680Y-65034310D01*
X121979680Y-64780885D01*
X121993650Y-64782492D01*
G36*
X122259299Y-63628839D02*
X122282336Y-63640527D01*
X122287188Y-63644469D01*
X122294488Y-63651161D01*
X122300618Y-63657935D01*
X122305681Y-63665700D01*
X122309778Y-63675362D01*
X122313012Y-63687829D01*
X122315485Y-63704006D01*
X122317298Y-63724803D01*
X122318553Y-63751125D01*
X122319353Y-63783881D01*
X122319799Y-63823976D01*
X122319994Y-63872319D01*
X122320039Y-63929816D01*
X122320040Y-63936644D01*
X122320040Y-64166880D01*
X122157011Y-64166880D01*
X122158515Y-63929390D01*
X122160020Y-63691900D01*
X122172720Y-63669040D01*
X122189928Y-63646720D01*
X122211294Y-63632322D01*
X122235018Y-63626233D01*
X122259299Y-63628839D01*
X122259299Y-63628839D01*
G37*
X122259299Y-63628839D02*
X122282336Y-63640527D01*
X122287188Y-63644469D01*
X122294488Y-63651161D01*
X122300618Y-63657935D01*
X122305681Y-63665700D01*
X122309778Y-63675362D01*
X122313012Y-63687829D01*
X122315485Y-63704006D01*
X122317298Y-63724803D01*
X122318553Y-63751125D01*
X122319353Y-63783881D01*
X122319799Y-63823976D01*
X122319994Y-63872319D01*
X122320039Y-63929816D01*
X122320040Y-63936644D01*
X122320040Y-64166880D01*
X122157011Y-64166880D01*
X122158515Y-63929390D01*
X122160020Y-63691900D01*
X122172720Y-63669040D01*
X122189928Y-63646720D01*
X122211294Y-63632322D01*
X122235018Y-63626233D01*
X122259299Y-63628839D01*
G36*
X122015247Y-63626780D02*
X122038519Y-63635864D01*
X122058899Y-63652219D01*
X122071120Y-63669040D01*
X122083820Y-63691900D01*
X122086828Y-64166880D01*
X121923800Y-64166880D01*
X121923828Y-63937010D01*
X121923971Y-63871544D01*
X121924381Y-63815761D01*
X121925057Y-63769747D01*
X121925996Y-63733588D01*
X121927196Y-63707371D01*
X121928656Y-63691181D01*
X121929466Y-63686934D01*
X121939421Y-63665781D01*
X121955577Y-63646672D01*
X121975057Y-63632415D01*
X121991571Y-63626302D01*
X122015247Y-63626780D01*
X122015247Y-63626780D01*
G37*
X122015247Y-63626780D02*
X122038519Y-63635864D01*
X122058899Y-63652219D01*
X122071120Y-63669040D01*
X122083820Y-63691900D01*
X122086828Y-64166880D01*
X121923800Y-64166880D01*
X121923828Y-63937010D01*
X121923971Y-63871544D01*
X121924381Y-63815761D01*
X121925057Y-63769747D01*
X121925996Y-63733588D01*
X121927196Y-63707371D01*
X121928656Y-63691181D01*
X121929466Y-63686934D01*
X121939421Y-63665781D01*
X121955577Y-63646672D01*
X121975057Y-63632415D01*
X121991571Y-63626302D01*
X122015247Y-63626780D01*
G36*
X121787815Y-63628577D02*
X121811403Y-63641734D01*
X121815714Y-63645317D01*
X121822859Y-63651660D01*
X121828848Y-63657676D01*
X121833783Y-63664278D01*
X121837767Y-63672376D01*
X121840900Y-63682883D01*
X121843285Y-63696710D01*
X121845025Y-63714771D01*
X121846220Y-63737976D01*
X121846973Y-63767237D01*
X121847386Y-63803467D01*
X121847561Y-63847578D01*
X121847599Y-63900481D01*
X121847600Y-63930496D01*
X121847600Y-64166880D01*
X121690120Y-64166880D01*
X121690120Y-63933036D01*
X121690137Y-63875594D01*
X121690252Y-63827386D01*
X121690559Y-63787484D01*
X121691151Y-63754963D01*
X121692125Y-63728895D01*
X121693573Y-63708355D01*
X121695590Y-63692416D01*
X121698270Y-63680150D01*
X121701707Y-63670633D01*
X121705997Y-63662937D01*
X121711232Y-63656135D01*
X121717508Y-63649301D01*
X121719167Y-63647567D01*
X121740524Y-63631521D01*
X121763798Y-63625182D01*
X121787815Y-63628577D01*
X121787815Y-63628577D01*
G37*
X121787815Y-63628577D02*
X121811403Y-63641734D01*
X121815714Y-63645317D01*
X121822859Y-63651660D01*
X121828848Y-63657676D01*
X121833783Y-63664278D01*
X121837767Y-63672376D01*
X121840900Y-63682883D01*
X121843285Y-63696710D01*
X121845025Y-63714771D01*
X121846220Y-63737976D01*
X121846973Y-63767237D01*
X121847386Y-63803467D01*
X121847561Y-63847578D01*
X121847599Y-63900481D01*
X121847600Y-63930496D01*
X121847600Y-64166880D01*
X121690120Y-64166880D01*
X121690120Y-63933036D01*
X121690137Y-63875594D01*
X121690252Y-63827386D01*
X121690559Y-63787484D01*
X121691151Y-63754963D01*
X121692125Y-63728895D01*
X121693573Y-63708355D01*
X121695590Y-63692416D01*
X121698270Y-63680150D01*
X121701707Y-63670633D01*
X121705997Y-63662937D01*
X121711232Y-63656135D01*
X121717508Y-63649301D01*
X121719167Y-63647567D01*
X121740524Y-63631521D01*
X121763798Y-63625182D01*
X121787815Y-63628577D01*
G36*
X122077077Y-64705911D02*
X122129241Y-64723698D01*
X122176201Y-64749889D01*
X122217344Y-64784014D01*
X122252060Y-64825600D01*
X122279736Y-64874178D01*
X122292937Y-64907145D01*
X122304112Y-64953775D01*
X122307470Y-65003531D01*
X122303012Y-65053052D01*
X122292937Y-65092854D01*
X122269900Y-65145483D01*
X122239543Y-65191346D01*
X122202479Y-65229980D01*
X122159321Y-65260922D01*
X122110683Y-65283709D01*
X122057178Y-65297877D01*
X122015240Y-65302519D01*
X121977339Y-65302312D01*
X121943279Y-65298114D01*
X121939040Y-65297214D01*
X121888092Y-65280769D01*
X121841351Y-65255277D01*
X121798295Y-65220446D01*
X121791549Y-65213821D01*
X121759557Y-65177588D01*
X121735731Y-65140762D01*
X121718360Y-65100377D01*
X121710315Y-65073172D01*
X121701847Y-65019929D01*
X121702453Y-64994075D01*
X121729077Y-64994075D01*
X121732324Y-65043255D01*
X121744116Y-65090884D01*
X121764453Y-65135200D01*
X121770604Y-65145146D01*
X121803270Y-65187022D01*
X121841504Y-65221852D01*
X121884032Y-65248698D01*
X121929577Y-65266620D01*
X121938946Y-65269053D01*
X121960990Y-65272331D01*
X121988951Y-65273739D01*
X122019112Y-65273355D01*
X122047760Y-65271260D01*
X122071176Y-65267531D01*
X122076547Y-65266128D01*
X122122760Y-65247702D01*
X122165674Y-65221456D01*
X122203454Y-65188862D01*
X122234262Y-65151391D01*
X122247627Y-65129126D01*
X122267566Y-65081003D01*
X122277968Y-65032032D01*
X122279284Y-64983235D01*
X122271962Y-64935637D01*
X122256451Y-64890262D01*
X122233202Y-64848132D01*
X122202664Y-64810272D01*
X122165285Y-64777706D01*
X122121516Y-64751457D01*
X122073784Y-64733117D01*
X122043115Y-64727420D01*
X122007036Y-64725717D01*
X121969344Y-64727804D01*
X121933834Y-64733477D01*
X121905147Y-64742178D01*
X121857870Y-64766648D01*
X121817034Y-64798590D01*
X121781797Y-64838707D01*
X121770604Y-64854853D01*
X121748217Y-64898113D01*
X121734375Y-64945108D01*
X121729077Y-64994075D01*
X121702453Y-64994075D01*
X121703114Y-64965912D01*
X121713938Y-64912579D01*
X121734141Y-64861384D01*
X121736814Y-64856165D01*
X121756857Y-64825173D01*
X121783801Y-64793801D01*
X121814864Y-64764746D01*
X121847265Y-64740709D01*
X121867920Y-64728958D01*
X121918676Y-64708992D01*
X121970024Y-64698235D01*
X122020320Y-64697000D01*
X122077077Y-64705911D01*
X122077077Y-64705911D01*
G37*
X122077077Y-64705911D02*
X122129241Y-64723698D01*
X122176201Y-64749889D01*
X122217344Y-64784014D01*
X122252060Y-64825600D01*
X122279736Y-64874178D01*
X122292937Y-64907145D01*
X122304112Y-64953775D01*
X122307470Y-65003531D01*
X122303012Y-65053052D01*
X122292937Y-65092854D01*
X122269900Y-65145483D01*
X122239543Y-65191346D01*
X122202479Y-65229980D01*
X122159321Y-65260922D01*
X122110683Y-65283709D01*
X122057178Y-65297877D01*
X122015240Y-65302519D01*
X121977339Y-65302312D01*
X121943279Y-65298114D01*
X121939040Y-65297214D01*
X121888092Y-65280769D01*
X121841351Y-65255277D01*
X121798295Y-65220446D01*
X121791549Y-65213821D01*
X121759557Y-65177588D01*
X121735731Y-65140762D01*
X121718360Y-65100377D01*
X121710315Y-65073172D01*
X121701847Y-65019929D01*
X121702453Y-64994075D01*
X121729077Y-64994075D01*
X121732324Y-65043255D01*
X121744116Y-65090884D01*
X121764453Y-65135200D01*
X121770604Y-65145146D01*
X121803270Y-65187022D01*
X121841504Y-65221852D01*
X121884032Y-65248698D01*
X121929577Y-65266620D01*
X121938946Y-65269053D01*
X121960990Y-65272331D01*
X121988951Y-65273739D01*
X122019112Y-65273355D01*
X122047760Y-65271260D01*
X122071176Y-65267531D01*
X122076547Y-65266128D01*
X122122760Y-65247702D01*
X122165674Y-65221456D01*
X122203454Y-65188862D01*
X122234262Y-65151391D01*
X122247627Y-65129126D01*
X122267566Y-65081003D01*
X122277968Y-65032032D01*
X122279284Y-64983235D01*
X122271962Y-64935637D01*
X122256451Y-64890262D01*
X122233202Y-64848132D01*
X122202664Y-64810272D01*
X122165285Y-64777706D01*
X122121516Y-64751457D01*
X122073784Y-64733117D01*
X122043115Y-64727420D01*
X122007036Y-64725717D01*
X121969344Y-64727804D01*
X121933834Y-64733477D01*
X121905147Y-64742178D01*
X121857870Y-64766648D01*
X121817034Y-64798590D01*
X121781797Y-64838707D01*
X121770604Y-64854853D01*
X121748217Y-64898113D01*
X121734375Y-64945108D01*
X121729077Y-64994075D01*
X121702453Y-64994075D01*
X121703114Y-64965912D01*
X121713938Y-64912579D01*
X121734141Y-64861384D01*
X121736814Y-64856165D01*
X121756857Y-64825173D01*
X121783801Y-64793801D01*
X121814864Y-64764746D01*
X121847265Y-64740709D01*
X121867920Y-64728958D01*
X121918676Y-64708992D01*
X121970024Y-64698235D01*
X122020320Y-64697000D01*
X122077077Y-64705911D01*
G36*
X122044992Y-61622109D02*
X122091340Y-61635768D01*
X122108124Y-61643266D01*
X122111108Y-61644946D01*
X122114960Y-61647565D01*
X122119878Y-61651318D01*
X122126060Y-61656401D01*
X122133704Y-61663010D01*
X122143009Y-61671343D01*
X122154173Y-61681593D01*
X122167393Y-61693958D01*
X122182867Y-61708633D01*
X122200795Y-61725815D01*
X122221374Y-61745699D01*
X122244802Y-61768482D01*
X122271277Y-61794359D01*
X122300998Y-61823527D01*
X122334162Y-61856181D01*
X122370968Y-61892518D01*
X122411613Y-61932733D01*
X122456297Y-61977022D01*
X122505217Y-62025583D01*
X122558571Y-62078609D01*
X122616557Y-62136298D01*
X122679373Y-62198846D01*
X122747219Y-62266448D01*
X122820291Y-62339300D01*
X122898788Y-62417600D01*
X122982907Y-62501541D01*
X123072848Y-62591321D01*
X123168808Y-62687136D01*
X123270986Y-62789181D01*
X123379579Y-62897653D01*
X123494785Y-63012748D01*
X123616804Y-63134660D01*
X123729015Y-63246784D01*
X123835736Y-63353441D01*
X123940721Y-63458395D01*
X124043736Y-63561411D01*
X124144548Y-63662257D01*
X124242923Y-63760697D01*
X124338630Y-63856498D01*
X124431434Y-63949426D01*
X124521102Y-64039246D01*
X124607402Y-64125725D01*
X124690100Y-64208628D01*
X124768963Y-64287722D01*
X124843757Y-64362772D01*
X124914251Y-64433544D01*
X124980209Y-64499805D01*
X125041400Y-64561320D01*
X125097590Y-64617856D01*
X125148546Y-64669177D01*
X125194035Y-64715051D01*
X125233824Y-64755243D01*
X125267679Y-64789518D01*
X125295367Y-64817644D01*
X125316655Y-64839386D01*
X125331311Y-64854510D01*
X125339100Y-64862782D01*
X125340229Y-64864103D01*
X125364223Y-64904208D01*
X125379209Y-64947524D01*
X125385188Y-64992567D01*
X125382158Y-65037850D01*
X125370121Y-65081889D01*
X125349076Y-65123200D01*
X125340218Y-65135896D01*
X125335090Y-65141543D01*
X125323020Y-65154120D01*
X125304257Y-65173376D01*
X125279049Y-65199062D01*
X125247645Y-65230929D01*
X125210292Y-65268728D01*
X125167239Y-65312208D01*
X125118734Y-65361121D01*
X125065026Y-65415217D01*
X125006363Y-65474247D01*
X124942993Y-65537960D01*
X124875164Y-65606108D01*
X124803126Y-65678442D01*
X124727125Y-65754711D01*
X124647410Y-65834666D01*
X124564230Y-65918058D01*
X124477832Y-66004637D01*
X124388466Y-66094154D01*
X124296380Y-66186360D01*
X124201820Y-66281004D01*
X124105037Y-66377838D01*
X124006279Y-66476612D01*
X123910615Y-66572256D01*
X122502920Y-67979413D01*
X122502920Y-67855387D01*
X122463550Y-67853903D01*
X122424180Y-67852420D01*
X122422902Y-66096010D01*
X122422823Y-65986914D01*
X122750764Y-65986914D01*
X122753447Y-66005267D01*
X122754741Y-66015629D01*
X122756860Y-66034349D01*
X122759614Y-66059674D01*
X122762814Y-66089854D01*
X122766270Y-66123134D01*
X122767709Y-66137190D01*
X122779288Y-66250760D01*
X122810014Y-66247351D01*
X122823815Y-66245539D01*
X122845778Y-66242315D01*
X122874048Y-66237968D01*
X122906768Y-66232784D01*
X122942085Y-66227053D01*
X122962660Y-66223652D01*
X123112212Y-66196792D01*
X123256454Y-66166930D01*
X123394987Y-66134217D01*
X123527414Y-66098805D01*
X123653338Y-66060846D01*
X123772359Y-66020492D01*
X123884082Y-65977894D01*
X123988108Y-65933205D01*
X124084039Y-65886576D01*
X124171478Y-65838159D01*
X124250027Y-65788106D01*
X124319289Y-65736569D01*
X124378866Y-65683699D01*
X124380071Y-65682516D01*
X124429639Y-65629148D01*
X124469344Y-65576122D01*
X124499445Y-65522907D01*
X124520201Y-65468975D01*
X124531872Y-65413794D01*
X124534844Y-65366217D01*
X124532450Y-65319579D01*
X124524776Y-65277971D01*
X124510847Y-65237221D01*
X124498472Y-65210208D01*
X124466011Y-65155621D01*
X124423687Y-65102823D01*
X124371652Y-65051897D01*
X124310058Y-65002926D01*
X124239058Y-64955994D01*
X124158805Y-64911185D01*
X124069451Y-64868581D01*
X123971149Y-64828266D01*
X123864050Y-64790324D01*
X123748308Y-64754837D01*
X123624074Y-64721889D01*
X123590043Y-64713663D01*
X123496766Y-64691554D01*
X123472830Y-64616878D01*
X123464452Y-64591015D01*
X123457073Y-64568756D01*
X123451274Y-64551815D01*
X123447639Y-64541908D01*
X123446774Y-64540080D01*
X123441520Y-64540135D01*
X123427158Y-64540968D01*
X123404704Y-64542497D01*
X123375173Y-64544639D01*
X123339581Y-64547312D01*
X123298944Y-64550433D01*
X123254277Y-64553921D01*
X123206595Y-64557692D01*
X123156915Y-64561664D01*
X123106253Y-64565756D01*
X123055623Y-64569884D01*
X123006041Y-64573966D01*
X122958523Y-64577920D01*
X122914085Y-64581664D01*
X122873742Y-64585114D01*
X122838509Y-64588190D01*
X122809403Y-64590807D01*
X122787439Y-64592884D01*
X122773633Y-64594339D01*
X122769005Y-64595061D01*
X122773387Y-64596879D01*
X122786560Y-64601530D01*
X122807644Y-64608728D01*
X122835761Y-64618185D01*
X122870033Y-64629615D01*
X122909580Y-64642731D01*
X122953524Y-64657245D01*
X123000986Y-64672872D01*
X123051087Y-64689323D01*
X123102949Y-64706311D01*
X123155694Y-64723551D01*
X123208442Y-64740755D01*
X123260314Y-64757636D01*
X123310433Y-64773907D01*
X123357918Y-64789281D01*
X123401893Y-64803472D01*
X123441478Y-64816192D01*
X123475793Y-64827154D01*
X123503962Y-64836071D01*
X123525104Y-64842658D01*
X123538342Y-64846625D01*
X123542727Y-64847725D01*
X123544412Y-64843070D01*
X123541803Y-64829353D01*
X123534925Y-64806709D01*
X123533864Y-64803546D01*
X123527568Y-64784002D01*
X123523117Y-64768373D01*
X123521126Y-64758922D01*
X123521250Y-64757216D01*
X123527582Y-64757202D01*
X123542209Y-64760480D01*
X123563962Y-64766642D01*
X123591675Y-64775277D01*
X123624179Y-64785977D01*
X123660307Y-64798334D01*
X123698892Y-64811937D01*
X123738765Y-64826378D01*
X123778760Y-64841249D01*
X123817708Y-64856140D01*
X123854442Y-64870642D01*
X123887795Y-64884346D01*
X123904046Y-64891296D01*
X123988647Y-64930477D01*
X124066244Y-64971269D01*
X124136548Y-65013383D01*
X124199268Y-65056529D01*
X124254115Y-65100418D01*
X124300800Y-65144760D01*
X124339032Y-65189265D01*
X124368522Y-65233645D01*
X124388981Y-65277609D01*
X124400118Y-65320868D01*
X124401645Y-65363132D01*
X124398359Y-65385499D01*
X124383586Y-65430648D01*
X124358991Y-65475026D01*
X124324894Y-65518504D01*
X124281612Y-65560952D01*
X124229464Y-65602240D01*
X124168768Y-65642241D01*
X124099842Y-65680824D01*
X124023006Y-65717860D01*
X123938577Y-65753220D01*
X123846873Y-65786776D01*
X123748214Y-65818396D01*
X123642917Y-65847953D01*
X123531300Y-65875317D01*
X123413683Y-65900359D01*
X123290384Y-65922950D01*
X123161720Y-65942960D01*
X123028011Y-65960260D01*
X122965200Y-65967241D01*
X122928075Y-65971093D01*
X122891236Y-65974798D01*
X122856915Y-65978139D01*
X122827349Y-65980901D01*
X122804770Y-65982868D01*
X122798292Y-65983376D01*
X122750764Y-65986914D01*
X122422823Y-65986914D01*
X122421625Y-64339599D01*
X122459732Y-64339600D01*
X122497840Y-64339600D01*
X122497840Y-64284165D01*
X122461010Y-64282672D01*
X122424180Y-64281180D01*
X122424180Y-63509020D01*
X122497840Y-63506034D01*
X122497840Y-63450600D01*
X122460900Y-63450600D01*
X122423961Y-63450599D01*
X122394093Y-63299470D01*
X122384405Y-63251309D01*
X122376222Y-63212579D01*
X122369399Y-63182684D01*
X122363793Y-63161027D01*
X122359258Y-63147015D01*
X122355650Y-63140051D01*
X122355348Y-63139732D01*
X122349544Y-63129850D01*
X122344616Y-63114226D01*
X122342822Y-63104594D01*
X122339912Y-63089687D01*
X122336722Y-63084880D01*
X122333320Y-63090118D01*
X122329773Y-63105346D01*
X122327980Y-63116590D01*
X122324422Y-63132143D01*
X122319680Y-63140085D01*
X122317849Y-63140720D01*
X122313590Y-63145695D01*
X122308524Y-63160660D01*
X122302632Y-63185668D01*
X122299669Y-63200410D01*
X122294903Y-63224244D01*
X122290520Y-63244658D01*
X122287014Y-63259438D01*
X122284920Y-63266301D01*
X122283128Y-63262492D01*
X122278901Y-63249585D01*
X122272443Y-63228296D01*
X122263956Y-63199339D01*
X122253643Y-63163429D01*
X122241708Y-63121282D01*
X122228354Y-63073610D01*
X122213783Y-63021130D01*
X122198198Y-62964555D01*
X122181803Y-62904601D01*
X122173790Y-62875141D01*
X122065878Y-62477780D01*
X122065959Y-62410470D01*
X122065901Y-62383186D01*
X122065495Y-62364463D01*
X122064510Y-62352698D01*
X122062715Y-62346293D01*
X122059878Y-62343648D01*
X122056222Y-62343160D01*
X122046907Y-62339168D01*
X122043880Y-62334270D01*
X122042596Y-62326991D01*
X122040276Y-62311060D01*
X122037112Y-62287909D01*
X122033297Y-62258970D01*
X122029023Y-62225677D01*
X122024813Y-62192128D01*
X122020356Y-62156759D01*
X122016231Y-62125041D01*
X122012618Y-62098265D01*
X122009695Y-62077725D01*
X122007639Y-62064712D01*
X122006639Y-62060507D01*
X122005683Y-62065626D01*
X122003644Y-62079247D01*
X122000730Y-62099794D01*
X121997152Y-62125689D01*
X121993118Y-62155359D01*
X121988840Y-62187226D01*
X121984526Y-62219715D01*
X121980386Y-62251250D01*
X121976630Y-62280255D01*
X121973468Y-62305153D01*
X121971110Y-62324370D01*
X121969765Y-62336329D01*
X121969531Y-62339350D01*
X121965256Y-62342448D01*
X121959360Y-62343160D01*
X121955110Y-62343738D01*
X121952258Y-62346586D01*
X121950537Y-62353369D01*
X121949682Y-62365757D01*
X121949430Y-62385414D01*
X121949474Y-62405390D01*
X121949748Y-62467620D01*
X121841524Y-62867632D01*
X121824798Y-62929329D01*
X121808795Y-62988119D01*
X121793717Y-63043275D01*
X121779766Y-63094069D01*
X121767143Y-63139775D01*
X121756051Y-63179664D01*
X121746691Y-63213009D01*
X121739265Y-63239082D01*
X121733975Y-63257158D01*
X121731024Y-63266507D01*
X121730491Y-63267682D01*
X121728508Y-63263021D01*
X121725164Y-63250290D01*
X121720921Y-63231417D01*
X121716239Y-63208326D01*
X121716083Y-63207513D01*
X121709781Y-63177605D01*
X121704059Y-63156735D01*
X121698578Y-63143821D01*
X121694761Y-63138983D01*
X121687173Y-63127673D01*
X121684533Y-63116639D01*
X121682669Y-63100707D01*
X121680224Y-63089920D01*
X121677910Y-63084468D01*
X121675659Y-63085903D01*
X121672859Y-63095354D01*
X121669910Y-63108970D01*
X121665518Y-63125960D01*
X121660782Y-63137300D01*
X121657183Y-63140720D01*
X121654151Y-63145710D01*
X121649557Y-63160581D01*
X121643437Y-63185176D01*
X121635829Y-63219342D01*
X121626770Y-63262925D01*
X121621991Y-63286770D01*
X121614516Y-63324308D01*
X121607579Y-63358881D01*
X121601452Y-63389155D01*
X121596407Y-63413793D01*
X121592717Y-63431463D01*
X121590652Y-63440829D01*
X121590424Y-63441710D01*
X121587474Y-63446378D01*
X121580556Y-63449095D01*
X121567500Y-63450341D01*
X121550077Y-63450600D01*
X121512320Y-63450600D01*
X121512320Y-63506480D01*
X121583440Y-63506480D01*
X121583440Y-64283720D01*
X121512320Y-64283720D01*
X121512320Y-64339600D01*
X121583440Y-64339600D01*
X121583440Y-67854960D01*
X121507552Y-67854960D01*
X121504700Y-67976970D01*
X120081840Y-66553255D01*
X119961414Y-66432754D01*
X119847963Y-66319224D01*
X119741275Y-66212453D01*
X119641143Y-66112228D01*
X119547354Y-66018337D01*
X119459700Y-65930565D01*
X119377971Y-65848702D01*
X119301957Y-65772534D01*
X119231447Y-65701848D01*
X119166232Y-65636432D01*
X119106102Y-65576072D01*
X119050848Y-65520557D01*
X119000258Y-65469674D01*
X118954123Y-65423209D01*
X118912234Y-65380950D01*
X118881099Y-65349476D01*
X119473445Y-65349476D01*
X119473815Y-65384836D01*
X119476461Y-65418791D01*
X119481320Y-65447585D01*
X119482397Y-65451826D01*
X119503758Y-65511499D01*
X119535136Y-65569785D01*
X119576537Y-65626691D01*
X119627970Y-65682224D01*
X119689442Y-65736392D01*
X119760961Y-65789202D01*
X119842534Y-65840661D01*
X119934170Y-65890776D01*
X119960380Y-65903950D01*
X120071800Y-65955309D01*
X120192481Y-66003948D01*
X120321848Y-66049699D01*
X120459330Y-66092396D01*
X120604352Y-66131872D01*
X120756340Y-66167960D01*
X120914723Y-66200492D01*
X121075440Y-66228739D01*
X121105986Y-66233685D01*
X121133788Y-66238199D01*
X121157005Y-66241981D01*
X121173791Y-66244731D01*
X121182120Y-66246116D01*
X121194858Y-66247748D01*
X121209169Y-66248835D01*
X121221419Y-66249198D01*
X121227970Y-66248656D01*
X121228282Y-66248410D01*
X121229503Y-66241440D01*
X121231426Y-66226313D01*
X121233890Y-66204680D01*
X121236733Y-66178195D01*
X121239792Y-66148509D01*
X121242906Y-66117276D01*
X121245912Y-66086147D01*
X121248648Y-66056777D01*
X121250954Y-66030816D01*
X121252665Y-66009919D01*
X121253620Y-65995736D01*
X121253658Y-65989922D01*
X121253634Y-65989882D01*
X121247890Y-65988461D01*
X121233612Y-65986422D01*
X121212394Y-65983949D01*
X121185830Y-65981226D01*
X121155514Y-65978436D01*
X121151640Y-65978100D01*
X121009350Y-65964070D01*
X120871356Y-65946899D01*
X120738095Y-65926722D01*
X120610003Y-65903670D01*
X120487519Y-65877878D01*
X120371079Y-65849479D01*
X120261122Y-65818607D01*
X120158084Y-65785394D01*
X120062403Y-65749974D01*
X119974517Y-65712480D01*
X119894863Y-65673047D01*
X119823877Y-65631806D01*
X119761998Y-65588892D01*
X119709664Y-65544438D01*
X119700709Y-65535703D01*
X119678416Y-65512655D01*
X119661790Y-65493255D01*
X119648685Y-65474660D01*
X119636954Y-65454024D01*
X119632558Y-65445353D01*
X119621652Y-65422251D01*
X119614788Y-65404022D01*
X119610854Y-65386779D01*
X119608741Y-65366638D01*
X119608368Y-65360699D01*
X119607754Y-65335088D01*
X119609789Y-65314019D01*
X119615127Y-65292072D01*
X119617672Y-65283882D01*
X119637899Y-65236706D01*
X119667961Y-65189836D01*
X119707530Y-65143416D01*
X119756281Y-65097593D01*
X119813889Y-65052510D01*
X119880029Y-65008314D01*
X119954375Y-64965150D01*
X120036602Y-64923162D01*
X120126383Y-64882496D01*
X120223395Y-64843297D01*
X120327311Y-64805710D01*
X120437805Y-64769881D01*
X120554553Y-64735954D01*
X120677229Y-64704075D01*
X120805508Y-64674388D01*
X120939063Y-64647040D01*
X121077570Y-64622175D01*
X121114834Y-64616057D01*
X121147945Y-64610646D01*
X121177330Y-64605689D01*
X121201630Y-64601429D01*
X121219488Y-64598108D01*
X121229546Y-64595968D01*
X121231259Y-64595326D01*
X121225666Y-64595104D01*
X121211321Y-64595890D01*
X121189570Y-64597553D01*
X121161757Y-64599961D01*
X121129228Y-64602983D01*
X121093325Y-64606486D01*
X121055395Y-64610341D01*
X121016782Y-64614414D01*
X120978831Y-64618576D01*
X120942886Y-64622693D01*
X120910292Y-64626636D01*
X120907800Y-64626948D01*
X120766567Y-64646736D01*
X120628886Y-64670031D01*
X120495794Y-64696588D01*
X120368324Y-64726164D01*
X120247512Y-64758516D01*
X120134395Y-64793401D01*
X120030006Y-64830574D01*
X120011180Y-64837900D01*
X119974458Y-64853242D01*
X119933345Y-64871832D01*
X119890115Y-64892526D01*
X119847043Y-64914177D01*
X119806402Y-64935641D01*
X119770467Y-64955771D01*
X119741513Y-64973422D01*
X119739400Y-64974802D01*
X119671236Y-65023741D01*
X119612903Y-65074442D01*
X119564444Y-65126850D01*
X119525903Y-65180912D01*
X119497326Y-65236575D01*
X119479772Y-65289560D01*
X119475410Y-65316466D01*
X119473445Y-65349476D01*
X118881099Y-65349476D01*
X118874380Y-65342684D01*
X118840351Y-65308199D01*
X118809938Y-65277281D01*
X118782930Y-65249719D01*
X118759117Y-65225299D01*
X118738291Y-65203809D01*
X118720240Y-65185035D01*
X118704755Y-65168766D01*
X118691625Y-65154788D01*
X118680642Y-65142889D01*
X118671594Y-65132856D01*
X118664273Y-65124477D01*
X118658468Y-65117537D01*
X118653969Y-65111826D01*
X118650566Y-65107130D01*
X118648049Y-65103236D01*
X118646209Y-65099931D01*
X118644909Y-65097174D01*
X118629016Y-65050423D01*
X118622960Y-65005161D01*
X118626754Y-64960294D01*
X118640408Y-64914727D01*
X118646967Y-64899592D01*
X118648434Y-64896661D01*
X118650359Y-64893353D01*
X118652940Y-64889467D01*
X118656374Y-64884803D01*
X118660859Y-64879161D01*
X118666593Y-64872341D01*
X118673774Y-64864143D01*
X118682600Y-64854366D01*
X118693269Y-64842811D01*
X118705978Y-64829277D01*
X118720925Y-64813565D01*
X118738308Y-64795474D01*
X118758326Y-64774805D01*
X118781175Y-64751357D01*
X118807054Y-64724930D01*
X118836160Y-64695323D01*
X118868692Y-64662338D01*
X118904847Y-64625774D01*
X118944823Y-64585431D01*
X118988818Y-64541108D01*
X119037029Y-64492606D01*
X119089656Y-64439724D01*
X119146894Y-64382263D01*
X119208943Y-64320022D01*
X119276000Y-64252802D01*
X119348263Y-64180402D01*
X119425930Y-64102622D01*
X119509199Y-64019261D01*
X119598267Y-63930121D01*
X119693332Y-63835001D01*
X119794593Y-63733701D01*
X119902246Y-63626020D01*
X120016491Y-63511759D01*
X120137524Y-63390717D01*
X120265544Y-63262695D01*
X120266659Y-63261579D01*
X120394768Y-63133473D01*
X120515895Y-63012355D01*
X120630239Y-62898028D01*
X120738001Y-62790294D01*
X120839380Y-62688956D01*
X120934577Y-62593815D01*
X121023792Y-62504673D01*
X121107224Y-62421334D01*
X121185074Y-62343600D01*
X121257541Y-62271272D01*
X121324825Y-62204153D01*
X121387126Y-62142045D01*
X121444645Y-62084751D01*
X121497581Y-62032072D01*
X121546133Y-61983811D01*
X121590503Y-61939771D01*
X121630890Y-61899753D01*
X121667494Y-61863560D01*
X121700515Y-61830994D01*
X121730152Y-61801858D01*
X121756607Y-61775953D01*
X121780078Y-61753082D01*
X121800765Y-61733047D01*
X121818870Y-61715651D01*
X121834590Y-61700695D01*
X121848128Y-61687983D01*
X121859682Y-61677315D01*
X121869452Y-61668495D01*
X121877639Y-61661325D01*
X121884441Y-61655607D01*
X121890061Y-61651143D01*
X121894696Y-61647736D01*
X121898547Y-61645188D01*
X121901815Y-61643301D01*
X121904354Y-61642036D01*
X121951402Y-61625242D01*
X121998313Y-61618600D01*
X122044992Y-61622109D01*
X122044992Y-61622109D01*
G37*
X122044992Y-61622109D02*
X122091340Y-61635768D01*
X122108124Y-61643266D01*
X122111108Y-61644946D01*
X122114960Y-61647565D01*
X122119878Y-61651318D01*
X122126060Y-61656401D01*
X122133704Y-61663010D01*
X122143009Y-61671343D01*
X122154173Y-61681593D01*
X122167393Y-61693958D01*
X122182867Y-61708633D01*
X122200795Y-61725815D01*
X122221374Y-61745699D01*
X122244802Y-61768482D01*
X122271277Y-61794359D01*
X122300998Y-61823527D01*
X122334162Y-61856181D01*
X122370968Y-61892518D01*
X122411613Y-61932733D01*
X122456297Y-61977022D01*
X122505217Y-62025583D01*
X122558571Y-62078609D01*
X122616557Y-62136298D01*
X122679373Y-62198846D01*
X122747219Y-62266448D01*
X122820291Y-62339300D01*
X122898788Y-62417600D01*
X122982907Y-62501541D01*
X123072848Y-62591321D01*
X123168808Y-62687136D01*
X123270986Y-62789181D01*
X123379579Y-62897653D01*
X123494785Y-63012748D01*
X123616804Y-63134660D01*
X123729015Y-63246784D01*
X123835736Y-63353441D01*
X123940721Y-63458395D01*
X124043736Y-63561411D01*
X124144548Y-63662257D01*
X124242923Y-63760697D01*
X124338630Y-63856498D01*
X124431434Y-63949426D01*
X124521102Y-64039246D01*
X124607402Y-64125725D01*
X124690100Y-64208628D01*
X124768963Y-64287722D01*
X124843757Y-64362772D01*
X124914251Y-64433544D01*
X124980209Y-64499805D01*
X125041400Y-64561320D01*
X125097590Y-64617856D01*
X125148546Y-64669177D01*
X125194035Y-64715051D01*
X125233824Y-64755243D01*
X125267679Y-64789518D01*
X125295367Y-64817644D01*
X125316655Y-64839386D01*
X125331311Y-64854510D01*
X125339100Y-64862782D01*
X125340229Y-64864103D01*
X125364223Y-64904208D01*
X125379209Y-64947524D01*
X125385188Y-64992567D01*
X125382158Y-65037850D01*
X125370121Y-65081889D01*
X125349076Y-65123200D01*
X125340218Y-65135896D01*
X125335090Y-65141543D01*
X125323020Y-65154120D01*
X125304257Y-65173376D01*
X125279049Y-65199062D01*
X125247645Y-65230929D01*
X125210292Y-65268728D01*
X125167239Y-65312208D01*
X125118734Y-65361121D01*
X125065026Y-65415217D01*
X125006363Y-65474247D01*
X124942993Y-65537960D01*
X124875164Y-65606108D01*
X124803126Y-65678442D01*
X124727125Y-65754711D01*
X124647410Y-65834666D01*
X124564230Y-65918058D01*
X124477832Y-66004637D01*
X124388466Y-66094154D01*
X124296380Y-66186360D01*
X124201820Y-66281004D01*
X124105037Y-66377838D01*
X124006279Y-66476612D01*
X123910615Y-66572256D01*
X122502920Y-67979413D01*
X122502920Y-67855387D01*
X122463550Y-67853903D01*
X122424180Y-67852420D01*
X122422902Y-66096010D01*
X122422823Y-65986914D01*
X122750764Y-65986914D01*
X122753447Y-66005267D01*
X122754741Y-66015629D01*
X122756860Y-66034349D01*
X122759614Y-66059674D01*
X122762814Y-66089854D01*
X122766270Y-66123134D01*
X122767709Y-66137190D01*
X122779288Y-66250760D01*
X122810014Y-66247351D01*
X122823815Y-66245539D01*
X122845778Y-66242315D01*
X122874048Y-66237968D01*
X122906768Y-66232784D01*
X122942085Y-66227053D01*
X122962660Y-66223652D01*
X123112212Y-66196792D01*
X123256454Y-66166930D01*
X123394987Y-66134217D01*
X123527414Y-66098805D01*
X123653338Y-66060846D01*
X123772359Y-66020492D01*
X123884082Y-65977894D01*
X123988108Y-65933205D01*
X124084039Y-65886576D01*
X124171478Y-65838159D01*
X124250027Y-65788106D01*
X124319289Y-65736569D01*
X124378866Y-65683699D01*
X124380071Y-65682516D01*
X124429639Y-65629148D01*
X124469344Y-65576122D01*
X124499445Y-65522907D01*
X124520201Y-65468975D01*
X124531872Y-65413794D01*
X124534844Y-65366217D01*
X124532450Y-65319579D01*
X124524776Y-65277971D01*
X124510847Y-65237221D01*
X124498472Y-65210208D01*
X124466011Y-65155621D01*
X124423687Y-65102823D01*
X124371652Y-65051897D01*
X124310058Y-65002926D01*
X124239058Y-64955994D01*
X124158805Y-64911185D01*
X124069451Y-64868581D01*
X123971149Y-64828266D01*
X123864050Y-64790324D01*
X123748308Y-64754837D01*
X123624074Y-64721889D01*
X123590043Y-64713663D01*
X123496766Y-64691554D01*
X123472830Y-64616878D01*
X123464452Y-64591015D01*
X123457073Y-64568756D01*
X123451274Y-64551815D01*
X123447639Y-64541908D01*
X123446774Y-64540080D01*
X123441520Y-64540135D01*
X123427158Y-64540968D01*
X123404704Y-64542497D01*
X123375173Y-64544639D01*
X123339581Y-64547312D01*
X123298944Y-64550433D01*
X123254277Y-64553921D01*
X123206595Y-64557692D01*
X123156915Y-64561664D01*
X123106253Y-64565756D01*
X123055623Y-64569884D01*
X123006041Y-64573966D01*
X122958523Y-64577920D01*
X122914085Y-64581664D01*
X122873742Y-64585114D01*
X122838509Y-64588190D01*
X122809403Y-64590807D01*
X122787439Y-64592884D01*
X122773633Y-64594339D01*
X122769005Y-64595061D01*
X122773387Y-64596879D01*
X122786560Y-64601530D01*
X122807644Y-64608728D01*
X122835761Y-64618185D01*
X122870033Y-64629615D01*
X122909580Y-64642731D01*
X122953524Y-64657245D01*
X123000986Y-64672872D01*
X123051087Y-64689323D01*
X123102949Y-64706311D01*
X123155694Y-64723551D01*
X123208442Y-64740755D01*
X123260314Y-64757636D01*
X123310433Y-64773907D01*
X123357918Y-64789281D01*
X123401893Y-64803472D01*
X123441478Y-64816192D01*
X123475793Y-64827154D01*
X123503962Y-64836071D01*
X123525104Y-64842658D01*
X123538342Y-64846625D01*
X123542727Y-64847725D01*
X123544412Y-64843070D01*
X123541803Y-64829353D01*
X123534925Y-64806709D01*
X123533864Y-64803546D01*
X123527568Y-64784002D01*
X123523117Y-64768373D01*
X123521126Y-64758922D01*
X123521250Y-64757216D01*
X123527582Y-64757202D01*
X123542209Y-64760480D01*
X123563962Y-64766642D01*
X123591675Y-64775277D01*
X123624179Y-64785977D01*
X123660307Y-64798334D01*
X123698892Y-64811937D01*
X123738765Y-64826378D01*
X123778760Y-64841249D01*
X123817708Y-64856140D01*
X123854442Y-64870642D01*
X123887795Y-64884346D01*
X123904046Y-64891296D01*
X123988647Y-64930477D01*
X124066244Y-64971269D01*
X124136548Y-65013383D01*
X124199268Y-65056529D01*
X124254115Y-65100418D01*
X124300800Y-65144760D01*
X124339032Y-65189265D01*
X124368522Y-65233645D01*
X124388981Y-65277609D01*
X124400118Y-65320868D01*
X124401645Y-65363132D01*
X124398359Y-65385499D01*
X124383586Y-65430648D01*
X124358991Y-65475026D01*
X124324894Y-65518504D01*
X124281612Y-65560952D01*
X124229464Y-65602240D01*
X124168768Y-65642241D01*
X124099842Y-65680824D01*
X124023006Y-65717860D01*
X123938577Y-65753220D01*
X123846873Y-65786776D01*
X123748214Y-65818396D01*
X123642917Y-65847953D01*
X123531300Y-65875317D01*
X123413683Y-65900359D01*
X123290384Y-65922950D01*
X123161720Y-65942960D01*
X123028011Y-65960260D01*
X122965200Y-65967241D01*
X122928075Y-65971093D01*
X122891236Y-65974798D01*
X122856915Y-65978139D01*
X122827349Y-65980901D01*
X122804770Y-65982868D01*
X122798292Y-65983376D01*
X122750764Y-65986914D01*
X122422823Y-65986914D01*
X122421625Y-64339599D01*
X122459732Y-64339600D01*
X122497840Y-64339600D01*
X122497840Y-64284165D01*
X122461010Y-64282672D01*
X122424180Y-64281180D01*
X122424180Y-63509020D01*
X122497840Y-63506034D01*
X122497840Y-63450600D01*
X122460900Y-63450600D01*
X122423961Y-63450599D01*
X122394093Y-63299470D01*
X122384405Y-63251309D01*
X122376222Y-63212579D01*
X122369399Y-63182684D01*
X122363793Y-63161027D01*
X122359258Y-63147015D01*
X122355650Y-63140051D01*
X122355348Y-63139732D01*
X122349544Y-63129850D01*
X122344616Y-63114226D01*
X122342822Y-63104594D01*
X122339912Y-63089687D01*
X122336722Y-63084880D01*
X122333320Y-63090118D01*
X122329773Y-63105346D01*
X122327980Y-63116590D01*
X122324422Y-63132143D01*
X122319680Y-63140085D01*
X122317849Y-63140720D01*
X122313590Y-63145695D01*
X122308524Y-63160660D01*
X122302632Y-63185668D01*
X122299669Y-63200410D01*
X122294903Y-63224244D01*
X122290520Y-63244658D01*
X122287014Y-63259438D01*
X122284920Y-63266301D01*
X122283128Y-63262492D01*
X122278901Y-63249585D01*
X122272443Y-63228296D01*
X122263956Y-63199339D01*
X122253643Y-63163429D01*
X122241708Y-63121282D01*
X122228354Y-63073610D01*
X122213783Y-63021130D01*
X122198198Y-62964555D01*
X122181803Y-62904601D01*
X122173790Y-62875141D01*
X122065878Y-62477780D01*
X122065959Y-62410470D01*
X122065901Y-62383186D01*
X122065495Y-62364463D01*
X122064510Y-62352698D01*
X122062715Y-62346293D01*
X122059878Y-62343648D01*
X122056222Y-62343160D01*
X122046907Y-62339168D01*
X122043880Y-62334270D01*
X122042596Y-62326991D01*
X122040276Y-62311060D01*
X122037112Y-62287909D01*
X122033297Y-62258970D01*
X122029023Y-62225677D01*
X122024813Y-62192128D01*
X122020356Y-62156759D01*
X122016231Y-62125041D01*
X122012618Y-62098265D01*
X122009695Y-62077725D01*
X122007639Y-62064712D01*
X122006639Y-62060507D01*
X122005683Y-62065626D01*
X122003644Y-62079247D01*
X122000730Y-62099794D01*
X121997152Y-62125689D01*
X121993118Y-62155359D01*
X121988840Y-62187226D01*
X121984526Y-62219715D01*
X121980386Y-62251250D01*
X121976630Y-62280255D01*
X121973468Y-62305153D01*
X121971110Y-62324370D01*
X121969765Y-62336329D01*
X121969531Y-62339350D01*
X121965256Y-62342448D01*
X121959360Y-62343160D01*
X121955110Y-62343738D01*
X121952258Y-62346586D01*
X121950537Y-62353369D01*
X121949682Y-62365757D01*
X121949430Y-62385414D01*
X121949474Y-62405390D01*
X121949748Y-62467620D01*
X121841524Y-62867632D01*
X121824798Y-62929329D01*
X121808795Y-62988119D01*
X121793717Y-63043275D01*
X121779766Y-63094069D01*
X121767143Y-63139775D01*
X121756051Y-63179664D01*
X121746691Y-63213009D01*
X121739265Y-63239082D01*
X121733975Y-63257158D01*
X121731024Y-63266507D01*
X121730491Y-63267682D01*
X121728508Y-63263021D01*
X121725164Y-63250290D01*
X121720921Y-63231417D01*
X121716239Y-63208326D01*
X121716083Y-63207513D01*
X121709781Y-63177605D01*
X121704059Y-63156735D01*
X121698578Y-63143821D01*
X121694761Y-63138983D01*
X121687173Y-63127673D01*
X121684533Y-63116639D01*
X121682669Y-63100707D01*
X121680224Y-63089920D01*
X121677910Y-63084468D01*
X121675659Y-63085903D01*
X121672859Y-63095354D01*
X121669910Y-63108970D01*
X121665518Y-63125960D01*
X121660782Y-63137300D01*
X121657183Y-63140720D01*
X121654151Y-63145710D01*
X121649557Y-63160581D01*
X121643437Y-63185176D01*
X121635829Y-63219342D01*
X121626770Y-63262925D01*
X121621991Y-63286770D01*
X121614516Y-63324308D01*
X121607579Y-63358881D01*
X121601452Y-63389155D01*
X121596407Y-63413793D01*
X121592717Y-63431463D01*
X121590652Y-63440829D01*
X121590424Y-63441710D01*
X121587474Y-63446378D01*
X121580556Y-63449095D01*
X121567500Y-63450341D01*
X121550077Y-63450600D01*
X121512320Y-63450600D01*
X121512320Y-63506480D01*
X121583440Y-63506480D01*
X121583440Y-64283720D01*
X121512320Y-64283720D01*
X121512320Y-64339600D01*
X121583440Y-64339600D01*
X121583440Y-67854960D01*
X121507552Y-67854960D01*
X121504700Y-67976970D01*
X120081840Y-66553255D01*
X119961414Y-66432754D01*
X119847963Y-66319224D01*
X119741275Y-66212453D01*
X119641143Y-66112228D01*
X119547354Y-66018337D01*
X119459700Y-65930565D01*
X119377971Y-65848702D01*
X119301957Y-65772534D01*
X119231447Y-65701848D01*
X119166232Y-65636432D01*
X119106102Y-65576072D01*
X119050848Y-65520557D01*
X119000258Y-65469674D01*
X118954123Y-65423209D01*
X118912234Y-65380950D01*
X118881099Y-65349476D01*
X119473445Y-65349476D01*
X119473815Y-65384836D01*
X119476461Y-65418791D01*
X119481320Y-65447585D01*
X119482397Y-65451826D01*
X119503758Y-65511499D01*
X119535136Y-65569785D01*
X119576537Y-65626691D01*
X119627970Y-65682224D01*
X119689442Y-65736392D01*
X119760961Y-65789202D01*
X119842534Y-65840661D01*
X119934170Y-65890776D01*
X119960380Y-65903950D01*
X120071800Y-65955309D01*
X120192481Y-66003948D01*
X120321848Y-66049699D01*
X120459330Y-66092396D01*
X120604352Y-66131872D01*
X120756340Y-66167960D01*
X120914723Y-66200492D01*
X121075440Y-66228739D01*
X121105986Y-66233685D01*
X121133788Y-66238199D01*
X121157005Y-66241981D01*
X121173791Y-66244731D01*
X121182120Y-66246116D01*
X121194858Y-66247748D01*
X121209169Y-66248835D01*
X121221419Y-66249198D01*
X121227970Y-66248656D01*
X121228282Y-66248410D01*
X121229503Y-66241440D01*
X121231426Y-66226313D01*
X121233890Y-66204680D01*
X121236733Y-66178195D01*
X121239792Y-66148509D01*
X121242906Y-66117276D01*
X121245912Y-66086147D01*
X121248648Y-66056777D01*
X121250954Y-66030816D01*
X121252665Y-66009919D01*
X121253620Y-65995736D01*
X121253658Y-65989922D01*
X121253634Y-65989882D01*
X121247890Y-65988461D01*
X121233612Y-65986422D01*
X121212394Y-65983949D01*
X121185830Y-65981226D01*
X121155514Y-65978436D01*
X121151640Y-65978100D01*
X121009350Y-65964070D01*
X120871356Y-65946899D01*
X120738095Y-65926722D01*
X120610003Y-65903670D01*
X120487519Y-65877878D01*
X120371079Y-65849479D01*
X120261122Y-65818607D01*
X120158084Y-65785394D01*
X120062403Y-65749974D01*
X119974517Y-65712480D01*
X119894863Y-65673047D01*
X119823877Y-65631806D01*
X119761998Y-65588892D01*
X119709664Y-65544438D01*
X119700709Y-65535703D01*
X119678416Y-65512655D01*
X119661790Y-65493255D01*
X119648685Y-65474660D01*
X119636954Y-65454024D01*
X119632558Y-65445353D01*
X119621652Y-65422251D01*
X119614788Y-65404022D01*
X119610854Y-65386779D01*
X119608741Y-65366638D01*
X119608368Y-65360699D01*
X119607754Y-65335088D01*
X119609789Y-65314019D01*
X119615127Y-65292072D01*
X119617672Y-65283882D01*
X119637899Y-65236706D01*
X119667961Y-65189836D01*
X119707530Y-65143416D01*
X119756281Y-65097593D01*
X119813889Y-65052510D01*
X119880029Y-65008314D01*
X119954375Y-64965150D01*
X120036602Y-64923162D01*
X120126383Y-64882496D01*
X120223395Y-64843297D01*
X120327311Y-64805710D01*
X120437805Y-64769881D01*
X120554553Y-64735954D01*
X120677229Y-64704075D01*
X120805508Y-64674388D01*
X120939063Y-64647040D01*
X121077570Y-64622175D01*
X121114834Y-64616057D01*
X121147945Y-64610646D01*
X121177330Y-64605689D01*
X121201630Y-64601429D01*
X121219488Y-64598108D01*
X121229546Y-64595968D01*
X121231259Y-64595326D01*
X121225666Y-64595104D01*
X121211321Y-64595890D01*
X121189570Y-64597553D01*
X121161757Y-64599961D01*
X121129228Y-64602983D01*
X121093325Y-64606486D01*
X121055395Y-64610341D01*
X121016782Y-64614414D01*
X120978831Y-64618576D01*
X120942886Y-64622693D01*
X120910292Y-64626636D01*
X120907800Y-64626948D01*
X120766567Y-64646736D01*
X120628886Y-64670031D01*
X120495794Y-64696588D01*
X120368324Y-64726164D01*
X120247512Y-64758516D01*
X120134395Y-64793401D01*
X120030006Y-64830574D01*
X120011180Y-64837900D01*
X119974458Y-64853242D01*
X119933345Y-64871832D01*
X119890115Y-64892526D01*
X119847043Y-64914177D01*
X119806402Y-64935641D01*
X119770467Y-64955771D01*
X119741513Y-64973422D01*
X119739400Y-64974802D01*
X119671236Y-65023741D01*
X119612903Y-65074442D01*
X119564444Y-65126850D01*
X119525903Y-65180912D01*
X119497326Y-65236575D01*
X119479772Y-65289560D01*
X119475410Y-65316466D01*
X119473445Y-65349476D01*
X118881099Y-65349476D01*
X118874380Y-65342684D01*
X118840351Y-65308199D01*
X118809938Y-65277281D01*
X118782930Y-65249719D01*
X118759117Y-65225299D01*
X118738291Y-65203809D01*
X118720240Y-65185035D01*
X118704755Y-65168766D01*
X118691625Y-65154788D01*
X118680642Y-65142889D01*
X118671594Y-65132856D01*
X118664273Y-65124477D01*
X118658468Y-65117537D01*
X118653969Y-65111826D01*
X118650566Y-65107130D01*
X118648049Y-65103236D01*
X118646209Y-65099931D01*
X118644909Y-65097174D01*
X118629016Y-65050423D01*
X118622960Y-65005161D01*
X118626754Y-64960294D01*
X118640408Y-64914727D01*
X118646967Y-64899592D01*
X118648434Y-64896661D01*
X118650359Y-64893353D01*
X118652940Y-64889467D01*
X118656374Y-64884803D01*
X118660859Y-64879161D01*
X118666593Y-64872341D01*
X118673774Y-64864143D01*
X118682600Y-64854366D01*
X118693269Y-64842811D01*
X118705978Y-64829277D01*
X118720925Y-64813565D01*
X118738308Y-64795474D01*
X118758326Y-64774805D01*
X118781175Y-64751357D01*
X118807054Y-64724930D01*
X118836160Y-64695323D01*
X118868692Y-64662338D01*
X118904847Y-64625774D01*
X118944823Y-64585431D01*
X118988818Y-64541108D01*
X119037029Y-64492606D01*
X119089656Y-64439724D01*
X119146894Y-64382263D01*
X119208943Y-64320022D01*
X119276000Y-64252802D01*
X119348263Y-64180402D01*
X119425930Y-64102622D01*
X119509199Y-64019261D01*
X119598267Y-63930121D01*
X119693332Y-63835001D01*
X119794593Y-63733701D01*
X119902246Y-63626020D01*
X120016491Y-63511759D01*
X120137524Y-63390717D01*
X120265544Y-63262695D01*
X120266659Y-63261579D01*
X120394768Y-63133473D01*
X120515895Y-63012355D01*
X120630239Y-62898028D01*
X120738001Y-62790294D01*
X120839380Y-62688956D01*
X120934577Y-62593815D01*
X121023792Y-62504673D01*
X121107224Y-62421334D01*
X121185074Y-62343600D01*
X121257541Y-62271272D01*
X121324825Y-62204153D01*
X121387126Y-62142045D01*
X121444645Y-62084751D01*
X121497581Y-62032072D01*
X121546133Y-61983811D01*
X121590503Y-61939771D01*
X121630890Y-61899753D01*
X121667494Y-61863560D01*
X121700515Y-61830994D01*
X121730152Y-61801858D01*
X121756607Y-61775953D01*
X121780078Y-61753082D01*
X121800765Y-61733047D01*
X121818870Y-61715651D01*
X121834590Y-61700695D01*
X121848128Y-61687983D01*
X121859682Y-61677315D01*
X121869452Y-61668495D01*
X121877639Y-61661325D01*
X121884441Y-61655607D01*
X121890061Y-61651143D01*
X121894696Y-61647736D01*
X121898547Y-61645188D01*
X121901815Y-61643301D01*
X121904354Y-61642036D01*
X121951402Y-61625242D01*
X121998313Y-61618600D01*
X122044992Y-61622109D01*
G36*
X122075179Y-60612968D02*
X122139657Y-60627138D01*
X122202289Y-60650032D01*
X122262164Y-60681668D01*
X122318371Y-60722063D01*
X122341690Y-60742603D01*
X122354504Y-60756030D01*
X122371790Y-60776241D01*
X122392271Y-60801642D01*
X122414669Y-60830638D01*
X122437710Y-60861637D01*
X122444235Y-60870643D01*
X122643939Y-61142614D01*
X122845013Y-61405739D01*
X123048562Y-61661327D01*
X123255694Y-61910688D01*
X123467513Y-62155132D01*
X123685125Y-62395968D01*
X123909637Y-62634507D01*
X124087880Y-62817411D01*
X124371493Y-63097198D01*
X124661059Y-63368955D01*
X124956941Y-63632994D01*
X125259502Y-63889625D01*
X125569107Y-64139161D01*
X125886118Y-64381914D01*
X126066540Y-64514664D01*
X126114950Y-64549999D01*
X126155824Y-64580386D01*
X126190041Y-64606572D01*
X126218476Y-64629307D01*
X126242008Y-64649337D01*
X126261514Y-64667411D01*
X126277872Y-64684277D01*
X126291958Y-64700683D01*
X126304651Y-64717377D01*
X126305141Y-64718060D01*
X126341714Y-64777219D01*
X126368794Y-64839500D01*
X126386523Y-64905355D01*
X126395040Y-64975237D01*
X126395879Y-65012700D01*
X126391324Y-65080600D01*
X126378561Y-65143680D01*
X126357029Y-65203808D01*
X126326169Y-65262851D01*
X126316055Y-65279017D01*
X126301229Y-65300500D01*
X126284889Y-65321018D01*
X126266063Y-65341427D01*
X126243777Y-65362586D01*
X126217057Y-65385351D01*
X126184929Y-65410580D01*
X126146420Y-65439131D01*
X126100555Y-65471862D01*
X126083430Y-65483872D01*
X125772087Y-65707668D01*
X125466734Y-65939617D01*
X125167558Y-66179532D01*
X124874746Y-66427227D01*
X124588484Y-66682514D01*
X124308960Y-66945207D01*
X124036361Y-67215120D01*
X123770873Y-67492065D01*
X123512682Y-67775857D01*
X123261977Y-68066308D01*
X123018943Y-68363231D01*
X122783768Y-68666441D01*
X122556639Y-68975749D01*
X122479845Y-69084320D01*
X122443520Y-69135415D01*
X122411399Y-69178704D01*
X122382527Y-69215132D01*
X122355949Y-69245645D01*
X122330711Y-69271187D01*
X122305858Y-69292706D01*
X122280434Y-69311147D01*
X122253485Y-69327456D01*
X122224055Y-69342578D01*
X122214583Y-69347032D01*
X122164447Y-69366228D01*
X122109070Y-69380553D01*
X122051525Y-69389551D01*
X121994888Y-69392768D01*
X121942233Y-69389748D01*
X121933960Y-69388591D01*
X121896482Y-69380629D01*
X121854921Y-69368148D01*
X121813058Y-69352526D01*
X121774673Y-69335141D01*
X121750110Y-69321571D01*
X121718949Y-69300701D01*
X121689643Y-69277242D01*
X121661009Y-69249946D01*
X121631867Y-69217567D01*
X121601034Y-69178858D01*
X121567328Y-69132572D01*
X121557374Y-69118315D01*
X121355437Y-68833635D01*
X121150053Y-68557658D01*
X120940297Y-68289246D01*
X120725246Y-68027260D01*
X120503977Y-67770560D01*
X120275567Y-67518010D01*
X120155745Y-67390140D01*
X120116799Y-67349451D01*
X120072011Y-67303329D01*
X120022501Y-67252884D01*
X119969391Y-67199227D01*
X119913802Y-67143472D01*
X119856854Y-67086728D01*
X119799668Y-67030108D01*
X119743366Y-66974723D01*
X119689067Y-66921685D01*
X119637893Y-66872106D01*
X119590965Y-66827097D01*
X119549404Y-66787769D01*
X119531491Y-66771052D01*
X119306495Y-66566580D01*
X119076764Y-66366268D01*
X118843473Y-66171058D01*
X118607798Y-65981891D01*
X118370913Y-65799710D01*
X118133994Y-65625457D01*
X117898217Y-65460072D01*
X117882660Y-65449448D01*
X117824156Y-65407285D01*
X117774624Y-65366333D01*
X117733154Y-65325441D01*
X117698836Y-65283457D01*
X117670759Y-65239232D01*
X117648014Y-65191613D01*
X117629690Y-65139452D01*
X117625260Y-65123994D01*
X117618986Y-65092470D01*
X117615018Y-65054123D01*
X117613356Y-65012026D01*
X117613537Y-65000000D01*
X118452165Y-65000000D01*
X118455462Y-65058773D01*
X118465855Y-65111962D01*
X118484100Y-65161920D01*
X118510955Y-65210999D01*
X118528043Y-65236220D01*
X118533211Y-65242010D01*
X118545285Y-65254678D01*
X118563985Y-65273944D01*
X118589032Y-65299530D01*
X118620147Y-65331156D01*
X118657050Y-65368542D01*
X118699462Y-65411409D01*
X118747103Y-65459479D01*
X118799694Y-65512471D01*
X118856955Y-65570106D01*
X118918607Y-65632105D01*
X118984370Y-65698188D01*
X119053965Y-65768077D01*
X119127112Y-65841491D01*
X119203533Y-65918153D01*
X119282947Y-65997781D01*
X119365075Y-66080097D01*
X119449637Y-66164822D01*
X119536355Y-66251676D01*
X119624948Y-66340380D01*
X119715138Y-66430655D01*
X119806644Y-66522221D01*
X119899187Y-66614798D01*
X119992488Y-66708109D01*
X120086268Y-66801872D01*
X120180246Y-66895810D01*
X120274144Y-66989642D01*
X120367681Y-67083089D01*
X120460579Y-67175872D01*
X120552558Y-67267712D01*
X120643339Y-67358329D01*
X120732641Y-67447444D01*
X120820186Y-67534778D01*
X120905694Y-67620051D01*
X120988886Y-67702984D01*
X121069482Y-67783297D01*
X121147202Y-67860712D01*
X121221768Y-67934949D01*
X121292900Y-68005728D01*
X121360318Y-68072771D01*
X121423743Y-68135797D01*
X121482895Y-68194528D01*
X121537495Y-68248685D01*
X121587263Y-68297987D01*
X121631921Y-68342156D01*
X121671188Y-68380913D01*
X121704784Y-68413977D01*
X121732432Y-68441070D01*
X121753851Y-68461912D01*
X121768761Y-68476225D01*
X121776883Y-68483727D01*
X121778132Y-68484735D01*
X121801387Y-68498693D01*
X121829445Y-68513165D01*
X121858604Y-68526420D01*
X121885164Y-68536730D01*
X121897831Y-68540656D01*
X121952589Y-68550686D01*
X122010943Y-68553036D01*
X122069843Y-68547713D01*
X122106680Y-68540216D01*
X122157549Y-68522990D01*
X122207926Y-68497625D01*
X122248920Y-68470101D01*
X122254698Y-68464843D01*
X122267421Y-68452627D01*
X122286853Y-68433687D01*
X122312761Y-68408256D01*
X122344910Y-68376568D01*
X122383065Y-68338856D01*
X122426994Y-68295353D01*
X122476460Y-68246291D01*
X122531231Y-68191906D01*
X122591073Y-68132428D01*
X122655750Y-68068093D01*
X122725029Y-67999133D01*
X122798675Y-67925781D01*
X122876454Y-67848271D01*
X122958133Y-67766835D01*
X123043477Y-67681708D01*
X123132251Y-67593122D01*
X123224221Y-67501310D01*
X123319154Y-67406507D01*
X123416815Y-67308944D01*
X123516969Y-67208855D01*
X123619384Y-67106474D01*
X123723823Y-67002033D01*
X123830054Y-66895767D01*
X123877622Y-66848172D01*
X124006623Y-66719094D01*
X124128648Y-66597008D01*
X124243893Y-66481710D01*
X124352554Y-66372995D01*
X124454828Y-66270660D01*
X124550913Y-66174501D01*
X124641004Y-66084315D01*
X124725298Y-65999897D01*
X124803992Y-65921044D01*
X124877283Y-65847553D01*
X124945366Y-65779218D01*
X125008440Y-65715837D01*
X125066700Y-65657206D01*
X125120343Y-65603120D01*
X125169566Y-65553377D01*
X125214565Y-65507772D01*
X125255537Y-65466102D01*
X125292680Y-65428163D01*
X125326188Y-65393751D01*
X125356259Y-65362662D01*
X125383090Y-65334692D01*
X125406878Y-65309638D01*
X125427818Y-65287297D01*
X125446108Y-65267463D01*
X125461944Y-65249934D01*
X125475523Y-65234506D01*
X125487042Y-65220974D01*
X125496697Y-65209135D01*
X125504685Y-65198786D01*
X125511202Y-65189722D01*
X125516445Y-65181740D01*
X125520612Y-65174636D01*
X125523897Y-65168207D01*
X125526499Y-65162247D01*
X125528614Y-65156554D01*
X125530438Y-65150925D01*
X125532168Y-65145154D01*
X125534000Y-65139038D01*
X125536133Y-65132375D01*
X125537653Y-65127985D01*
X125543533Y-65111117D01*
X125547739Y-65097062D01*
X125550552Y-65083554D01*
X125552250Y-65068325D01*
X125553113Y-65049111D01*
X125553423Y-65023646D01*
X125553460Y-65000000D01*
X125553377Y-64968588D01*
X125552943Y-64945069D01*
X125551877Y-64927179D01*
X125549900Y-64912650D01*
X125546732Y-64899217D01*
X125542093Y-64884614D01*
X125537653Y-64872014D01*
X125535244Y-64864919D01*
X125533253Y-64858496D01*
X125531484Y-64852541D01*
X125529741Y-64846850D01*
X125527826Y-64841219D01*
X125525543Y-64835446D01*
X125522695Y-64829325D01*
X125519085Y-64822654D01*
X125514518Y-64815228D01*
X125508796Y-64806844D01*
X125501722Y-64797298D01*
X125493101Y-64786386D01*
X125482735Y-64773905D01*
X125470427Y-64759650D01*
X125455982Y-64743417D01*
X125439202Y-64725004D01*
X125419891Y-64704206D01*
X125397852Y-64680820D01*
X125372888Y-64654641D01*
X125344803Y-64625466D01*
X125313401Y-64593092D01*
X125278483Y-64557313D01*
X125239855Y-64517928D01*
X125197319Y-64474731D01*
X125150678Y-64427519D01*
X125099736Y-64376089D01*
X125044297Y-64320236D01*
X124984163Y-64259756D01*
X124919138Y-64194447D01*
X124849025Y-64124104D01*
X124773628Y-64048523D01*
X124692750Y-63967501D01*
X124606194Y-63880834D01*
X124513764Y-63788317D01*
X124415263Y-63689748D01*
X124310494Y-63584923D01*
X124199261Y-63473637D01*
X124081367Y-63355687D01*
X123956616Y-63230870D01*
X123877622Y-63151827D01*
X123770672Y-63044826D01*
X123665410Y-62939548D01*
X123562070Y-62836226D01*
X123460886Y-62735093D01*
X123362091Y-62636382D01*
X123265921Y-62540328D01*
X123172610Y-62447162D01*
X123082391Y-62357118D01*
X122995499Y-62270430D01*
X122912168Y-62187330D01*
X122832632Y-62108053D01*
X122757126Y-62032830D01*
X122685884Y-61961896D01*
X122619139Y-61895483D01*
X122557127Y-61833825D01*
X122500081Y-61777155D01*
X122448236Y-61725707D01*
X122401825Y-61679713D01*
X122361084Y-61639406D01*
X122326245Y-61605021D01*
X122297544Y-61576790D01*
X122275215Y-61554946D01*
X122259491Y-61539723D01*
X122250608Y-61531354D01*
X122248920Y-61529898D01*
X122197036Y-61495625D01*
X122143156Y-61470878D01*
X122086049Y-61455242D01*
X122024487Y-61448305D01*
X122005080Y-61447858D01*
X121942301Y-61451763D01*
X121884077Y-61464303D01*
X121828975Y-61485905D01*
X121778132Y-61515264D01*
X121772663Y-61520105D01*
X121760300Y-61531862D01*
X121741323Y-61550255D01*
X121716010Y-61575005D01*
X121684642Y-61605832D01*
X121647497Y-61642458D01*
X121604856Y-61684602D01*
X121556997Y-61731986D01*
X121504201Y-61784330D01*
X121446746Y-61841356D01*
X121384913Y-61902782D01*
X121318980Y-61968331D01*
X121249227Y-62037723D01*
X121175933Y-62110678D01*
X121099379Y-62186918D01*
X121019843Y-62266162D01*
X120937605Y-62348133D01*
X120852945Y-62432549D01*
X120766141Y-62519132D01*
X120677474Y-62607603D01*
X120587222Y-62697682D01*
X120495666Y-62789090D01*
X120403084Y-62881548D01*
X120309757Y-62974775D01*
X120215963Y-63068494D01*
X120121983Y-63162424D01*
X120028095Y-63256287D01*
X119934579Y-63349803D01*
X119841715Y-63442692D01*
X119749781Y-63534675D01*
X119659059Y-63625473D01*
X119569826Y-63714807D01*
X119482362Y-63802397D01*
X119396947Y-63887965D01*
X119313861Y-63971229D01*
X119233382Y-64051912D01*
X119155791Y-64129734D01*
X119081367Y-64204416D01*
X119010388Y-64275678D01*
X118943135Y-64343241D01*
X118879888Y-64406825D01*
X118820925Y-64466152D01*
X118766526Y-64520942D01*
X118716970Y-64570915D01*
X118672538Y-64615793D01*
X118633508Y-64655295D01*
X118600160Y-64689144D01*
X118572773Y-64717058D01*
X118551628Y-64738760D01*
X118537002Y-64753969D01*
X118529176Y-64762407D01*
X118528043Y-64763780D01*
X118496550Y-64813310D01*
X118474048Y-64862529D01*
X118459780Y-64913791D01*
X118452992Y-64969448D01*
X118452165Y-65000000D01*
X117613537Y-65000000D01*
X117614000Y-64969251D01*
X117616951Y-64928871D01*
X117622207Y-64893957D01*
X117625260Y-64881085D01*
X117649098Y-64811811D01*
X117680907Y-64748635D01*
X117720554Y-64691789D01*
X117753416Y-64655372D01*
X117768018Y-64641970D01*
X117789077Y-64624225D01*
X117814730Y-64603627D01*
X117843113Y-64581666D01*
X117872364Y-64559833D01*
X117878163Y-64555606D01*
X118203244Y-64313580D01*
X118522088Y-64063878D01*
X118834483Y-63806709D01*
X119140219Y-63542286D01*
X119439085Y-63270818D01*
X119730870Y-62992517D01*
X120015363Y-62707593D01*
X120292353Y-62416257D01*
X120561629Y-62118720D01*
X120822980Y-61815191D01*
X121076195Y-61505882D01*
X121321064Y-61191004D01*
X121532334Y-60905520D01*
X121555889Y-60873372D01*
X121579448Y-60842033D01*
X121601812Y-60813037D01*
X121621784Y-60787917D01*
X121638164Y-60768209D01*
X121648716Y-60756499D01*
X121700594Y-60710117D01*
X121757005Y-60672330D01*
X121817040Y-60643157D01*
X121879786Y-60622616D01*
X121944332Y-60610725D01*
X122009767Y-60607503D01*
X122075179Y-60612968D01*
X122075179Y-60612968D01*
G37*
X122075179Y-60612968D02*
X122139657Y-60627138D01*
X122202289Y-60650032D01*
X122262164Y-60681668D01*
X122318371Y-60722063D01*
X122341690Y-60742603D01*
X122354504Y-60756030D01*
X122371790Y-60776241D01*
X122392271Y-60801642D01*
X122414669Y-60830638D01*
X122437710Y-60861637D01*
X122444235Y-60870643D01*
X122643939Y-61142614D01*
X122845013Y-61405739D01*
X123048562Y-61661327D01*
X123255694Y-61910688D01*
X123467513Y-62155132D01*
X123685125Y-62395968D01*
X123909637Y-62634507D01*
X124087880Y-62817411D01*
X124371493Y-63097198D01*
X124661059Y-63368955D01*
X124956941Y-63632994D01*
X125259502Y-63889625D01*
X125569107Y-64139161D01*
X125886118Y-64381914D01*
X126066540Y-64514664D01*
X126114950Y-64549999D01*
X126155824Y-64580386D01*
X126190041Y-64606572D01*
X126218476Y-64629307D01*
X126242008Y-64649337D01*
X126261514Y-64667411D01*
X126277872Y-64684277D01*
X126291958Y-64700683D01*
X126304651Y-64717377D01*
X126305141Y-64718060D01*
X126341714Y-64777219D01*
X126368794Y-64839500D01*
X126386523Y-64905355D01*
X126395040Y-64975237D01*
X126395879Y-65012700D01*
X126391324Y-65080600D01*
X126378561Y-65143680D01*
X126357029Y-65203808D01*
X126326169Y-65262851D01*
X126316055Y-65279017D01*
X126301229Y-65300500D01*
X126284889Y-65321018D01*
X126266063Y-65341427D01*
X126243777Y-65362586D01*
X126217057Y-65385351D01*
X126184929Y-65410580D01*
X126146420Y-65439131D01*
X126100555Y-65471862D01*
X126083430Y-65483872D01*
X125772087Y-65707668D01*
X125466734Y-65939617D01*
X125167558Y-66179532D01*
X124874746Y-66427227D01*
X124588484Y-66682514D01*
X124308960Y-66945207D01*
X124036361Y-67215120D01*
X123770873Y-67492065D01*
X123512682Y-67775857D01*
X123261977Y-68066308D01*
X123018943Y-68363231D01*
X122783768Y-68666441D01*
X122556639Y-68975749D01*
X122479845Y-69084320D01*
X122443520Y-69135415D01*
X122411399Y-69178704D01*
X122382527Y-69215132D01*
X122355949Y-69245645D01*
X122330711Y-69271187D01*
X122305858Y-69292706D01*
X122280434Y-69311147D01*
X122253485Y-69327456D01*
X122224055Y-69342578D01*
X122214583Y-69347032D01*
X122164447Y-69366228D01*
X122109070Y-69380553D01*
X122051525Y-69389551D01*
X121994888Y-69392768D01*
X121942233Y-69389748D01*
X121933960Y-69388591D01*
X121896482Y-69380629D01*
X121854921Y-69368148D01*
X121813058Y-69352526D01*
X121774673Y-69335141D01*
X121750110Y-69321571D01*
X121718949Y-69300701D01*
X121689643Y-69277242D01*
X121661009Y-69249946D01*
X121631867Y-69217567D01*
X121601034Y-69178858D01*
X121567328Y-69132572D01*
X121557374Y-69118315D01*
X121355437Y-68833635D01*
X121150053Y-68557658D01*
X120940297Y-68289246D01*
X120725246Y-68027260D01*
X120503977Y-67770560D01*
X120275567Y-67518010D01*
X120155745Y-67390140D01*
X120116799Y-67349451D01*
X120072011Y-67303329D01*
X120022501Y-67252884D01*
X119969391Y-67199227D01*
X119913802Y-67143472D01*
X119856854Y-67086728D01*
X119799668Y-67030108D01*
X119743366Y-66974723D01*
X119689067Y-66921685D01*
X119637893Y-66872106D01*
X119590965Y-66827097D01*
X119549404Y-66787769D01*
X119531491Y-66771052D01*
X119306495Y-66566580D01*
X119076764Y-66366268D01*
X118843473Y-66171058D01*
X118607798Y-65981891D01*
X118370913Y-65799710D01*
X118133994Y-65625457D01*
X117898217Y-65460072D01*
X117882660Y-65449448D01*
X117824156Y-65407285D01*
X117774624Y-65366333D01*
X117733154Y-65325441D01*
X117698836Y-65283457D01*
X117670759Y-65239232D01*
X117648014Y-65191613D01*
X117629690Y-65139452D01*
X117625260Y-65123994D01*
X117618986Y-65092470D01*
X117615018Y-65054123D01*
X117613356Y-65012026D01*
X117613537Y-65000000D01*
X118452165Y-65000000D01*
X118455462Y-65058773D01*
X118465855Y-65111962D01*
X118484100Y-65161920D01*
X118510955Y-65210999D01*
X118528043Y-65236220D01*
X118533211Y-65242010D01*
X118545285Y-65254678D01*
X118563985Y-65273944D01*
X118589032Y-65299530D01*
X118620147Y-65331156D01*
X118657050Y-65368542D01*
X118699462Y-65411409D01*
X118747103Y-65459479D01*
X118799694Y-65512471D01*
X118856955Y-65570106D01*
X118918607Y-65632105D01*
X118984370Y-65698188D01*
X119053965Y-65768077D01*
X119127112Y-65841491D01*
X119203533Y-65918153D01*
X119282947Y-65997781D01*
X119365075Y-66080097D01*
X119449637Y-66164822D01*
X119536355Y-66251676D01*
X119624948Y-66340380D01*
X119715138Y-66430655D01*
X119806644Y-66522221D01*
X119899187Y-66614798D01*
X119992488Y-66708109D01*
X120086268Y-66801872D01*
X120180246Y-66895810D01*
X120274144Y-66989642D01*
X120367681Y-67083089D01*
X120460579Y-67175872D01*
X120552558Y-67267712D01*
X120643339Y-67358329D01*
X120732641Y-67447444D01*
X120820186Y-67534778D01*
X120905694Y-67620051D01*
X120988886Y-67702984D01*
X121069482Y-67783297D01*
X121147202Y-67860712D01*
X121221768Y-67934949D01*
X121292900Y-68005728D01*
X121360318Y-68072771D01*
X121423743Y-68135797D01*
X121482895Y-68194528D01*
X121537495Y-68248685D01*
X121587263Y-68297987D01*
X121631921Y-68342156D01*
X121671188Y-68380913D01*
X121704784Y-68413977D01*
X121732432Y-68441070D01*
X121753851Y-68461912D01*
X121768761Y-68476225D01*
X121776883Y-68483727D01*
X121778132Y-68484735D01*
X121801387Y-68498693D01*
X121829445Y-68513165D01*
X121858604Y-68526420D01*
X121885164Y-68536730D01*
X121897831Y-68540656D01*
X121952589Y-68550686D01*
X122010943Y-68553036D01*
X122069843Y-68547713D01*
X122106680Y-68540216D01*
X122157549Y-68522990D01*
X122207926Y-68497625D01*
X122248920Y-68470101D01*
X122254698Y-68464843D01*
X122267421Y-68452627D01*
X122286853Y-68433687D01*
X122312761Y-68408256D01*
X122344910Y-68376568D01*
X122383065Y-68338856D01*
X122426994Y-68295353D01*
X122476460Y-68246291D01*
X122531231Y-68191906D01*
X122591073Y-68132428D01*
X122655750Y-68068093D01*
X122725029Y-67999133D01*
X122798675Y-67925781D01*
X122876454Y-67848271D01*
X122958133Y-67766835D01*
X123043477Y-67681708D01*
X123132251Y-67593122D01*
X123224221Y-67501310D01*
X123319154Y-67406507D01*
X123416815Y-67308944D01*
X123516969Y-67208855D01*
X123619384Y-67106474D01*
X123723823Y-67002033D01*
X123830054Y-66895767D01*
X123877622Y-66848172D01*
X124006623Y-66719094D01*
X124128648Y-66597008D01*
X124243893Y-66481710D01*
X124352554Y-66372995D01*
X124454828Y-66270660D01*
X124550913Y-66174501D01*
X124641004Y-66084315D01*
X124725298Y-65999897D01*
X124803992Y-65921044D01*
X124877283Y-65847553D01*
X124945366Y-65779218D01*
X125008440Y-65715837D01*
X125066700Y-65657206D01*
X125120343Y-65603120D01*
X125169566Y-65553377D01*
X125214565Y-65507772D01*
X125255537Y-65466102D01*
X125292680Y-65428163D01*
X125326188Y-65393751D01*
X125356259Y-65362662D01*
X125383090Y-65334692D01*
X125406878Y-65309638D01*
X125427818Y-65287297D01*
X125446108Y-65267463D01*
X125461944Y-65249934D01*
X125475523Y-65234506D01*
X125487042Y-65220974D01*
X125496697Y-65209135D01*
X125504685Y-65198786D01*
X125511202Y-65189722D01*
X125516445Y-65181740D01*
X125520612Y-65174636D01*
X125523897Y-65168207D01*
X125526499Y-65162247D01*
X125528614Y-65156554D01*
X125530438Y-65150925D01*
X125532168Y-65145154D01*
X125534000Y-65139038D01*
X125536133Y-65132375D01*
X125537653Y-65127985D01*
X125543533Y-65111117D01*
X125547739Y-65097062D01*
X125550552Y-65083554D01*
X125552250Y-65068325D01*
X125553113Y-65049111D01*
X125553423Y-65023646D01*
X125553460Y-65000000D01*
X125553377Y-64968588D01*
X125552943Y-64945069D01*
X125551877Y-64927179D01*
X125549900Y-64912650D01*
X125546732Y-64899217D01*
X125542093Y-64884614D01*
X125537653Y-64872014D01*
X125535244Y-64864919D01*
X125533253Y-64858496D01*
X125531484Y-64852541D01*
X125529741Y-64846850D01*
X125527826Y-64841219D01*
X125525543Y-64835446D01*
X125522695Y-64829325D01*
X125519085Y-64822654D01*
X125514518Y-64815228D01*
X125508796Y-64806844D01*
X125501722Y-64797298D01*
X125493101Y-64786386D01*
X125482735Y-64773905D01*
X125470427Y-64759650D01*
X125455982Y-64743417D01*
X125439202Y-64725004D01*
X125419891Y-64704206D01*
X125397852Y-64680820D01*
X125372888Y-64654641D01*
X125344803Y-64625466D01*
X125313401Y-64593092D01*
X125278483Y-64557313D01*
X125239855Y-64517928D01*
X125197319Y-64474731D01*
X125150678Y-64427519D01*
X125099736Y-64376089D01*
X125044297Y-64320236D01*
X124984163Y-64259756D01*
X124919138Y-64194447D01*
X124849025Y-64124104D01*
X124773628Y-64048523D01*
X124692750Y-63967501D01*
X124606194Y-63880834D01*
X124513764Y-63788317D01*
X124415263Y-63689748D01*
X124310494Y-63584923D01*
X124199261Y-63473637D01*
X124081367Y-63355687D01*
X123956616Y-63230870D01*
X123877622Y-63151827D01*
X123770672Y-63044826D01*
X123665410Y-62939548D01*
X123562070Y-62836226D01*
X123460886Y-62735093D01*
X123362091Y-62636382D01*
X123265921Y-62540328D01*
X123172610Y-62447162D01*
X123082391Y-62357118D01*
X122995499Y-62270430D01*
X122912168Y-62187330D01*
X122832632Y-62108053D01*
X122757126Y-62032830D01*
X122685884Y-61961896D01*
X122619139Y-61895483D01*
X122557127Y-61833825D01*
X122500081Y-61777155D01*
X122448236Y-61725707D01*
X122401825Y-61679713D01*
X122361084Y-61639406D01*
X122326245Y-61605021D01*
X122297544Y-61576790D01*
X122275215Y-61554946D01*
X122259491Y-61539723D01*
X122250608Y-61531354D01*
X122248920Y-61529898D01*
X122197036Y-61495625D01*
X122143156Y-61470878D01*
X122086049Y-61455242D01*
X122024487Y-61448305D01*
X122005080Y-61447858D01*
X121942301Y-61451763D01*
X121884077Y-61464303D01*
X121828975Y-61485905D01*
X121778132Y-61515264D01*
X121772663Y-61520105D01*
X121760300Y-61531862D01*
X121741323Y-61550255D01*
X121716010Y-61575005D01*
X121684642Y-61605832D01*
X121647497Y-61642458D01*
X121604856Y-61684602D01*
X121556997Y-61731986D01*
X121504201Y-61784330D01*
X121446746Y-61841356D01*
X121384913Y-61902782D01*
X121318980Y-61968331D01*
X121249227Y-62037723D01*
X121175933Y-62110678D01*
X121099379Y-62186918D01*
X121019843Y-62266162D01*
X120937605Y-62348133D01*
X120852945Y-62432549D01*
X120766141Y-62519132D01*
X120677474Y-62607603D01*
X120587222Y-62697682D01*
X120495666Y-62789090D01*
X120403084Y-62881548D01*
X120309757Y-62974775D01*
X120215963Y-63068494D01*
X120121983Y-63162424D01*
X120028095Y-63256287D01*
X119934579Y-63349803D01*
X119841715Y-63442692D01*
X119749781Y-63534675D01*
X119659059Y-63625473D01*
X119569826Y-63714807D01*
X119482362Y-63802397D01*
X119396947Y-63887965D01*
X119313861Y-63971229D01*
X119233382Y-64051912D01*
X119155791Y-64129734D01*
X119081367Y-64204416D01*
X119010388Y-64275678D01*
X118943135Y-64343241D01*
X118879888Y-64406825D01*
X118820925Y-64466152D01*
X118766526Y-64520942D01*
X118716970Y-64570915D01*
X118672538Y-64615793D01*
X118633508Y-64655295D01*
X118600160Y-64689144D01*
X118572773Y-64717058D01*
X118551628Y-64738760D01*
X118537002Y-64753969D01*
X118529176Y-64762407D01*
X118528043Y-64763780D01*
X118496550Y-64813310D01*
X118474048Y-64862529D01*
X118459780Y-64913791D01*
X118452992Y-64969448D01*
X118452165Y-65000000D01*
X117613537Y-65000000D01*
X117614000Y-64969251D01*
X117616951Y-64928871D01*
X117622207Y-64893957D01*
X117625260Y-64881085D01*
X117649098Y-64811811D01*
X117680907Y-64748635D01*
X117720554Y-64691789D01*
X117753416Y-64655372D01*
X117768018Y-64641970D01*
X117789077Y-64624225D01*
X117814730Y-64603627D01*
X117843113Y-64581666D01*
X117872364Y-64559833D01*
X117878163Y-64555606D01*
X118203244Y-64313580D01*
X118522088Y-64063878D01*
X118834483Y-63806709D01*
X119140219Y-63542286D01*
X119439085Y-63270818D01*
X119730870Y-62992517D01*
X120015363Y-62707593D01*
X120292353Y-62416257D01*
X120561629Y-62118720D01*
X120822980Y-61815191D01*
X121076195Y-61505882D01*
X121321064Y-61191004D01*
X121532334Y-60905520D01*
X121555889Y-60873372D01*
X121579448Y-60842033D01*
X121601812Y-60813037D01*
X121621784Y-60787917D01*
X121638164Y-60768209D01*
X121648716Y-60756499D01*
X121700594Y-60710117D01*
X121757005Y-60672330D01*
X121817040Y-60643157D01*
X121879786Y-60622616D01*
X121944332Y-60610725D01*
X122009767Y-60607503D01*
X122075179Y-60612968D01*
G04 #@! TO.C,R1*
D12*
X152898333Y-101402380D02*
X152565000Y-100926190D01*
X152326904Y-101402380D02*
X152326904Y-100402380D01*
X152707857Y-100402380D01*
X152803095Y-100450000D01*
X152850714Y-100497619D01*
X152898333Y-100592857D01*
X152898333Y-100735714D01*
X152850714Y-100830952D01*
X152803095Y-100878571D01*
X152707857Y-100926190D01*
X152326904Y-100926190D01*
X153850714Y-101402380D02*
X153279285Y-101402380D01*
X153565000Y-101402380D02*
X153565000Y-100402380D01*
X153469761Y-100545238D01*
X153374523Y-100640476D01*
X153279285Y-100688095D01*
G04 #@! TO.C,J1*
X108952380Y-101983333D02*
X109666666Y-101983333D01*
X109809523Y-102030952D01*
X109904761Y-102126190D01*
X109952380Y-102269047D01*
X109952380Y-102364285D01*
X109952380Y-100983333D02*
X109952380Y-101554761D01*
X109952380Y-101269047D02*
X108952380Y-101269047D01*
X109095238Y-101364285D01*
X109190476Y-101459523D01*
X109238095Y-101554761D01*
G04 #@! TO.C,C1*
X151007142Y-95216666D02*
X151054761Y-95264285D01*
X151102380Y-95407142D01*
X151102380Y-95502380D01*
X151054761Y-95645238D01*
X150959523Y-95740476D01*
X150864285Y-95788095D01*
X150673809Y-95835714D01*
X150530952Y-95835714D01*
X150340476Y-95788095D01*
X150245238Y-95740476D01*
X150150000Y-95645238D01*
X150102380Y-95502380D01*
X150102380Y-95407142D01*
X150150000Y-95264285D01*
X150197619Y-95216666D01*
X151102380Y-94264285D02*
X151102380Y-94835714D01*
X151102380Y-94550000D02*
X150102380Y-94550000D01*
X150245238Y-94645238D01*
X150340476Y-94740476D01*
X150388095Y-94835714D01*
G04 #@! TO.C,C2*
X159583333Y-97307142D02*
X159535714Y-97354761D01*
X159392857Y-97402380D01*
X159297619Y-97402380D01*
X159154761Y-97354761D01*
X159059523Y-97259523D01*
X159011904Y-97164285D01*
X158964285Y-96973809D01*
X158964285Y-96830952D01*
X159011904Y-96640476D01*
X159059523Y-96545238D01*
X159154761Y-96450000D01*
X159297619Y-96402380D01*
X159392857Y-96402380D01*
X159535714Y-96450000D01*
X159583333Y-96497619D01*
X159964285Y-96497619D02*
X160011904Y-96450000D01*
X160107142Y-96402380D01*
X160345238Y-96402380D01*
X160440476Y-96450000D01*
X160488095Y-96497619D01*
X160535714Y-96592857D01*
X160535714Y-96688095D01*
X160488095Y-96830952D01*
X159916666Y-97402380D01*
X160535714Y-97402380D01*
G04 #@! TO.C,C3*
X149957142Y-87966666D02*
X150004761Y-88014285D01*
X150052380Y-88157142D01*
X150052380Y-88252380D01*
X150004761Y-88395238D01*
X149909523Y-88490476D01*
X149814285Y-88538095D01*
X149623809Y-88585714D01*
X149480952Y-88585714D01*
X149290476Y-88538095D01*
X149195238Y-88490476D01*
X149100000Y-88395238D01*
X149052380Y-88252380D01*
X149052380Y-88157142D01*
X149100000Y-88014285D01*
X149147619Y-87966666D01*
X149052380Y-87633333D02*
X149052380Y-87014285D01*
X149433333Y-87347619D01*
X149433333Y-87204761D01*
X149480952Y-87109523D01*
X149528571Y-87061904D01*
X149623809Y-87014285D01*
X149861904Y-87014285D01*
X149957142Y-87061904D01*
X150004761Y-87109523D01*
X150052380Y-87204761D01*
X150052380Y-87490476D01*
X150004761Y-87585714D01*
X149957142Y-87633333D01*
G04 #@! TO.C,C4*
X154757142Y-88029166D02*
X154804761Y-88076785D01*
X154852380Y-88219642D01*
X154852380Y-88314880D01*
X154804761Y-88457738D01*
X154709523Y-88552976D01*
X154614285Y-88600595D01*
X154423809Y-88648214D01*
X154280952Y-88648214D01*
X154090476Y-88600595D01*
X153995238Y-88552976D01*
X153900000Y-88457738D01*
X153852380Y-88314880D01*
X153852380Y-88219642D01*
X153900000Y-88076785D01*
X153947619Y-88029166D01*
X154185714Y-87172023D02*
X154852380Y-87172023D01*
X153804761Y-87410119D02*
X154519047Y-87648214D01*
X154519047Y-87029166D01*
G04 #@! TO.C,D1*
X157811904Y-93802380D02*
X157811904Y-92802380D01*
X158050000Y-92802380D01*
X158192857Y-92850000D01*
X158288095Y-92945238D01*
X158335714Y-93040476D01*
X158383333Y-93230952D01*
X158383333Y-93373809D01*
X158335714Y-93564285D01*
X158288095Y-93659523D01*
X158192857Y-93754761D01*
X158050000Y-93802380D01*
X157811904Y-93802380D01*
X159335714Y-93802380D02*
X158764285Y-93802380D01*
X159050000Y-93802380D02*
X159050000Y-92802380D01*
X158954761Y-92945238D01*
X158859523Y-93040476D01*
X158764285Y-93088095D01*
G04 #@! TO.C,D2*
X169961904Y-70672380D02*
X169961904Y-69672380D01*
X170200000Y-69672380D01*
X170342857Y-69720000D01*
X170438095Y-69815238D01*
X170485714Y-69910476D01*
X170533333Y-70100952D01*
X170533333Y-70243809D01*
X170485714Y-70434285D01*
X170438095Y-70529523D01*
X170342857Y-70624761D01*
X170200000Y-70672380D01*
X169961904Y-70672380D01*
X170914285Y-69767619D02*
X170961904Y-69720000D01*
X171057142Y-69672380D01*
X171295238Y-69672380D01*
X171390476Y-69720000D01*
X171438095Y-69767619D01*
X171485714Y-69862857D01*
X171485714Y-69958095D01*
X171438095Y-70100952D01*
X170866666Y-70672380D01*
X171485714Y-70672380D01*
G04 #@! TO.C,K1*
D18*
X202549205Y-90415939D02*
X202549205Y-89415479D01*
X203120896Y-90415939D02*
X202692128Y-89844247D01*
X203120896Y-89415479D02*
X202549205Y-89987170D01*
X204073715Y-90415939D02*
X203502024Y-90415939D01*
X203787870Y-90415939D02*
X203787870Y-89415479D01*
X203692588Y-89558401D01*
X203597306Y-89653683D01*
X203502024Y-89701324D01*
X200990782Y-97634691D02*
X201467329Y-97634691D01*
X200895472Y-97920620D02*
X201229055Y-96919870D01*
X201562639Y-97920620D01*
X202372770Y-97920620D02*
X201896222Y-97920620D01*
X201896222Y-96919870D01*
X202658698Y-97634691D02*
X203135246Y-97634691D01*
X202563389Y-97920620D02*
X202896972Y-96919870D01*
X203230555Y-97920620D01*
X203516484Y-97015179D02*
X203564139Y-96967525D01*
X203659448Y-96919870D01*
X203897722Y-96919870D01*
X203993032Y-96967525D01*
X204040686Y-97015179D01*
X204088341Y-97110489D01*
X204088341Y-97205798D01*
X204040686Y-97348763D01*
X203468829Y-97920620D01*
X204088341Y-97920620D01*
X204850817Y-97396417D02*
X204517234Y-97396417D01*
X204517234Y-97920620D02*
X204517234Y-96919870D01*
X204993782Y-96919870D01*
X205899222Y-97920620D02*
X205327365Y-97920620D01*
X205613294Y-97920620D02*
X205613294Y-96919870D01*
X205517984Y-97062834D01*
X205422675Y-97158144D01*
X205327365Y-97205798D01*
X206280460Y-97015179D02*
X206328115Y-96967525D01*
X206423425Y-96919870D01*
X206661698Y-96919870D01*
X206757008Y-96967525D01*
X206804663Y-97015179D01*
X206852317Y-97110489D01*
X206852317Y-97205798D01*
X206804663Y-97348763D01*
X206232805Y-97920620D01*
X206852317Y-97920620D01*
G04 #@! TO.C,L1*
X157222995Y-71965249D02*
X156746637Y-71965249D01*
X156746637Y-70964899D01*
X158080437Y-71965249D02*
X157508809Y-71965249D01*
X157794623Y-71965249D02*
X157794623Y-70964899D01*
X157699352Y-71107806D01*
X157604080Y-71203077D01*
X157508809Y-71250713D01*
X156746512Y-84226985D02*
X156555735Y-84226985D01*
X156460346Y-84274680D01*
X156412652Y-84322374D01*
X156317263Y-84465457D01*
X156269569Y-84656234D01*
X156269569Y-85037788D01*
X156317263Y-85133177D01*
X156364957Y-85180871D01*
X156460346Y-85228565D01*
X156651123Y-85228565D01*
X156746512Y-85180871D01*
X156794206Y-85133177D01*
X156841900Y-85037788D01*
X156841900Y-84799317D01*
X156794206Y-84703928D01*
X156746512Y-84656234D01*
X156651123Y-84608540D01*
X156460346Y-84608540D01*
X156364957Y-84656234D01*
X156317263Y-84703928D01*
X156269569Y-84799317D01*
X157271149Y-85133177D02*
X157318843Y-85180871D01*
X157271149Y-85228565D01*
X157223455Y-85180871D01*
X157271149Y-85133177D01*
X157271149Y-85228565D01*
X157891175Y-84656234D02*
X157795786Y-84608540D01*
X157748092Y-84560845D01*
X157700397Y-84465457D01*
X157700397Y-84417762D01*
X157748092Y-84322374D01*
X157795786Y-84274680D01*
X157891175Y-84226985D01*
X158081952Y-84226985D01*
X158177340Y-84274680D01*
X158225035Y-84322374D01*
X158272729Y-84417762D01*
X158272729Y-84465457D01*
X158225035Y-84560845D01*
X158177340Y-84608540D01*
X158081952Y-84656234D01*
X157891175Y-84656234D01*
X157795786Y-84703928D01*
X157748092Y-84751622D01*
X157700397Y-84847011D01*
X157700397Y-85037788D01*
X157748092Y-85133177D01*
X157795786Y-85180871D01*
X157891175Y-85228565D01*
X158081952Y-85228565D01*
X158177340Y-85180871D01*
X158225035Y-85133177D01*
X158272729Y-85037788D01*
X158272729Y-84847011D01*
X158225035Y-84751622D01*
X158177340Y-84703928D01*
X158081952Y-84656234D01*
X159131226Y-84560845D02*
X159131226Y-85228565D01*
X158701977Y-84560845D02*
X158701977Y-85085482D01*
X158749672Y-85180871D01*
X158845060Y-85228565D01*
X158988143Y-85228565D01*
X159083532Y-85180871D01*
X159131226Y-85133177D01*
G04 #@! TO.C,R2*
D12*
X169102380Y-72616666D02*
X168626190Y-72950000D01*
X169102380Y-73188095D02*
X168102380Y-73188095D01*
X168102380Y-72807142D01*
X168150000Y-72711904D01*
X168197619Y-72664285D01*
X168292857Y-72616666D01*
X168435714Y-72616666D01*
X168530952Y-72664285D01*
X168578571Y-72711904D01*
X168626190Y-72807142D01*
X168626190Y-73188095D01*
X168197619Y-72235714D02*
X168150000Y-72188095D01*
X168102380Y-72092857D01*
X168102380Y-71854761D01*
X168150000Y-71759523D01*
X168197619Y-71711904D01*
X168292857Y-71664285D01*
X168388095Y-71664285D01*
X168530952Y-71711904D01*
X169102380Y-72283333D01*
X169102380Y-71664285D01*
G04 #@! TO.C,RV1*
D18*
X101710088Y-96934327D02*
X100962626Y-97457550D01*
X101710088Y-97831281D02*
X100140418Y-97831281D01*
X100140418Y-97233312D01*
X100215165Y-97083819D01*
X100289911Y-97009073D01*
X100439403Y-96934327D01*
X100663642Y-96934327D01*
X100813134Y-97009073D01*
X100887880Y-97083819D01*
X100962626Y-97233312D01*
X100962626Y-97831281D01*
X100140418Y-96485850D02*
X101710088Y-95962626D01*
X100140418Y-95439403D01*
X101710088Y-94093972D02*
X101710088Y-94990926D01*
X101710088Y-94542449D02*
X100140418Y-94542449D01*
X100364657Y-94691941D01*
X100514149Y-94841434D01*
X100588895Y-94990926D01*
X100372474Y-108277590D02*
X101913264Y-107763994D01*
X100372474Y-107250397D01*
X101913264Y-106076462D02*
X101106183Y-106076462D01*
X100959441Y-106149833D01*
X100886070Y-106296575D01*
X100886070Y-106590058D01*
X100959441Y-106736800D01*
X101839893Y-106076462D02*
X101913264Y-106223204D01*
X101913264Y-106590058D01*
X101839893Y-106736800D01*
X101693151Y-106810171D01*
X101546409Y-106810171D01*
X101399667Y-106736800D01*
X101326296Y-106590058D01*
X101326296Y-106223204D01*
X101252925Y-106076462D01*
X101913264Y-105342752D02*
X100886070Y-105342752D01*
X101179554Y-105342752D02*
X101032812Y-105269381D01*
X100959441Y-105196010D01*
X100886070Y-105049268D01*
X100886070Y-104902526D01*
X101913264Y-104388930D02*
X100886070Y-104388930D01*
X100372474Y-104388930D02*
X100445845Y-104462301D01*
X100519215Y-104388930D01*
X100445845Y-104315559D01*
X100372474Y-104388930D01*
X100519215Y-104388930D01*
X101839893Y-103728591D02*
X101913264Y-103581849D01*
X101913264Y-103288365D01*
X101839893Y-103141624D01*
X101693151Y-103068253D01*
X101619780Y-103068253D01*
X101473038Y-103141624D01*
X101399667Y-103288365D01*
X101399667Y-103508478D01*
X101326296Y-103655220D01*
X101179554Y-103728591D01*
X101106183Y-103728591D01*
X100959441Y-103655220D01*
X100886070Y-103508478D01*
X100886070Y-103288365D01*
X100959441Y-103141624D01*
X100886070Y-102628027D02*
X100886070Y-102041059D01*
X100372474Y-102407914D02*
X101693151Y-102407914D01*
X101839893Y-102334543D01*
X101913264Y-102187801D01*
X101913264Y-102041059D01*
X101913264Y-101307350D02*
X101839893Y-101454092D01*
X101766522Y-101527463D01*
X101619780Y-101600834D01*
X101179554Y-101600834D01*
X101032812Y-101527463D01*
X100959441Y-101454092D01*
X100886070Y-101307350D01*
X100886070Y-101087237D01*
X100959441Y-100940495D01*
X101032812Y-100867124D01*
X101179554Y-100793753D01*
X101619780Y-100793753D01*
X101766522Y-100867124D01*
X101839893Y-100940495D01*
X101913264Y-101087237D01*
X101913264Y-101307350D01*
X101913264Y-100133415D02*
X100886070Y-100133415D01*
X101179554Y-100133415D02*
X101032812Y-100060044D01*
X100959441Y-99986673D01*
X100886070Y-99839931D01*
X100886070Y-99693189D01*
G04 #@! TO.C,U1*
X118979223Y-88011120D02*
X118979223Y-89145951D01*
X119045978Y-89279460D01*
X119112733Y-89346215D01*
X119246242Y-89412970D01*
X119513261Y-89412970D01*
X119646771Y-89346215D01*
X119713526Y-89279460D01*
X119780280Y-89145951D01*
X119780280Y-88011120D01*
X121182130Y-89412970D02*
X120381073Y-89412970D01*
X120781602Y-89412970D02*
X120781602Y-88011120D01*
X120648092Y-88211384D01*
X120514583Y-88344894D01*
X120381073Y-88411648D01*
X114947593Y-115479743D02*
X114480403Y-114812329D01*
X114146696Y-115479743D02*
X114146696Y-114078173D01*
X114680627Y-114078173D01*
X114814110Y-114144915D01*
X114880852Y-114211656D01*
X114947593Y-114345139D01*
X114947593Y-114545363D01*
X114880852Y-114678846D01*
X114814110Y-114745587D01*
X114680627Y-114812329D01*
X114146696Y-114812329D01*
X115481525Y-115079295D02*
X116148939Y-115079295D01*
X115348042Y-115479743D02*
X115815232Y-114078173D01*
X116282422Y-115479743D01*
X117550509Y-115346260D02*
X117483767Y-115413002D01*
X117283543Y-115479743D01*
X117150060Y-115479743D01*
X116949836Y-115413002D01*
X116816353Y-115279519D01*
X116749612Y-115146036D01*
X116682870Y-114879070D01*
X116682870Y-114678846D01*
X116749612Y-114411880D01*
X116816353Y-114278397D01*
X116949836Y-114144915D01*
X117150060Y-114078173D01*
X117283543Y-114078173D01*
X117483767Y-114144915D01*
X117550509Y-114211656D01*
X118418147Y-114078173D02*
X118551630Y-114078173D01*
X118685113Y-114144915D01*
X118751855Y-114211656D01*
X118818596Y-114345139D01*
X118885337Y-114612105D01*
X118885337Y-114945812D01*
X118818596Y-115212777D01*
X118751855Y-115346260D01*
X118685113Y-115413002D01*
X118551630Y-115479743D01*
X118418147Y-115479743D01*
X118284665Y-115413002D01*
X118217923Y-115346260D01*
X118151182Y-115212777D01*
X118084440Y-114945812D01*
X118084440Y-114612105D01*
X118151182Y-114345139D01*
X118217923Y-114211656D01*
X118284665Y-114144915D01*
X118418147Y-114078173D01*
X120220166Y-115479743D02*
X119419269Y-115479743D01*
X119819717Y-115479743D02*
X119819717Y-114078173D01*
X119686235Y-114278397D01*
X119552752Y-114411880D01*
X119419269Y-114478622D01*
X120820839Y-114945812D02*
X121888702Y-114945812D01*
X122823082Y-114078173D02*
X122956565Y-114078173D01*
X123090047Y-114144915D01*
X123156789Y-114211656D01*
X123223530Y-114345139D01*
X123290272Y-114612105D01*
X123290272Y-114945812D01*
X123223530Y-115212777D01*
X123156789Y-115346260D01*
X123090047Y-115413002D01*
X122956565Y-115479743D01*
X122823082Y-115479743D01*
X122689599Y-115413002D01*
X122622857Y-115346260D01*
X122556116Y-115212777D01*
X122489375Y-114945812D01*
X122489375Y-114612105D01*
X122556116Y-114345139D01*
X122622857Y-114211656D01*
X122689599Y-114144915D01*
X122823082Y-114078173D01*
X124558359Y-114078173D02*
X123890945Y-114078173D01*
X123824203Y-114745587D01*
X123890945Y-114678846D01*
X124024427Y-114612105D01*
X124358135Y-114612105D01*
X124491617Y-114678846D01*
X124558359Y-114745587D01*
X124625100Y-114879070D01*
X124625100Y-115212777D01*
X124558359Y-115346260D01*
X124491617Y-115413002D01*
X124358135Y-115479743D01*
X124024427Y-115479743D01*
X123890945Y-115413002D01*
X123824203Y-115346260D01*
X125159032Y-115413002D02*
X125359256Y-115479743D01*
X125692963Y-115479743D01*
X125826446Y-115413002D01*
X125893187Y-115346260D01*
X125959929Y-115212777D01*
X125959929Y-115079295D01*
X125893187Y-114945812D01*
X125826446Y-114879070D01*
X125692963Y-114812329D01*
X125425997Y-114745587D01*
X125292515Y-114678846D01*
X125225773Y-114612105D01*
X125159032Y-114478622D01*
X125159032Y-114345139D01*
X125225773Y-114211656D01*
X125292515Y-114144915D01*
X125425997Y-114078173D01*
X125759705Y-114078173D01*
X125959929Y-114144915D01*
X127294757Y-114144915D02*
X127161275Y-114078173D01*
X126961050Y-114078173D01*
X126760826Y-114144915D01*
X126627343Y-114278397D01*
X126560602Y-114411880D01*
X126493860Y-114678846D01*
X126493860Y-114879070D01*
X126560602Y-115146036D01*
X126627343Y-115279519D01*
X126760826Y-115413002D01*
X126961050Y-115479743D01*
X127094533Y-115479743D01*
X127294757Y-115413002D01*
X127361499Y-115346260D01*
X127361499Y-114879070D01*
X127094533Y-114879070D01*
X127895430Y-115079295D02*
X128562845Y-115079295D01*
X127761947Y-115479743D02*
X128229137Y-114078173D01*
X128696327Y-115479743D01*
G04 #@! TO.C,U2*
X156803095Y-95607380D02*
X156803095Y-96416904D01*
X156850714Y-96512142D01*
X156898333Y-96559761D01*
X156993571Y-96607380D01*
X157184047Y-96607380D01*
X157279285Y-96559761D01*
X157326904Y-96512142D01*
X157374523Y-96416904D01*
X157374523Y-95607380D01*
X157803095Y-95702619D02*
X157850714Y-95655000D01*
X157945952Y-95607380D01*
X158184047Y-95607380D01*
X158279285Y-95655000D01*
X158326904Y-95702619D01*
X158374523Y-95797857D01*
X158374523Y-95893095D01*
X158326904Y-96035952D01*
X157755476Y-96607380D01*
X158374523Y-96607380D01*
X149747619Y-105084666D02*
X150223809Y-105084666D01*
X149652380Y-105370380D02*
X149985714Y-104370380D01*
X150319047Y-105370380D01*
X150652380Y-105370380D02*
X150652380Y-104370380D01*
X150890476Y-104370380D01*
X151033333Y-104418000D01*
X151128571Y-104513238D01*
X151176190Y-104608476D01*
X151223809Y-104798952D01*
X151223809Y-104941809D01*
X151176190Y-105132285D01*
X151128571Y-105227523D01*
X151033333Y-105322761D01*
X150890476Y-105370380D01*
X150652380Y-105370380D01*
X151652380Y-105370380D02*
X151652380Y-104370380D01*
X152033333Y-104370380D01*
X152128571Y-104418000D01*
X152176190Y-104465619D01*
X152223809Y-104560857D01*
X152223809Y-104703714D01*
X152176190Y-104798952D01*
X152128571Y-104846571D01*
X152033333Y-104894190D01*
X151652380Y-104894190D01*
X152604761Y-104465619D02*
X152652380Y-104418000D01*
X152747619Y-104370380D01*
X152985714Y-104370380D01*
X153080952Y-104418000D01*
X153128571Y-104465619D01*
X153176190Y-104560857D01*
X153176190Y-104656095D01*
X153128571Y-104798952D01*
X152557142Y-105370380D01*
X153176190Y-105370380D01*
X153509523Y-104370380D02*
X154128571Y-104370380D01*
X153795238Y-104751333D01*
X153938095Y-104751333D01*
X154033333Y-104798952D01*
X154080952Y-104846571D01*
X154128571Y-104941809D01*
X154128571Y-105179904D01*
X154080952Y-105275142D01*
X154033333Y-105322761D01*
X153938095Y-105370380D01*
X153652380Y-105370380D01*
X153557142Y-105322761D01*
X153509523Y-105275142D01*
X154747619Y-104370380D02*
X154842857Y-104370380D01*
X154938095Y-104418000D01*
X154985714Y-104465619D01*
X155033333Y-104560857D01*
X155080952Y-104751333D01*
X155080952Y-104989428D01*
X155033333Y-105179904D01*
X154985714Y-105275142D01*
X154938095Y-105322761D01*
X154842857Y-105370380D01*
X154747619Y-105370380D01*
X154652380Y-105322761D01*
X154604761Y-105275142D01*
X154557142Y-105179904D01*
X154509523Y-104989428D01*
X154509523Y-104751333D01*
X154557142Y-104560857D01*
X154604761Y-104465619D01*
X154652380Y-104418000D01*
X154747619Y-104370380D01*
X155461904Y-104465619D02*
X155509523Y-104418000D01*
X155604761Y-104370380D01*
X155842857Y-104370380D01*
X155938095Y-104418000D01*
X155985714Y-104465619D01*
X156033333Y-104560857D01*
X156033333Y-104656095D01*
X155985714Y-104798952D01*
X155414285Y-105370380D01*
X156033333Y-105370380D01*
X156414285Y-105084666D02*
X156890476Y-105084666D01*
X156319047Y-105370380D02*
X156652380Y-104370380D01*
X156985714Y-105370380D01*
X157890476Y-105370380D02*
X157557142Y-104894190D01*
X157319047Y-105370380D02*
X157319047Y-104370380D01*
X157700000Y-104370380D01*
X157795238Y-104418000D01*
X157842857Y-104465619D01*
X157890476Y-104560857D01*
X157890476Y-104703714D01*
X157842857Y-104798952D01*
X157795238Y-104846571D01*
X157700000Y-104894190D01*
X157319047Y-104894190D01*
X158319047Y-105370380D02*
X158319047Y-104370380D01*
X158557142Y-104370380D01*
X158700000Y-104418000D01*
X158795238Y-104513238D01*
X158842857Y-104608476D01*
X158890476Y-104798952D01*
X158890476Y-104941809D01*
X158842857Y-105132285D01*
X158795238Y-105227523D01*
X158700000Y-105322761D01*
X158557142Y-105370380D01*
X158319047Y-105370380D01*
X159223809Y-104370380D02*
X159890476Y-104370380D01*
X159223809Y-105370380D01*
X159890476Y-105370380D01*
X160271428Y-104989428D02*
X161033333Y-104989428D01*
X161985714Y-104370380D02*
X161509523Y-104370380D01*
X161461904Y-104846571D01*
X161509523Y-104798952D01*
X161604761Y-104751333D01*
X161842857Y-104751333D01*
X161938095Y-104798952D01*
X161985714Y-104846571D01*
X162033333Y-104941809D01*
X162033333Y-105179904D01*
X161985714Y-105275142D01*
X161938095Y-105322761D01*
X161842857Y-105370380D01*
X161604761Y-105370380D01*
X161509523Y-105322761D01*
X161461904Y-105275142D01*
X162461904Y-105275142D02*
X162509523Y-105322761D01*
X162461904Y-105370380D01*
X162414285Y-105322761D01*
X162461904Y-105275142D01*
X162461904Y-105370380D01*
X163128571Y-104370380D02*
X163223809Y-104370380D01*
X163319047Y-104418000D01*
X163366666Y-104465619D01*
X163414285Y-104560857D01*
X163461904Y-104751333D01*
X163461904Y-104989428D01*
X163414285Y-105179904D01*
X163366666Y-105275142D01*
X163319047Y-105322761D01*
X163223809Y-105370380D01*
X163128571Y-105370380D01*
X163033333Y-105322761D01*
X162985714Y-105275142D01*
X162938095Y-105179904D01*
X162890476Y-104989428D01*
X162890476Y-104751333D01*
X162938095Y-104560857D01*
X162985714Y-104465619D01*
X163033333Y-104418000D01*
X163128571Y-104370380D01*
X163890476Y-104989428D02*
X164652380Y-104989428D01*
X165700000Y-105370380D02*
X165366666Y-104894190D01*
X165128571Y-105370380D02*
X165128571Y-104370380D01*
X165509523Y-104370380D01*
X165604761Y-104418000D01*
X165652380Y-104465619D01*
X165700000Y-104560857D01*
X165700000Y-104703714D01*
X165652380Y-104798952D01*
X165604761Y-104846571D01*
X165509523Y-104894190D01*
X165128571Y-104894190D01*
X166033333Y-104370380D02*
X166700000Y-104370380D01*
X166271428Y-105370380D01*
G04 #@! TO.C,U3*
D12*
X178563095Y-74152380D02*
X178563095Y-74961904D01*
X178610714Y-75057142D01*
X178658333Y-75104761D01*
X178753571Y-75152380D01*
X178944047Y-75152380D01*
X179039285Y-75104761D01*
X179086904Y-75057142D01*
X179134523Y-74961904D01*
X179134523Y-74152380D01*
X179515476Y-74152380D02*
X180134523Y-74152380D01*
X179801190Y-74533333D01*
X179944047Y-74533333D01*
X180039285Y-74580952D01*
X180086904Y-74628571D01*
X180134523Y-74723809D01*
X180134523Y-74961904D01*
X180086904Y-75057142D01*
X180039285Y-75104761D01*
X179944047Y-75152380D01*
X179658333Y-75152380D01*
X179563095Y-75104761D01*
X179515476Y-75057142D01*
G04 #@! TO.C,U4*
D18*
X191750476Y-88470504D02*
X191750476Y-89798123D01*
X191828571Y-89954314D01*
X191906666Y-90032409D01*
X192062857Y-90110504D01*
X192375238Y-90110504D01*
X192531428Y-90032409D01*
X192609523Y-89954314D01*
X192687619Y-89798123D01*
X192687619Y-88470504D01*
X194171428Y-89017171D02*
X194171428Y-90110504D01*
X193780952Y-88392409D02*
X193390476Y-89563838D01*
X194405714Y-89563838D01*
X190728571Y-86741904D02*
X190728571Y-85101904D01*
X191665714Y-86741904D01*
X191665714Y-85101904D01*
X192446666Y-85101904D02*
X192446666Y-86429523D01*
X192524761Y-86585714D01*
X192602857Y-86663809D01*
X192759047Y-86741904D01*
X193071428Y-86741904D01*
X193227619Y-86663809D01*
X193305714Y-86585714D01*
X193383809Y-86429523D01*
X193383809Y-85101904D01*
X194164761Y-86741904D02*
X194164761Y-85101904D01*
X194555238Y-85101904D01*
X194789523Y-85180000D01*
X194945714Y-85336190D01*
X195023809Y-85492380D01*
X195101904Y-85804761D01*
X195101904Y-86039047D01*
X195023809Y-86351428D01*
X194945714Y-86507619D01*
X194789523Y-86663809D01*
X194555238Y-86741904D01*
X194164761Y-86741904D01*
X195648571Y-85101904D02*
X196663809Y-85101904D01*
X196117142Y-85726666D01*
X196351428Y-85726666D01*
X196507619Y-85804761D01*
X196585714Y-85882857D01*
X196663809Y-86039047D01*
X196663809Y-86429523D01*
X196585714Y-86585714D01*
X196507619Y-86663809D01*
X196351428Y-86741904D01*
X195882857Y-86741904D01*
X195726666Y-86663809D01*
X195648571Y-86585714D01*
X198225714Y-86741904D02*
X197288571Y-86741904D01*
X197757142Y-86741904D02*
X197757142Y-85101904D01*
X197600952Y-85336190D01*
X197444761Y-85492380D01*
X197288571Y-85570476D01*
X199787619Y-86741904D02*
X198850476Y-86741904D01*
X199319047Y-86741904D02*
X199319047Y-85101904D01*
X199162857Y-85336190D01*
X199006666Y-85492380D01*
X198850476Y-85570476D01*
X200412380Y-85258095D02*
X200490476Y-85180000D01*
X200646666Y-85101904D01*
X201037142Y-85101904D01*
X201193333Y-85180000D01*
X201271428Y-85258095D01*
X201349523Y-85414285D01*
X201349523Y-85570476D01*
X201271428Y-85804761D01*
X200334285Y-86741904D01*
X201349523Y-86741904D01*
X191417200Y-91030780D02*
X191417200Y-91268876D01*
X191179104Y-91173638D02*
X191417200Y-91268876D01*
X191655295Y-91173638D01*
X191274342Y-91459352D02*
X191417200Y-91268876D01*
X191560057Y-91459352D01*
G04 #@! TD*
M02*
