G04 #@! TF.GenerationSoftware,KiCad,Pcbnew,(5.0.2)-1*
G04 #@! TF.CreationDate,2019-04-08T19:56:43-07:00*
G04 #@! TF.ProjectId,smartplug,736d6172-7470-46c7-9567-2e6b69636164,rev?*
G04 #@! TF.SameCoordinates,Original*
G04 #@! TF.FileFunction,Legend,Top*
G04 #@! TF.FilePolarity,Positive*
%FSLAX46Y46*%
G04 Gerber Fmt 4.6, Leading zero omitted, Abs format (unit mm)*
G04 Created by KiCad (PCBNEW (5.0.2)-1) date 4/8/2019 7:56:43 PM*
%MOMM*%
%LPD*%
G01*
G04 APERTURE LIST*
%ADD10C,0.300000*%
%ADD11C,0.150000*%
%ADD12C,0.152400*%
%ADD13C,0.120000*%
%ADD14C,0.127000*%
%ADD15C,0.400000*%
%ADD16C,0.010000*%
%ADD17C,0.050000*%
G04 APERTURE END LIST*
D10*
X168457000Y-74870571D02*
X168457000Y-75942000D01*
X168385571Y-76156285D01*
X168242714Y-76299142D01*
X168028428Y-76370571D01*
X167885571Y-76370571D01*
X169742714Y-76299142D02*
X169599857Y-76370571D01*
X169314142Y-76370571D01*
X169171285Y-76299142D01*
X169099857Y-76156285D01*
X169099857Y-75584857D01*
X169171285Y-75442000D01*
X169314142Y-75370571D01*
X169599857Y-75370571D01*
X169742714Y-75442000D01*
X169814142Y-75584857D01*
X169814142Y-75727714D01*
X169099857Y-75870571D01*
X170457000Y-76370571D02*
X170457000Y-75370571D01*
X170457000Y-75656285D02*
X170528428Y-75513428D01*
X170599857Y-75442000D01*
X170742714Y-75370571D01*
X170885571Y-75370571D01*
X171957000Y-76299142D02*
X171814142Y-76370571D01*
X171528428Y-76370571D01*
X171385571Y-76299142D01*
X171314142Y-76156285D01*
X171314142Y-75584857D01*
X171385571Y-75442000D01*
X171528428Y-75370571D01*
X171814142Y-75370571D01*
X171957000Y-75442000D01*
X172028428Y-75584857D01*
X172028428Y-75727714D01*
X171314142Y-75870571D01*
X172671285Y-76370571D02*
X172671285Y-75370571D01*
X172671285Y-75513428D02*
X172742714Y-75442000D01*
X172885571Y-75370571D01*
X173099857Y-75370571D01*
X173242714Y-75442000D01*
X173314142Y-75584857D01*
X173314142Y-76370571D01*
X173314142Y-75584857D02*
X173385571Y-75442000D01*
X173528428Y-75370571D01*
X173742714Y-75370571D01*
X173885571Y-75442000D01*
X173957000Y-75584857D01*
X173957000Y-76370571D01*
X174671285Y-76370571D02*
X174671285Y-75370571D01*
X174671285Y-74870571D02*
X174599857Y-74942000D01*
X174671285Y-75013428D01*
X174742714Y-74942000D01*
X174671285Y-74870571D01*
X174671285Y-75013428D01*
X176028428Y-76370571D02*
X176028428Y-75584857D01*
X175957000Y-75442000D01*
X175814142Y-75370571D01*
X175528428Y-75370571D01*
X175385571Y-75442000D01*
X176028428Y-76299142D02*
X175885571Y-76370571D01*
X175528428Y-76370571D01*
X175385571Y-76299142D01*
X175314142Y-76156285D01*
X175314142Y-76013428D01*
X175385571Y-75870571D01*
X175528428Y-75799142D01*
X175885571Y-75799142D01*
X176028428Y-75727714D01*
X176742714Y-76370571D02*
X176742714Y-74870571D01*
X177385571Y-76370571D02*
X177385571Y-75584857D01*
X177314142Y-75442000D01*
X177171285Y-75370571D01*
X176957000Y-75370571D01*
X176814142Y-75442000D01*
X176742714Y-75513428D01*
X179242714Y-76370571D02*
X179242714Y-74870571D01*
X179742714Y-75942000D01*
X180242714Y-74870571D01*
X180242714Y-76370571D01*
X181599857Y-76370571D02*
X181599857Y-75584857D01*
X181528428Y-75442000D01*
X181385571Y-75370571D01*
X181099857Y-75370571D01*
X180957000Y-75442000D01*
X181599857Y-76299142D02*
X181457000Y-76370571D01*
X181099857Y-76370571D01*
X180957000Y-76299142D01*
X180885571Y-76156285D01*
X180885571Y-76013428D01*
X180957000Y-75870571D01*
X181099857Y-75799142D01*
X181457000Y-75799142D01*
X181599857Y-75727714D01*
X182314142Y-76370571D02*
X182314142Y-75370571D01*
X182314142Y-75656285D02*
X182385571Y-75513428D01*
X182457000Y-75442000D01*
X182599857Y-75370571D01*
X182742714Y-75370571D01*
X183885571Y-76299142D02*
X183742714Y-76370571D01*
X183457000Y-76370571D01*
X183314142Y-76299142D01*
X183242714Y-76227714D01*
X183171285Y-76084857D01*
X183171285Y-75656285D01*
X183242714Y-75513428D01*
X183314142Y-75442000D01*
X183457000Y-75370571D01*
X183742714Y-75370571D01*
X183885571Y-75442000D01*
X185171285Y-75370571D02*
X185171285Y-76370571D01*
X184528428Y-75370571D02*
X184528428Y-76156285D01*
X184599857Y-76299142D01*
X184742714Y-76370571D01*
X184957000Y-76370571D01*
X185099857Y-76299142D01*
X185171285Y-76227714D01*
X185885571Y-76370571D02*
X185885571Y-75370571D01*
X185885571Y-75513428D02*
X185957000Y-75442000D01*
X186099857Y-75370571D01*
X186314142Y-75370571D01*
X186457000Y-75442000D01*
X186528428Y-75584857D01*
X186528428Y-76370571D01*
X186528428Y-75584857D02*
X186599857Y-75442000D01*
X186742714Y-75370571D01*
X186957000Y-75370571D01*
X187099857Y-75442000D01*
X187171285Y-75584857D01*
X187171285Y-76370571D01*
X187957000Y-76299142D02*
X187957000Y-76370571D01*
X187885571Y-76513428D01*
X187814142Y-76584857D01*
X190599857Y-76370571D02*
X190099857Y-75656285D01*
X189742714Y-76370571D02*
X189742714Y-74870571D01*
X190314142Y-74870571D01*
X190456999Y-74942000D01*
X190528428Y-75013428D01*
X190599857Y-75156285D01*
X190599857Y-75370571D01*
X190528428Y-75513428D01*
X190456999Y-75584857D01*
X190314142Y-75656285D01*
X189742714Y-75656285D01*
X191242714Y-76370571D02*
X191242714Y-75370571D01*
X191242714Y-74870571D02*
X191171285Y-74942000D01*
X191242714Y-75013428D01*
X191314142Y-74942000D01*
X191242714Y-74870571D01*
X191242714Y-75013428D01*
X192171285Y-76370571D02*
X192028428Y-76299142D01*
X191956999Y-76156285D01*
X191956999Y-74870571D01*
X193314142Y-76299142D02*
X193171285Y-76370571D01*
X192885571Y-76370571D01*
X192742714Y-76299142D01*
X192671285Y-76156285D01*
X192671285Y-75584857D01*
X192742714Y-75442000D01*
X192885571Y-75370571D01*
X193171285Y-75370571D01*
X193314142Y-75442000D01*
X193385571Y-75584857D01*
X193385571Y-75727714D01*
X192671285Y-75870571D01*
X193885571Y-75370571D02*
X194242714Y-76370571D01*
X194599857Y-75370571D02*
X194242714Y-76370571D01*
X194099857Y-76727714D01*
X194028428Y-76799142D01*
X193885571Y-76870571D01*
X197028428Y-76370571D02*
X196314142Y-76370571D01*
X196314142Y-74870571D01*
X197385571Y-75370571D02*
X197742714Y-76370571D01*
X198099857Y-75370571D02*
X197742714Y-76370571D01*
X197599857Y-76727714D01*
X197528428Y-76799142D01*
X197385571Y-76870571D01*
X198671285Y-76370571D02*
X198671285Y-75370571D01*
X198671285Y-75513428D02*
X198742714Y-75442000D01*
X198885571Y-75370571D01*
X199099857Y-75370571D01*
X199242714Y-75442000D01*
X199314142Y-75584857D01*
X199314142Y-76370571D01*
X199314142Y-75584857D02*
X199385571Y-75442000D01*
X199528428Y-75370571D01*
X199742714Y-75370571D01*
X199885571Y-75442000D01*
X199956999Y-75584857D01*
X199956999Y-76370571D01*
X201314142Y-76370571D02*
X201314142Y-75584857D01*
X201242714Y-75442000D01*
X201099857Y-75370571D01*
X200814142Y-75370571D01*
X200671285Y-75442000D01*
X201314142Y-76299142D02*
X201171285Y-76370571D01*
X200814142Y-76370571D01*
X200671285Y-76299142D01*
X200599857Y-76156285D01*
X200599857Y-76013428D01*
X200671285Y-75870571D01*
X200814142Y-75799142D01*
X201171285Y-75799142D01*
X201314142Y-75727714D01*
X202028428Y-75370571D02*
X202028428Y-76370571D01*
X202028428Y-75513428D02*
X202099857Y-75442000D01*
X202242714Y-75370571D01*
X202456999Y-75370571D01*
X202599857Y-75442000D01*
X202671285Y-75584857D01*
X202671285Y-76370571D01*
X203456999Y-76299142D02*
X203456999Y-76370571D01*
X203385571Y-76513428D01*
X203314142Y-76584857D01*
X205242714Y-76370571D02*
X205242714Y-74870571D01*
X205599857Y-74870571D01*
X205814142Y-74942000D01*
X205957000Y-75084857D01*
X206028428Y-75227714D01*
X206099857Y-75513428D01*
X206099857Y-75727714D01*
X206028428Y-76013428D01*
X205957000Y-76156285D01*
X205814142Y-76299142D01*
X205599857Y-76370571D01*
X205242714Y-76370571D01*
X207385571Y-76370571D02*
X207385571Y-75584857D01*
X207314142Y-75442000D01*
X207171285Y-75370571D01*
X206885571Y-75370571D01*
X206742714Y-75442000D01*
X207385571Y-76299142D02*
X207242714Y-76370571D01*
X206885571Y-76370571D01*
X206742714Y-76299142D01*
X206671285Y-76156285D01*
X206671285Y-76013428D01*
X206742714Y-75870571D01*
X206885571Y-75799142D01*
X207242714Y-75799142D01*
X207385571Y-75727714D01*
X208099857Y-76370571D02*
X208099857Y-75370571D01*
X208099857Y-75513428D02*
X208171285Y-75442000D01*
X208314142Y-75370571D01*
X208528428Y-75370571D01*
X208671285Y-75442000D01*
X208742714Y-75584857D01*
X208742714Y-76370571D01*
X208742714Y-75584857D02*
X208814142Y-75442000D01*
X208957000Y-75370571D01*
X209171285Y-75370571D01*
X209314142Y-75442000D01*
X209385571Y-75584857D01*
X209385571Y-76370571D01*
X210314142Y-76370571D02*
X210171285Y-76299142D01*
X210099857Y-76227714D01*
X210028428Y-76084857D01*
X210028428Y-75656285D01*
X210099857Y-75513428D01*
X210171285Y-75442000D01*
X210314142Y-75370571D01*
X210528428Y-75370571D01*
X210671285Y-75442000D01*
X210742714Y-75513428D01*
X210814142Y-75656285D01*
X210814142Y-76084857D01*
X210742714Y-76227714D01*
X210671285Y-76299142D01*
X210528428Y-76370571D01*
X210314142Y-76370571D01*
X211457000Y-75370571D02*
X211457000Y-76370571D01*
X211457000Y-75513428D02*
X211528428Y-75442000D01*
X211671285Y-75370571D01*
X211885571Y-75370571D01*
X212028428Y-75442000D01*
X212099857Y-75584857D01*
X212099857Y-76370571D01*
X213885571Y-75942000D02*
X214599857Y-75942000D01*
X213742714Y-76370571D02*
X214242714Y-74870571D01*
X214742714Y-76370571D01*
X215242714Y-75370571D02*
X215242714Y-76370571D01*
X215242714Y-75513428D02*
X215314142Y-75442000D01*
X215457000Y-75370571D01*
X215671285Y-75370571D01*
X215814142Y-75442000D01*
X215885571Y-75584857D01*
X215885571Y-76370571D01*
X217242714Y-76370571D02*
X217242714Y-74870571D01*
X217242714Y-76299142D02*
X217099857Y-76370571D01*
X216814142Y-76370571D01*
X216671285Y-76299142D01*
X216599857Y-76227714D01*
X216528428Y-76084857D01*
X216528428Y-75656285D01*
X216599857Y-75513428D01*
X216671285Y-75442000D01*
X216814142Y-75370571D01*
X217099857Y-75370571D01*
X217242714Y-75442000D01*
X218528428Y-76299142D02*
X218385571Y-76370571D01*
X218099857Y-76370571D01*
X217957000Y-76299142D01*
X217885571Y-76156285D01*
X217885571Y-75584857D01*
X217957000Y-75442000D01*
X218099857Y-75370571D01*
X218385571Y-75370571D01*
X218528428Y-75442000D01*
X218599857Y-75584857D01*
X218599857Y-75727714D01*
X217885571Y-75870571D01*
X219242714Y-76370571D02*
X219242714Y-75370571D01*
X219242714Y-75656285D02*
X219314142Y-75513428D01*
X219385571Y-75442000D01*
X219528428Y-75370571D01*
X219671285Y-75370571D01*
X220099857Y-76299142D02*
X220242714Y-76370571D01*
X220528428Y-76370571D01*
X220671285Y-76299142D01*
X220742714Y-76156285D01*
X220742714Y-76084857D01*
X220671285Y-75942000D01*
X220528428Y-75870571D01*
X220314142Y-75870571D01*
X220171285Y-75799142D01*
X220099857Y-75656285D01*
X220099857Y-75584857D01*
X220171285Y-75442000D01*
X220314142Y-75370571D01*
X220528428Y-75370571D01*
X220671285Y-75442000D01*
X221599857Y-76370571D02*
X221456999Y-76299142D01*
X221385571Y-76227714D01*
X221314142Y-76084857D01*
X221314142Y-75656285D01*
X221385571Y-75513428D01*
X221456999Y-75442000D01*
X221599857Y-75370571D01*
X221814142Y-75370571D01*
X221956999Y-75442000D01*
X222028428Y-75513428D01*
X222099857Y-75656285D01*
X222099857Y-76084857D01*
X222028428Y-76227714D01*
X221956999Y-76299142D01*
X221814142Y-76370571D01*
X221599857Y-76370571D01*
X222742714Y-75370571D02*
X222742714Y-76370571D01*
X222742714Y-75513428D02*
X222814142Y-75442000D01*
X222957000Y-75370571D01*
X223171285Y-75370571D01*
X223314142Y-75442000D01*
X223385571Y-75584857D01*
X223385571Y-76370571D01*
D11*
G04 #@! TO.C,U3*
X219342000Y-109994805D02*
X222342000Y-111506000D01*
X219342000Y-130294805D02*
X222342000Y-128778000D01*
X222342000Y-128778000D02*
X222342000Y-111506000D01*
X186182000Y-124198200D02*
X186182000Y-130304805D01*
X186182000Y-130304805D02*
X188939000Y-130304805D01*
X186182000Y-109984805D02*
X188862800Y-109984805D01*
X186182000Y-109984805D02*
X186182000Y-116207805D01*
X189173600Y-116198200D02*
X189673600Y-116698200D01*
X189673600Y-116698200D02*
X189673600Y-123698200D01*
X189673600Y-123698200D02*
X189173600Y-124198200D01*
X189173600Y-116198200D02*
X184277000Y-116198200D01*
X184277000Y-116198200D02*
X184277000Y-124198200D01*
X189173600Y-124198200D02*
X184277000Y-124198200D01*
D12*
G04 #@! TO.C,U4*
X197788800Y-104009600D02*
X197788800Y-104924000D01*
X199084200Y-101876000D02*
X197788800Y-101876000D01*
X197788800Y-101876000D02*
X197788800Y-102790400D01*
X197788800Y-104924000D02*
X198195200Y-104924000D01*
X198195200Y-104924000D02*
X198804800Y-104924000D01*
X198804800Y-104924000D02*
X199084200Y-104924000D01*
X199211200Y-103755600D02*
X199211200Y-103044400D01*
X198195200Y-104924000D02*
G75*
G02X198804800Y-104924000I304800J0D01*
G01*
D13*
G04 #@! TO.C,R1*
X178790000Y-120858578D02*
X178790000Y-120341422D01*
X180210000Y-120858578D02*
X180210000Y-120341422D01*
D11*
G04 #@! TO.C,J1*
X147000000Y-102800000D02*
X147000000Y-87800000D01*
X147000000Y-87800000D02*
X155200000Y-87800000D01*
X155200000Y-87800000D02*
X155200000Y-102800000D01*
X155200000Y-102800000D02*
X147000000Y-102800000D01*
D13*
G04 #@! TO.C,C1*
X170121078Y-122190000D02*
X169603922Y-122190000D01*
X170121078Y-123610000D02*
X169603922Y-123610000D01*
G04 #@! TO.C,C2*
X168073000Y-110025922D02*
X168073000Y-110543078D01*
X169493000Y-110025922D02*
X169493000Y-110543078D01*
G04 #@! TO.C,C3*
X161941422Y-120990000D02*
X162458578Y-120990000D01*
X161941422Y-122410000D02*
X162458578Y-122410000D01*
G04 #@! TO.C,C4*
X161918666Y-123654938D02*
X162435822Y-123654938D01*
X161918666Y-125074938D02*
X162435822Y-125074938D01*
G04 #@! TO.C,D1*
X166350000Y-106850000D02*
X162050000Y-106850000D01*
X162050000Y-106850000D02*
X162050000Y-112550000D01*
X166350000Y-106850000D02*
X166350000Y-112550000D01*
G04 #@! TO.C,D2*
X247167124Y-118104951D02*
X249452124Y-118104951D01*
X249452124Y-118104951D02*
X249452124Y-116634951D01*
X249452124Y-116634951D02*
X247167124Y-116634951D01*
D14*
G04 #@! TO.C,J2*
X221940000Y-110560000D02*
X253060000Y-110560000D01*
X253060000Y-110560000D02*
X253060000Y-79440000D01*
X253060000Y-79440000D02*
X221940000Y-79440000D01*
X221940000Y-79440000D02*
X221940000Y-110560000D01*
D15*
X236820000Y-111900000D02*
G75*
G03X236820000Y-111900000I-200000J0D01*
G01*
D14*
G04 #@! TO.C,K1*
X196000000Y-101000000D02*
X220000000Y-101000000D01*
X220000000Y-101000000D02*
X220000000Y-89000000D01*
X220000000Y-89000000D02*
X196000000Y-89000000D01*
X196000000Y-89000000D02*
X196000000Y-101000000D01*
D11*
G04 #@! TO.C,L1*
X150171000Y-119050000D02*
X147250000Y-119050000D01*
X147250000Y-119050000D02*
X147250000Y-106350000D01*
X147250000Y-106350000D02*
X150171000Y-106350000D01*
X159950000Y-106350000D02*
X159950000Y-119050000D01*
X159950000Y-106350000D02*
X157029000Y-106350000D01*
X157029000Y-119050000D02*
X159950000Y-119050000D01*
D13*
G04 #@! TO.C,R2*
X251808546Y-116559951D02*
X252325702Y-116559951D01*
X251808546Y-117979951D02*
X252325702Y-117979951D01*
D14*
G04 #@! TO.C,U1*
X157150000Y-81400000D02*
X190850000Y-81400000D01*
X157150000Y-103600000D02*
X157150000Y-81400000D01*
X190850000Y-81400000D02*
X190850000Y-103600000D01*
X190850000Y-103600000D02*
X157150000Y-103600000D01*
D10*
X155600000Y-100300000D02*
G75*
G03X155600000Y-100300000I-100000J0D01*
G01*
D14*
G04 #@! TO.C,U2*
X172681000Y-109900000D02*
X172681000Y-113900000D01*
X177719000Y-109900000D02*
X177719000Y-113900000D01*
D10*
X173345000Y-115800000D02*
G75*
G03X173345000Y-115800000I-50000J0D01*
G01*
D16*
G04 #@! TO.C,G\002A\002A\002A*
G36*
X148375840Y-74184624D02*
X148488408Y-74263932D01*
X148560186Y-74382420D01*
X148577158Y-74529691D01*
X148574817Y-74549000D01*
X148522676Y-74683261D01*
X148422742Y-74780657D01*
X148293564Y-74833743D01*
X148153688Y-74835074D01*
X148021664Y-74777205D01*
X148016318Y-74773177D01*
X147930493Y-74666961D01*
X147895482Y-74534691D01*
X147908858Y-74397320D01*
X147968195Y-74275805D01*
X148071067Y-74191098D01*
X148084398Y-74185150D01*
X148236497Y-74154897D01*
X148375840Y-74184624D01*
X148375840Y-74184624D01*
G37*
X148375840Y-74184624D02*
X148488408Y-74263932D01*
X148560186Y-74382420D01*
X148577158Y-74529691D01*
X148574817Y-74549000D01*
X148522676Y-74683261D01*
X148422742Y-74780657D01*
X148293564Y-74833743D01*
X148153688Y-74835074D01*
X148021664Y-74777205D01*
X148016318Y-74773177D01*
X147930493Y-74666961D01*
X147895482Y-74534691D01*
X147908858Y-74397320D01*
X147968195Y-74275805D01*
X148071067Y-74191098D01*
X148084398Y-74185150D01*
X148236497Y-74154897D01*
X148375840Y-74184624D01*
G36*
X147780721Y-74467806D02*
X147778031Y-74646156D01*
X147431087Y-74630319D01*
X147251966Y-74627000D01*
X147101635Y-74633450D01*
X146999370Y-74648660D01*
X146983498Y-74653742D01*
X146882853Y-74693000D01*
X146892783Y-75319500D01*
X146902714Y-75946000D01*
X147777886Y-75966266D01*
X147783328Y-76327000D01*
X147160210Y-76327000D01*
X146929811Y-76326325D01*
X146758968Y-76323396D01*
X146634670Y-76316857D01*
X146543907Y-76305350D01*
X146473669Y-76287520D01*
X146410946Y-76262009D01*
X146377175Y-76245357D01*
X146294991Y-76197070D01*
X146232952Y-76140427D01*
X146188220Y-76065009D01*
X146157956Y-75960394D01*
X146139322Y-75816161D01*
X146129479Y-75621890D01*
X146125588Y-75367160D01*
X146125332Y-75320806D01*
X146127315Y-75045642D01*
X146137675Y-74832600D01*
X146158673Y-74671488D01*
X146192569Y-74552115D01*
X146241624Y-74464289D01*
X146308099Y-74397818D01*
X146334291Y-74378800D01*
X146378126Y-74355011D01*
X146437107Y-74337115D01*
X146522206Y-74324010D01*
X146644396Y-74314598D01*
X146814648Y-74307777D01*
X147043935Y-74302448D01*
X147107206Y-74301299D01*
X147783412Y-74289455D01*
X147780721Y-74467806D01*
X147780721Y-74467806D01*
G37*
X147780721Y-74467806D02*
X147778031Y-74646156D01*
X147431087Y-74630319D01*
X147251966Y-74627000D01*
X147101635Y-74633450D01*
X146999370Y-74648660D01*
X146983498Y-74653742D01*
X146882853Y-74693000D01*
X146892783Y-75319500D01*
X146902714Y-75946000D01*
X147777886Y-75966266D01*
X147783328Y-76327000D01*
X147160210Y-76327000D01*
X146929811Y-76326325D01*
X146758968Y-76323396D01*
X146634670Y-76316857D01*
X146543907Y-76305350D01*
X146473669Y-76287520D01*
X146410946Y-76262009D01*
X146377175Y-76245357D01*
X146294991Y-76197070D01*
X146232952Y-76140427D01*
X146188220Y-76065009D01*
X146157956Y-75960394D01*
X146139322Y-75816161D01*
X146129479Y-75621890D01*
X146125588Y-75367160D01*
X146125332Y-75320806D01*
X146127315Y-75045642D01*
X146137675Y-74832600D01*
X146158673Y-74671488D01*
X146192569Y-74552115D01*
X146241624Y-74464289D01*
X146308099Y-74397818D01*
X146334291Y-74378800D01*
X146378126Y-74355011D01*
X146437107Y-74337115D01*
X146522206Y-74324010D01*
X146644396Y-74314598D01*
X146814648Y-74307777D01*
X147043935Y-74302448D01*
X147107206Y-74301299D01*
X147783412Y-74289455D01*
X147780721Y-74467806D01*
G36*
X145650231Y-75120500D02*
X145749798Y-75361910D01*
X145846642Y-75591792D01*
X145935492Y-75798012D01*
X146011081Y-75968436D01*
X146068140Y-76090930D01*
X146091360Y-76136500D01*
X146195763Y-76327000D01*
X145217243Y-76327000D01*
X145238131Y-76222561D01*
X145233634Y-76099314D01*
X145184835Y-75950418D01*
X145110652Y-75782715D01*
X144208365Y-75782715D01*
X144128469Y-75968437D01*
X144081469Y-76105210D01*
X144066798Y-76213740D01*
X144070264Y-76240580D01*
X144078249Y-76284315D01*
X144065612Y-76310058D01*
X144018365Y-76322577D01*
X143922520Y-76326638D01*
X143816649Y-76327000D01*
X143541344Y-76327000D01*
X143613210Y-76226073D01*
X143648120Y-76166265D01*
X143708724Y-76050821D01*
X143789975Y-75889844D01*
X143886829Y-75693437D01*
X143994240Y-75471704D01*
X144007903Y-75443075D01*
X144380857Y-75443075D01*
X144414278Y-75449144D01*
X144503094Y-75453714D01*
X144630128Y-75456012D01*
X144671143Y-75456143D01*
X144805957Y-75453959D01*
X144907472Y-75448155D01*
X144958517Y-75439853D01*
X144961428Y-75437172D01*
X144947900Y-75392088D01*
X144912793Y-75300323D01*
X144864329Y-75181369D01*
X144810727Y-75054717D01*
X144760208Y-74939858D01*
X144720992Y-74856283D01*
X144703276Y-74825043D01*
X144680803Y-74845244D01*
X144636302Y-74914811D01*
X144578348Y-75017304D01*
X144515515Y-75136287D01*
X144456380Y-75255322D01*
X144409519Y-75357970D01*
X144383505Y-75427794D01*
X144380857Y-75443075D01*
X144007903Y-75443075D01*
X144086452Y-75278497D01*
X144212866Y-75009804D01*
X144309622Y-74798829D01*
X144379575Y-74638410D01*
X144425580Y-74521384D01*
X144450493Y-74440588D01*
X144457169Y-74388859D01*
X144451209Y-74363424D01*
X144439749Y-74334984D01*
X144448602Y-74315751D01*
X144488595Y-74303932D01*
X144570559Y-74297732D01*
X144705323Y-74295355D01*
X144864047Y-74295000D01*
X145313504Y-74295000D01*
X145650231Y-75120500D01*
X145650231Y-75120500D01*
G37*
X145650231Y-75120500D02*
X145749798Y-75361910D01*
X145846642Y-75591792D01*
X145935492Y-75798012D01*
X146011081Y-75968436D01*
X146068140Y-76090930D01*
X146091360Y-76136500D01*
X146195763Y-76327000D01*
X145217243Y-76327000D01*
X145238131Y-76222561D01*
X145233634Y-76099314D01*
X145184835Y-75950418D01*
X145110652Y-75782715D01*
X144208365Y-75782715D01*
X144128469Y-75968437D01*
X144081469Y-76105210D01*
X144066798Y-76213740D01*
X144070264Y-76240580D01*
X144078249Y-76284315D01*
X144065612Y-76310058D01*
X144018365Y-76322577D01*
X143922520Y-76326638D01*
X143816649Y-76327000D01*
X143541344Y-76327000D01*
X143613210Y-76226073D01*
X143648120Y-76166265D01*
X143708724Y-76050821D01*
X143789975Y-75889844D01*
X143886829Y-75693437D01*
X143994240Y-75471704D01*
X144007903Y-75443075D01*
X144380857Y-75443075D01*
X144414278Y-75449144D01*
X144503094Y-75453714D01*
X144630128Y-75456012D01*
X144671143Y-75456143D01*
X144805957Y-75453959D01*
X144907472Y-75448155D01*
X144958517Y-75439853D01*
X144961428Y-75437172D01*
X144947900Y-75392088D01*
X144912793Y-75300323D01*
X144864329Y-75181369D01*
X144810727Y-75054717D01*
X144760208Y-74939858D01*
X144720992Y-74856283D01*
X144703276Y-74825043D01*
X144680803Y-74845244D01*
X144636302Y-74914811D01*
X144578348Y-75017304D01*
X144515515Y-75136287D01*
X144456380Y-75255322D01*
X144409519Y-75357970D01*
X144383505Y-75427794D01*
X144380857Y-75443075D01*
X144007903Y-75443075D01*
X144086452Y-75278497D01*
X144212866Y-75009804D01*
X144309622Y-74798829D01*
X144379575Y-74638410D01*
X144425580Y-74521384D01*
X144450493Y-74440588D01*
X144457169Y-74388859D01*
X144451209Y-74363424D01*
X144439749Y-74334984D01*
X144448602Y-74315751D01*
X144488595Y-74303932D01*
X144570559Y-74297732D01*
X144705323Y-74295355D01*
X144864047Y-74295000D01*
X145313504Y-74295000D01*
X145650231Y-75120500D01*
G36*
X142312571Y-74295203D02*
X142565102Y-74296837D01*
X142799207Y-74301313D01*
X143002854Y-74308172D01*
X143164008Y-74316958D01*
X143270635Y-74327213D01*
X143299706Y-74332738D01*
X143433787Y-74390766D01*
X143521302Y-74483534D01*
X143568733Y-74621983D01*
X143582571Y-74810279D01*
X143576241Y-74985139D01*
X143552582Y-75101457D01*
X143504595Y-75172528D01*
X143425279Y-75211641D01*
X143364371Y-75224572D01*
X143268239Y-75248342D01*
X143243993Y-75275720D01*
X143291202Y-75304236D01*
X143382158Y-75326591D01*
X143470808Y-75354036D01*
X143529479Y-75405303D01*
X143563845Y-75493180D01*
X143579581Y-75630458D01*
X143582571Y-75778306D01*
X143579675Y-75931888D01*
X143568091Y-76033524D01*
X143543477Y-76103710D01*
X143501488Y-76162941D01*
X143500928Y-76163591D01*
X143451790Y-76211018D01*
X143389806Y-76248375D01*
X143306346Y-76276825D01*
X143192778Y-76297529D01*
X143040468Y-76311652D01*
X142840785Y-76320356D01*
X142585098Y-76324803D01*
X142294428Y-76326135D01*
X141459857Y-76327000D01*
X141459857Y-75964143D01*
X142240000Y-75964143D01*
X142823887Y-75964143D01*
X142813158Y-75719215D01*
X142802428Y-75474286D01*
X142240000Y-75453090D01*
X142240000Y-75964143D01*
X141459857Y-75964143D01*
X141459857Y-74954289D01*
X142244080Y-74954289D01*
X142248683Y-75047570D01*
X142254943Y-75079889D01*
X142299525Y-75107307D01*
X142393736Y-75124620D01*
X142515176Y-75130587D01*
X142641445Y-75123967D01*
X142738928Y-75106701D01*
X142785206Y-75086381D01*
X142809788Y-75044559D01*
X142819311Y-74962240D01*
X142820571Y-74872984D01*
X142818826Y-74754166D01*
X142807105Y-74688738D01*
X142775678Y-74657517D01*
X142714817Y-74641323D01*
X142701826Y-74638869D01*
X142587591Y-74627289D01*
X142452587Y-74626405D01*
X142420612Y-74628153D01*
X142258143Y-74639714D01*
X142247010Y-74834961D01*
X142244080Y-74954289D01*
X141459857Y-74954289D01*
X141459857Y-74295000D01*
X142312571Y-74295203D01*
X142312571Y-74295203D01*
G37*
X142312571Y-74295203D02*
X142565102Y-74296837D01*
X142799207Y-74301313D01*
X143002854Y-74308172D01*
X143164008Y-74316958D01*
X143270635Y-74327213D01*
X143299706Y-74332738D01*
X143433787Y-74390766D01*
X143521302Y-74483534D01*
X143568733Y-74621983D01*
X143582571Y-74810279D01*
X143576241Y-74985139D01*
X143552582Y-75101457D01*
X143504595Y-75172528D01*
X143425279Y-75211641D01*
X143364371Y-75224572D01*
X143268239Y-75248342D01*
X143243993Y-75275720D01*
X143291202Y-75304236D01*
X143382158Y-75326591D01*
X143470808Y-75354036D01*
X143529479Y-75405303D01*
X143563845Y-75493180D01*
X143579581Y-75630458D01*
X143582571Y-75778306D01*
X143579675Y-75931888D01*
X143568091Y-76033524D01*
X143543477Y-76103710D01*
X143501488Y-76162941D01*
X143500928Y-76163591D01*
X143451790Y-76211018D01*
X143389806Y-76248375D01*
X143306346Y-76276825D01*
X143192778Y-76297529D01*
X143040468Y-76311652D01*
X142840785Y-76320356D01*
X142585098Y-76324803D01*
X142294428Y-76326135D01*
X141459857Y-76327000D01*
X141459857Y-75964143D01*
X142240000Y-75964143D01*
X142823887Y-75964143D01*
X142813158Y-75719215D01*
X142802428Y-75474286D01*
X142240000Y-75453090D01*
X142240000Y-75964143D01*
X141459857Y-75964143D01*
X141459857Y-74954289D01*
X142244080Y-74954289D01*
X142248683Y-75047570D01*
X142254943Y-75079889D01*
X142299525Y-75107307D01*
X142393736Y-75124620D01*
X142515176Y-75130587D01*
X142641445Y-75123967D01*
X142738928Y-75106701D01*
X142785206Y-75086381D01*
X142809788Y-75044559D01*
X142819311Y-74962240D01*
X142820571Y-74872984D01*
X142818826Y-74754166D01*
X142807105Y-74688738D01*
X142775678Y-74657517D01*
X142714817Y-74641323D01*
X142701826Y-74638869D01*
X142587591Y-74627289D01*
X142452587Y-74626405D01*
X142420612Y-74628153D01*
X142258143Y-74639714D01*
X142247010Y-74834961D01*
X142244080Y-74954289D01*
X141459857Y-74954289D01*
X141459857Y-74295000D01*
X142312571Y-74295203D01*
G36*
X148414193Y-75833105D02*
X148483934Y-75888780D01*
X148564185Y-76011824D01*
X148583216Y-76144535D01*
X148548049Y-76271886D01*
X148465705Y-76378848D01*
X148343205Y-76450396D01*
X148211374Y-76472143D01*
X148125555Y-76447998D01*
X148030310Y-76388334D01*
X148011909Y-76372357D01*
X147919100Y-76244997D01*
X147889477Y-76104518D01*
X147923545Y-75967435D01*
X147996584Y-75871696D01*
X148127928Y-75794446D01*
X148273119Y-75781793D01*
X148414193Y-75833105D01*
X148414193Y-75833105D01*
G37*
X148414193Y-75833105D02*
X148483934Y-75888780D01*
X148564185Y-76011824D01*
X148583216Y-76144535D01*
X148548049Y-76271886D01*
X148465705Y-76378848D01*
X148343205Y-76450396D01*
X148211374Y-76472143D01*
X148125555Y-76447998D01*
X148030310Y-76388334D01*
X148011909Y-76372357D01*
X147919100Y-76244997D01*
X147889477Y-76104518D01*
X147923545Y-75967435D01*
X147996584Y-75871696D01*
X148127928Y-75794446D01*
X148273119Y-75781793D01*
X148414193Y-75833105D01*
G36*
X145229261Y-71265491D02*
X145716096Y-71370520D01*
X146186361Y-71533568D01*
X146634498Y-71753127D01*
X147054952Y-72027689D01*
X147442166Y-72355747D01*
X147790583Y-72735792D01*
X148094648Y-73166317D01*
X148317928Y-73578954D01*
X148388250Y-73732800D01*
X148448326Y-73873223D01*
X148489807Y-73980252D01*
X148502204Y-74019752D01*
X148515093Y-74091217D01*
X148497069Y-74108808D01*
X148459359Y-74096263D01*
X148266686Y-74045077D01*
X148090437Y-74063875D01*
X147925454Y-74153351D01*
X147903368Y-74171215D01*
X147826920Y-74226141D01*
X147793622Y-74225278D01*
X147791714Y-74213949D01*
X147773787Y-74144364D01*
X147725387Y-74028630D01*
X147654581Y-73882088D01*
X147569441Y-73720079D01*
X147478034Y-73557945D01*
X147388430Y-73411026D01*
X147308698Y-73294664D01*
X147306988Y-73292395D01*
X146986824Y-72925315D01*
X146628534Y-72615731D01*
X146238631Y-72364102D01*
X145823629Y-72170888D01*
X145390043Y-72036547D01*
X144944387Y-71961538D01*
X144493174Y-71946323D01*
X144042919Y-71991359D01*
X143600137Y-72097106D01*
X143171340Y-72264023D01*
X142763044Y-72492570D01*
X142381762Y-72783207D01*
X142221339Y-72933768D01*
X141900366Y-73303618D01*
X141641562Y-73704883D01*
X141445288Y-74130943D01*
X141311908Y-74575174D01*
X141241786Y-75030956D01*
X141235285Y-75491664D01*
X141292769Y-75950679D01*
X141414601Y-76401377D01*
X141601144Y-76837137D01*
X141852762Y-77251337D01*
X141975448Y-77414175D01*
X142305060Y-77770655D01*
X142673497Y-78069618D01*
X143074023Y-78310035D01*
X143499905Y-78490879D01*
X143944407Y-78611119D01*
X144400795Y-78669729D01*
X144862333Y-78665678D01*
X145322287Y-78597939D01*
X145773921Y-78465483D01*
X146210502Y-78267281D01*
X146483135Y-78102627D01*
X146728898Y-77918357D01*
X146971930Y-77700348D01*
X147192696Y-77467967D01*
X147371659Y-77240582D01*
X147408600Y-77185189D01*
X147491600Y-77047784D01*
X147577469Y-76893255D01*
X147658311Y-76737404D01*
X147726226Y-76596035D01*
X147773318Y-76484949D01*
X147791688Y-76419950D01*
X147791714Y-76418620D01*
X147810352Y-76369031D01*
X147849519Y-76375644D01*
X147878036Y-76419353D01*
X147940464Y-76490243D01*
X148051989Y-76540045D01*
X148191165Y-76564704D01*
X148336544Y-76560166D01*
X148453928Y-76528219D01*
X148494786Y-76517457D01*
X148512088Y-76535758D01*
X148504067Y-76591253D01*
X148468954Y-76692070D01*
X148404983Y-76846338D01*
X148364479Y-76939543D01*
X148122688Y-77407861D01*
X147824425Y-77834805D01*
X147463784Y-78228814D01*
X147459615Y-78232835D01*
X147093291Y-78555588D01*
X146725449Y-78816071D01*
X146341386Y-79023378D01*
X145926402Y-79186603D01*
X145908076Y-79192629D01*
X145370798Y-79330952D01*
X144828383Y-79397055D01*
X144282445Y-79390804D01*
X143963571Y-79353780D01*
X143448679Y-79239048D01*
X142961394Y-79061271D01*
X142505881Y-78825562D01*
X142086306Y-78537038D01*
X141706832Y-78200814D01*
X141371624Y-77822004D01*
X141084847Y-77405725D01*
X140850666Y-76957091D01*
X140673244Y-76481218D01*
X140556746Y-75983221D01*
X140505338Y-75468214D01*
X140509653Y-75111429D01*
X140574624Y-74565017D01*
X140706046Y-74043504D01*
X140905747Y-73541390D01*
X141175555Y-73053180D01*
X141213530Y-72994040D01*
X141320161Y-72851077D01*
X141469204Y-72678874D01*
X141645579Y-72492479D01*
X141834210Y-72306941D01*
X142020018Y-72137310D01*
X142187925Y-71998635D01*
X142271420Y-71938150D01*
X142740996Y-71663402D01*
X143227340Y-71455720D01*
X143724894Y-71313595D01*
X144228104Y-71235521D01*
X144731411Y-71219989D01*
X145229261Y-71265491D01*
X145229261Y-71265491D01*
G37*
X145229261Y-71265491D02*
X145716096Y-71370520D01*
X146186361Y-71533568D01*
X146634498Y-71753127D01*
X147054952Y-72027689D01*
X147442166Y-72355747D01*
X147790583Y-72735792D01*
X148094648Y-73166317D01*
X148317928Y-73578954D01*
X148388250Y-73732800D01*
X148448326Y-73873223D01*
X148489807Y-73980252D01*
X148502204Y-74019752D01*
X148515093Y-74091217D01*
X148497069Y-74108808D01*
X148459359Y-74096263D01*
X148266686Y-74045077D01*
X148090437Y-74063875D01*
X147925454Y-74153351D01*
X147903368Y-74171215D01*
X147826920Y-74226141D01*
X147793622Y-74225278D01*
X147791714Y-74213949D01*
X147773787Y-74144364D01*
X147725387Y-74028630D01*
X147654581Y-73882088D01*
X147569441Y-73720079D01*
X147478034Y-73557945D01*
X147388430Y-73411026D01*
X147308698Y-73294664D01*
X147306988Y-73292395D01*
X146986824Y-72925315D01*
X146628534Y-72615731D01*
X146238631Y-72364102D01*
X145823629Y-72170888D01*
X145390043Y-72036547D01*
X144944387Y-71961538D01*
X144493174Y-71946323D01*
X144042919Y-71991359D01*
X143600137Y-72097106D01*
X143171340Y-72264023D01*
X142763044Y-72492570D01*
X142381762Y-72783207D01*
X142221339Y-72933768D01*
X141900366Y-73303618D01*
X141641562Y-73704883D01*
X141445288Y-74130943D01*
X141311908Y-74575174D01*
X141241786Y-75030956D01*
X141235285Y-75491664D01*
X141292769Y-75950679D01*
X141414601Y-76401377D01*
X141601144Y-76837137D01*
X141852762Y-77251337D01*
X141975448Y-77414175D01*
X142305060Y-77770655D01*
X142673497Y-78069618D01*
X143074023Y-78310035D01*
X143499905Y-78490879D01*
X143944407Y-78611119D01*
X144400795Y-78669729D01*
X144862333Y-78665678D01*
X145322287Y-78597939D01*
X145773921Y-78465483D01*
X146210502Y-78267281D01*
X146483135Y-78102627D01*
X146728898Y-77918357D01*
X146971930Y-77700348D01*
X147192696Y-77467967D01*
X147371659Y-77240582D01*
X147408600Y-77185189D01*
X147491600Y-77047784D01*
X147577469Y-76893255D01*
X147658311Y-76737404D01*
X147726226Y-76596035D01*
X147773318Y-76484949D01*
X147791688Y-76419950D01*
X147791714Y-76418620D01*
X147810352Y-76369031D01*
X147849519Y-76375644D01*
X147878036Y-76419353D01*
X147940464Y-76490243D01*
X148051989Y-76540045D01*
X148191165Y-76564704D01*
X148336544Y-76560166D01*
X148453928Y-76528219D01*
X148494786Y-76517457D01*
X148512088Y-76535758D01*
X148504067Y-76591253D01*
X148468954Y-76692070D01*
X148404983Y-76846338D01*
X148364479Y-76939543D01*
X148122688Y-77407861D01*
X147824425Y-77834805D01*
X147463784Y-78228814D01*
X147459615Y-78232835D01*
X147093291Y-78555588D01*
X146725449Y-78816071D01*
X146341386Y-79023378D01*
X145926402Y-79186603D01*
X145908076Y-79192629D01*
X145370798Y-79330952D01*
X144828383Y-79397055D01*
X144282445Y-79390804D01*
X143963571Y-79353780D01*
X143448679Y-79239048D01*
X142961394Y-79061271D01*
X142505881Y-78825562D01*
X142086306Y-78537038D01*
X141706832Y-78200814D01*
X141371624Y-77822004D01*
X141084847Y-77405725D01*
X140850666Y-76957091D01*
X140673244Y-76481218D01*
X140556746Y-75983221D01*
X140505338Y-75468214D01*
X140509653Y-75111429D01*
X140574624Y-74565017D01*
X140706046Y-74043504D01*
X140905747Y-73541390D01*
X141175555Y-73053180D01*
X141213530Y-72994040D01*
X141320161Y-72851077D01*
X141469204Y-72678874D01*
X141645579Y-72492479D01*
X141834210Y-72306941D01*
X142020018Y-72137310D01*
X142187925Y-71998635D01*
X142271420Y-71938150D01*
X142740996Y-71663402D01*
X143227340Y-71455720D01*
X143724894Y-71313595D01*
X144228104Y-71235521D01*
X144731411Y-71219989D01*
X145229261Y-71265491D01*
G36*
X155568650Y-75093492D02*
X155582620Y-75095100D01*
X155583992Y-75200344D01*
X155585365Y-75305588D01*
X155626249Y-75290514D01*
X155645271Y-75283668D01*
X155660645Y-75278446D01*
X155669898Y-75275677D01*
X155671274Y-75275440D01*
X155675160Y-75279565D01*
X155678892Y-75288432D01*
X155680557Y-75296776D01*
X155679922Y-75299210D01*
X155674909Y-75301344D01*
X155662162Y-75306216D01*
X155643512Y-75313140D01*
X155620792Y-75321430D01*
X155616624Y-75322937D01*
X155554680Y-75345310D01*
X155554680Y-75091885D01*
X155568650Y-75093492D01*
X155568650Y-75093492D01*
G37*
X155568650Y-75093492D02*
X155582620Y-75095100D01*
X155583992Y-75200344D01*
X155585365Y-75305588D01*
X155626249Y-75290514D01*
X155645271Y-75283668D01*
X155660645Y-75278446D01*
X155669898Y-75275677D01*
X155671274Y-75275440D01*
X155675160Y-75279565D01*
X155678892Y-75288432D01*
X155680557Y-75296776D01*
X155679922Y-75299210D01*
X155674909Y-75301344D01*
X155662162Y-75306216D01*
X155643512Y-75313140D01*
X155620792Y-75321430D01*
X155616624Y-75322937D01*
X155554680Y-75345310D01*
X155554680Y-75091885D01*
X155568650Y-75093492D01*
G36*
X155834299Y-73939839D02*
X155857336Y-73951527D01*
X155862188Y-73955469D01*
X155869488Y-73962161D01*
X155875618Y-73968935D01*
X155880681Y-73976700D01*
X155884778Y-73986362D01*
X155888012Y-73998829D01*
X155890485Y-74015006D01*
X155892298Y-74035803D01*
X155893553Y-74062125D01*
X155894353Y-74094881D01*
X155894799Y-74134976D01*
X155894994Y-74183319D01*
X155895039Y-74240816D01*
X155895040Y-74247644D01*
X155895040Y-74477880D01*
X155732011Y-74477880D01*
X155733515Y-74240390D01*
X155735020Y-74002900D01*
X155747720Y-73980040D01*
X155764928Y-73957720D01*
X155786294Y-73943322D01*
X155810018Y-73937233D01*
X155834299Y-73939839D01*
X155834299Y-73939839D01*
G37*
X155834299Y-73939839D02*
X155857336Y-73951527D01*
X155862188Y-73955469D01*
X155869488Y-73962161D01*
X155875618Y-73968935D01*
X155880681Y-73976700D01*
X155884778Y-73986362D01*
X155888012Y-73998829D01*
X155890485Y-74015006D01*
X155892298Y-74035803D01*
X155893553Y-74062125D01*
X155894353Y-74094881D01*
X155894799Y-74134976D01*
X155894994Y-74183319D01*
X155895039Y-74240816D01*
X155895040Y-74247644D01*
X155895040Y-74477880D01*
X155732011Y-74477880D01*
X155733515Y-74240390D01*
X155735020Y-74002900D01*
X155747720Y-73980040D01*
X155764928Y-73957720D01*
X155786294Y-73943322D01*
X155810018Y-73937233D01*
X155834299Y-73939839D01*
G36*
X155590247Y-73937780D02*
X155613519Y-73946864D01*
X155633899Y-73963219D01*
X155646120Y-73980040D01*
X155658820Y-74002900D01*
X155661828Y-74477880D01*
X155498800Y-74477880D01*
X155498828Y-74248010D01*
X155498971Y-74182544D01*
X155499381Y-74126761D01*
X155500057Y-74080747D01*
X155500996Y-74044588D01*
X155502196Y-74018371D01*
X155503656Y-74002181D01*
X155504466Y-73997934D01*
X155514421Y-73976781D01*
X155530577Y-73957672D01*
X155550057Y-73943415D01*
X155566571Y-73937302D01*
X155590247Y-73937780D01*
X155590247Y-73937780D01*
G37*
X155590247Y-73937780D02*
X155613519Y-73946864D01*
X155633899Y-73963219D01*
X155646120Y-73980040D01*
X155658820Y-74002900D01*
X155661828Y-74477880D01*
X155498800Y-74477880D01*
X155498828Y-74248010D01*
X155498971Y-74182544D01*
X155499381Y-74126761D01*
X155500057Y-74080747D01*
X155500996Y-74044588D01*
X155502196Y-74018371D01*
X155503656Y-74002181D01*
X155504466Y-73997934D01*
X155514421Y-73976781D01*
X155530577Y-73957672D01*
X155550057Y-73943415D01*
X155566571Y-73937302D01*
X155590247Y-73937780D01*
G36*
X155362815Y-73939577D02*
X155386403Y-73952734D01*
X155390714Y-73956317D01*
X155397859Y-73962660D01*
X155403848Y-73968676D01*
X155408783Y-73975278D01*
X155412767Y-73983376D01*
X155415900Y-73993883D01*
X155418285Y-74007710D01*
X155420025Y-74025771D01*
X155421220Y-74048976D01*
X155421973Y-74078237D01*
X155422386Y-74114467D01*
X155422561Y-74158578D01*
X155422599Y-74211481D01*
X155422600Y-74241496D01*
X155422600Y-74477880D01*
X155265120Y-74477880D01*
X155265120Y-74244036D01*
X155265137Y-74186594D01*
X155265252Y-74138386D01*
X155265559Y-74098484D01*
X155266151Y-74065963D01*
X155267125Y-74039895D01*
X155268573Y-74019355D01*
X155270590Y-74003416D01*
X155273270Y-73991150D01*
X155276707Y-73981633D01*
X155280997Y-73973937D01*
X155286232Y-73967135D01*
X155292508Y-73960301D01*
X155294167Y-73958567D01*
X155315524Y-73942521D01*
X155338798Y-73936182D01*
X155362815Y-73939577D01*
X155362815Y-73939577D01*
G37*
X155362815Y-73939577D02*
X155386403Y-73952734D01*
X155390714Y-73956317D01*
X155397859Y-73962660D01*
X155403848Y-73968676D01*
X155408783Y-73975278D01*
X155412767Y-73983376D01*
X155415900Y-73993883D01*
X155418285Y-74007710D01*
X155420025Y-74025771D01*
X155421220Y-74048976D01*
X155421973Y-74078237D01*
X155422386Y-74114467D01*
X155422561Y-74158578D01*
X155422599Y-74211481D01*
X155422600Y-74241496D01*
X155422600Y-74477880D01*
X155265120Y-74477880D01*
X155265120Y-74244036D01*
X155265137Y-74186594D01*
X155265252Y-74138386D01*
X155265559Y-74098484D01*
X155266151Y-74065963D01*
X155267125Y-74039895D01*
X155268573Y-74019355D01*
X155270590Y-74003416D01*
X155273270Y-73991150D01*
X155276707Y-73981633D01*
X155280997Y-73973937D01*
X155286232Y-73967135D01*
X155292508Y-73960301D01*
X155294167Y-73958567D01*
X155315524Y-73942521D01*
X155338798Y-73936182D01*
X155362815Y-73939577D01*
G36*
X155652077Y-75016911D02*
X155704241Y-75034698D01*
X155751201Y-75060889D01*
X155792344Y-75095014D01*
X155827060Y-75136600D01*
X155854736Y-75185178D01*
X155867937Y-75218145D01*
X155879112Y-75264775D01*
X155882470Y-75314531D01*
X155878012Y-75364052D01*
X155867937Y-75403854D01*
X155844900Y-75456483D01*
X155814543Y-75502346D01*
X155777479Y-75540980D01*
X155734321Y-75571922D01*
X155685683Y-75594709D01*
X155632178Y-75608877D01*
X155590240Y-75613519D01*
X155552339Y-75613312D01*
X155518279Y-75609114D01*
X155514040Y-75608214D01*
X155463092Y-75591769D01*
X155416351Y-75566277D01*
X155373295Y-75531446D01*
X155366549Y-75524821D01*
X155334557Y-75488588D01*
X155310731Y-75451762D01*
X155293360Y-75411377D01*
X155285315Y-75384172D01*
X155276847Y-75330929D01*
X155277453Y-75305075D01*
X155304077Y-75305075D01*
X155307324Y-75354255D01*
X155319116Y-75401884D01*
X155339453Y-75446200D01*
X155345604Y-75456146D01*
X155378270Y-75498022D01*
X155416504Y-75532852D01*
X155459032Y-75559698D01*
X155504577Y-75577620D01*
X155513946Y-75580053D01*
X155535990Y-75583331D01*
X155563951Y-75584739D01*
X155594112Y-75584355D01*
X155622760Y-75582260D01*
X155646176Y-75578531D01*
X155651547Y-75577128D01*
X155697760Y-75558702D01*
X155740674Y-75532456D01*
X155778454Y-75499862D01*
X155809262Y-75462391D01*
X155822627Y-75440126D01*
X155842566Y-75392003D01*
X155852968Y-75343032D01*
X155854284Y-75294235D01*
X155846962Y-75246637D01*
X155831451Y-75201262D01*
X155808202Y-75159132D01*
X155777664Y-75121272D01*
X155740285Y-75088706D01*
X155696516Y-75062457D01*
X155648784Y-75044117D01*
X155618115Y-75038420D01*
X155582036Y-75036717D01*
X155544344Y-75038804D01*
X155508834Y-75044477D01*
X155480147Y-75053178D01*
X155432870Y-75077648D01*
X155392034Y-75109590D01*
X155356797Y-75149707D01*
X155345604Y-75165853D01*
X155323217Y-75209113D01*
X155309375Y-75256108D01*
X155304077Y-75305075D01*
X155277453Y-75305075D01*
X155278114Y-75276912D01*
X155288938Y-75223579D01*
X155309141Y-75172384D01*
X155311814Y-75167165D01*
X155331857Y-75136173D01*
X155358801Y-75104801D01*
X155389864Y-75075746D01*
X155422265Y-75051709D01*
X155442920Y-75039958D01*
X155493676Y-75019992D01*
X155545024Y-75009235D01*
X155595320Y-75008000D01*
X155652077Y-75016911D01*
X155652077Y-75016911D01*
G37*
X155652077Y-75016911D02*
X155704241Y-75034698D01*
X155751201Y-75060889D01*
X155792344Y-75095014D01*
X155827060Y-75136600D01*
X155854736Y-75185178D01*
X155867937Y-75218145D01*
X155879112Y-75264775D01*
X155882470Y-75314531D01*
X155878012Y-75364052D01*
X155867937Y-75403854D01*
X155844900Y-75456483D01*
X155814543Y-75502346D01*
X155777479Y-75540980D01*
X155734321Y-75571922D01*
X155685683Y-75594709D01*
X155632178Y-75608877D01*
X155590240Y-75613519D01*
X155552339Y-75613312D01*
X155518279Y-75609114D01*
X155514040Y-75608214D01*
X155463092Y-75591769D01*
X155416351Y-75566277D01*
X155373295Y-75531446D01*
X155366549Y-75524821D01*
X155334557Y-75488588D01*
X155310731Y-75451762D01*
X155293360Y-75411377D01*
X155285315Y-75384172D01*
X155276847Y-75330929D01*
X155277453Y-75305075D01*
X155304077Y-75305075D01*
X155307324Y-75354255D01*
X155319116Y-75401884D01*
X155339453Y-75446200D01*
X155345604Y-75456146D01*
X155378270Y-75498022D01*
X155416504Y-75532852D01*
X155459032Y-75559698D01*
X155504577Y-75577620D01*
X155513946Y-75580053D01*
X155535990Y-75583331D01*
X155563951Y-75584739D01*
X155594112Y-75584355D01*
X155622760Y-75582260D01*
X155646176Y-75578531D01*
X155651547Y-75577128D01*
X155697760Y-75558702D01*
X155740674Y-75532456D01*
X155778454Y-75499862D01*
X155809262Y-75462391D01*
X155822627Y-75440126D01*
X155842566Y-75392003D01*
X155852968Y-75343032D01*
X155854284Y-75294235D01*
X155846962Y-75246637D01*
X155831451Y-75201262D01*
X155808202Y-75159132D01*
X155777664Y-75121272D01*
X155740285Y-75088706D01*
X155696516Y-75062457D01*
X155648784Y-75044117D01*
X155618115Y-75038420D01*
X155582036Y-75036717D01*
X155544344Y-75038804D01*
X155508834Y-75044477D01*
X155480147Y-75053178D01*
X155432870Y-75077648D01*
X155392034Y-75109590D01*
X155356797Y-75149707D01*
X155345604Y-75165853D01*
X155323217Y-75209113D01*
X155309375Y-75256108D01*
X155304077Y-75305075D01*
X155277453Y-75305075D01*
X155278114Y-75276912D01*
X155288938Y-75223579D01*
X155309141Y-75172384D01*
X155311814Y-75167165D01*
X155331857Y-75136173D01*
X155358801Y-75104801D01*
X155389864Y-75075746D01*
X155422265Y-75051709D01*
X155442920Y-75039958D01*
X155493676Y-75019992D01*
X155545024Y-75009235D01*
X155595320Y-75008000D01*
X155652077Y-75016911D01*
G36*
X155619992Y-71933109D02*
X155666340Y-71946768D01*
X155683124Y-71954266D01*
X155686108Y-71955946D01*
X155689960Y-71958565D01*
X155694878Y-71962318D01*
X155701060Y-71967401D01*
X155708704Y-71974010D01*
X155718009Y-71982343D01*
X155729173Y-71992593D01*
X155742393Y-72004958D01*
X155757867Y-72019633D01*
X155775795Y-72036815D01*
X155796374Y-72056699D01*
X155819802Y-72079482D01*
X155846277Y-72105359D01*
X155875998Y-72134527D01*
X155909162Y-72167181D01*
X155945968Y-72203518D01*
X155986613Y-72243733D01*
X156031297Y-72288022D01*
X156080217Y-72336583D01*
X156133571Y-72389609D01*
X156191557Y-72447298D01*
X156254373Y-72509846D01*
X156322219Y-72577448D01*
X156395291Y-72650300D01*
X156473788Y-72728600D01*
X156557907Y-72812541D01*
X156647848Y-72902321D01*
X156743808Y-72998136D01*
X156845986Y-73100181D01*
X156954579Y-73208653D01*
X157069785Y-73323748D01*
X157191804Y-73445660D01*
X157304015Y-73557784D01*
X157410736Y-73664441D01*
X157515721Y-73769395D01*
X157618736Y-73872411D01*
X157719548Y-73973257D01*
X157817923Y-74071697D01*
X157913630Y-74167498D01*
X158006434Y-74260426D01*
X158096102Y-74350246D01*
X158182402Y-74436725D01*
X158265100Y-74519628D01*
X158343963Y-74598722D01*
X158418757Y-74673772D01*
X158489251Y-74744544D01*
X158555209Y-74810805D01*
X158616400Y-74872320D01*
X158672590Y-74928856D01*
X158723546Y-74980177D01*
X158769035Y-75026051D01*
X158808824Y-75066243D01*
X158842679Y-75100518D01*
X158870367Y-75128644D01*
X158891655Y-75150386D01*
X158906311Y-75165510D01*
X158914100Y-75173782D01*
X158915229Y-75175103D01*
X158939223Y-75215208D01*
X158954209Y-75258524D01*
X158960188Y-75303567D01*
X158957158Y-75348850D01*
X158945121Y-75392889D01*
X158924076Y-75434200D01*
X158915218Y-75446896D01*
X158910090Y-75452543D01*
X158898020Y-75465120D01*
X158879257Y-75484376D01*
X158854049Y-75510062D01*
X158822645Y-75541929D01*
X158785292Y-75579728D01*
X158742239Y-75623208D01*
X158693734Y-75672121D01*
X158640026Y-75726217D01*
X158581363Y-75785247D01*
X158517993Y-75848960D01*
X158450164Y-75917108D01*
X158378126Y-75989442D01*
X158302125Y-76065711D01*
X158222410Y-76145666D01*
X158139230Y-76229058D01*
X158052832Y-76315637D01*
X157963466Y-76405154D01*
X157871380Y-76497360D01*
X157776820Y-76592004D01*
X157680037Y-76688838D01*
X157581279Y-76787612D01*
X157485615Y-76883256D01*
X156077920Y-78290413D01*
X156077920Y-78166387D01*
X156038550Y-78164903D01*
X155999180Y-78163420D01*
X155997902Y-76407010D01*
X155997823Y-76297914D01*
X156325764Y-76297914D01*
X156328447Y-76316267D01*
X156329741Y-76326629D01*
X156331860Y-76345349D01*
X156334614Y-76370674D01*
X156337814Y-76400854D01*
X156341270Y-76434134D01*
X156342709Y-76448190D01*
X156354288Y-76561760D01*
X156385014Y-76558351D01*
X156398815Y-76556539D01*
X156420778Y-76553315D01*
X156449048Y-76548968D01*
X156481768Y-76543784D01*
X156517085Y-76538053D01*
X156537660Y-76534652D01*
X156687212Y-76507792D01*
X156831454Y-76477930D01*
X156969987Y-76445217D01*
X157102414Y-76409805D01*
X157228338Y-76371846D01*
X157347359Y-76331492D01*
X157459082Y-76288894D01*
X157563108Y-76244205D01*
X157659039Y-76197576D01*
X157746478Y-76149159D01*
X157825027Y-76099106D01*
X157894289Y-76047569D01*
X157953866Y-75994699D01*
X157955071Y-75993516D01*
X158004639Y-75940148D01*
X158044344Y-75887122D01*
X158074445Y-75833907D01*
X158095201Y-75779975D01*
X158106872Y-75724794D01*
X158109844Y-75677217D01*
X158107450Y-75630579D01*
X158099776Y-75588971D01*
X158085847Y-75548221D01*
X158073472Y-75521208D01*
X158041011Y-75466621D01*
X157998687Y-75413823D01*
X157946652Y-75362897D01*
X157885058Y-75313926D01*
X157814058Y-75266994D01*
X157733805Y-75222185D01*
X157644451Y-75179581D01*
X157546149Y-75139266D01*
X157439050Y-75101324D01*
X157323308Y-75065837D01*
X157199074Y-75032889D01*
X157165043Y-75024663D01*
X157071766Y-75002554D01*
X157047830Y-74927878D01*
X157039452Y-74902015D01*
X157032073Y-74879756D01*
X157026274Y-74862815D01*
X157022639Y-74852908D01*
X157021774Y-74851080D01*
X157016520Y-74851135D01*
X157002158Y-74851968D01*
X156979704Y-74853497D01*
X156950173Y-74855639D01*
X156914581Y-74858312D01*
X156873944Y-74861433D01*
X156829277Y-74864921D01*
X156781595Y-74868692D01*
X156731915Y-74872664D01*
X156681253Y-74876756D01*
X156630623Y-74880884D01*
X156581041Y-74884966D01*
X156533523Y-74888920D01*
X156489085Y-74892664D01*
X156448742Y-74896114D01*
X156413509Y-74899190D01*
X156384403Y-74901807D01*
X156362439Y-74903884D01*
X156348633Y-74905339D01*
X156344005Y-74906061D01*
X156348387Y-74907879D01*
X156361560Y-74912530D01*
X156382644Y-74919728D01*
X156410761Y-74929185D01*
X156445033Y-74940615D01*
X156484580Y-74953731D01*
X156528524Y-74968245D01*
X156575986Y-74983872D01*
X156626087Y-75000323D01*
X156677949Y-75017311D01*
X156730694Y-75034551D01*
X156783442Y-75051755D01*
X156835314Y-75068636D01*
X156885433Y-75084907D01*
X156932918Y-75100281D01*
X156976893Y-75114472D01*
X157016478Y-75127192D01*
X157050793Y-75138154D01*
X157078962Y-75147071D01*
X157100104Y-75153658D01*
X157113342Y-75157625D01*
X157117727Y-75158725D01*
X157119412Y-75154070D01*
X157116803Y-75140353D01*
X157109925Y-75117709D01*
X157108864Y-75114546D01*
X157102568Y-75095002D01*
X157098117Y-75079373D01*
X157096126Y-75069922D01*
X157096250Y-75068216D01*
X157102582Y-75068202D01*
X157117209Y-75071480D01*
X157138962Y-75077642D01*
X157166675Y-75086277D01*
X157199179Y-75096977D01*
X157235307Y-75109334D01*
X157273892Y-75122937D01*
X157313765Y-75137378D01*
X157353760Y-75152249D01*
X157392708Y-75167140D01*
X157429442Y-75181642D01*
X157462795Y-75195346D01*
X157479046Y-75202296D01*
X157563647Y-75241477D01*
X157641244Y-75282269D01*
X157711548Y-75324383D01*
X157774268Y-75367529D01*
X157829115Y-75411418D01*
X157875800Y-75455760D01*
X157914032Y-75500265D01*
X157943522Y-75544645D01*
X157963981Y-75588609D01*
X157975118Y-75631868D01*
X157976645Y-75674132D01*
X157973359Y-75696499D01*
X157958586Y-75741648D01*
X157933991Y-75786026D01*
X157899894Y-75829504D01*
X157856612Y-75871952D01*
X157804464Y-75913240D01*
X157743768Y-75953241D01*
X157674842Y-75991824D01*
X157598006Y-76028860D01*
X157513577Y-76064220D01*
X157421873Y-76097776D01*
X157323214Y-76129396D01*
X157217917Y-76158953D01*
X157106300Y-76186317D01*
X156988683Y-76211359D01*
X156865384Y-76233950D01*
X156736720Y-76253960D01*
X156603011Y-76271260D01*
X156540200Y-76278241D01*
X156503075Y-76282093D01*
X156466236Y-76285798D01*
X156431915Y-76289139D01*
X156402349Y-76291901D01*
X156379770Y-76293868D01*
X156373292Y-76294376D01*
X156325764Y-76297914D01*
X155997823Y-76297914D01*
X155996625Y-74650599D01*
X156034732Y-74650600D01*
X156072840Y-74650600D01*
X156072840Y-74595165D01*
X156036010Y-74593672D01*
X155999180Y-74592180D01*
X155999180Y-73820020D01*
X156072840Y-73817034D01*
X156072840Y-73761600D01*
X156035900Y-73761600D01*
X155998961Y-73761599D01*
X155969093Y-73610470D01*
X155959405Y-73562309D01*
X155951222Y-73523579D01*
X155944399Y-73493684D01*
X155938793Y-73472027D01*
X155934258Y-73458015D01*
X155930650Y-73451051D01*
X155930348Y-73450732D01*
X155924544Y-73440850D01*
X155919616Y-73425226D01*
X155917822Y-73415594D01*
X155914912Y-73400687D01*
X155911722Y-73395880D01*
X155908320Y-73401118D01*
X155904773Y-73416346D01*
X155902980Y-73427590D01*
X155899422Y-73443143D01*
X155894680Y-73451085D01*
X155892849Y-73451720D01*
X155888590Y-73456695D01*
X155883524Y-73471660D01*
X155877632Y-73496668D01*
X155874669Y-73511410D01*
X155869903Y-73535244D01*
X155865520Y-73555658D01*
X155862014Y-73570438D01*
X155859920Y-73577301D01*
X155858128Y-73573492D01*
X155853901Y-73560585D01*
X155847443Y-73539296D01*
X155838956Y-73510339D01*
X155828643Y-73474429D01*
X155816708Y-73432282D01*
X155803354Y-73384610D01*
X155788783Y-73332130D01*
X155773198Y-73275555D01*
X155756803Y-73215601D01*
X155748790Y-73186141D01*
X155640878Y-72788780D01*
X155640959Y-72721470D01*
X155640901Y-72694186D01*
X155640495Y-72675463D01*
X155639510Y-72663698D01*
X155637715Y-72657293D01*
X155634878Y-72654648D01*
X155631222Y-72654160D01*
X155621907Y-72650168D01*
X155618880Y-72645270D01*
X155617596Y-72637991D01*
X155615276Y-72622060D01*
X155612112Y-72598909D01*
X155608297Y-72569970D01*
X155604023Y-72536677D01*
X155599813Y-72503128D01*
X155595356Y-72467759D01*
X155591231Y-72436041D01*
X155587618Y-72409265D01*
X155584695Y-72388725D01*
X155582639Y-72375712D01*
X155581639Y-72371507D01*
X155580683Y-72376626D01*
X155578644Y-72390247D01*
X155575730Y-72410794D01*
X155572152Y-72436689D01*
X155568118Y-72466359D01*
X155563840Y-72498226D01*
X155559526Y-72530715D01*
X155555386Y-72562250D01*
X155551630Y-72591255D01*
X155548468Y-72616153D01*
X155546110Y-72635370D01*
X155544765Y-72647329D01*
X155544531Y-72650350D01*
X155540256Y-72653448D01*
X155534360Y-72654160D01*
X155530110Y-72654738D01*
X155527258Y-72657586D01*
X155525537Y-72664369D01*
X155524682Y-72676757D01*
X155524430Y-72696414D01*
X155524474Y-72716390D01*
X155524748Y-72778620D01*
X155416524Y-73178632D01*
X155399798Y-73240329D01*
X155383795Y-73299119D01*
X155368717Y-73354275D01*
X155354766Y-73405069D01*
X155342143Y-73450775D01*
X155331051Y-73490664D01*
X155321691Y-73524009D01*
X155314265Y-73550082D01*
X155308975Y-73568158D01*
X155306024Y-73577507D01*
X155305491Y-73578682D01*
X155303508Y-73574021D01*
X155300164Y-73561290D01*
X155295921Y-73542417D01*
X155291239Y-73519326D01*
X155291083Y-73518513D01*
X155284781Y-73488605D01*
X155279059Y-73467735D01*
X155273578Y-73454821D01*
X155269761Y-73449983D01*
X155262173Y-73438673D01*
X155259533Y-73427639D01*
X155257669Y-73411707D01*
X155255224Y-73400920D01*
X155252910Y-73395468D01*
X155250659Y-73396903D01*
X155247859Y-73406354D01*
X155244910Y-73419970D01*
X155240518Y-73436960D01*
X155235782Y-73448300D01*
X155232183Y-73451720D01*
X155229151Y-73456710D01*
X155224557Y-73471581D01*
X155218437Y-73496176D01*
X155210829Y-73530342D01*
X155201770Y-73573925D01*
X155196991Y-73597770D01*
X155189516Y-73635308D01*
X155182579Y-73669881D01*
X155176452Y-73700155D01*
X155171407Y-73724793D01*
X155167717Y-73742463D01*
X155165652Y-73751829D01*
X155165424Y-73752710D01*
X155162474Y-73757378D01*
X155155556Y-73760095D01*
X155142500Y-73761341D01*
X155125077Y-73761600D01*
X155087320Y-73761600D01*
X155087320Y-73817480D01*
X155158440Y-73817480D01*
X155158440Y-74594720D01*
X155087320Y-74594720D01*
X155087320Y-74650600D01*
X155158440Y-74650600D01*
X155158440Y-78165960D01*
X155082552Y-78165960D01*
X155079700Y-78287970D01*
X153656840Y-76864255D01*
X153536414Y-76743754D01*
X153422963Y-76630224D01*
X153316275Y-76523453D01*
X153216143Y-76423228D01*
X153122354Y-76329337D01*
X153034700Y-76241565D01*
X152952971Y-76159702D01*
X152876957Y-76083534D01*
X152806447Y-76012848D01*
X152741232Y-75947432D01*
X152681102Y-75887072D01*
X152625848Y-75831557D01*
X152575258Y-75780674D01*
X152529123Y-75734209D01*
X152487234Y-75691950D01*
X152456099Y-75660476D01*
X153048445Y-75660476D01*
X153048815Y-75695836D01*
X153051461Y-75729791D01*
X153056320Y-75758585D01*
X153057397Y-75762826D01*
X153078758Y-75822499D01*
X153110136Y-75880785D01*
X153151537Y-75937691D01*
X153202970Y-75993224D01*
X153264442Y-76047392D01*
X153335961Y-76100202D01*
X153417534Y-76151661D01*
X153509170Y-76201776D01*
X153535380Y-76214950D01*
X153646800Y-76266309D01*
X153767481Y-76314948D01*
X153896848Y-76360699D01*
X154034330Y-76403396D01*
X154179352Y-76442872D01*
X154331340Y-76478960D01*
X154489723Y-76511492D01*
X154650440Y-76539739D01*
X154680986Y-76544685D01*
X154708788Y-76549199D01*
X154732005Y-76552981D01*
X154748791Y-76555731D01*
X154757120Y-76557116D01*
X154769858Y-76558748D01*
X154784169Y-76559835D01*
X154796419Y-76560198D01*
X154802970Y-76559656D01*
X154803282Y-76559410D01*
X154804503Y-76552440D01*
X154806426Y-76537313D01*
X154808890Y-76515680D01*
X154811733Y-76489195D01*
X154814792Y-76459509D01*
X154817906Y-76428276D01*
X154820912Y-76397147D01*
X154823648Y-76367777D01*
X154825954Y-76341816D01*
X154827665Y-76320919D01*
X154828620Y-76306736D01*
X154828658Y-76300922D01*
X154828634Y-76300882D01*
X154822890Y-76299461D01*
X154808612Y-76297422D01*
X154787394Y-76294949D01*
X154760830Y-76292226D01*
X154730514Y-76289436D01*
X154726640Y-76289100D01*
X154584350Y-76275070D01*
X154446356Y-76257899D01*
X154313095Y-76237722D01*
X154185003Y-76214670D01*
X154062519Y-76188878D01*
X153946079Y-76160479D01*
X153836122Y-76129607D01*
X153733084Y-76096394D01*
X153637403Y-76060974D01*
X153549517Y-76023480D01*
X153469863Y-75984047D01*
X153398877Y-75942806D01*
X153336998Y-75899892D01*
X153284664Y-75855438D01*
X153275709Y-75846703D01*
X153253416Y-75823655D01*
X153236790Y-75804255D01*
X153223685Y-75785660D01*
X153211954Y-75765024D01*
X153207558Y-75756353D01*
X153196652Y-75733251D01*
X153189788Y-75715022D01*
X153185854Y-75697779D01*
X153183741Y-75677638D01*
X153183368Y-75671699D01*
X153182754Y-75646088D01*
X153184789Y-75625019D01*
X153190127Y-75603072D01*
X153192672Y-75594882D01*
X153212899Y-75547706D01*
X153242961Y-75500836D01*
X153282530Y-75454416D01*
X153331281Y-75408593D01*
X153388889Y-75363510D01*
X153455029Y-75319314D01*
X153529375Y-75276150D01*
X153611602Y-75234162D01*
X153701383Y-75193496D01*
X153798395Y-75154297D01*
X153902311Y-75116710D01*
X154012805Y-75080881D01*
X154129553Y-75046954D01*
X154252229Y-75015075D01*
X154380508Y-74985388D01*
X154514063Y-74958040D01*
X154652570Y-74933175D01*
X154689834Y-74927057D01*
X154722945Y-74921646D01*
X154752330Y-74916689D01*
X154776630Y-74912429D01*
X154794488Y-74909108D01*
X154804546Y-74906968D01*
X154806259Y-74906326D01*
X154800666Y-74906104D01*
X154786321Y-74906890D01*
X154764570Y-74908553D01*
X154736757Y-74910961D01*
X154704228Y-74913983D01*
X154668325Y-74917486D01*
X154630395Y-74921341D01*
X154591782Y-74925414D01*
X154553831Y-74929576D01*
X154517886Y-74933693D01*
X154485292Y-74937636D01*
X154482800Y-74937948D01*
X154341567Y-74957736D01*
X154203886Y-74981031D01*
X154070794Y-75007588D01*
X153943324Y-75037164D01*
X153822512Y-75069516D01*
X153709395Y-75104401D01*
X153605006Y-75141574D01*
X153586180Y-75148900D01*
X153549458Y-75164242D01*
X153508345Y-75182832D01*
X153465115Y-75203526D01*
X153422043Y-75225177D01*
X153381402Y-75246641D01*
X153345467Y-75266771D01*
X153316513Y-75284422D01*
X153314400Y-75285802D01*
X153246236Y-75334741D01*
X153187903Y-75385442D01*
X153139444Y-75437850D01*
X153100903Y-75491912D01*
X153072326Y-75547575D01*
X153054772Y-75600560D01*
X153050410Y-75627466D01*
X153048445Y-75660476D01*
X152456099Y-75660476D01*
X152449380Y-75653684D01*
X152415351Y-75619199D01*
X152384938Y-75588281D01*
X152357930Y-75560719D01*
X152334117Y-75536299D01*
X152313291Y-75514809D01*
X152295240Y-75496035D01*
X152279755Y-75479766D01*
X152266625Y-75465788D01*
X152255642Y-75453889D01*
X152246594Y-75443856D01*
X152239273Y-75435477D01*
X152233468Y-75428537D01*
X152228969Y-75422826D01*
X152225566Y-75418130D01*
X152223049Y-75414236D01*
X152221209Y-75410931D01*
X152219909Y-75408174D01*
X152204016Y-75361423D01*
X152197960Y-75316161D01*
X152201754Y-75271294D01*
X152215408Y-75225727D01*
X152221967Y-75210592D01*
X152223434Y-75207661D01*
X152225359Y-75204353D01*
X152227940Y-75200467D01*
X152231374Y-75195803D01*
X152235859Y-75190161D01*
X152241593Y-75183341D01*
X152248774Y-75175143D01*
X152257600Y-75165366D01*
X152268269Y-75153811D01*
X152280978Y-75140277D01*
X152295925Y-75124565D01*
X152313308Y-75106474D01*
X152333326Y-75085805D01*
X152356175Y-75062357D01*
X152382054Y-75035930D01*
X152411160Y-75006323D01*
X152443692Y-74973338D01*
X152479847Y-74936774D01*
X152519823Y-74896431D01*
X152563818Y-74852108D01*
X152612029Y-74803606D01*
X152664656Y-74750724D01*
X152721894Y-74693263D01*
X152783943Y-74631022D01*
X152851000Y-74563802D01*
X152923263Y-74491402D01*
X153000930Y-74413622D01*
X153084199Y-74330261D01*
X153173267Y-74241121D01*
X153268332Y-74146001D01*
X153369593Y-74044701D01*
X153477246Y-73937020D01*
X153591491Y-73822759D01*
X153712524Y-73701717D01*
X153840544Y-73573695D01*
X153841659Y-73572579D01*
X153969768Y-73444473D01*
X154090895Y-73323355D01*
X154205239Y-73209028D01*
X154313001Y-73101294D01*
X154414380Y-72999956D01*
X154509577Y-72904815D01*
X154598792Y-72815673D01*
X154682224Y-72732334D01*
X154760074Y-72654600D01*
X154832541Y-72582272D01*
X154899825Y-72515153D01*
X154962126Y-72453045D01*
X155019645Y-72395751D01*
X155072581Y-72343072D01*
X155121133Y-72294811D01*
X155165503Y-72250771D01*
X155205890Y-72210753D01*
X155242494Y-72174560D01*
X155275515Y-72141994D01*
X155305152Y-72112858D01*
X155331607Y-72086953D01*
X155355078Y-72064082D01*
X155375765Y-72044047D01*
X155393870Y-72026651D01*
X155409590Y-72011695D01*
X155423128Y-71998983D01*
X155434682Y-71988315D01*
X155444452Y-71979495D01*
X155452639Y-71972325D01*
X155459441Y-71966607D01*
X155465061Y-71962143D01*
X155469696Y-71958736D01*
X155473547Y-71956188D01*
X155476815Y-71954301D01*
X155479354Y-71953036D01*
X155526402Y-71936242D01*
X155573313Y-71929600D01*
X155619992Y-71933109D01*
X155619992Y-71933109D01*
G37*
X155619992Y-71933109D02*
X155666340Y-71946768D01*
X155683124Y-71954266D01*
X155686108Y-71955946D01*
X155689960Y-71958565D01*
X155694878Y-71962318D01*
X155701060Y-71967401D01*
X155708704Y-71974010D01*
X155718009Y-71982343D01*
X155729173Y-71992593D01*
X155742393Y-72004958D01*
X155757867Y-72019633D01*
X155775795Y-72036815D01*
X155796374Y-72056699D01*
X155819802Y-72079482D01*
X155846277Y-72105359D01*
X155875998Y-72134527D01*
X155909162Y-72167181D01*
X155945968Y-72203518D01*
X155986613Y-72243733D01*
X156031297Y-72288022D01*
X156080217Y-72336583D01*
X156133571Y-72389609D01*
X156191557Y-72447298D01*
X156254373Y-72509846D01*
X156322219Y-72577448D01*
X156395291Y-72650300D01*
X156473788Y-72728600D01*
X156557907Y-72812541D01*
X156647848Y-72902321D01*
X156743808Y-72998136D01*
X156845986Y-73100181D01*
X156954579Y-73208653D01*
X157069785Y-73323748D01*
X157191804Y-73445660D01*
X157304015Y-73557784D01*
X157410736Y-73664441D01*
X157515721Y-73769395D01*
X157618736Y-73872411D01*
X157719548Y-73973257D01*
X157817923Y-74071697D01*
X157913630Y-74167498D01*
X158006434Y-74260426D01*
X158096102Y-74350246D01*
X158182402Y-74436725D01*
X158265100Y-74519628D01*
X158343963Y-74598722D01*
X158418757Y-74673772D01*
X158489251Y-74744544D01*
X158555209Y-74810805D01*
X158616400Y-74872320D01*
X158672590Y-74928856D01*
X158723546Y-74980177D01*
X158769035Y-75026051D01*
X158808824Y-75066243D01*
X158842679Y-75100518D01*
X158870367Y-75128644D01*
X158891655Y-75150386D01*
X158906311Y-75165510D01*
X158914100Y-75173782D01*
X158915229Y-75175103D01*
X158939223Y-75215208D01*
X158954209Y-75258524D01*
X158960188Y-75303567D01*
X158957158Y-75348850D01*
X158945121Y-75392889D01*
X158924076Y-75434200D01*
X158915218Y-75446896D01*
X158910090Y-75452543D01*
X158898020Y-75465120D01*
X158879257Y-75484376D01*
X158854049Y-75510062D01*
X158822645Y-75541929D01*
X158785292Y-75579728D01*
X158742239Y-75623208D01*
X158693734Y-75672121D01*
X158640026Y-75726217D01*
X158581363Y-75785247D01*
X158517993Y-75848960D01*
X158450164Y-75917108D01*
X158378126Y-75989442D01*
X158302125Y-76065711D01*
X158222410Y-76145666D01*
X158139230Y-76229058D01*
X158052832Y-76315637D01*
X157963466Y-76405154D01*
X157871380Y-76497360D01*
X157776820Y-76592004D01*
X157680037Y-76688838D01*
X157581279Y-76787612D01*
X157485615Y-76883256D01*
X156077920Y-78290413D01*
X156077920Y-78166387D01*
X156038550Y-78164903D01*
X155999180Y-78163420D01*
X155997902Y-76407010D01*
X155997823Y-76297914D01*
X156325764Y-76297914D01*
X156328447Y-76316267D01*
X156329741Y-76326629D01*
X156331860Y-76345349D01*
X156334614Y-76370674D01*
X156337814Y-76400854D01*
X156341270Y-76434134D01*
X156342709Y-76448190D01*
X156354288Y-76561760D01*
X156385014Y-76558351D01*
X156398815Y-76556539D01*
X156420778Y-76553315D01*
X156449048Y-76548968D01*
X156481768Y-76543784D01*
X156517085Y-76538053D01*
X156537660Y-76534652D01*
X156687212Y-76507792D01*
X156831454Y-76477930D01*
X156969987Y-76445217D01*
X157102414Y-76409805D01*
X157228338Y-76371846D01*
X157347359Y-76331492D01*
X157459082Y-76288894D01*
X157563108Y-76244205D01*
X157659039Y-76197576D01*
X157746478Y-76149159D01*
X157825027Y-76099106D01*
X157894289Y-76047569D01*
X157953866Y-75994699D01*
X157955071Y-75993516D01*
X158004639Y-75940148D01*
X158044344Y-75887122D01*
X158074445Y-75833907D01*
X158095201Y-75779975D01*
X158106872Y-75724794D01*
X158109844Y-75677217D01*
X158107450Y-75630579D01*
X158099776Y-75588971D01*
X158085847Y-75548221D01*
X158073472Y-75521208D01*
X158041011Y-75466621D01*
X157998687Y-75413823D01*
X157946652Y-75362897D01*
X157885058Y-75313926D01*
X157814058Y-75266994D01*
X157733805Y-75222185D01*
X157644451Y-75179581D01*
X157546149Y-75139266D01*
X157439050Y-75101324D01*
X157323308Y-75065837D01*
X157199074Y-75032889D01*
X157165043Y-75024663D01*
X157071766Y-75002554D01*
X157047830Y-74927878D01*
X157039452Y-74902015D01*
X157032073Y-74879756D01*
X157026274Y-74862815D01*
X157022639Y-74852908D01*
X157021774Y-74851080D01*
X157016520Y-74851135D01*
X157002158Y-74851968D01*
X156979704Y-74853497D01*
X156950173Y-74855639D01*
X156914581Y-74858312D01*
X156873944Y-74861433D01*
X156829277Y-74864921D01*
X156781595Y-74868692D01*
X156731915Y-74872664D01*
X156681253Y-74876756D01*
X156630623Y-74880884D01*
X156581041Y-74884966D01*
X156533523Y-74888920D01*
X156489085Y-74892664D01*
X156448742Y-74896114D01*
X156413509Y-74899190D01*
X156384403Y-74901807D01*
X156362439Y-74903884D01*
X156348633Y-74905339D01*
X156344005Y-74906061D01*
X156348387Y-74907879D01*
X156361560Y-74912530D01*
X156382644Y-74919728D01*
X156410761Y-74929185D01*
X156445033Y-74940615D01*
X156484580Y-74953731D01*
X156528524Y-74968245D01*
X156575986Y-74983872D01*
X156626087Y-75000323D01*
X156677949Y-75017311D01*
X156730694Y-75034551D01*
X156783442Y-75051755D01*
X156835314Y-75068636D01*
X156885433Y-75084907D01*
X156932918Y-75100281D01*
X156976893Y-75114472D01*
X157016478Y-75127192D01*
X157050793Y-75138154D01*
X157078962Y-75147071D01*
X157100104Y-75153658D01*
X157113342Y-75157625D01*
X157117727Y-75158725D01*
X157119412Y-75154070D01*
X157116803Y-75140353D01*
X157109925Y-75117709D01*
X157108864Y-75114546D01*
X157102568Y-75095002D01*
X157098117Y-75079373D01*
X157096126Y-75069922D01*
X157096250Y-75068216D01*
X157102582Y-75068202D01*
X157117209Y-75071480D01*
X157138962Y-75077642D01*
X157166675Y-75086277D01*
X157199179Y-75096977D01*
X157235307Y-75109334D01*
X157273892Y-75122937D01*
X157313765Y-75137378D01*
X157353760Y-75152249D01*
X157392708Y-75167140D01*
X157429442Y-75181642D01*
X157462795Y-75195346D01*
X157479046Y-75202296D01*
X157563647Y-75241477D01*
X157641244Y-75282269D01*
X157711548Y-75324383D01*
X157774268Y-75367529D01*
X157829115Y-75411418D01*
X157875800Y-75455760D01*
X157914032Y-75500265D01*
X157943522Y-75544645D01*
X157963981Y-75588609D01*
X157975118Y-75631868D01*
X157976645Y-75674132D01*
X157973359Y-75696499D01*
X157958586Y-75741648D01*
X157933991Y-75786026D01*
X157899894Y-75829504D01*
X157856612Y-75871952D01*
X157804464Y-75913240D01*
X157743768Y-75953241D01*
X157674842Y-75991824D01*
X157598006Y-76028860D01*
X157513577Y-76064220D01*
X157421873Y-76097776D01*
X157323214Y-76129396D01*
X157217917Y-76158953D01*
X157106300Y-76186317D01*
X156988683Y-76211359D01*
X156865384Y-76233950D01*
X156736720Y-76253960D01*
X156603011Y-76271260D01*
X156540200Y-76278241D01*
X156503075Y-76282093D01*
X156466236Y-76285798D01*
X156431915Y-76289139D01*
X156402349Y-76291901D01*
X156379770Y-76293868D01*
X156373292Y-76294376D01*
X156325764Y-76297914D01*
X155997823Y-76297914D01*
X155996625Y-74650599D01*
X156034732Y-74650600D01*
X156072840Y-74650600D01*
X156072840Y-74595165D01*
X156036010Y-74593672D01*
X155999180Y-74592180D01*
X155999180Y-73820020D01*
X156072840Y-73817034D01*
X156072840Y-73761600D01*
X156035900Y-73761600D01*
X155998961Y-73761599D01*
X155969093Y-73610470D01*
X155959405Y-73562309D01*
X155951222Y-73523579D01*
X155944399Y-73493684D01*
X155938793Y-73472027D01*
X155934258Y-73458015D01*
X155930650Y-73451051D01*
X155930348Y-73450732D01*
X155924544Y-73440850D01*
X155919616Y-73425226D01*
X155917822Y-73415594D01*
X155914912Y-73400687D01*
X155911722Y-73395880D01*
X155908320Y-73401118D01*
X155904773Y-73416346D01*
X155902980Y-73427590D01*
X155899422Y-73443143D01*
X155894680Y-73451085D01*
X155892849Y-73451720D01*
X155888590Y-73456695D01*
X155883524Y-73471660D01*
X155877632Y-73496668D01*
X155874669Y-73511410D01*
X155869903Y-73535244D01*
X155865520Y-73555658D01*
X155862014Y-73570438D01*
X155859920Y-73577301D01*
X155858128Y-73573492D01*
X155853901Y-73560585D01*
X155847443Y-73539296D01*
X155838956Y-73510339D01*
X155828643Y-73474429D01*
X155816708Y-73432282D01*
X155803354Y-73384610D01*
X155788783Y-73332130D01*
X155773198Y-73275555D01*
X155756803Y-73215601D01*
X155748790Y-73186141D01*
X155640878Y-72788780D01*
X155640959Y-72721470D01*
X155640901Y-72694186D01*
X155640495Y-72675463D01*
X155639510Y-72663698D01*
X155637715Y-72657293D01*
X155634878Y-72654648D01*
X155631222Y-72654160D01*
X155621907Y-72650168D01*
X155618880Y-72645270D01*
X155617596Y-72637991D01*
X155615276Y-72622060D01*
X155612112Y-72598909D01*
X155608297Y-72569970D01*
X155604023Y-72536677D01*
X155599813Y-72503128D01*
X155595356Y-72467759D01*
X155591231Y-72436041D01*
X155587618Y-72409265D01*
X155584695Y-72388725D01*
X155582639Y-72375712D01*
X155581639Y-72371507D01*
X155580683Y-72376626D01*
X155578644Y-72390247D01*
X155575730Y-72410794D01*
X155572152Y-72436689D01*
X155568118Y-72466359D01*
X155563840Y-72498226D01*
X155559526Y-72530715D01*
X155555386Y-72562250D01*
X155551630Y-72591255D01*
X155548468Y-72616153D01*
X155546110Y-72635370D01*
X155544765Y-72647329D01*
X155544531Y-72650350D01*
X155540256Y-72653448D01*
X155534360Y-72654160D01*
X155530110Y-72654738D01*
X155527258Y-72657586D01*
X155525537Y-72664369D01*
X155524682Y-72676757D01*
X155524430Y-72696414D01*
X155524474Y-72716390D01*
X155524748Y-72778620D01*
X155416524Y-73178632D01*
X155399798Y-73240329D01*
X155383795Y-73299119D01*
X155368717Y-73354275D01*
X155354766Y-73405069D01*
X155342143Y-73450775D01*
X155331051Y-73490664D01*
X155321691Y-73524009D01*
X155314265Y-73550082D01*
X155308975Y-73568158D01*
X155306024Y-73577507D01*
X155305491Y-73578682D01*
X155303508Y-73574021D01*
X155300164Y-73561290D01*
X155295921Y-73542417D01*
X155291239Y-73519326D01*
X155291083Y-73518513D01*
X155284781Y-73488605D01*
X155279059Y-73467735D01*
X155273578Y-73454821D01*
X155269761Y-73449983D01*
X155262173Y-73438673D01*
X155259533Y-73427639D01*
X155257669Y-73411707D01*
X155255224Y-73400920D01*
X155252910Y-73395468D01*
X155250659Y-73396903D01*
X155247859Y-73406354D01*
X155244910Y-73419970D01*
X155240518Y-73436960D01*
X155235782Y-73448300D01*
X155232183Y-73451720D01*
X155229151Y-73456710D01*
X155224557Y-73471581D01*
X155218437Y-73496176D01*
X155210829Y-73530342D01*
X155201770Y-73573925D01*
X155196991Y-73597770D01*
X155189516Y-73635308D01*
X155182579Y-73669881D01*
X155176452Y-73700155D01*
X155171407Y-73724793D01*
X155167717Y-73742463D01*
X155165652Y-73751829D01*
X155165424Y-73752710D01*
X155162474Y-73757378D01*
X155155556Y-73760095D01*
X155142500Y-73761341D01*
X155125077Y-73761600D01*
X155087320Y-73761600D01*
X155087320Y-73817480D01*
X155158440Y-73817480D01*
X155158440Y-74594720D01*
X155087320Y-74594720D01*
X155087320Y-74650600D01*
X155158440Y-74650600D01*
X155158440Y-78165960D01*
X155082552Y-78165960D01*
X155079700Y-78287970D01*
X153656840Y-76864255D01*
X153536414Y-76743754D01*
X153422963Y-76630224D01*
X153316275Y-76523453D01*
X153216143Y-76423228D01*
X153122354Y-76329337D01*
X153034700Y-76241565D01*
X152952971Y-76159702D01*
X152876957Y-76083534D01*
X152806447Y-76012848D01*
X152741232Y-75947432D01*
X152681102Y-75887072D01*
X152625848Y-75831557D01*
X152575258Y-75780674D01*
X152529123Y-75734209D01*
X152487234Y-75691950D01*
X152456099Y-75660476D01*
X153048445Y-75660476D01*
X153048815Y-75695836D01*
X153051461Y-75729791D01*
X153056320Y-75758585D01*
X153057397Y-75762826D01*
X153078758Y-75822499D01*
X153110136Y-75880785D01*
X153151537Y-75937691D01*
X153202970Y-75993224D01*
X153264442Y-76047392D01*
X153335961Y-76100202D01*
X153417534Y-76151661D01*
X153509170Y-76201776D01*
X153535380Y-76214950D01*
X153646800Y-76266309D01*
X153767481Y-76314948D01*
X153896848Y-76360699D01*
X154034330Y-76403396D01*
X154179352Y-76442872D01*
X154331340Y-76478960D01*
X154489723Y-76511492D01*
X154650440Y-76539739D01*
X154680986Y-76544685D01*
X154708788Y-76549199D01*
X154732005Y-76552981D01*
X154748791Y-76555731D01*
X154757120Y-76557116D01*
X154769858Y-76558748D01*
X154784169Y-76559835D01*
X154796419Y-76560198D01*
X154802970Y-76559656D01*
X154803282Y-76559410D01*
X154804503Y-76552440D01*
X154806426Y-76537313D01*
X154808890Y-76515680D01*
X154811733Y-76489195D01*
X154814792Y-76459509D01*
X154817906Y-76428276D01*
X154820912Y-76397147D01*
X154823648Y-76367777D01*
X154825954Y-76341816D01*
X154827665Y-76320919D01*
X154828620Y-76306736D01*
X154828658Y-76300922D01*
X154828634Y-76300882D01*
X154822890Y-76299461D01*
X154808612Y-76297422D01*
X154787394Y-76294949D01*
X154760830Y-76292226D01*
X154730514Y-76289436D01*
X154726640Y-76289100D01*
X154584350Y-76275070D01*
X154446356Y-76257899D01*
X154313095Y-76237722D01*
X154185003Y-76214670D01*
X154062519Y-76188878D01*
X153946079Y-76160479D01*
X153836122Y-76129607D01*
X153733084Y-76096394D01*
X153637403Y-76060974D01*
X153549517Y-76023480D01*
X153469863Y-75984047D01*
X153398877Y-75942806D01*
X153336998Y-75899892D01*
X153284664Y-75855438D01*
X153275709Y-75846703D01*
X153253416Y-75823655D01*
X153236790Y-75804255D01*
X153223685Y-75785660D01*
X153211954Y-75765024D01*
X153207558Y-75756353D01*
X153196652Y-75733251D01*
X153189788Y-75715022D01*
X153185854Y-75697779D01*
X153183741Y-75677638D01*
X153183368Y-75671699D01*
X153182754Y-75646088D01*
X153184789Y-75625019D01*
X153190127Y-75603072D01*
X153192672Y-75594882D01*
X153212899Y-75547706D01*
X153242961Y-75500836D01*
X153282530Y-75454416D01*
X153331281Y-75408593D01*
X153388889Y-75363510D01*
X153455029Y-75319314D01*
X153529375Y-75276150D01*
X153611602Y-75234162D01*
X153701383Y-75193496D01*
X153798395Y-75154297D01*
X153902311Y-75116710D01*
X154012805Y-75080881D01*
X154129553Y-75046954D01*
X154252229Y-75015075D01*
X154380508Y-74985388D01*
X154514063Y-74958040D01*
X154652570Y-74933175D01*
X154689834Y-74927057D01*
X154722945Y-74921646D01*
X154752330Y-74916689D01*
X154776630Y-74912429D01*
X154794488Y-74909108D01*
X154804546Y-74906968D01*
X154806259Y-74906326D01*
X154800666Y-74906104D01*
X154786321Y-74906890D01*
X154764570Y-74908553D01*
X154736757Y-74910961D01*
X154704228Y-74913983D01*
X154668325Y-74917486D01*
X154630395Y-74921341D01*
X154591782Y-74925414D01*
X154553831Y-74929576D01*
X154517886Y-74933693D01*
X154485292Y-74937636D01*
X154482800Y-74937948D01*
X154341567Y-74957736D01*
X154203886Y-74981031D01*
X154070794Y-75007588D01*
X153943324Y-75037164D01*
X153822512Y-75069516D01*
X153709395Y-75104401D01*
X153605006Y-75141574D01*
X153586180Y-75148900D01*
X153549458Y-75164242D01*
X153508345Y-75182832D01*
X153465115Y-75203526D01*
X153422043Y-75225177D01*
X153381402Y-75246641D01*
X153345467Y-75266771D01*
X153316513Y-75284422D01*
X153314400Y-75285802D01*
X153246236Y-75334741D01*
X153187903Y-75385442D01*
X153139444Y-75437850D01*
X153100903Y-75491912D01*
X153072326Y-75547575D01*
X153054772Y-75600560D01*
X153050410Y-75627466D01*
X153048445Y-75660476D01*
X152456099Y-75660476D01*
X152449380Y-75653684D01*
X152415351Y-75619199D01*
X152384938Y-75588281D01*
X152357930Y-75560719D01*
X152334117Y-75536299D01*
X152313291Y-75514809D01*
X152295240Y-75496035D01*
X152279755Y-75479766D01*
X152266625Y-75465788D01*
X152255642Y-75453889D01*
X152246594Y-75443856D01*
X152239273Y-75435477D01*
X152233468Y-75428537D01*
X152228969Y-75422826D01*
X152225566Y-75418130D01*
X152223049Y-75414236D01*
X152221209Y-75410931D01*
X152219909Y-75408174D01*
X152204016Y-75361423D01*
X152197960Y-75316161D01*
X152201754Y-75271294D01*
X152215408Y-75225727D01*
X152221967Y-75210592D01*
X152223434Y-75207661D01*
X152225359Y-75204353D01*
X152227940Y-75200467D01*
X152231374Y-75195803D01*
X152235859Y-75190161D01*
X152241593Y-75183341D01*
X152248774Y-75175143D01*
X152257600Y-75165366D01*
X152268269Y-75153811D01*
X152280978Y-75140277D01*
X152295925Y-75124565D01*
X152313308Y-75106474D01*
X152333326Y-75085805D01*
X152356175Y-75062357D01*
X152382054Y-75035930D01*
X152411160Y-75006323D01*
X152443692Y-74973338D01*
X152479847Y-74936774D01*
X152519823Y-74896431D01*
X152563818Y-74852108D01*
X152612029Y-74803606D01*
X152664656Y-74750724D01*
X152721894Y-74693263D01*
X152783943Y-74631022D01*
X152851000Y-74563802D01*
X152923263Y-74491402D01*
X153000930Y-74413622D01*
X153084199Y-74330261D01*
X153173267Y-74241121D01*
X153268332Y-74146001D01*
X153369593Y-74044701D01*
X153477246Y-73937020D01*
X153591491Y-73822759D01*
X153712524Y-73701717D01*
X153840544Y-73573695D01*
X153841659Y-73572579D01*
X153969768Y-73444473D01*
X154090895Y-73323355D01*
X154205239Y-73209028D01*
X154313001Y-73101294D01*
X154414380Y-72999956D01*
X154509577Y-72904815D01*
X154598792Y-72815673D01*
X154682224Y-72732334D01*
X154760074Y-72654600D01*
X154832541Y-72582272D01*
X154899825Y-72515153D01*
X154962126Y-72453045D01*
X155019645Y-72395751D01*
X155072581Y-72343072D01*
X155121133Y-72294811D01*
X155165503Y-72250771D01*
X155205890Y-72210753D01*
X155242494Y-72174560D01*
X155275515Y-72141994D01*
X155305152Y-72112858D01*
X155331607Y-72086953D01*
X155355078Y-72064082D01*
X155375765Y-72044047D01*
X155393870Y-72026651D01*
X155409590Y-72011695D01*
X155423128Y-71998983D01*
X155434682Y-71988315D01*
X155444452Y-71979495D01*
X155452639Y-71972325D01*
X155459441Y-71966607D01*
X155465061Y-71962143D01*
X155469696Y-71958736D01*
X155473547Y-71956188D01*
X155476815Y-71954301D01*
X155479354Y-71953036D01*
X155526402Y-71936242D01*
X155573313Y-71929600D01*
X155619992Y-71933109D01*
G36*
X155650179Y-70923968D02*
X155714657Y-70938138D01*
X155777289Y-70961032D01*
X155837164Y-70992668D01*
X155893371Y-71033063D01*
X155916690Y-71053603D01*
X155929504Y-71067030D01*
X155946790Y-71087241D01*
X155967271Y-71112642D01*
X155989669Y-71141638D01*
X156012710Y-71172637D01*
X156019235Y-71181643D01*
X156218939Y-71453614D01*
X156420013Y-71716739D01*
X156623562Y-71972327D01*
X156830694Y-72221688D01*
X157042513Y-72466132D01*
X157260125Y-72706968D01*
X157484637Y-72945507D01*
X157662880Y-73128411D01*
X157946493Y-73408198D01*
X158236059Y-73679955D01*
X158531941Y-73943994D01*
X158834502Y-74200625D01*
X159144107Y-74450161D01*
X159461118Y-74692914D01*
X159641540Y-74825664D01*
X159689950Y-74860999D01*
X159730824Y-74891386D01*
X159765041Y-74917572D01*
X159793476Y-74940307D01*
X159817008Y-74960337D01*
X159836514Y-74978411D01*
X159852872Y-74995277D01*
X159866958Y-75011683D01*
X159879651Y-75028377D01*
X159880141Y-75029060D01*
X159916714Y-75088219D01*
X159943794Y-75150500D01*
X159961523Y-75216355D01*
X159970040Y-75286237D01*
X159970879Y-75323700D01*
X159966324Y-75391600D01*
X159953561Y-75454680D01*
X159932029Y-75514808D01*
X159901169Y-75573851D01*
X159891055Y-75590017D01*
X159876229Y-75611500D01*
X159859889Y-75632018D01*
X159841063Y-75652427D01*
X159818777Y-75673586D01*
X159792057Y-75696351D01*
X159759929Y-75721580D01*
X159721420Y-75750131D01*
X159675555Y-75782862D01*
X159658430Y-75794872D01*
X159347087Y-76018668D01*
X159041734Y-76250617D01*
X158742558Y-76490532D01*
X158449746Y-76738227D01*
X158163484Y-76993514D01*
X157883960Y-77256207D01*
X157611361Y-77526120D01*
X157345873Y-77803065D01*
X157087682Y-78086857D01*
X156836977Y-78377308D01*
X156593943Y-78674231D01*
X156358768Y-78977441D01*
X156131639Y-79286749D01*
X156054845Y-79395320D01*
X156018520Y-79446415D01*
X155986399Y-79489704D01*
X155957527Y-79526132D01*
X155930949Y-79556645D01*
X155905711Y-79582187D01*
X155880858Y-79603706D01*
X155855434Y-79622147D01*
X155828485Y-79638456D01*
X155799055Y-79653578D01*
X155789583Y-79658032D01*
X155739447Y-79677228D01*
X155684070Y-79691553D01*
X155626525Y-79700551D01*
X155569888Y-79703768D01*
X155517233Y-79700748D01*
X155508960Y-79699591D01*
X155471482Y-79691629D01*
X155429921Y-79679148D01*
X155388058Y-79663526D01*
X155349673Y-79646141D01*
X155325110Y-79632571D01*
X155293949Y-79611701D01*
X155264643Y-79588242D01*
X155236009Y-79560946D01*
X155206867Y-79528567D01*
X155176034Y-79489858D01*
X155142328Y-79443572D01*
X155132374Y-79429315D01*
X154930437Y-79144635D01*
X154725053Y-78868658D01*
X154515297Y-78600246D01*
X154300246Y-78338260D01*
X154078977Y-78081560D01*
X153850567Y-77829010D01*
X153730745Y-77701140D01*
X153691799Y-77660451D01*
X153647011Y-77614329D01*
X153597501Y-77563884D01*
X153544391Y-77510227D01*
X153488802Y-77454472D01*
X153431854Y-77397728D01*
X153374668Y-77341108D01*
X153318366Y-77285723D01*
X153264067Y-77232685D01*
X153212893Y-77183106D01*
X153165965Y-77138097D01*
X153124404Y-77098769D01*
X153106491Y-77082052D01*
X152881495Y-76877580D01*
X152651764Y-76677268D01*
X152418473Y-76482058D01*
X152182798Y-76292891D01*
X151945913Y-76110710D01*
X151708994Y-75936457D01*
X151473217Y-75771072D01*
X151457660Y-75760448D01*
X151399156Y-75718285D01*
X151349624Y-75677333D01*
X151308154Y-75636441D01*
X151273836Y-75594457D01*
X151245759Y-75550232D01*
X151223014Y-75502613D01*
X151204690Y-75450452D01*
X151200260Y-75434994D01*
X151193986Y-75403470D01*
X151190018Y-75365123D01*
X151188356Y-75323026D01*
X151188537Y-75311000D01*
X152027165Y-75311000D01*
X152030462Y-75369773D01*
X152040855Y-75422962D01*
X152059100Y-75472920D01*
X152085955Y-75521999D01*
X152103043Y-75547220D01*
X152108211Y-75553010D01*
X152120285Y-75565678D01*
X152138985Y-75584944D01*
X152164032Y-75610530D01*
X152195147Y-75642156D01*
X152232050Y-75679542D01*
X152274462Y-75722409D01*
X152322103Y-75770479D01*
X152374694Y-75823471D01*
X152431955Y-75881106D01*
X152493607Y-75943105D01*
X152559370Y-76009188D01*
X152628965Y-76079077D01*
X152702112Y-76152491D01*
X152778533Y-76229153D01*
X152857947Y-76308781D01*
X152940075Y-76391097D01*
X153024637Y-76475822D01*
X153111355Y-76562676D01*
X153199948Y-76651380D01*
X153290138Y-76741655D01*
X153381644Y-76833221D01*
X153474187Y-76925798D01*
X153567488Y-77019109D01*
X153661268Y-77112872D01*
X153755246Y-77206810D01*
X153849144Y-77300642D01*
X153942681Y-77394089D01*
X154035579Y-77486872D01*
X154127558Y-77578712D01*
X154218339Y-77669329D01*
X154307641Y-77758444D01*
X154395186Y-77845778D01*
X154480694Y-77931051D01*
X154563886Y-78013984D01*
X154644482Y-78094297D01*
X154722202Y-78171712D01*
X154796768Y-78245949D01*
X154867900Y-78316728D01*
X154935318Y-78383771D01*
X154998743Y-78446797D01*
X155057895Y-78505528D01*
X155112495Y-78559685D01*
X155162263Y-78608987D01*
X155206921Y-78653156D01*
X155246188Y-78691913D01*
X155279784Y-78724977D01*
X155307432Y-78752070D01*
X155328851Y-78772912D01*
X155343761Y-78787225D01*
X155351883Y-78794727D01*
X155353132Y-78795735D01*
X155376387Y-78809693D01*
X155404445Y-78824165D01*
X155433604Y-78837420D01*
X155460164Y-78847730D01*
X155472831Y-78851656D01*
X155527589Y-78861686D01*
X155585943Y-78864036D01*
X155644843Y-78858713D01*
X155681680Y-78851216D01*
X155732549Y-78833990D01*
X155782926Y-78808625D01*
X155823920Y-78781101D01*
X155829698Y-78775843D01*
X155842421Y-78763627D01*
X155861853Y-78744687D01*
X155887761Y-78719256D01*
X155919910Y-78687568D01*
X155958065Y-78649856D01*
X156001994Y-78606353D01*
X156051460Y-78557291D01*
X156106231Y-78502906D01*
X156166073Y-78443428D01*
X156230750Y-78379093D01*
X156300029Y-78310133D01*
X156373675Y-78236781D01*
X156451454Y-78159271D01*
X156533133Y-78077835D01*
X156618477Y-77992708D01*
X156707251Y-77904122D01*
X156799221Y-77812310D01*
X156894154Y-77717507D01*
X156991815Y-77619944D01*
X157091969Y-77519855D01*
X157194384Y-77417474D01*
X157298823Y-77313033D01*
X157405054Y-77206767D01*
X157452622Y-77159172D01*
X157581623Y-77030094D01*
X157703648Y-76908008D01*
X157818893Y-76792710D01*
X157927554Y-76683995D01*
X158029828Y-76581660D01*
X158125913Y-76485501D01*
X158216004Y-76395315D01*
X158300298Y-76310897D01*
X158378992Y-76232044D01*
X158452283Y-76158553D01*
X158520366Y-76090218D01*
X158583440Y-76026837D01*
X158641700Y-75968206D01*
X158695343Y-75914120D01*
X158744566Y-75864377D01*
X158789565Y-75818772D01*
X158830537Y-75777102D01*
X158867680Y-75739163D01*
X158901188Y-75704751D01*
X158931259Y-75673662D01*
X158958090Y-75645692D01*
X158981878Y-75620638D01*
X159002818Y-75598297D01*
X159021108Y-75578463D01*
X159036944Y-75560934D01*
X159050523Y-75545506D01*
X159062042Y-75531974D01*
X159071697Y-75520135D01*
X159079685Y-75509786D01*
X159086202Y-75500722D01*
X159091445Y-75492740D01*
X159095612Y-75485636D01*
X159098897Y-75479207D01*
X159101499Y-75473247D01*
X159103614Y-75467554D01*
X159105438Y-75461925D01*
X159107168Y-75456154D01*
X159109000Y-75450038D01*
X159111133Y-75443375D01*
X159112653Y-75438985D01*
X159118533Y-75422117D01*
X159122739Y-75408062D01*
X159125552Y-75394554D01*
X159127250Y-75379325D01*
X159128113Y-75360111D01*
X159128423Y-75334646D01*
X159128460Y-75311000D01*
X159128377Y-75279588D01*
X159127943Y-75256069D01*
X159126877Y-75238179D01*
X159124900Y-75223650D01*
X159121732Y-75210217D01*
X159117093Y-75195614D01*
X159112653Y-75183014D01*
X159110244Y-75175919D01*
X159108253Y-75169496D01*
X159106484Y-75163541D01*
X159104741Y-75157850D01*
X159102826Y-75152219D01*
X159100543Y-75146446D01*
X159097695Y-75140325D01*
X159094085Y-75133654D01*
X159089518Y-75126228D01*
X159083796Y-75117844D01*
X159076722Y-75108298D01*
X159068101Y-75097386D01*
X159057735Y-75084905D01*
X159045427Y-75070650D01*
X159030982Y-75054417D01*
X159014202Y-75036004D01*
X158994891Y-75015206D01*
X158972852Y-74991820D01*
X158947888Y-74965641D01*
X158919803Y-74936466D01*
X158888401Y-74904092D01*
X158853483Y-74868313D01*
X158814855Y-74828928D01*
X158772319Y-74785731D01*
X158725678Y-74738519D01*
X158674736Y-74687089D01*
X158619297Y-74631236D01*
X158559163Y-74570756D01*
X158494138Y-74505447D01*
X158424025Y-74435104D01*
X158348628Y-74359523D01*
X158267750Y-74278501D01*
X158181194Y-74191834D01*
X158088764Y-74099317D01*
X157990263Y-74000748D01*
X157885494Y-73895923D01*
X157774261Y-73784637D01*
X157656367Y-73666687D01*
X157531616Y-73541870D01*
X157452622Y-73462827D01*
X157345672Y-73355826D01*
X157240410Y-73250548D01*
X157137070Y-73147226D01*
X157035886Y-73046093D01*
X156937091Y-72947382D01*
X156840921Y-72851328D01*
X156747610Y-72758162D01*
X156657391Y-72668118D01*
X156570499Y-72581430D01*
X156487168Y-72498330D01*
X156407632Y-72419053D01*
X156332126Y-72343830D01*
X156260884Y-72272896D01*
X156194139Y-72206483D01*
X156132127Y-72144825D01*
X156075081Y-72088155D01*
X156023236Y-72036707D01*
X155976825Y-71990713D01*
X155936084Y-71950406D01*
X155901245Y-71916021D01*
X155872544Y-71887790D01*
X155850215Y-71865946D01*
X155834491Y-71850723D01*
X155825608Y-71842354D01*
X155823920Y-71840898D01*
X155772036Y-71806625D01*
X155718156Y-71781878D01*
X155661049Y-71766242D01*
X155599487Y-71759305D01*
X155580080Y-71758858D01*
X155517301Y-71762763D01*
X155459077Y-71775303D01*
X155403975Y-71796905D01*
X155353132Y-71826264D01*
X155347663Y-71831105D01*
X155335300Y-71842862D01*
X155316323Y-71861255D01*
X155291010Y-71886005D01*
X155259642Y-71916832D01*
X155222497Y-71953458D01*
X155179856Y-71995602D01*
X155131997Y-72042986D01*
X155079201Y-72095330D01*
X155021746Y-72152356D01*
X154959913Y-72213782D01*
X154893980Y-72279331D01*
X154824227Y-72348723D01*
X154750933Y-72421678D01*
X154674379Y-72497918D01*
X154594843Y-72577162D01*
X154512605Y-72659133D01*
X154427945Y-72743549D01*
X154341141Y-72830132D01*
X154252474Y-72918603D01*
X154162222Y-73008682D01*
X154070666Y-73100090D01*
X153978084Y-73192548D01*
X153884757Y-73285775D01*
X153790963Y-73379494D01*
X153696983Y-73473424D01*
X153603095Y-73567287D01*
X153509579Y-73660803D01*
X153416715Y-73753692D01*
X153324781Y-73845675D01*
X153234059Y-73936473D01*
X153144826Y-74025807D01*
X153057362Y-74113397D01*
X152971947Y-74198965D01*
X152888861Y-74282229D01*
X152808382Y-74362912D01*
X152730791Y-74440734D01*
X152656367Y-74515416D01*
X152585388Y-74586678D01*
X152518135Y-74654241D01*
X152454888Y-74717825D01*
X152395925Y-74777152D01*
X152341526Y-74831942D01*
X152291970Y-74881915D01*
X152247538Y-74926793D01*
X152208508Y-74966295D01*
X152175160Y-75000144D01*
X152147773Y-75028058D01*
X152126628Y-75049760D01*
X152112002Y-75064969D01*
X152104176Y-75073407D01*
X152103043Y-75074780D01*
X152071550Y-75124310D01*
X152049048Y-75173529D01*
X152034780Y-75224791D01*
X152027992Y-75280448D01*
X152027165Y-75311000D01*
X151188537Y-75311000D01*
X151189000Y-75280251D01*
X151191951Y-75239871D01*
X151197207Y-75204957D01*
X151200260Y-75192085D01*
X151224098Y-75122811D01*
X151255907Y-75059635D01*
X151295554Y-75002789D01*
X151328416Y-74966372D01*
X151343018Y-74952970D01*
X151364077Y-74935225D01*
X151389730Y-74914627D01*
X151418113Y-74892666D01*
X151447364Y-74870833D01*
X151453163Y-74866606D01*
X151778244Y-74624580D01*
X152097088Y-74374878D01*
X152409483Y-74117709D01*
X152715219Y-73853286D01*
X153014085Y-73581818D01*
X153305870Y-73303517D01*
X153590363Y-73018593D01*
X153867353Y-72727257D01*
X154136629Y-72429720D01*
X154397980Y-72126191D01*
X154651195Y-71816882D01*
X154896064Y-71502004D01*
X155107334Y-71216520D01*
X155130889Y-71184372D01*
X155154448Y-71153033D01*
X155176812Y-71124037D01*
X155196784Y-71098917D01*
X155213164Y-71079209D01*
X155223716Y-71067499D01*
X155275594Y-71021117D01*
X155332005Y-70983330D01*
X155392040Y-70954157D01*
X155454786Y-70933616D01*
X155519332Y-70921725D01*
X155584767Y-70918503D01*
X155650179Y-70923968D01*
X155650179Y-70923968D01*
G37*
X155650179Y-70923968D02*
X155714657Y-70938138D01*
X155777289Y-70961032D01*
X155837164Y-70992668D01*
X155893371Y-71033063D01*
X155916690Y-71053603D01*
X155929504Y-71067030D01*
X155946790Y-71087241D01*
X155967271Y-71112642D01*
X155989669Y-71141638D01*
X156012710Y-71172637D01*
X156019235Y-71181643D01*
X156218939Y-71453614D01*
X156420013Y-71716739D01*
X156623562Y-71972327D01*
X156830694Y-72221688D01*
X157042513Y-72466132D01*
X157260125Y-72706968D01*
X157484637Y-72945507D01*
X157662880Y-73128411D01*
X157946493Y-73408198D01*
X158236059Y-73679955D01*
X158531941Y-73943994D01*
X158834502Y-74200625D01*
X159144107Y-74450161D01*
X159461118Y-74692914D01*
X159641540Y-74825664D01*
X159689950Y-74860999D01*
X159730824Y-74891386D01*
X159765041Y-74917572D01*
X159793476Y-74940307D01*
X159817008Y-74960337D01*
X159836514Y-74978411D01*
X159852872Y-74995277D01*
X159866958Y-75011683D01*
X159879651Y-75028377D01*
X159880141Y-75029060D01*
X159916714Y-75088219D01*
X159943794Y-75150500D01*
X159961523Y-75216355D01*
X159970040Y-75286237D01*
X159970879Y-75323700D01*
X159966324Y-75391600D01*
X159953561Y-75454680D01*
X159932029Y-75514808D01*
X159901169Y-75573851D01*
X159891055Y-75590017D01*
X159876229Y-75611500D01*
X159859889Y-75632018D01*
X159841063Y-75652427D01*
X159818777Y-75673586D01*
X159792057Y-75696351D01*
X159759929Y-75721580D01*
X159721420Y-75750131D01*
X159675555Y-75782862D01*
X159658430Y-75794872D01*
X159347087Y-76018668D01*
X159041734Y-76250617D01*
X158742558Y-76490532D01*
X158449746Y-76738227D01*
X158163484Y-76993514D01*
X157883960Y-77256207D01*
X157611361Y-77526120D01*
X157345873Y-77803065D01*
X157087682Y-78086857D01*
X156836977Y-78377308D01*
X156593943Y-78674231D01*
X156358768Y-78977441D01*
X156131639Y-79286749D01*
X156054845Y-79395320D01*
X156018520Y-79446415D01*
X155986399Y-79489704D01*
X155957527Y-79526132D01*
X155930949Y-79556645D01*
X155905711Y-79582187D01*
X155880858Y-79603706D01*
X155855434Y-79622147D01*
X155828485Y-79638456D01*
X155799055Y-79653578D01*
X155789583Y-79658032D01*
X155739447Y-79677228D01*
X155684070Y-79691553D01*
X155626525Y-79700551D01*
X155569888Y-79703768D01*
X155517233Y-79700748D01*
X155508960Y-79699591D01*
X155471482Y-79691629D01*
X155429921Y-79679148D01*
X155388058Y-79663526D01*
X155349673Y-79646141D01*
X155325110Y-79632571D01*
X155293949Y-79611701D01*
X155264643Y-79588242D01*
X155236009Y-79560946D01*
X155206867Y-79528567D01*
X155176034Y-79489858D01*
X155142328Y-79443572D01*
X155132374Y-79429315D01*
X154930437Y-79144635D01*
X154725053Y-78868658D01*
X154515297Y-78600246D01*
X154300246Y-78338260D01*
X154078977Y-78081560D01*
X153850567Y-77829010D01*
X153730745Y-77701140D01*
X153691799Y-77660451D01*
X153647011Y-77614329D01*
X153597501Y-77563884D01*
X153544391Y-77510227D01*
X153488802Y-77454472D01*
X153431854Y-77397728D01*
X153374668Y-77341108D01*
X153318366Y-77285723D01*
X153264067Y-77232685D01*
X153212893Y-77183106D01*
X153165965Y-77138097D01*
X153124404Y-77098769D01*
X153106491Y-77082052D01*
X152881495Y-76877580D01*
X152651764Y-76677268D01*
X152418473Y-76482058D01*
X152182798Y-76292891D01*
X151945913Y-76110710D01*
X151708994Y-75936457D01*
X151473217Y-75771072D01*
X151457660Y-75760448D01*
X151399156Y-75718285D01*
X151349624Y-75677333D01*
X151308154Y-75636441D01*
X151273836Y-75594457D01*
X151245759Y-75550232D01*
X151223014Y-75502613D01*
X151204690Y-75450452D01*
X151200260Y-75434994D01*
X151193986Y-75403470D01*
X151190018Y-75365123D01*
X151188356Y-75323026D01*
X151188537Y-75311000D01*
X152027165Y-75311000D01*
X152030462Y-75369773D01*
X152040855Y-75422962D01*
X152059100Y-75472920D01*
X152085955Y-75521999D01*
X152103043Y-75547220D01*
X152108211Y-75553010D01*
X152120285Y-75565678D01*
X152138985Y-75584944D01*
X152164032Y-75610530D01*
X152195147Y-75642156D01*
X152232050Y-75679542D01*
X152274462Y-75722409D01*
X152322103Y-75770479D01*
X152374694Y-75823471D01*
X152431955Y-75881106D01*
X152493607Y-75943105D01*
X152559370Y-76009188D01*
X152628965Y-76079077D01*
X152702112Y-76152491D01*
X152778533Y-76229153D01*
X152857947Y-76308781D01*
X152940075Y-76391097D01*
X153024637Y-76475822D01*
X153111355Y-76562676D01*
X153199948Y-76651380D01*
X153290138Y-76741655D01*
X153381644Y-76833221D01*
X153474187Y-76925798D01*
X153567488Y-77019109D01*
X153661268Y-77112872D01*
X153755246Y-77206810D01*
X153849144Y-77300642D01*
X153942681Y-77394089D01*
X154035579Y-77486872D01*
X154127558Y-77578712D01*
X154218339Y-77669329D01*
X154307641Y-77758444D01*
X154395186Y-77845778D01*
X154480694Y-77931051D01*
X154563886Y-78013984D01*
X154644482Y-78094297D01*
X154722202Y-78171712D01*
X154796768Y-78245949D01*
X154867900Y-78316728D01*
X154935318Y-78383771D01*
X154998743Y-78446797D01*
X155057895Y-78505528D01*
X155112495Y-78559685D01*
X155162263Y-78608987D01*
X155206921Y-78653156D01*
X155246188Y-78691913D01*
X155279784Y-78724977D01*
X155307432Y-78752070D01*
X155328851Y-78772912D01*
X155343761Y-78787225D01*
X155351883Y-78794727D01*
X155353132Y-78795735D01*
X155376387Y-78809693D01*
X155404445Y-78824165D01*
X155433604Y-78837420D01*
X155460164Y-78847730D01*
X155472831Y-78851656D01*
X155527589Y-78861686D01*
X155585943Y-78864036D01*
X155644843Y-78858713D01*
X155681680Y-78851216D01*
X155732549Y-78833990D01*
X155782926Y-78808625D01*
X155823920Y-78781101D01*
X155829698Y-78775843D01*
X155842421Y-78763627D01*
X155861853Y-78744687D01*
X155887761Y-78719256D01*
X155919910Y-78687568D01*
X155958065Y-78649856D01*
X156001994Y-78606353D01*
X156051460Y-78557291D01*
X156106231Y-78502906D01*
X156166073Y-78443428D01*
X156230750Y-78379093D01*
X156300029Y-78310133D01*
X156373675Y-78236781D01*
X156451454Y-78159271D01*
X156533133Y-78077835D01*
X156618477Y-77992708D01*
X156707251Y-77904122D01*
X156799221Y-77812310D01*
X156894154Y-77717507D01*
X156991815Y-77619944D01*
X157091969Y-77519855D01*
X157194384Y-77417474D01*
X157298823Y-77313033D01*
X157405054Y-77206767D01*
X157452622Y-77159172D01*
X157581623Y-77030094D01*
X157703648Y-76908008D01*
X157818893Y-76792710D01*
X157927554Y-76683995D01*
X158029828Y-76581660D01*
X158125913Y-76485501D01*
X158216004Y-76395315D01*
X158300298Y-76310897D01*
X158378992Y-76232044D01*
X158452283Y-76158553D01*
X158520366Y-76090218D01*
X158583440Y-76026837D01*
X158641700Y-75968206D01*
X158695343Y-75914120D01*
X158744566Y-75864377D01*
X158789565Y-75818772D01*
X158830537Y-75777102D01*
X158867680Y-75739163D01*
X158901188Y-75704751D01*
X158931259Y-75673662D01*
X158958090Y-75645692D01*
X158981878Y-75620638D01*
X159002818Y-75598297D01*
X159021108Y-75578463D01*
X159036944Y-75560934D01*
X159050523Y-75545506D01*
X159062042Y-75531974D01*
X159071697Y-75520135D01*
X159079685Y-75509786D01*
X159086202Y-75500722D01*
X159091445Y-75492740D01*
X159095612Y-75485636D01*
X159098897Y-75479207D01*
X159101499Y-75473247D01*
X159103614Y-75467554D01*
X159105438Y-75461925D01*
X159107168Y-75456154D01*
X159109000Y-75450038D01*
X159111133Y-75443375D01*
X159112653Y-75438985D01*
X159118533Y-75422117D01*
X159122739Y-75408062D01*
X159125552Y-75394554D01*
X159127250Y-75379325D01*
X159128113Y-75360111D01*
X159128423Y-75334646D01*
X159128460Y-75311000D01*
X159128377Y-75279588D01*
X159127943Y-75256069D01*
X159126877Y-75238179D01*
X159124900Y-75223650D01*
X159121732Y-75210217D01*
X159117093Y-75195614D01*
X159112653Y-75183014D01*
X159110244Y-75175919D01*
X159108253Y-75169496D01*
X159106484Y-75163541D01*
X159104741Y-75157850D01*
X159102826Y-75152219D01*
X159100543Y-75146446D01*
X159097695Y-75140325D01*
X159094085Y-75133654D01*
X159089518Y-75126228D01*
X159083796Y-75117844D01*
X159076722Y-75108298D01*
X159068101Y-75097386D01*
X159057735Y-75084905D01*
X159045427Y-75070650D01*
X159030982Y-75054417D01*
X159014202Y-75036004D01*
X158994891Y-75015206D01*
X158972852Y-74991820D01*
X158947888Y-74965641D01*
X158919803Y-74936466D01*
X158888401Y-74904092D01*
X158853483Y-74868313D01*
X158814855Y-74828928D01*
X158772319Y-74785731D01*
X158725678Y-74738519D01*
X158674736Y-74687089D01*
X158619297Y-74631236D01*
X158559163Y-74570756D01*
X158494138Y-74505447D01*
X158424025Y-74435104D01*
X158348628Y-74359523D01*
X158267750Y-74278501D01*
X158181194Y-74191834D01*
X158088764Y-74099317D01*
X157990263Y-74000748D01*
X157885494Y-73895923D01*
X157774261Y-73784637D01*
X157656367Y-73666687D01*
X157531616Y-73541870D01*
X157452622Y-73462827D01*
X157345672Y-73355826D01*
X157240410Y-73250548D01*
X157137070Y-73147226D01*
X157035886Y-73046093D01*
X156937091Y-72947382D01*
X156840921Y-72851328D01*
X156747610Y-72758162D01*
X156657391Y-72668118D01*
X156570499Y-72581430D01*
X156487168Y-72498330D01*
X156407632Y-72419053D01*
X156332126Y-72343830D01*
X156260884Y-72272896D01*
X156194139Y-72206483D01*
X156132127Y-72144825D01*
X156075081Y-72088155D01*
X156023236Y-72036707D01*
X155976825Y-71990713D01*
X155936084Y-71950406D01*
X155901245Y-71916021D01*
X155872544Y-71887790D01*
X155850215Y-71865946D01*
X155834491Y-71850723D01*
X155825608Y-71842354D01*
X155823920Y-71840898D01*
X155772036Y-71806625D01*
X155718156Y-71781878D01*
X155661049Y-71766242D01*
X155599487Y-71759305D01*
X155580080Y-71758858D01*
X155517301Y-71762763D01*
X155459077Y-71775303D01*
X155403975Y-71796905D01*
X155353132Y-71826264D01*
X155347663Y-71831105D01*
X155335300Y-71842862D01*
X155316323Y-71861255D01*
X155291010Y-71886005D01*
X155259642Y-71916832D01*
X155222497Y-71953458D01*
X155179856Y-71995602D01*
X155131997Y-72042986D01*
X155079201Y-72095330D01*
X155021746Y-72152356D01*
X154959913Y-72213782D01*
X154893980Y-72279331D01*
X154824227Y-72348723D01*
X154750933Y-72421678D01*
X154674379Y-72497918D01*
X154594843Y-72577162D01*
X154512605Y-72659133D01*
X154427945Y-72743549D01*
X154341141Y-72830132D01*
X154252474Y-72918603D01*
X154162222Y-73008682D01*
X154070666Y-73100090D01*
X153978084Y-73192548D01*
X153884757Y-73285775D01*
X153790963Y-73379494D01*
X153696983Y-73473424D01*
X153603095Y-73567287D01*
X153509579Y-73660803D01*
X153416715Y-73753692D01*
X153324781Y-73845675D01*
X153234059Y-73936473D01*
X153144826Y-74025807D01*
X153057362Y-74113397D01*
X152971947Y-74198965D01*
X152888861Y-74282229D01*
X152808382Y-74362912D01*
X152730791Y-74440734D01*
X152656367Y-74515416D01*
X152585388Y-74586678D01*
X152518135Y-74654241D01*
X152454888Y-74717825D01*
X152395925Y-74777152D01*
X152341526Y-74831942D01*
X152291970Y-74881915D01*
X152247538Y-74926793D01*
X152208508Y-74966295D01*
X152175160Y-75000144D01*
X152147773Y-75028058D01*
X152126628Y-75049760D01*
X152112002Y-75064969D01*
X152104176Y-75073407D01*
X152103043Y-75074780D01*
X152071550Y-75124310D01*
X152049048Y-75173529D01*
X152034780Y-75224791D01*
X152027992Y-75280448D01*
X152027165Y-75311000D01*
X151188537Y-75311000D01*
X151189000Y-75280251D01*
X151191951Y-75239871D01*
X151197207Y-75204957D01*
X151200260Y-75192085D01*
X151224098Y-75122811D01*
X151255907Y-75059635D01*
X151295554Y-75002789D01*
X151328416Y-74966372D01*
X151343018Y-74952970D01*
X151364077Y-74935225D01*
X151389730Y-74914627D01*
X151418113Y-74892666D01*
X151447364Y-74870833D01*
X151453163Y-74866606D01*
X151778244Y-74624580D01*
X152097088Y-74374878D01*
X152409483Y-74117709D01*
X152715219Y-73853286D01*
X153014085Y-73581818D01*
X153305870Y-73303517D01*
X153590363Y-73018593D01*
X153867353Y-72727257D01*
X154136629Y-72429720D01*
X154397980Y-72126191D01*
X154651195Y-71816882D01*
X154896064Y-71502004D01*
X155107334Y-71216520D01*
X155130889Y-71184372D01*
X155154448Y-71153033D01*
X155176812Y-71124037D01*
X155196784Y-71098917D01*
X155213164Y-71079209D01*
X155223716Y-71067499D01*
X155275594Y-71021117D01*
X155332005Y-70983330D01*
X155392040Y-70954157D01*
X155454786Y-70933616D01*
X155519332Y-70921725D01*
X155584767Y-70918503D01*
X155650179Y-70923968D01*
G04 #@! TO.C,U3*
D11*
X184216457Y-130012485D02*
X185187885Y-130012485D01*
X185302171Y-129955342D01*
X185359314Y-129898200D01*
X185416457Y-129783914D01*
X185416457Y-129555342D01*
X185359314Y-129441057D01*
X185302171Y-129383914D01*
X185187885Y-129326771D01*
X184216457Y-129326771D01*
X184216457Y-128869628D02*
X184216457Y-128126771D01*
X184673600Y-128526771D01*
X184673600Y-128355342D01*
X184730742Y-128241057D01*
X184787885Y-128183914D01*
X184902171Y-128126771D01*
X185187885Y-128126771D01*
X185302171Y-128183914D01*
X185359314Y-128241057D01*
X185416457Y-128355342D01*
X185416457Y-128698200D01*
X185359314Y-128812485D01*
X185302171Y-128869628D01*
G04 #@! TO.C,U4*
D17*
X197750476Y-106083304D02*
X197750476Y-107410923D01*
X197828571Y-107567114D01*
X197906666Y-107645209D01*
X198062857Y-107723304D01*
X198375238Y-107723304D01*
X198531428Y-107645209D01*
X198609523Y-107567114D01*
X198687619Y-107410923D01*
X198687619Y-106083304D01*
X200171428Y-106629971D02*
X200171428Y-107723304D01*
X199780952Y-106005209D02*
X199390476Y-107176638D01*
X200405714Y-107176638D01*
X201008047Y-105262904D02*
X201008047Y-103622904D01*
X201945190Y-105262904D01*
X201945190Y-103622904D01*
X202726142Y-103622904D02*
X202726142Y-104950523D01*
X202804238Y-105106714D01*
X202882333Y-105184809D01*
X203038523Y-105262904D01*
X203350904Y-105262904D01*
X203507095Y-105184809D01*
X203585190Y-105106714D01*
X203663285Y-104950523D01*
X203663285Y-103622904D01*
X204444238Y-105262904D02*
X204444238Y-103622904D01*
X204834714Y-103622904D01*
X205069000Y-103701000D01*
X205225190Y-103857190D01*
X205303285Y-104013380D01*
X205381380Y-104325761D01*
X205381380Y-104560047D01*
X205303285Y-104872428D01*
X205225190Y-105028619D01*
X205069000Y-105184809D01*
X204834714Y-105262904D01*
X204444238Y-105262904D01*
X205928047Y-103622904D02*
X206943285Y-103622904D01*
X206396619Y-104247666D01*
X206630904Y-104247666D01*
X206787095Y-104325761D01*
X206865190Y-104403857D01*
X206943285Y-104560047D01*
X206943285Y-104950523D01*
X206865190Y-105106714D01*
X206787095Y-105184809D01*
X206630904Y-105262904D01*
X206162333Y-105262904D01*
X206006142Y-105184809D01*
X205928047Y-105106714D01*
X208505190Y-105262904D02*
X207568047Y-105262904D01*
X208036619Y-105262904D02*
X208036619Y-103622904D01*
X207880428Y-103857190D01*
X207724238Y-104013380D01*
X207568047Y-104091476D01*
X210067095Y-105262904D02*
X209129952Y-105262904D01*
X209598523Y-105262904D02*
X209598523Y-103622904D01*
X209442333Y-103857190D01*
X209286142Y-104013380D01*
X209129952Y-104091476D01*
X210691857Y-103779095D02*
X210769952Y-103701000D01*
X210926142Y-103622904D01*
X211316619Y-103622904D01*
X211472809Y-103701000D01*
X211550904Y-103779095D01*
X211629000Y-103935285D01*
X211629000Y-104091476D01*
X211550904Y-104325761D01*
X210613761Y-105262904D01*
X211629000Y-105262904D01*
X213112809Y-105262904D02*
X212331857Y-105262904D01*
X212331857Y-103622904D01*
X213425190Y-103622904D02*
X214362333Y-103622904D01*
X213893761Y-105262904D02*
X213893761Y-103622904D01*
X215768047Y-105262904D02*
X214830904Y-105262904D01*
X215299476Y-105262904D02*
X215299476Y-103622904D01*
X215143285Y-103857190D01*
X214987095Y-104013380D01*
X214830904Y-104091476D01*
X217329952Y-103701000D02*
X217173761Y-103622904D01*
X216939476Y-103622904D01*
X216705190Y-103701000D01*
X216549000Y-103857190D01*
X216470904Y-104013380D01*
X216392809Y-104325761D01*
X216392809Y-104560047D01*
X216470904Y-104872428D01*
X216549000Y-105028619D01*
X216705190Y-105184809D01*
X216939476Y-105262904D01*
X217095666Y-105262904D01*
X217329952Y-105184809D01*
X217408047Y-105106714D01*
X217408047Y-104560047D01*
X217095666Y-104560047D01*
X200582800Y-104223980D02*
X200582800Y-104462076D01*
X200344704Y-104366838D02*
X200582800Y-104462076D01*
X200820895Y-104366838D01*
X200439942Y-104652552D02*
X200582800Y-104462076D01*
X200725657Y-104652552D01*
G04 #@! TO.C,R1*
D11*
X178302380Y-120766666D02*
X177826190Y-121100000D01*
X178302380Y-121338095D02*
X177302380Y-121338095D01*
X177302380Y-120957142D01*
X177350000Y-120861904D01*
X177397619Y-120814285D01*
X177492857Y-120766666D01*
X177635714Y-120766666D01*
X177730952Y-120814285D01*
X177778571Y-120861904D01*
X177826190Y-120957142D01*
X177826190Y-121338095D01*
X178302380Y-119814285D02*
X178302380Y-120385714D01*
X178302380Y-120100000D02*
X177302380Y-120100000D01*
X177445238Y-120195238D01*
X177540476Y-120290476D01*
X177588095Y-120385714D01*
G04 #@! TO.C,J1*
X144613380Y-95329333D02*
X145327666Y-95329333D01*
X145470523Y-95376952D01*
X145565761Y-95472190D01*
X145613380Y-95615047D01*
X145613380Y-95710285D01*
X145613380Y-94329333D02*
X145613380Y-94900761D01*
X145613380Y-94615047D02*
X144613380Y-94615047D01*
X144756238Y-94710285D01*
X144851476Y-94805523D01*
X144899095Y-94900761D01*
G04 #@! TO.C,C1*
X169695833Y-124907142D02*
X169648214Y-124954761D01*
X169505357Y-125002380D01*
X169410119Y-125002380D01*
X169267261Y-124954761D01*
X169172023Y-124859523D01*
X169124404Y-124764285D01*
X169076785Y-124573809D01*
X169076785Y-124430952D01*
X169124404Y-124240476D01*
X169172023Y-124145238D01*
X169267261Y-124050000D01*
X169410119Y-124002380D01*
X169505357Y-124002380D01*
X169648214Y-124050000D01*
X169695833Y-124097619D01*
X170648214Y-125002380D02*
X170076785Y-125002380D01*
X170362500Y-125002380D02*
X170362500Y-124002380D01*
X170267261Y-124145238D01*
X170172023Y-124240476D01*
X170076785Y-124288095D01*
G04 #@! TO.C,C2*
X170790142Y-110451166D02*
X170837761Y-110498785D01*
X170885380Y-110641642D01*
X170885380Y-110736880D01*
X170837761Y-110879738D01*
X170742523Y-110974976D01*
X170647285Y-111022595D01*
X170456809Y-111070214D01*
X170313952Y-111070214D01*
X170123476Y-111022595D01*
X170028238Y-110974976D01*
X169933000Y-110879738D01*
X169885380Y-110736880D01*
X169885380Y-110641642D01*
X169933000Y-110498785D01*
X169980619Y-110451166D01*
X169980619Y-110070214D02*
X169933000Y-110022595D01*
X169885380Y-109927357D01*
X169885380Y-109689261D01*
X169933000Y-109594023D01*
X169980619Y-109546404D01*
X170075857Y-109498785D01*
X170171095Y-109498785D01*
X170313952Y-109546404D01*
X170885380Y-110117833D01*
X170885380Y-109498785D01*
G04 #@! TO.C,C3*
X162033333Y-120407142D02*
X161985714Y-120454761D01*
X161842857Y-120502380D01*
X161747619Y-120502380D01*
X161604761Y-120454761D01*
X161509523Y-120359523D01*
X161461904Y-120264285D01*
X161414285Y-120073809D01*
X161414285Y-119930952D01*
X161461904Y-119740476D01*
X161509523Y-119645238D01*
X161604761Y-119550000D01*
X161747619Y-119502380D01*
X161842857Y-119502380D01*
X161985714Y-119550000D01*
X162033333Y-119597619D01*
X162366666Y-119502380D02*
X162985714Y-119502380D01*
X162652380Y-119883333D01*
X162795238Y-119883333D01*
X162890476Y-119930952D01*
X162938095Y-119978571D01*
X162985714Y-120073809D01*
X162985714Y-120311904D01*
X162938095Y-120407142D01*
X162890476Y-120454761D01*
X162795238Y-120502380D01*
X162509523Y-120502380D01*
X162414285Y-120454761D01*
X162366666Y-120407142D01*
G04 #@! TO.C,C4*
X161885333Y-126595142D02*
X161837714Y-126642761D01*
X161694857Y-126690380D01*
X161599619Y-126690380D01*
X161456761Y-126642761D01*
X161361523Y-126547523D01*
X161313904Y-126452285D01*
X161266285Y-126261809D01*
X161266285Y-126118952D01*
X161313904Y-125928476D01*
X161361523Y-125833238D01*
X161456761Y-125738000D01*
X161599619Y-125690380D01*
X161694857Y-125690380D01*
X161837714Y-125738000D01*
X161885333Y-125785619D01*
X162742476Y-126023714D02*
X162742476Y-126690380D01*
X162504380Y-125642761D02*
X162266285Y-126357047D01*
X162885333Y-126357047D01*
G04 #@! TO.C,D1*
X167652380Y-111138095D02*
X166652380Y-111138095D01*
X166652380Y-110900000D01*
X166700000Y-110757142D01*
X166795238Y-110661904D01*
X166890476Y-110614285D01*
X167080952Y-110566666D01*
X167223809Y-110566666D01*
X167414285Y-110614285D01*
X167509523Y-110661904D01*
X167604761Y-110757142D01*
X167652380Y-110900000D01*
X167652380Y-111138095D01*
X167652380Y-109614285D02*
X167652380Y-110185714D01*
X167652380Y-109900000D02*
X166652380Y-109900000D01*
X166795238Y-109995238D01*
X166890476Y-110090476D01*
X166938095Y-110185714D01*
G04 #@! TO.C,D2*
X247229028Y-119252331D02*
X247229028Y-118252331D01*
X247467124Y-118252331D01*
X247609981Y-118299951D01*
X247705219Y-118395189D01*
X247752838Y-118490427D01*
X247800457Y-118680903D01*
X247800457Y-118823760D01*
X247752838Y-119014236D01*
X247705219Y-119109474D01*
X247609981Y-119204712D01*
X247467124Y-119252331D01*
X247229028Y-119252331D01*
X248181409Y-118347570D02*
X248229028Y-118299951D01*
X248324266Y-118252331D01*
X248562362Y-118252331D01*
X248657600Y-118299951D01*
X248705219Y-118347570D01*
X248752838Y-118442808D01*
X248752838Y-118538046D01*
X248705219Y-118680903D01*
X248133790Y-119252331D01*
X248752838Y-119252331D01*
G04 #@! TO.C,J2*
D17*
X219376615Y-107645616D02*
X220319508Y-107645616D01*
X220508086Y-107708476D01*
X220633805Y-107834195D01*
X220696665Y-108022773D01*
X220696665Y-108148492D01*
X219502334Y-107079880D02*
X219439475Y-107017021D01*
X219376615Y-106891302D01*
X219376615Y-106577004D01*
X219439475Y-106451285D01*
X219502334Y-106388426D01*
X219628053Y-106325566D01*
X219753772Y-106325566D01*
X219942351Y-106388426D01*
X220696665Y-107142740D01*
X220696665Y-106325566D01*
X255010857Y-115312285D02*
X255073811Y-115375240D01*
X255136765Y-115564102D01*
X255136765Y-115690011D01*
X255073811Y-115878874D01*
X254947902Y-116004782D01*
X254821994Y-116067737D01*
X254570177Y-116130691D01*
X254381314Y-116130691D01*
X254129497Y-116067737D01*
X254003588Y-116004782D01*
X253877680Y-115878874D01*
X253814725Y-115690011D01*
X253814725Y-115564102D01*
X253877680Y-115375240D01*
X253940634Y-115312285D01*
X255136765Y-114556834D02*
X255073811Y-114682742D01*
X255010857Y-114745697D01*
X254884948Y-114808651D01*
X254507222Y-114808651D01*
X254381314Y-114745697D01*
X254318360Y-114682742D01*
X254255405Y-114556834D01*
X254255405Y-114367971D01*
X254318360Y-114242062D01*
X254381314Y-114179108D01*
X254507222Y-114116154D01*
X254884948Y-114116154D01*
X255010857Y-114179108D01*
X255073811Y-114242062D01*
X255136765Y-114367971D01*
X255136765Y-114556834D01*
X254255405Y-113549565D02*
X255136765Y-113549565D01*
X254381314Y-113549565D02*
X254318360Y-113486611D01*
X254255405Y-113360702D01*
X254255405Y-113171840D01*
X254318360Y-113045931D01*
X254444268Y-112982977D01*
X255136765Y-112982977D01*
X254255405Y-112353434D02*
X255136765Y-112353434D01*
X254381314Y-112353434D02*
X254318360Y-112290480D01*
X254255405Y-112164571D01*
X254255405Y-111975708D01*
X254318360Y-111849800D01*
X254444268Y-111786845D01*
X255136765Y-111786845D01*
X255262674Y-111472074D02*
X255262674Y-110464805D01*
X253814725Y-109898217D02*
X253814725Y-109772308D01*
X253877680Y-109646400D01*
X253940634Y-109583445D01*
X254066542Y-109520491D01*
X254318360Y-109457537D01*
X254633131Y-109457537D01*
X254884948Y-109520491D01*
X255010857Y-109583445D01*
X255073811Y-109646400D01*
X255136765Y-109772308D01*
X255136765Y-109898217D01*
X255073811Y-110024125D01*
X255010857Y-110087080D01*
X254884948Y-110150034D01*
X254633131Y-110212988D01*
X254318360Y-110212988D01*
X254066542Y-110150034D01*
X253940634Y-110087080D01*
X253877680Y-110024125D01*
X253814725Y-109898217D01*
X255136765Y-108198451D02*
X255136765Y-108953902D01*
X255136765Y-108576177D02*
X253814725Y-108576177D01*
X254003588Y-108702085D01*
X254129497Y-108827994D01*
X254192451Y-108953902D01*
X255136765Y-107757771D02*
X254255405Y-107065274D01*
X254255405Y-107757771D02*
X255136765Y-107065274D01*
X253814725Y-106309822D02*
X253814725Y-106183914D01*
X253877680Y-106058005D01*
X253940634Y-105995051D01*
X254066542Y-105932097D01*
X254318360Y-105869142D01*
X254633131Y-105869142D01*
X254884948Y-105932097D01*
X255010857Y-105995051D01*
X255073811Y-106058005D01*
X255136765Y-106183914D01*
X255136765Y-106309822D01*
X255073811Y-106435731D01*
X255010857Y-106498685D01*
X254884948Y-106561640D01*
X254633131Y-106624594D01*
X254318360Y-106624594D01*
X254066542Y-106561640D01*
X253940634Y-106498685D01*
X253877680Y-106435731D01*
X253814725Y-106309822D01*
X253814725Y-105428462D02*
X253814725Y-104610057D01*
X254318360Y-105050737D01*
X254318360Y-104861874D01*
X254381314Y-104735965D01*
X254444268Y-104673011D01*
X254570177Y-104610057D01*
X254884948Y-104610057D01*
X255010857Y-104673011D01*
X255073811Y-104735965D01*
X255136765Y-104861874D01*
X255136765Y-105239600D01*
X255073811Y-105365508D01*
X255010857Y-105428462D01*
X255262674Y-104358240D02*
X255262674Y-103350971D01*
X254444268Y-102595520D02*
X254444268Y-103036200D01*
X255136765Y-103036200D02*
X253814725Y-103036200D01*
X253814725Y-102406657D01*
X255073811Y-101399388D02*
X255136765Y-101525297D01*
X255136765Y-101777114D01*
X255073811Y-101903022D01*
X254947902Y-101965977D01*
X254444268Y-101965977D01*
X254318360Y-101903022D01*
X254255405Y-101777114D01*
X254255405Y-101525297D01*
X254318360Y-101399388D01*
X254444268Y-101336434D01*
X254570177Y-101336434D01*
X254696085Y-101965977D01*
X255136765Y-100769845D02*
X254255405Y-100769845D01*
X254381314Y-100769845D02*
X254318360Y-100706891D01*
X254255405Y-100580982D01*
X254255405Y-100392120D01*
X254318360Y-100266211D01*
X254444268Y-100203257D01*
X255136765Y-100203257D01*
X254444268Y-100203257D02*
X254318360Y-100140302D01*
X254255405Y-100014394D01*
X254255405Y-99825531D01*
X254318360Y-99699622D01*
X254444268Y-99636668D01*
X255136765Y-99636668D01*
X255136765Y-98440537D02*
X254444268Y-98440537D01*
X254318360Y-98503491D01*
X254255405Y-98629400D01*
X254255405Y-98881217D01*
X254318360Y-99007125D01*
X255073811Y-98440537D02*
X255136765Y-98566445D01*
X255136765Y-98881217D01*
X255073811Y-99007125D01*
X254947902Y-99070080D01*
X254821994Y-99070080D01*
X254696085Y-99007125D01*
X254633131Y-98881217D01*
X254633131Y-98566445D01*
X254570177Y-98440537D01*
X255136765Y-97622131D02*
X255073811Y-97748040D01*
X254947902Y-97810994D01*
X253814725Y-97810994D01*
X255073811Y-96614862D02*
X255136765Y-96740771D01*
X255136765Y-96992588D01*
X255073811Y-97118497D01*
X254947902Y-97181451D01*
X254444268Y-97181451D01*
X254318360Y-97118497D01*
X254255405Y-96992588D01*
X254255405Y-96740771D01*
X254318360Y-96614862D01*
X254444268Y-96551908D01*
X254570177Y-96551908D01*
X254696085Y-97181451D01*
G04 #@! TO.C,K1*
X201699565Y-87828589D02*
X201699565Y-86828129D01*
X202271256Y-87828589D02*
X201842488Y-87256897D01*
X202271256Y-86828129D02*
X201699565Y-87399820D01*
X203224075Y-87828589D02*
X202652384Y-87828589D01*
X202938230Y-87828589D02*
X202938230Y-86828129D01*
X202842948Y-86971051D01*
X202747666Y-87066333D01*
X202652384Y-87113974D01*
X200490782Y-99034691D02*
X200967329Y-99034691D01*
X200395472Y-99320620D02*
X200729055Y-98319870D01*
X201062639Y-99320620D01*
X201872770Y-99320620D02*
X201396222Y-99320620D01*
X201396222Y-98319870D01*
X202158698Y-99034691D02*
X202635246Y-99034691D01*
X202063389Y-99320620D02*
X202396972Y-98319870D01*
X202730555Y-99320620D01*
X203016484Y-98415179D02*
X203064139Y-98367525D01*
X203159448Y-98319870D01*
X203397722Y-98319870D01*
X203493032Y-98367525D01*
X203540686Y-98415179D01*
X203588341Y-98510489D01*
X203588341Y-98605798D01*
X203540686Y-98748763D01*
X202968829Y-99320620D01*
X203588341Y-99320620D01*
X204350817Y-98796417D02*
X204017234Y-98796417D01*
X204017234Y-99320620D02*
X204017234Y-98319870D01*
X204493782Y-98319870D01*
X205399222Y-99320620D02*
X204827365Y-99320620D01*
X205113294Y-99320620D02*
X205113294Y-98319870D01*
X205017984Y-98462834D01*
X204922675Y-98558144D01*
X204827365Y-98605798D01*
X205780460Y-98415179D02*
X205828115Y-98367525D01*
X205923425Y-98319870D01*
X206161698Y-98319870D01*
X206257008Y-98367525D01*
X206304663Y-98415179D01*
X206352317Y-98510489D01*
X206352317Y-98605798D01*
X206304663Y-98748763D01*
X205732805Y-99320620D01*
X206352317Y-99320620D01*
G04 #@! TO.C,L1*
X145867539Y-113677005D02*
X145867539Y-114153362D01*
X144867189Y-114153362D01*
X145867539Y-112819562D02*
X145867539Y-113391190D01*
X145867539Y-113105376D02*
X144867189Y-113105376D01*
X145010096Y-113200647D01*
X145105367Y-113295919D01*
X145153003Y-113391190D01*
X160868515Y-114153487D02*
X160868515Y-114344265D01*
X160916210Y-114439653D01*
X160963904Y-114487347D01*
X161106987Y-114582736D01*
X161297764Y-114630430D01*
X161679318Y-114630430D01*
X161774707Y-114582736D01*
X161822401Y-114535042D01*
X161870095Y-114439653D01*
X161870095Y-114248876D01*
X161822401Y-114153487D01*
X161774707Y-114105793D01*
X161679318Y-114058099D01*
X161440847Y-114058099D01*
X161345458Y-114105793D01*
X161297764Y-114153487D01*
X161250070Y-114248876D01*
X161250070Y-114439653D01*
X161297764Y-114535042D01*
X161345458Y-114582736D01*
X161440847Y-114630430D01*
X161774707Y-113628850D02*
X161822401Y-113581156D01*
X161870095Y-113628850D01*
X161822401Y-113676545D01*
X161774707Y-113628850D01*
X161870095Y-113628850D01*
X161297764Y-113008825D02*
X161250070Y-113104213D01*
X161202375Y-113151907D01*
X161106987Y-113199602D01*
X161059292Y-113199602D01*
X160963904Y-113151907D01*
X160916210Y-113104213D01*
X160868515Y-113008825D01*
X160868515Y-112818047D01*
X160916210Y-112722659D01*
X160963904Y-112674965D01*
X161059292Y-112627270D01*
X161106987Y-112627270D01*
X161202375Y-112674965D01*
X161250070Y-112722659D01*
X161297764Y-112818047D01*
X161297764Y-113008825D01*
X161345458Y-113104213D01*
X161393152Y-113151907D01*
X161488541Y-113199602D01*
X161679318Y-113199602D01*
X161774707Y-113151907D01*
X161822401Y-113104213D01*
X161870095Y-113008825D01*
X161870095Y-112818047D01*
X161822401Y-112722659D01*
X161774707Y-112674965D01*
X161679318Y-112627270D01*
X161488541Y-112627270D01*
X161393152Y-112674965D01*
X161345458Y-112722659D01*
X161297764Y-112818047D01*
X161202375Y-111768773D02*
X161870095Y-111768773D01*
X161202375Y-112198022D02*
X161727012Y-112198022D01*
X161822401Y-112150327D01*
X161870095Y-112054939D01*
X161870095Y-111911856D01*
X161822401Y-111816467D01*
X161774707Y-111768773D01*
G04 #@! TO.C,R2*
D11*
X251900457Y-116072331D02*
X251567124Y-115596141D01*
X251329028Y-116072331D02*
X251329028Y-115072331D01*
X251709981Y-115072331D01*
X251805219Y-115119951D01*
X251852838Y-115167570D01*
X251900457Y-115262808D01*
X251900457Y-115405665D01*
X251852838Y-115500903D01*
X251805219Y-115548522D01*
X251709981Y-115596141D01*
X251329028Y-115596141D01*
X252281409Y-115167570D02*
X252329028Y-115119951D01*
X252424266Y-115072331D01*
X252662362Y-115072331D01*
X252757600Y-115119951D01*
X252805219Y-115167570D01*
X252852838Y-115262808D01*
X252852838Y-115358046D01*
X252805219Y-115500903D01*
X252233790Y-116072331D01*
X252852838Y-116072331D01*
G04 #@! TO.C,U1*
D17*
X159579223Y-78761120D02*
X159579223Y-79895951D01*
X159645978Y-80029460D01*
X159712733Y-80096215D01*
X159846242Y-80162970D01*
X160113261Y-80162970D01*
X160246771Y-80096215D01*
X160313526Y-80029460D01*
X160380280Y-79895951D01*
X160380280Y-78761120D01*
X161782130Y-80162970D02*
X160981073Y-80162970D01*
X161381602Y-80162970D02*
X161381602Y-78761120D01*
X161248092Y-78961384D01*
X161114583Y-79094894D01*
X160981073Y-79161648D01*
X164060193Y-103123043D02*
X163593003Y-102455629D01*
X163259296Y-103123043D02*
X163259296Y-101721473D01*
X163793227Y-101721473D01*
X163926710Y-101788215D01*
X163993452Y-101854956D01*
X164060193Y-101988439D01*
X164060193Y-102188663D01*
X163993452Y-102322146D01*
X163926710Y-102388887D01*
X163793227Y-102455629D01*
X163259296Y-102455629D01*
X164594125Y-102722595D02*
X165261539Y-102722595D01*
X164460642Y-103123043D02*
X164927832Y-101721473D01*
X165395022Y-103123043D01*
X166663109Y-102989560D02*
X166596367Y-103056302D01*
X166396143Y-103123043D01*
X166262660Y-103123043D01*
X166062436Y-103056302D01*
X165928953Y-102922819D01*
X165862212Y-102789336D01*
X165795470Y-102522370D01*
X165795470Y-102322146D01*
X165862212Y-102055180D01*
X165928953Y-101921697D01*
X166062436Y-101788215D01*
X166262660Y-101721473D01*
X166396143Y-101721473D01*
X166596367Y-101788215D01*
X166663109Y-101854956D01*
X167530747Y-101721473D02*
X167664230Y-101721473D01*
X167797713Y-101788215D01*
X167864455Y-101854956D01*
X167931196Y-101988439D01*
X167997937Y-102255405D01*
X167997937Y-102589112D01*
X167931196Y-102856077D01*
X167864455Y-102989560D01*
X167797713Y-103056302D01*
X167664230Y-103123043D01*
X167530747Y-103123043D01*
X167397265Y-103056302D01*
X167330523Y-102989560D01*
X167263782Y-102856077D01*
X167197040Y-102589112D01*
X167197040Y-102255405D01*
X167263782Y-101988439D01*
X167330523Y-101854956D01*
X167397265Y-101788215D01*
X167530747Y-101721473D01*
X169332766Y-103123043D02*
X168531869Y-103123043D01*
X168932317Y-103123043D02*
X168932317Y-101721473D01*
X168798835Y-101921697D01*
X168665352Y-102055180D01*
X168531869Y-102121922D01*
X169933439Y-102589112D02*
X171001302Y-102589112D01*
X171935682Y-101721473D02*
X172069165Y-101721473D01*
X172202647Y-101788215D01*
X172269389Y-101854956D01*
X172336130Y-101988439D01*
X172402872Y-102255405D01*
X172402872Y-102589112D01*
X172336130Y-102856077D01*
X172269389Y-102989560D01*
X172202647Y-103056302D01*
X172069165Y-103123043D01*
X171935682Y-103123043D01*
X171802199Y-103056302D01*
X171735457Y-102989560D01*
X171668716Y-102856077D01*
X171601975Y-102589112D01*
X171601975Y-102255405D01*
X171668716Y-101988439D01*
X171735457Y-101854956D01*
X171802199Y-101788215D01*
X171935682Y-101721473D01*
X173670959Y-101721473D02*
X173003545Y-101721473D01*
X172936803Y-102388887D01*
X173003545Y-102322146D01*
X173137027Y-102255405D01*
X173470735Y-102255405D01*
X173604217Y-102322146D01*
X173670959Y-102388887D01*
X173737700Y-102522370D01*
X173737700Y-102856077D01*
X173670959Y-102989560D01*
X173604217Y-103056302D01*
X173470735Y-103123043D01*
X173137027Y-103123043D01*
X173003545Y-103056302D01*
X172936803Y-102989560D01*
X174271632Y-103056302D02*
X174471856Y-103123043D01*
X174805563Y-103123043D01*
X174939046Y-103056302D01*
X175005787Y-102989560D01*
X175072529Y-102856077D01*
X175072529Y-102722595D01*
X175005787Y-102589112D01*
X174939046Y-102522370D01*
X174805563Y-102455629D01*
X174538597Y-102388887D01*
X174405115Y-102322146D01*
X174338373Y-102255405D01*
X174271632Y-102121922D01*
X174271632Y-101988439D01*
X174338373Y-101854956D01*
X174405115Y-101788215D01*
X174538597Y-101721473D01*
X174872305Y-101721473D01*
X175072529Y-101788215D01*
X176407357Y-101788215D02*
X176273875Y-101721473D01*
X176073650Y-101721473D01*
X175873426Y-101788215D01*
X175739943Y-101921697D01*
X175673202Y-102055180D01*
X175606460Y-102322146D01*
X175606460Y-102522370D01*
X175673202Y-102789336D01*
X175739943Y-102922819D01*
X175873426Y-103056302D01*
X176073650Y-103123043D01*
X176207133Y-103123043D01*
X176407357Y-103056302D01*
X176474099Y-102989560D01*
X176474099Y-102522370D01*
X176207133Y-102522370D01*
X177008030Y-102722595D02*
X177675445Y-102722595D01*
X176874547Y-103123043D02*
X177341737Y-101721473D01*
X177808927Y-103123043D01*
G04 #@! TO.C,U2*
X171029380Y-112648904D02*
X171838904Y-112648904D01*
X171934142Y-112601285D01*
X171981761Y-112553666D01*
X172029380Y-112458428D01*
X172029380Y-112267952D01*
X171981761Y-112172714D01*
X171934142Y-112125095D01*
X171838904Y-112077476D01*
X171029380Y-112077476D01*
X171124619Y-111648904D02*
X171077000Y-111601285D01*
X171029380Y-111506047D01*
X171029380Y-111267952D01*
X171077000Y-111172714D01*
X171124619Y-111125095D01*
X171219857Y-111077476D01*
X171315095Y-111077476D01*
X171457952Y-111125095D01*
X172029380Y-111696523D01*
X172029380Y-111077476D01*
X179871666Y-118434380D02*
X179871666Y-117958190D01*
X180157380Y-118529619D02*
X179157380Y-118196285D01*
X180157380Y-117862952D01*
X180157380Y-117529619D02*
X179157380Y-117529619D01*
X179157380Y-117291523D01*
X179205000Y-117148666D01*
X179300238Y-117053428D01*
X179395476Y-117005809D01*
X179585952Y-116958190D01*
X179728809Y-116958190D01*
X179919285Y-117005809D01*
X180014523Y-117053428D01*
X180109761Y-117148666D01*
X180157380Y-117291523D01*
X180157380Y-117529619D01*
X180157380Y-116529619D02*
X179157380Y-116529619D01*
X179157380Y-116148666D01*
X179205000Y-116053428D01*
X179252619Y-116005809D01*
X179347857Y-115958190D01*
X179490714Y-115958190D01*
X179585952Y-116005809D01*
X179633571Y-116053428D01*
X179681190Y-116148666D01*
X179681190Y-116529619D01*
X179252619Y-115577238D02*
X179205000Y-115529619D01*
X179157380Y-115434380D01*
X179157380Y-115196285D01*
X179205000Y-115101047D01*
X179252619Y-115053428D01*
X179347857Y-115005809D01*
X179443095Y-115005809D01*
X179585952Y-115053428D01*
X180157380Y-115624857D01*
X180157380Y-115005809D01*
X179157380Y-114672476D02*
X179157380Y-114053428D01*
X179538333Y-114386761D01*
X179538333Y-114243904D01*
X179585952Y-114148666D01*
X179633571Y-114101047D01*
X179728809Y-114053428D01*
X179966904Y-114053428D01*
X180062142Y-114101047D01*
X180109761Y-114148666D01*
X180157380Y-114243904D01*
X180157380Y-114529619D01*
X180109761Y-114624857D01*
X180062142Y-114672476D01*
X179157380Y-113434380D02*
X179157380Y-113339142D01*
X179205000Y-113243904D01*
X179252619Y-113196285D01*
X179347857Y-113148666D01*
X179538333Y-113101047D01*
X179776428Y-113101047D01*
X179966904Y-113148666D01*
X180062142Y-113196285D01*
X180109761Y-113243904D01*
X180157380Y-113339142D01*
X180157380Y-113434380D01*
X180109761Y-113529619D01*
X180062142Y-113577238D01*
X179966904Y-113624857D01*
X179776428Y-113672476D01*
X179538333Y-113672476D01*
X179347857Y-113624857D01*
X179252619Y-113577238D01*
X179205000Y-113529619D01*
X179157380Y-113434380D01*
X179252619Y-112720095D02*
X179205000Y-112672476D01*
X179157380Y-112577238D01*
X179157380Y-112339142D01*
X179205000Y-112243904D01*
X179252619Y-112196285D01*
X179347857Y-112148666D01*
X179443095Y-112148666D01*
X179585952Y-112196285D01*
X180157380Y-112767714D01*
X180157380Y-112148666D01*
X179871666Y-111767714D02*
X179871666Y-111291523D01*
X180157380Y-111862952D02*
X179157380Y-111529619D01*
X180157380Y-111196285D01*
X180157380Y-110291523D02*
X179681190Y-110624857D01*
X180157380Y-110862952D02*
X179157380Y-110862952D01*
X179157380Y-110482000D01*
X179205000Y-110386761D01*
X179252619Y-110339142D01*
X179347857Y-110291523D01*
X179490714Y-110291523D01*
X179585952Y-110339142D01*
X179633571Y-110386761D01*
X179681190Y-110482000D01*
X179681190Y-110862952D01*
X180157380Y-109862952D02*
X179157380Y-109862952D01*
X179157380Y-109624857D01*
X179205000Y-109482000D01*
X179300238Y-109386761D01*
X179395476Y-109339142D01*
X179585952Y-109291523D01*
X179728809Y-109291523D01*
X179919285Y-109339142D01*
X180014523Y-109386761D01*
X180109761Y-109482000D01*
X180157380Y-109624857D01*
X180157380Y-109862952D01*
X179157380Y-108958190D02*
X179157380Y-108291523D01*
X180157380Y-108958190D01*
X180157380Y-108291523D01*
X179776428Y-107910571D02*
X179776428Y-107148666D01*
X179157380Y-106196285D02*
X179157380Y-106672476D01*
X179633571Y-106720095D01*
X179585952Y-106672476D01*
X179538333Y-106577238D01*
X179538333Y-106339142D01*
X179585952Y-106243904D01*
X179633571Y-106196285D01*
X179728809Y-106148666D01*
X179966904Y-106148666D01*
X180062142Y-106196285D01*
X180109761Y-106243904D01*
X180157380Y-106339142D01*
X180157380Y-106577238D01*
X180109761Y-106672476D01*
X180062142Y-106720095D01*
X180062142Y-105720095D02*
X180109761Y-105672476D01*
X180157380Y-105720095D01*
X180109761Y-105767714D01*
X180062142Y-105720095D01*
X180157380Y-105720095D01*
X179157380Y-105053428D02*
X179157380Y-104958190D01*
X179205000Y-104862952D01*
X179252619Y-104815333D01*
X179347857Y-104767714D01*
X179538333Y-104720095D01*
X179776428Y-104720095D01*
X179966904Y-104767714D01*
X180062142Y-104815333D01*
X180109761Y-104862952D01*
X180157380Y-104958190D01*
X180157380Y-105053428D01*
X180109761Y-105148666D01*
X180062142Y-105196285D01*
X179966904Y-105243904D01*
X179776428Y-105291523D01*
X179538333Y-105291523D01*
X179347857Y-105243904D01*
X179252619Y-105196285D01*
X179205000Y-105148666D01*
X179157380Y-105053428D01*
X179776428Y-104291523D02*
X179776428Y-103529619D01*
X180157380Y-102482000D02*
X179681190Y-102815333D01*
X180157380Y-103053428D02*
X179157380Y-103053428D01*
X179157380Y-102672476D01*
X179205000Y-102577238D01*
X179252619Y-102529619D01*
X179347857Y-102482000D01*
X179490714Y-102482000D01*
X179585952Y-102529619D01*
X179633571Y-102577238D01*
X179681190Y-102672476D01*
X179681190Y-103053428D01*
X179157380Y-102148666D02*
X179157380Y-101482000D01*
X180157380Y-101910571D01*
G04 #@! TD*
M02*
