G04 #@! TF.GenerationSoftware,KiCad,Pcbnew,5.0.2-bee76a0~70~ubuntu18.04.1*
G04 #@! TF.CreationDate,2019-04-07T15:27:48-07:00*
G04 #@! TF.ProjectId,smartplug,736d6172-7470-46c7-9567-2e6b69636164,rev?*
G04 #@! TF.SameCoordinates,Original*
G04 #@! TF.FileFunction,Copper,L2,Bot*
G04 #@! TF.FilePolarity,Positive*
%FSLAX46Y46*%
G04 Gerber Fmt 4.6, Leading zero omitted, Abs format (unit mm)*
G04 Created by KiCad (PCBNEW 5.0.2-bee76a0~70~ubuntu18.04.1) date Sun 07 Apr 2019 03:27:48 PM PDT*
%MOMM*%
%LPD*%
G01*
G04 APERTURE LIST*
G04 #@! TA.AperFunction,ComponentPad*
%ADD10R,2.600000X2.600000*%
G04 #@! TD*
G04 #@! TA.AperFunction,ComponentPad*
%ADD11C,2.600000*%
G04 #@! TD*
G04 #@! TA.AperFunction,ComponentPad*
%ADD12R,3.556000X3.556000*%
G04 #@! TD*
G04 #@! TA.AperFunction,ComponentPad*
%ADD13C,3.556000*%
G04 #@! TD*
G04 #@! TA.AperFunction,ComponentPad*
%ADD14C,1.676400*%
G04 #@! TD*
G04 #@! TA.AperFunction,ComponentPad*
%ADD15C,2.540000*%
G04 #@! TD*
G04 #@! TA.AperFunction,ComponentPad*
%ADD16C,1.508000*%
G04 #@! TD*
G04 #@! TA.AperFunction,ComponentPad*
%ADD17R,1.508000X1.508000*%
G04 #@! TD*
G04 #@! TA.AperFunction,ComponentPad*
%ADD18C,1.879600*%
G04 #@! TD*
G04 #@! TA.AperFunction,ComponentPad*
%ADD19R,1.879600X1.879600*%
G04 #@! TD*
G04 #@! TA.AperFunction,ViaPad*
%ADD20C,3.000000*%
G04 #@! TD*
G04 #@! TA.AperFunction,ViaPad*
%ADD21C,4.000000*%
G04 #@! TD*
G04 #@! TA.AperFunction,ViaPad*
%ADD22C,0.800000*%
G04 #@! TD*
G04 #@! TA.AperFunction,ViaPad*
%ADD23C,5.000000*%
G04 #@! TD*
G04 #@! TA.AperFunction,Conductor*
%ADD24C,2.300000*%
G04 #@! TD*
G04 #@! TA.AperFunction,Conductor*
%ADD25C,0.500000*%
G04 #@! TD*
G04 #@! TA.AperFunction,Conductor*
%ADD26C,0.254000*%
G04 #@! TD*
G04 APERTURE END LIST*
D10*
G04 #@! TO.P,J1,1*
G04 #@! TO.N,/VAC+*
X109000000Y-106650000D03*
D11*
G04 #@! TO.P,J1,2*
G04 #@! TO.N,GND*
X109000000Y-101650000D03*
G04 #@! TO.P,J1,3*
G04 #@! TO.N,/VAC-*
X109000000Y-96650000D03*
G04 #@! TD*
D12*
G04 #@! TO.P,J2,1*
G04 #@! TO.N,Net-(J2-Pad1)*
X238160000Y-99700000D03*
D13*
G04 #@! TO.P,J2,3*
G04 #@! TO.N,Net-(J2-Pad3)*
X238160000Y-87000000D03*
G04 #@! TO.P,J2,2*
G04 #@! TO.N,GND*
X233970000Y-93350000D03*
G04 #@! TD*
D14*
G04 #@! TO.P,K1,1*
G04 #@! TO.N,Net-(K1-Pad1)*
X198250000Y-97350000D03*
G04 #@! TO.P,K1,2*
G04 #@! TO.N,/12VDC*
X198250000Y-89850000D03*
D15*
G04 #@! TO.P,K1,3*
G04 #@! TO.N,/VAC+*
X218250000Y-97350000D03*
G04 #@! TO.P,K1,4*
G04 #@! TO.N,Net-(J2-Pad1)*
X213250000Y-97350000D03*
G04 #@! TO.P,K1,5*
G04 #@! TO.N,/VAC-*
X213250000Y-89850000D03*
G04 #@! TO.P,K1,6*
G04 #@! TO.N,Net-(J2-Pad3)*
X218250000Y-89850000D03*
G04 #@! TD*
D16*
G04 #@! TO.P,U1,2*
G04 #@! TO.N,/VAC-*
X119400000Y-94130000D03*
D17*
G04 #@! TO.P,U1,1*
G04 #@! TO.N,/VAC+*
X119400000Y-109370000D03*
D16*
G04 #@! TO.P,U1,3*
G04 #@! TO.N,GND*
X147400000Y-94130000D03*
G04 #@! TO.P,U1,4*
G04 #@! TO.N,/12VDC*
X147400000Y-101750000D03*
G04 #@! TD*
D18*
G04 #@! TO.P,U3,12*
G04 #@! TO.N,Net-(U3-Pad12)*
X170350000Y-109850000D03*
G04 #@! TO.P,U3,11*
G04 #@! TO.N,Net-(U3-Pad11)*
X170350000Y-107310000D03*
G04 #@! TO.P,U3,10*
G04 #@! TO.N,Net-(U3-Pad10)*
X170350000Y-104770000D03*
G04 #@! TO.P,U3,9*
G04 #@! TO.N,Net-(U3-Pad9)*
X170350000Y-102230000D03*
G04 #@! TO.P,U3,8*
G04 #@! TO.N,Net-(U3-Pad8)*
X170350000Y-99690000D03*
G04 #@! TO.P,U3,7*
G04 #@! TO.N,Net-(U3-Pad7)*
X170350000Y-97150000D03*
G04 #@! TO.P,U3,6*
G04 #@! TO.N,Net-(U3-Pad6)*
X170350000Y-94610000D03*
G04 #@! TO.P,U3,5*
G04 #@! TO.N,Net-(U3-Pad5)*
X170350000Y-92070000D03*
G04 #@! TO.P,U3,4*
G04 #@! TO.N,Net-(U3-Pad4)*
X170350000Y-89530000D03*
G04 #@! TO.P,U3,3*
G04 #@! TO.N,Net-(U3-Pad3)*
X170350000Y-86990000D03*
G04 #@! TO.P,U3,2*
G04 #@! TO.N,GND*
X170350000Y-84450000D03*
D19*
G04 #@! TO.P,U3,1*
G04 #@! TO.N,/5VDC*
X170350000Y-81910000D03*
D18*
G04 #@! TO.P,U3,13*
G04 #@! TO.N,Net-(U3-Pad13)*
X188130000Y-109850000D03*
G04 #@! TO.P,U3,14*
G04 #@! TO.N,Net-(U3-Pad14)*
X188130000Y-107310000D03*
G04 #@! TO.P,U3,15*
G04 #@! TO.N,Net-(U3-Pad15)*
X188130000Y-104770000D03*
G04 #@! TO.P,U3,16*
G04 #@! TO.N,Net-(U3-Pad16)*
X188130000Y-102230000D03*
G04 #@! TO.P,U3,17*
G04 #@! TO.N,Net-(U3-Pad17)*
X188130000Y-99690000D03*
G04 #@! TO.P,U3,18*
G04 #@! TO.N,Net-(U3-Pad18)*
X188130000Y-97150000D03*
G04 #@! TO.P,U3,19*
G04 #@! TO.N,Net-(U3-Pad19)*
X188130000Y-94610000D03*
G04 #@! TO.P,U3,20*
G04 #@! TO.N,Net-(D2-Pad2)*
X188130000Y-92070000D03*
G04 #@! TO.P,U3,21*
G04 #@! TO.N,N/C*
X188130000Y-89530000D03*
G04 #@! TO.P,U3,22*
G04 #@! TO.N,Net-(U3-Pad22)*
X188130000Y-86990000D03*
G04 #@! TO.P,U3,23*
G04 #@! TO.N,Net-(U3-Pad23)*
X188130000Y-84450000D03*
G04 #@! TO.P,U3,24*
G04 #@! TO.N,Net-(U3-Pad24)*
X188130000Y-81910000D03*
G04 #@! TD*
D20*
G04 #@! TO.N,GND*
X130150000Y-100850000D03*
X140950000Y-92850000D03*
X163050000Y-109400000D03*
X192400000Y-113450000D03*
D21*
G04 #@! TO.N,/12VDC*
X141450000Y-99200000D03*
D22*
G04 #@! TO.N,Net-(C2-Pad2)*
X155150000Y-97700000D03*
X157500000Y-94750000D03*
G04 #@! TO.N,/5VDC*
X162750000Y-102600000D03*
X156800000Y-86250000D03*
X156650000Y-73750000D03*
D23*
G04 #@! TO.N,/VAC-*
X95900000Y-91700000D03*
G04 #@! TO.N,/VAC+*
X95750000Y-110550000D03*
G04 #@! TD*
D24*
G04 #@! TO.N,/12VDC*
X198250000Y-88197094D02*
X198250000Y-88664607D01*
X189373105Y-79320199D02*
X198250000Y-88197094D01*
X160695799Y-79320199D02*
X189373105Y-79320199D01*
X198250000Y-88664607D02*
X198250000Y-89850000D01*
X154749999Y-85265999D02*
X160695799Y-79320199D01*
X154749999Y-90337923D02*
X154749999Y-85265999D01*
X148553921Y-96534001D02*
X154749999Y-90337923D01*
X144115999Y-96534001D02*
X148553921Y-96534001D01*
X141450000Y-99200000D02*
X144115999Y-96534001D01*
D25*
G04 #@! TO.N,Net-(C2-Pad2)*
X157500000Y-95350000D02*
X155150000Y-97700000D01*
X157500000Y-94750000D02*
X157500000Y-95350000D01*
G04 #@! TO.N,/5VDC*
X162750000Y-92200000D02*
X156800000Y-86250000D01*
X162750000Y-102600000D02*
X162750000Y-92200000D01*
G04 #@! TD*
D26*
G04 #@! TO.N,/VAC-*
G36*
X214712824Y-88733208D02*
X214597777Y-88681828D01*
X213429605Y-89850000D01*
X213443748Y-89864143D01*
X213264143Y-90043748D01*
X213250000Y-90029605D01*
X213235858Y-90043748D01*
X213056253Y-89864143D01*
X213070395Y-89850000D01*
X211902223Y-88681828D01*
X211607343Y-88813520D01*
X211335739Y-89521036D01*
X211355564Y-90278632D01*
X211607343Y-90886480D01*
X211887639Y-91011659D01*
X205375637Y-90874564D01*
X204059194Y-88502223D01*
X212081828Y-88502223D01*
X213250000Y-89670395D01*
X214418172Y-88502223D01*
X214286480Y-88207343D01*
X213578964Y-87935739D01*
X212821368Y-87955564D01*
X212213520Y-88207343D01*
X212081828Y-88502223D01*
X204059194Y-88502223D01*
X195811048Y-73638378D01*
X195779013Y-73600572D01*
X195734950Y-73577904D01*
X195702048Y-73573017D01*
X183302048Y-73373017D01*
X183300784Y-73373002D01*
X167100784Y-73273002D01*
X167088038Y-73273565D01*
X159177000Y-74022056D01*
X159177000Y-73247348D01*
X158792287Y-72318569D01*
X158081431Y-71607713D01*
X157152652Y-71223000D01*
X156147348Y-71223000D01*
X155218569Y-71607713D01*
X154507713Y-72318569D01*
X154123000Y-73247348D01*
X154123000Y-74252652D01*
X154507713Y-75181431D01*
X155022382Y-75696100D01*
X120743118Y-94498800D01*
X120801181Y-94335786D01*
X120773273Y-93783912D01*
X120615772Y-93403671D01*
X120374416Y-93335189D01*
X119579605Y-94130000D01*
X119593748Y-94144143D01*
X119414143Y-94323748D01*
X119400000Y-94309605D01*
X118605189Y-95104416D01*
X118673671Y-95345772D01*
X118992176Y-95459218D01*
X112852803Y-98826758D01*
X110817085Y-98693304D01*
X109982102Y-98347442D01*
X110054496Y-98317455D01*
X110189854Y-98019459D01*
X109000000Y-96829605D01*
X107810146Y-98019459D01*
X107945504Y-98317455D01*
X108020540Y-98346348D01*
X107679493Y-98487614D01*
X98308308Y-97873272D01*
X98294991Y-97873099D01*
X97346666Y-97910533D01*
X91202000Y-97992462D01*
X91202000Y-96313880D01*
X107055934Y-96313880D01*
X107075290Y-97083427D01*
X107332545Y-97704496D01*
X107630541Y-97839854D01*
X108820395Y-96650000D01*
X109179605Y-96650000D01*
X110369459Y-97839854D01*
X110667455Y-97704496D01*
X110944066Y-96986120D01*
X110924710Y-96216573D01*
X110667455Y-95595504D01*
X110369459Y-95460146D01*
X109179605Y-96650000D01*
X108820395Y-96650000D01*
X107630541Y-95460146D01*
X107332545Y-95595504D01*
X107055934Y-96313880D01*
X91202000Y-96313880D01*
X91202000Y-95280541D01*
X107810146Y-95280541D01*
X109000000Y-96470395D01*
X110189854Y-95280541D01*
X110054496Y-94982545D01*
X109336120Y-94705934D01*
X108566573Y-94725290D01*
X107945504Y-94982545D01*
X107810146Y-95280541D01*
X91202000Y-95280541D01*
X91202000Y-93924214D01*
X117998819Y-93924214D01*
X118026727Y-94476088D01*
X118184228Y-94856329D01*
X118425584Y-94924811D01*
X119220395Y-94130000D01*
X118425584Y-93335189D01*
X118184228Y-93403671D01*
X117998819Y-93924214D01*
X91202000Y-93924214D01*
X91202000Y-93155584D01*
X118605189Y-93155584D01*
X119400000Y-93950395D01*
X120194811Y-93155584D01*
X120126329Y-92914228D01*
X119605786Y-92728819D01*
X119053912Y-92756727D01*
X118673671Y-92914228D01*
X118605189Y-93155584D01*
X91202000Y-93155584D01*
X91202000Y-55202000D01*
X215254378Y-55202000D01*
X214712824Y-88733208D01*
X214712824Y-88733208D01*
G37*
X214712824Y-88733208D02*
X214597777Y-88681828D01*
X213429605Y-89850000D01*
X213443748Y-89864143D01*
X213264143Y-90043748D01*
X213250000Y-90029605D01*
X213235858Y-90043748D01*
X213056253Y-89864143D01*
X213070395Y-89850000D01*
X211902223Y-88681828D01*
X211607343Y-88813520D01*
X211335739Y-89521036D01*
X211355564Y-90278632D01*
X211607343Y-90886480D01*
X211887639Y-91011659D01*
X205375637Y-90874564D01*
X204059194Y-88502223D01*
X212081828Y-88502223D01*
X213250000Y-89670395D01*
X214418172Y-88502223D01*
X214286480Y-88207343D01*
X213578964Y-87935739D01*
X212821368Y-87955564D01*
X212213520Y-88207343D01*
X212081828Y-88502223D01*
X204059194Y-88502223D01*
X195811048Y-73638378D01*
X195779013Y-73600572D01*
X195734950Y-73577904D01*
X195702048Y-73573017D01*
X183302048Y-73373017D01*
X183300784Y-73373002D01*
X167100784Y-73273002D01*
X167088038Y-73273565D01*
X159177000Y-74022056D01*
X159177000Y-73247348D01*
X158792287Y-72318569D01*
X158081431Y-71607713D01*
X157152652Y-71223000D01*
X156147348Y-71223000D01*
X155218569Y-71607713D01*
X154507713Y-72318569D01*
X154123000Y-73247348D01*
X154123000Y-74252652D01*
X154507713Y-75181431D01*
X155022382Y-75696100D01*
X120743118Y-94498800D01*
X120801181Y-94335786D01*
X120773273Y-93783912D01*
X120615772Y-93403671D01*
X120374416Y-93335189D01*
X119579605Y-94130000D01*
X119593748Y-94144143D01*
X119414143Y-94323748D01*
X119400000Y-94309605D01*
X118605189Y-95104416D01*
X118673671Y-95345772D01*
X118992176Y-95459218D01*
X112852803Y-98826758D01*
X110817085Y-98693304D01*
X109982102Y-98347442D01*
X110054496Y-98317455D01*
X110189854Y-98019459D01*
X109000000Y-96829605D01*
X107810146Y-98019459D01*
X107945504Y-98317455D01*
X108020540Y-98346348D01*
X107679493Y-98487614D01*
X98308308Y-97873272D01*
X98294991Y-97873099D01*
X97346666Y-97910533D01*
X91202000Y-97992462D01*
X91202000Y-96313880D01*
X107055934Y-96313880D01*
X107075290Y-97083427D01*
X107332545Y-97704496D01*
X107630541Y-97839854D01*
X108820395Y-96650000D01*
X109179605Y-96650000D01*
X110369459Y-97839854D01*
X110667455Y-97704496D01*
X110944066Y-96986120D01*
X110924710Y-96216573D01*
X110667455Y-95595504D01*
X110369459Y-95460146D01*
X109179605Y-96650000D01*
X108820395Y-96650000D01*
X107630541Y-95460146D01*
X107332545Y-95595504D01*
X107055934Y-96313880D01*
X91202000Y-96313880D01*
X91202000Y-95280541D01*
X107810146Y-95280541D01*
X109000000Y-96470395D01*
X110189854Y-95280541D01*
X110054496Y-94982545D01*
X109336120Y-94705934D01*
X108566573Y-94725290D01*
X107945504Y-94982545D01*
X107810146Y-95280541D01*
X91202000Y-95280541D01*
X91202000Y-93924214D01*
X117998819Y-93924214D01*
X118026727Y-94476088D01*
X118184228Y-94856329D01*
X118425584Y-94924811D01*
X119220395Y-94130000D01*
X118425584Y-93335189D01*
X118184228Y-93403671D01*
X117998819Y-93924214D01*
X91202000Y-93924214D01*
X91202000Y-93155584D01*
X118605189Y-93155584D01*
X119400000Y-93950395D01*
X120194811Y-93155584D01*
X120126329Y-92914228D01*
X119605786Y-92728819D01*
X119053912Y-92756727D01*
X118673671Y-92914228D01*
X118605189Y-93155584D01*
X91202000Y-93155584D01*
X91202000Y-55202000D01*
X215254378Y-55202000D01*
X214712824Y-88733208D01*
G04 #@! TO.N,/VAC+*
G36*
X219667986Y-96213183D02*
X219597777Y-96181828D01*
X218429605Y-97350000D01*
X219597777Y-98518172D01*
X219640298Y-98499182D01*
X219212766Y-133798000D01*
X91202000Y-133798000D01*
X91202000Y-109655750D01*
X118011000Y-109655750D01*
X118011000Y-110250310D01*
X118107673Y-110483699D01*
X118286302Y-110662327D01*
X118519691Y-110759000D01*
X119114250Y-110759000D01*
X119273000Y-110600250D01*
X119273000Y-109497000D01*
X119527000Y-109497000D01*
X119527000Y-110600250D01*
X119685750Y-110759000D01*
X120280309Y-110759000D01*
X120513698Y-110662327D01*
X120692327Y-110483699D01*
X120789000Y-110250310D01*
X120789000Y-109655750D01*
X120630250Y-109497000D01*
X119527000Y-109497000D01*
X119273000Y-109497000D01*
X118169750Y-109497000D01*
X118011000Y-109655750D01*
X91202000Y-109655750D01*
X91202000Y-106935750D01*
X107065000Y-106935750D01*
X107065000Y-108076309D01*
X107161673Y-108309698D01*
X107340301Y-108488327D01*
X107573690Y-108585000D01*
X108714250Y-108585000D01*
X108873000Y-108426250D01*
X108873000Y-106777000D01*
X109127000Y-106777000D01*
X109127000Y-108426250D01*
X109285750Y-108585000D01*
X110426310Y-108585000D01*
X110656408Y-108489690D01*
X118011000Y-108489690D01*
X118011000Y-109084250D01*
X118169750Y-109243000D01*
X119273000Y-109243000D01*
X119273000Y-108139750D01*
X119527000Y-108139750D01*
X119527000Y-109243000D01*
X120630250Y-109243000D01*
X120789000Y-109084250D01*
X120789000Y-108489690D01*
X120692327Y-108256301D01*
X120513698Y-108077673D01*
X120280309Y-107981000D01*
X119685750Y-107981000D01*
X119527000Y-108139750D01*
X119273000Y-108139750D01*
X119114250Y-107981000D01*
X118519691Y-107981000D01*
X118286302Y-108077673D01*
X118107673Y-108256301D01*
X118011000Y-108489690D01*
X110656408Y-108489690D01*
X110659699Y-108488327D01*
X110838327Y-108309698D01*
X110935000Y-108076309D01*
X110935000Y-106935750D01*
X110776250Y-106777000D01*
X109127000Y-106777000D01*
X108873000Y-106777000D01*
X107223750Y-106777000D01*
X107065000Y-106935750D01*
X91202000Y-106935750D01*
X91202000Y-104992239D01*
X97487252Y-105626359D01*
X97520879Y-105625272D01*
X97815859Y-105576109D01*
X107484642Y-104751885D01*
X107340301Y-104811673D01*
X107161673Y-104990302D01*
X107065000Y-105223691D01*
X107065000Y-106364250D01*
X107223750Y-106523000D01*
X108873000Y-106523000D01*
X108873000Y-106503000D01*
X109127000Y-106503000D01*
X109127000Y-106523000D01*
X110776250Y-106523000D01*
X110935000Y-106364250D01*
X110935000Y-105223691D01*
X110838327Y-104990302D01*
X110659699Y-104811673D01*
X110490964Y-104741781D01*
X110941240Y-104555270D01*
X111019941Y-104476569D01*
X127525750Y-103355102D01*
X128095470Y-103924822D01*
X129428545Y-104477000D01*
X130871455Y-104477000D01*
X132204530Y-103924822D01*
X133156848Y-102972504D01*
X138989736Y-102576196D01*
X139112242Y-102698702D01*
X140629089Y-103327000D01*
X142270911Y-103327000D01*
X143787758Y-102698702D01*
X144268954Y-102217506D01*
X144519000Y-102200517D01*
X144519000Y-102323067D01*
X144957606Y-103381955D01*
X145768045Y-104192394D01*
X146826933Y-104631000D01*
X147973067Y-104631000D01*
X149031955Y-104192394D01*
X149842394Y-103381955D01*
X150281000Y-102323067D01*
X150281000Y-101809025D01*
X158360145Y-101260097D01*
X159711058Y-115624391D01*
X159725233Y-115671874D01*
X159756500Y-115710317D01*
X159800099Y-115733868D01*
X159837577Y-115739500D01*
X189542082Y-115721434D01*
X190345470Y-116524822D01*
X191678545Y-117077000D01*
X193121455Y-117077000D01*
X194454530Y-116524822D01*
X195261397Y-115717955D01*
X197065152Y-115716858D01*
X197113747Y-115707161D01*
X197154932Y-115679606D01*
X197182437Y-115638387D01*
X197192070Y-115588769D01*
X197062819Y-100513911D01*
X198048373Y-100315200D01*
X198839815Y-100315200D01*
X199590432Y-100004284D01*
X209853000Y-97935107D01*
X209853000Y-98025705D01*
X210370163Y-99274246D01*
X211325754Y-100229837D01*
X212574295Y-100747000D01*
X213925705Y-100747000D01*
X215174246Y-100229837D01*
X216129837Y-99274246D01*
X216368618Y-98697777D01*
X217081828Y-98697777D01*
X217213520Y-98992657D01*
X217921036Y-99264261D01*
X218678632Y-99244436D01*
X219286480Y-98992657D01*
X219418172Y-98697777D01*
X218250000Y-97529605D01*
X217081828Y-98697777D01*
X216368618Y-98697777D01*
X216552453Y-98253963D01*
X216607343Y-98386480D01*
X216902223Y-98518172D01*
X218070395Y-97350000D01*
X218056253Y-97335858D01*
X218235858Y-97156253D01*
X218250000Y-97170395D01*
X219412763Y-96007632D01*
X219671106Y-95955544D01*
X219667986Y-96213183D01*
X219667986Y-96213183D01*
G37*
X219667986Y-96213183D02*
X219597777Y-96181828D01*
X218429605Y-97350000D01*
X219597777Y-98518172D01*
X219640298Y-98499182D01*
X219212766Y-133798000D01*
X91202000Y-133798000D01*
X91202000Y-109655750D01*
X118011000Y-109655750D01*
X118011000Y-110250310D01*
X118107673Y-110483699D01*
X118286302Y-110662327D01*
X118519691Y-110759000D01*
X119114250Y-110759000D01*
X119273000Y-110600250D01*
X119273000Y-109497000D01*
X119527000Y-109497000D01*
X119527000Y-110600250D01*
X119685750Y-110759000D01*
X120280309Y-110759000D01*
X120513698Y-110662327D01*
X120692327Y-110483699D01*
X120789000Y-110250310D01*
X120789000Y-109655750D01*
X120630250Y-109497000D01*
X119527000Y-109497000D01*
X119273000Y-109497000D01*
X118169750Y-109497000D01*
X118011000Y-109655750D01*
X91202000Y-109655750D01*
X91202000Y-106935750D01*
X107065000Y-106935750D01*
X107065000Y-108076309D01*
X107161673Y-108309698D01*
X107340301Y-108488327D01*
X107573690Y-108585000D01*
X108714250Y-108585000D01*
X108873000Y-108426250D01*
X108873000Y-106777000D01*
X109127000Y-106777000D01*
X109127000Y-108426250D01*
X109285750Y-108585000D01*
X110426310Y-108585000D01*
X110656408Y-108489690D01*
X118011000Y-108489690D01*
X118011000Y-109084250D01*
X118169750Y-109243000D01*
X119273000Y-109243000D01*
X119273000Y-108139750D01*
X119527000Y-108139750D01*
X119527000Y-109243000D01*
X120630250Y-109243000D01*
X120789000Y-109084250D01*
X120789000Y-108489690D01*
X120692327Y-108256301D01*
X120513698Y-108077673D01*
X120280309Y-107981000D01*
X119685750Y-107981000D01*
X119527000Y-108139750D01*
X119273000Y-108139750D01*
X119114250Y-107981000D01*
X118519691Y-107981000D01*
X118286302Y-108077673D01*
X118107673Y-108256301D01*
X118011000Y-108489690D01*
X110656408Y-108489690D01*
X110659699Y-108488327D01*
X110838327Y-108309698D01*
X110935000Y-108076309D01*
X110935000Y-106935750D01*
X110776250Y-106777000D01*
X109127000Y-106777000D01*
X108873000Y-106777000D01*
X107223750Y-106777000D01*
X107065000Y-106935750D01*
X91202000Y-106935750D01*
X91202000Y-104992239D01*
X97487252Y-105626359D01*
X97520879Y-105625272D01*
X97815859Y-105576109D01*
X107484642Y-104751885D01*
X107340301Y-104811673D01*
X107161673Y-104990302D01*
X107065000Y-105223691D01*
X107065000Y-106364250D01*
X107223750Y-106523000D01*
X108873000Y-106523000D01*
X108873000Y-106503000D01*
X109127000Y-106503000D01*
X109127000Y-106523000D01*
X110776250Y-106523000D01*
X110935000Y-106364250D01*
X110935000Y-105223691D01*
X110838327Y-104990302D01*
X110659699Y-104811673D01*
X110490964Y-104741781D01*
X110941240Y-104555270D01*
X111019941Y-104476569D01*
X127525750Y-103355102D01*
X128095470Y-103924822D01*
X129428545Y-104477000D01*
X130871455Y-104477000D01*
X132204530Y-103924822D01*
X133156848Y-102972504D01*
X138989736Y-102576196D01*
X139112242Y-102698702D01*
X140629089Y-103327000D01*
X142270911Y-103327000D01*
X143787758Y-102698702D01*
X144268954Y-102217506D01*
X144519000Y-102200517D01*
X144519000Y-102323067D01*
X144957606Y-103381955D01*
X145768045Y-104192394D01*
X146826933Y-104631000D01*
X147973067Y-104631000D01*
X149031955Y-104192394D01*
X149842394Y-103381955D01*
X150281000Y-102323067D01*
X150281000Y-101809025D01*
X158360145Y-101260097D01*
X159711058Y-115624391D01*
X159725233Y-115671874D01*
X159756500Y-115710317D01*
X159800099Y-115733868D01*
X159837577Y-115739500D01*
X189542082Y-115721434D01*
X190345470Y-116524822D01*
X191678545Y-117077000D01*
X193121455Y-117077000D01*
X194454530Y-116524822D01*
X195261397Y-115717955D01*
X197065152Y-115716858D01*
X197113747Y-115707161D01*
X197154932Y-115679606D01*
X197182437Y-115638387D01*
X197192070Y-115588769D01*
X197062819Y-100513911D01*
X198048373Y-100315200D01*
X198839815Y-100315200D01*
X199590432Y-100004284D01*
X209853000Y-97935107D01*
X209853000Y-98025705D01*
X210370163Y-99274246D01*
X211325754Y-100229837D01*
X212574295Y-100747000D01*
X213925705Y-100747000D01*
X215174246Y-100229837D01*
X216129837Y-99274246D01*
X216368618Y-98697777D01*
X217081828Y-98697777D01*
X217213520Y-98992657D01*
X217921036Y-99264261D01*
X218678632Y-99244436D01*
X219286480Y-98992657D01*
X219418172Y-98697777D01*
X218250000Y-97529605D01*
X217081828Y-98697777D01*
X216368618Y-98697777D01*
X216552453Y-98253963D01*
X216607343Y-98386480D01*
X216902223Y-98518172D01*
X218070395Y-97350000D01*
X218056253Y-97335858D01*
X218235858Y-97156253D01*
X218250000Y-97170395D01*
X219412763Y-96007632D01*
X219671106Y-95955544D01*
X219667986Y-96213183D01*
G04 #@! TD*
M02*
