G04 #@! TF.GenerationSoftware,KiCad,Pcbnew,5.0.2-bee76a0~70~ubuntu18.04.1*
G04 #@! TF.CreationDate,2019-04-07T15:27:48-07:00*
G04 #@! TF.ProjectId,smartplug,736d6172-7470-46c7-9567-2e6b69636164,rev?*
G04 #@! TF.SameCoordinates,Original*
G04 #@! TF.FileFunction,Copper,L1,Top*
G04 #@! TF.FilePolarity,Positive*
%FSLAX46Y46*%
G04 Gerber Fmt 4.6, Leading zero omitted, Abs format (unit mm)*
G04 Created by KiCad (PCBNEW 5.0.2-bee76a0~70~ubuntu18.04.1) date Sun 07 Apr 2019 03:27:48 PM PDT*
%MOMM*%
%LPD*%
G01*
G04 APERTURE LIST*
G04 #@! TA.AperFunction,Conductor*
%ADD10C,0.100000*%
G04 #@! TD*
G04 #@! TA.AperFunction,SMDPad,CuDef*
%ADD11C,0.975000*%
G04 #@! TD*
G04 #@! TA.AperFunction,ComponentPad*
%ADD12R,2.600000X2.600000*%
G04 #@! TD*
G04 #@! TA.AperFunction,ComponentPad*
%ADD13C,2.600000*%
G04 #@! TD*
G04 #@! TA.AperFunction,SMDPad,CuDef*
%ADD14R,2.500000X2.300000*%
G04 #@! TD*
G04 #@! TA.AperFunction,SMDPad,CuDef*
%ADD15C,0.875000*%
G04 #@! TD*
G04 #@! TA.AperFunction,ComponentPad*
%ADD16R,3.556000X3.556000*%
G04 #@! TD*
G04 #@! TA.AperFunction,ComponentPad*
%ADD17C,3.556000*%
G04 #@! TD*
G04 #@! TA.AperFunction,ComponentPad*
%ADD18C,1.676400*%
G04 #@! TD*
G04 #@! TA.AperFunction,ComponentPad*
%ADD19C,2.540000*%
G04 #@! TD*
G04 #@! TA.AperFunction,SMDPad,CuDef*
%ADD20R,2.895600X5.410200*%
G04 #@! TD*
G04 #@! TA.AperFunction,SMDPad,CuDef*
%ADD21R,3.810000X4.240000*%
G04 #@! TD*
G04 #@! TA.AperFunction,ComponentPad*
%ADD22C,1.508000*%
G04 #@! TD*
G04 #@! TA.AperFunction,ComponentPad*
%ADD23R,1.508000X1.508000*%
G04 #@! TD*
G04 #@! TA.AperFunction,SMDPad,CuDef*
%ADD24R,1.970000X0.600000*%
G04 #@! TD*
G04 #@! TA.AperFunction,SMDPad,CuDef*
%ADD25R,2.290000X2.290000*%
G04 #@! TD*
G04 #@! TA.AperFunction,ComponentPad*
%ADD26C,1.879600*%
G04 #@! TD*
G04 #@! TA.AperFunction,ComponentPad*
%ADD27R,1.879600X1.879600*%
G04 #@! TD*
G04 #@! TA.AperFunction,SMDPad,CuDef*
%ADD28R,1.016000X0.558800*%
G04 #@! TD*
G04 #@! TA.AperFunction,ViaPad*
%ADD29C,3.000000*%
G04 #@! TD*
G04 #@! TA.AperFunction,ViaPad*
%ADD30C,4.000000*%
G04 #@! TD*
G04 #@! TA.AperFunction,ViaPad*
%ADD31C,0.800000*%
G04 #@! TD*
G04 #@! TA.AperFunction,ViaPad*
%ADD32C,5.000000*%
G04 #@! TD*
G04 #@! TA.AperFunction,Conductor*
%ADD33C,0.250000*%
G04 #@! TD*
G04 #@! TA.AperFunction,Conductor*
%ADD34C,4.000000*%
G04 #@! TD*
G04 #@! TA.AperFunction,Conductor*
%ADD35C,2.000000*%
G04 #@! TD*
G04 #@! TA.AperFunction,Conductor*
%ADD36C,0.300000*%
G04 #@! TD*
G04 #@! TA.AperFunction,Conductor*
%ADD37C,0.500000*%
G04 #@! TD*
G04 #@! TA.AperFunction,Conductor*
%ADD38C,2.500000*%
G04 #@! TD*
G04 #@! TA.AperFunction,Conductor*
%ADD39C,0.254000*%
G04 #@! TD*
G04 APERTURE END LIST*
D10*
G04 #@! TO.N,/12VDC*
G04 #@! TO.C,R1*
G36*
X152395142Y-101901174D02*
X152418803Y-101904684D01*
X152442007Y-101910496D01*
X152464529Y-101918554D01*
X152486153Y-101928782D01*
X152506670Y-101941079D01*
X152525883Y-101955329D01*
X152543607Y-101971393D01*
X152559671Y-101989117D01*
X152573921Y-102008330D01*
X152586218Y-102028847D01*
X152596446Y-102050471D01*
X152604504Y-102072993D01*
X152610316Y-102096197D01*
X152613826Y-102119858D01*
X152615000Y-102143750D01*
X152615000Y-103056250D01*
X152613826Y-103080142D01*
X152610316Y-103103803D01*
X152604504Y-103127007D01*
X152596446Y-103149529D01*
X152586218Y-103171153D01*
X152573921Y-103191670D01*
X152559671Y-103210883D01*
X152543607Y-103228607D01*
X152525883Y-103244671D01*
X152506670Y-103258921D01*
X152486153Y-103271218D01*
X152464529Y-103281446D01*
X152442007Y-103289504D01*
X152418803Y-103295316D01*
X152395142Y-103298826D01*
X152371250Y-103300000D01*
X151883750Y-103300000D01*
X151859858Y-103298826D01*
X151836197Y-103295316D01*
X151812993Y-103289504D01*
X151790471Y-103281446D01*
X151768847Y-103271218D01*
X151748330Y-103258921D01*
X151729117Y-103244671D01*
X151711393Y-103228607D01*
X151695329Y-103210883D01*
X151681079Y-103191670D01*
X151668782Y-103171153D01*
X151658554Y-103149529D01*
X151650496Y-103127007D01*
X151644684Y-103103803D01*
X151641174Y-103080142D01*
X151640000Y-103056250D01*
X151640000Y-102143750D01*
X151641174Y-102119858D01*
X151644684Y-102096197D01*
X151650496Y-102072993D01*
X151658554Y-102050471D01*
X151668782Y-102028847D01*
X151681079Y-102008330D01*
X151695329Y-101989117D01*
X151711393Y-101971393D01*
X151729117Y-101955329D01*
X151748330Y-101941079D01*
X151768847Y-101928782D01*
X151790471Y-101918554D01*
X151812993Y-101910496D01*
X151836197Y-101904684D01*
X151859858Y-101901174D01*
X151883750Y-101900000D01*
X152371250Y-101900000D01*
X152395142Y-101901174D01*
X152395142Y-101901174D01*
G37*
D11*
G04 #@! TD*
G04 #@! TO.P,R1,1*
G04 #@! TO.N,/12VDC*
X152127500Y-102600000D03*
D10*
G04 #@! TO.N,Net-(R1-Pad2)*
G04 #@! TO.C,R1*
G36*
X154270142Y-101901174D02*
X154293803Y-101904684D01*
X154317007Y-101910496D01*
X154339529Y-101918554D01*
X154361153Y-101928782D01*
X154381670Y-101941079D01*
X154400883Y-101955329D01*
X154418607Y-101971393D01*
X154434671Y-101989117D01*
X154448921Y-102008330D01*
X154461218Y-102028847D01*
X154471446Y-102050471D01*
X154479504Y-102072993D01*
X154485316Y-102096197D01*
X154488826Y-102119858D01*
X154490000Y-102143750D01*
X154490000Y-103056250D01*
X154488826Y-103080142D01*
X154485316Y-103103803D01*
X154479504Y-103127007D01*
X154471446Y-103149529D01*
X154461218Y-103171153D01*
X154448921Y-103191670D01*
X154434671Y-103210883D01*
X154418607Y-103228607D01*
X154400883Y-103244671D01*
X154381670Y-103258921D01*
X154361153Y-103271218D01*
X154339529Y-103281446D01*
X154317007Y-103289504D01*
X154293803Y-103295316D01*
X154270142Y-103298826D01*
X154246250Y-103300000D01*
X153758750Y-103300000D01*
X153734858Y-103298826D01*
X153711197Y-103295316D01*
X153687993Y-103289504D01*
X153665471Y-103281446D01*
X153643847Y-103271218D01*
X153623330Y-103258921D01*
X153604117Y-103244671D01*
X153586393Y-103228607D01*
X153570329Y-103210883D01*
X153556079Y-103191670D01*
X153543782Y-103171153D01*
X153533554Y-103149529D01*
X153525496Y-103127007D01*
X153519684Y-103103803D01*
X153516174Y-103080142D01*
X153515000Y-103056250D01*
X153515000Y-102143750D01*
X153516174Y-102119858D01*
X153519684Y-102096197D01*
X153525496Y-102072993D01*
X153533554Y-102050471D01*
X153543782Y-102028847D01*
X153556079Y-102008330D01*
X153570329Y-101989117D01*
X153586393Y-101971393D01*
X153604117Y-101955329D01*
X153623330Y-101941079D01*
X153643847Y-101928782D01*
X153665471Y-101918554D01*
X153687993Y-101910496D01*
X153711197Y-101904684D01*
X153734858Y-101901174D01*
X153758750Y-101900000D01*
X154246250Y-101900000D01*
X154270142Y-101901174D01*
X154270142Y-101901174D01*
G37*
D11*
G04 #@! TD*
G04 #@! TO.P,R1,2*
G04 #@! TO.N,Net-(R1-Pad2)*
X154002500Y-102600000D03*
D12*
G04 #@! TO.P,J1,1*
G04 #@! TO.N,/VAC+*
X109000000Y-106650000D03*
D13*
G04 #@! TO.P,J1,2*
G04 #@! TO.N,GND*
X109000000Y-101650000D03*
G04 #@! TO.P,J1,3*
G04 #@! TO.N,/VAC-*
X109000000Y-96650000D03*
G04 #@! TD*
D10*
G04 #@! TO.N,GND*
G04 #@! TO.C,C1*
G36*
X152780142Y-93626174D02*
X152803803Y-93629684D01*
X152827007Y-93635496D01*
X152849529Y-93643554D01*
X152871153Y-93653782D01*
X152891670Y-93666079D01*
X152910883Y-93680329D01*
X152928607Y-93696393D01*
X152944671Y-93714117D01*
X152958921Y-93733330D01*
X152971218Y-93753847D01*
X152981446Y-93775471D01*
X152989504Y-93797993D01*
X152995316Y-93821197D01*
X152998826Y-93844858D01*
X153000000Y-93868750D01*
X153000000Y-94356250D01*
X152998826Y-94380142D01*
X152995316Y-94403803D01*
X152989504Y-94427007D01*
X152981446Y-94449529D01*
X152971218Y-94471153D01*
X152958921Y-94491670D01*
X152944671Y-94510883D01*
X152928607Y-94528607D01*
X152910883Y-94544671D01*
X152891670Y-94558921D01*
X152871153Y-94571218D01*
X152849529Y-94581446D01*
X152827007Y-94589504D01*
X152803803Y-94595316D01*
X152780142Y-94598826D01*
X152756250Y-94600000D01*
X151843750Y-94600000D01*
X151819858Y-94598826D01*
X151796197Y-94595316D01*
X151772993Y-94589504D01*
X151750471Y-94581446D01*
X151728847Y-94571218D01*
X151708330Y-94558921D01*
X151689117Y-94544671D01*
X151671393Y-94528607D01*
X151655329Y-94510883D01*
X151641079Y-94491670D01*
X151628782Y-94471153D01*
X151618554Y-94449529D01*
X151610496Y-94427007D01*
X151604684Y-94403803D01*
X151601174Y-94380142D01*
X151600000Y-94356250D01*
X151600000Y-93868750D01*
X151601174Y-93844858D01*
X151604684Y-93821197D01*
X151610496Y-93797993D01*
X151618554Y-93775471D01*
X151628782Y-93753847D01*
X151641079Y-93733330D01*
X151655329Y-93714117D01*
X151671393Y-93696393D01*
X151689117Y-93680329D01*
X151708330Y-93666079D01*
X151728847Y-93653782D01*
X151750471Y-93643554D01*
X151772993Y-93635496D01*
X151796197Y-93629684D01*
X151819858Y-93626174D01*
X151843750Y-93625000D01*
X152756250Y-93625000D01*
X152780142Y-93626174D01*
X152780142Y-93626174D01*
G37*
D11*
G04 #@! TD*
G04 #@! TO.P,C1,2*
G04 #@! TO.N,GND*
X152300000Y-94112500D03*
D10*
G04 #@! TO.N,/12VDC*
G04 #@! TO.C,C1*
G36*
X152780142Y-95501174D02*
X152803803Y-95504684D01*
X152827007Y-95510496D01*
X152849529Y-95518554D01*
X152871153Y-95528782D01*
X152891670Y-95541079D01*
X152910883Y-95555329D01*
X152928607Y-95571393D01*
X152944671Y-95589117D01*
X152958921Y-95608330D01*
X152971218Y-95628847D01*
X152981446Y-95650471D01*
X152989504Y-95672993D01*
X152995316Y-95696197D01*
X152998826Y-95719858D01*
X153000000Y-95743750D01*
X153000000Y-96231250D01*
X152998826Y-96255142D01*
X152995316Y-96278803D01*
X152989504Y-96302007D01*
X152981446Y-96324529D01*
X152971218Y-96346153D01*
X152958921Y-96366670D01*
X152944671Y-96385883D01*
X152928607Y-96403607D01*
X152910883Y-96419671D01*
X152891670Y-96433921D01*
X152871153Y-96446218D01*
X152849529Y-96456446D01*
X152827007Y-96464504D01*
X152803803Y-96470316D01*
X152780142Y-96473826D01*
X152756250Y-96475000D01*
X151843750Y-96475000D01*
X151819858Y-96473826D01*
X151796197Y-96470316D01*
X151772993Y-96464504D01*
X151750471Y-96456446D01*
X151728847Y-96446218D01*
X151708330Y-96433921D01*
X151689117Y-96419671D01*
X151671393Y-96403607D01*
X151655329Y-96385883D01*
X151641079Y-96366670D01*
X151628782Y-96346153D01*
X151618554Y-96324529D01*
X151610496Y-96302007D01*
X151604684Y-96278803D01*
X151601174Y-96255142D01*
X151600000Y-96231250D01*
X151600000Y-95743750D01*
X151601174Y-95719858D01*
X151604684Y-95696197D01*
X151610496Y-95672993D01*
X151618554Y-95650471D01*
X151628782Y-95628847D01*
X151641079Y-95608330D01*
X151655329Y-95589117D01*
X151671393Y-95571393D01*
X151689117Y-95555329D01*
X151708330Y-95541079D01*
X151728847Y-95528782D01*
X151750471Y-95518554D01*
X151772993Y-95510496D01*
X151796197Y-95504684D01*
X151819858Y-95501174D01*
X151843750Y-95500000D01*
X152756250Y-95500000D01*
X152780142Y-95501174D01*
X152780142Y-95501174D01*
G37*
D11*
G04 #@! TD*
G04 #@! TO.P,C1,1*
G04 #@! TO.N,/12VDC*
X152300000Y-95987500D03*
D10*
G04 #@! TO.N,Net-(C2-Pad2)*
G04 #@! TO.C,C2*
G36*
X159080142Y-94601174D02*
X159103803Y-94604684D01*
X159127007Y-94610496D01*
X159149529Y-94618554D01*
X159171153Y-94628782D01*
X159191670Y-94641079D01*
X159210883Y-94655329D01*
X159228607Y-94671393D01*
X159244671Y-94689117D01*
X159258921Y-94708330D01*
X159271218Y-94728847D01*
X159281446Y-94750471D01*
X159289504Y-94772993D01*
X159295316Y-94796197D01*
X159298826Y-94819858D01*
X159300000Y-94843750D01*
X159300000Y-95756250D01*
X159298826Y-95780142D01*
X159295316Y-95803803D01*
X159289504Y-95827007D01*
X159281446Y-95849529D01*
X159271218Y-95871153D01*
X159258921Y-95891670D01*
X159244671Y-95910883D01*
X159228607Y-95928607D01*
X159210883Y-95944671D01*
X159191670Y-95958921D01*
X159171153Y-95971218D01*
X159149529Y-95981446D01*
X159127007Y-95989504D01*
X159103803Y-95995316D01*
X159080142Y-95998826D01*
X159056250Y-96000000D01*
X158568750Y-96000000D01*
X158544858Y-95998826D01*
X158521197Y-95995316D01*
X158497993Y-95989504D01*
X158475471Y-95981446D01*
X158453847Y-95971218D01*
X158433330Y-95958921D01*
X158414117Y-95944671D01*
X158396393Y-95928607D01*
X158380329Y-95910883D01*
X158366079Y-95891670D01*
X158353782Y-95871153D01*
X158343554Y-95849529D01*
X158335496Y-95827007D01*
X158329684Y-95803803D01*
X158326174Y-95780142D01*
X158325000Y-95756250D01*
X158325000Y-94843750D01*
X158326174Y-94819858D01*
X158329684Y-94796197D01*
X158335496Y-94772993D01*
X158343554Y-94750471D01*
X158353782Y-94728847D01*
X158366079Y-94708330D01*
X158380329Y-94689117D01*
X158396393Y-94671393D01*
X158414117Y-94655329D01*
X158433330Y-94641079D01*
X158453847Y-94628782D01*
X158475471Y-94618554D01*
X158497993Y-94610496D01*
X158521197Y-94604684D01*
X158544858Y-94601174D01*
X158568750Y-94600000D01*
X159056250Y-94600000D01*
X159080142Y-94601174D01*
X159080142Y-94601174D01*
G37*
D11*
G04 #@! TD*
G04 #@! TO.P,C2,2*
G04 #@! TO.N,Net-(C2-Pad2)*
X158812500Y-95300000D03*
D10*
G04 #@! TO.N,Net-(C2-Pad1)*
G04 #@! TO.C,C2*
G36*
X160955142Y-94601174D02*
X160978803Y-94604684D01*
X161002007Y-94610496D01*
X161024529Y-94618554D01*
X161046153Y-94628782D01*
X161066670Y-94641079D01*
X161085883Y-94655329D01*
X161103607Y-94671393D01*
X161119671Y-94689117D01*
X161133921Y-94708330D01*
X161146218Y-94728847D01*
X161156446Y-94750471D01*
X161164504Y-94772993D01*
X161170316Y-94796197D01*
X161173826Y-94819858D01*
X161175000Y-94843750D01*
X161175000Y-95756250D01*
X161173826Y-95780142D01*
X161170316Y-95803803D01*
X161164504Y-95827007D01*
X161156446Y-95849529D01*
X161146218Y-95871153D01*
X161133921Y-95891670D01*
X161119671Y-95910883D01*
X161103607Y-95928607D01*
X161085883Y-95944671D01*
X161066670Y-95958921D01*
X161046153Y-95971218D01*
X161024529Y-95981446D01*
X161002007Y-95989504D01*
X160978803Y-95995316D01*
X160955142Y-95998826D01*
X160931250Y-96000000D01*
X160443750Y-96000000D01*
X160419858Y-95998826D01*
X160396197Y-95995316D01*
X160372993Y-95989504D01*
X160350471Y-95981446D01*
X160328847Y-95971218D01*
X160308330Y-95958921D01*
X160289117Y-95944671D01*
X160271393Y-95928607D01*
X160255329Y-95910883D01*
X160241079Y-95891670D01*
X160228782Y-95871153D01*
X160218554Y-95849529D01*
X160210496Y-95827007D01*
X160204684Y-95803803D01*
X160201174Y-95780142D01*
X160200000Y-95756250D01*
X160200000Y-94843750D01*
X160201174Y-94819858D01*
X160204684Y-94796197D01*
X160210496Y-94772993D01*
X160218554Y-94750471D01*
X160228782Y-94728847D01*
X160241079Y-94708330D01*
X160255329Y-94689117D01*
X160271393Y-94671393D01*
X160289117Y-94655329D01*
X160308330Y-94641079D01*
X160328847Y-94628782D01*
X160350471Y-94618554D01*
X160372993Y-94610496D01*
X160396197Y-94604684D01*
X160419858Y-94601174D01*
X160443750Y-94600000D01*
X160931250Y-94600000D01*
X160955142Y-94601174D01*
X160955142Y-94601174D01*
G37*
D11*
G04 #@! TD*
G04 #@! TO.P,C2,1*
G04 #@! TO.N,Net-(C2-Pad1)*
X160687500Y-95300000D03*
D10*
G04 #@! TO.N,/5VDC*
G04 #@! TO.C,C3*
G36*
X148430142Y-86376174D02*
X148453803Y-86379684D01*
X148477007Y-86385496D01*
X148499529Y-86393554D01*
X148521153Y-86403782D01*
X148541670Y-86416079D01*
X148560883Y-86430329D01*
X148578607Y-86446393D01*
X148594671Y-86464117D01*
X148608921Y-86483330D01*
X148621218Y-86503847D01*
X148631446Y-86525471D01*
X148639504Y-86547993D01*
X148645316Y-86571197D01*
X148648826Y-86594858D01*
X148650000Y-86618750D01*
X148650000Y-87106250D01*
X148648826Y-87130142D01*
X148645316Y-87153803D01*
X148639504Y-87177007D01*
X148631446Y-87199529D01*
X148621218Y-87221153D01*
X148608921Y-87241670D01*
X148594671Y-87260883D01*
X148578607Y-87278607D01*
X148560883Y-87294671D01*
X148541670Y-87308921D01*
X148521153Y-87321218D01*
X148499529Y-87331446D01*
X148477007Y-87339504D01*
X148453803Y-87345316D01*
X148430142Y-87348826D01*
X148406250Y-87350000D01*
X147493750Y-87350000D01*
X147469858Y-87348826D01*
X147446197Y-87345316D01*
X147422993Y-87339504D01*
X147400471Y-87331446D01*
X147378847Y-87321218D01*
X147358330Y-87308921D01*
X147339117Y-87294671D01*
X147321393Y-87278607D01*
X147305329Y-87260883D01*
X147291079Y-87241670D01*
X147278782Y-87221153D01*
X147268554Y-87199529D01*
X147260496Y-87177007D01*
X147254684Y-87153803D01*
X147251174Y-87130142D01*
X147250000Y-87106250D01*
X147250000Y-86618750D01*
X147251174Y-86594858D01*
X147254684Y-86571197D01*
X147260496Y-86547993D01*
X147268554Y-86525471D01*
X147278782Y-86503847D01*
X147291079Y-86483330D01*
X147305329Y-86464117D01*
X147321393Y-86446393D01*
X147339117Y-86430329D01*
X147358330Y-86416079D01*
X147378847Y-86403782D01*
X147400471Y-86393554D01*
X147422993Y-86385496D01*
X147446197Y-86379684D01*
X147469858Y-86376174D01*
X147493750Y-86375000D01*
X148406250Y-86375000D01*
X148430142Y-86376174D01*
X148430142Y-86376174D01*
G37*
D11*
G04 #@! TD*
G04 #@! TO.P,C3,1*
G04 #@! TO.N,/5VDC*
X147950000Y-86862500D03*
D10*
G04 #@! TO.N,GND*
G04 #@! TO.C,C3*
G36*
X148430142Y-88251174D02*
X148453803Y-88254684D01*
X148477007Y-88260496D01*
X148499529Y-88268554D01*
X148521153Y-88278782D01*
X148541670Y-88291079D01*
X148560883Y-88305329D01*
X148578607Y-88321393D01*
X148594671Y-88339117D01*
X148608921Y-88358330D01*
X148621218Y-88378847D01*
X148631446Y-88400471D01*
X148639504Y-88422993D01*
X148645316Y-88446197D01*
X148648826Y-88469858D01*
X148650000Y-88493750D01*
X148650000Y-88981250D01*
X148648826Y-89005142D01*
X148645316Y-89028803D01*
X148639504Y-89052007D01*
X148631446Y-89074529D01*
X148621218Y-89096153D01*
X148608921Y-89116670D01*
X148594671Y-89135883D01*
X148578607Y-89153607D01*
X148560883Y-89169671D01*
X148541670Y-89183921D01*
X148521153Y-89196218D01*
X148499529Y-89206446D01*
X148477007Y-89214504D01*
X148453803Y-89220316D01*
X148430142Y-89223826D01*
X148406250Y-89225000D01*
X147493750Y-89225000D01*
X147469858Y-89223826D01*
X147446197Y-89220316D01*
X147422993Y-89214504D01*
X147400471Y-89206446D01*
X147378847Y-89196218D01*
X147358330Y-89183921D01*
X147339117Y-89169671D01*
X147321393Y-89153607D01*
X147305329Y-89135883D01*
X147291079Y-89116670D01*
X147278782Y-89096153D01*
X147268554Y-89074529D01*
X147260496Y-89052007D01*
X147254684Y-89028803D01*
X147251174Y-89005142D01*
X147250000Y-88981250D01*
X147250000Y-88493750D01*
X147251174Y-88469858D01*
X147254684Y-88446197D01*
X147260496Y-88422993D01*
X147268554Y-88400471D01*
X147278782Y-88378847D01*
X147291079Y-88358330D01*
X147305329Y-88339117D01*
X147321393Y-88321393D01*
X147339117Y-88305329D01*
X147358330Y-88291079D01*
X147378847Y-88278782D01*
X147400471Y-88268554D01*
X147422993Y-88260496D01*
X147446197Y-88254684D01*
X147469858Y-88251174D01*
X147493750Y-88250000D01*
X148406250Y-88250000D01*
X148430142Y-88251174D01*
X148430142Y-88251174D01*
G37*
D11*
G04 #@! TD*
G04 #@! TO.P,C3,2*
G04 #@! TO.N,GND*
X147950000Y-88737500D03*
D10*
G04 #@! TO.N,/5VDC*
G04 #@! TO.C,C4*
G36*
X153230142Y-86438674D02*
X153253803Y-86442184D01*
X153277007Y-86447996D01*
X153299529Y-86456054D01*
X153321153Y-86466282D01*
X153341670Y-86478579D01*
X153360883Y-86492829D01*
X153378607Y-86508893D01*
X153394671Y-86526617D01*
X153408921Y-86545830D01*
X153421218Y-86566347D01*
X153431446Y-86587971D01*
X153439504Y-86610493D01*
X153445316Y-86633697D01*
X153448826Y-86657358D01*
X153450000Y-86681250D01*
X153450000Y-87168750D01*
X153448826Y-87192642D01*
X153445316Y-87216303D01*
X153439504Y-87239507D01*
X153431446Y-87262029D01*
X153421218Y-87283653D01*
X153408921Y-87304170D01*
X153394671Y-87323383D01*
X153378607Y-87341107D01*
X153360883Y-87357171D01*
X153341670Y-87371421D01*
X153321153Y-87383718D01*
X153299529Y-87393946D01*
X153277007Y-87402004D01*
X153253803Y-87407816D01*
X153230142Y-87411326D01*
X153206250Y-87412500D01*
X152293750Y-87412500D01*
X152269858Y-87411326D01*
X152246197Y-87407816D01*
X152222993Y-87402004D01*
X152200471Y-87393946D01*
X152178847Y-87383718D01*
X152158330Y-87371421D01*
X152139117Y-87357171D01*
X152121393Y-87341107D01*
X152105329Y-87323383D01*
X152091079Y-87304170D01*
X152078782Y-87283653D01*
X152068554Y-87262029D01*
X152060496Y-87239507D01*
X152054684Y-87216303D01*
X152051174Y-87192642D01*
X152050000Y-87168750D01*
X152050000Y-86681250D01*
X152051174Y-86657358D01*
X152054684Y-86633697D01*
X152060496Y-86610493D01*
X152068554Y-86587971D01*
X152078782Y-86566347D01*
X152091079Y-86545830D01*
X152105329Y-86526617D01*
X152121393Y-86508893D01*
X152139117Y-86492829D01*
X152158330Y-86478579D01*
X152178847Y-86466282D01*
X152200471Y-86456054D01*
X152222993Y-86447996D01*
X152246197Y-86442184D01*
X152269858Y-86438674D01*
X152293750Y-86437500D01*
X153206250Y-86437500D01*
X153230142Y-86438674D01*
X153230142Y-86438674D01*
G37*
D11*
G04 #@! TD*
G04 #@! TO.P,C4,1*
G04 #@! TO.N,/5VDC*
X152750000Y-86925000D03*
D10*
G04 #@! TO.N,GND*
G04 #@! TO.C,C4*
G36*
X153230142Y-88313674D02*
X153253803Y-88317184D01*
X153277007Y-88322996D01*
X153299529Y-88331054D01*
X153321153Y-88341282D01*
X153341670Y-88353579D01*
X153360883Y-88367829D01*
X153378607Y-88383893D01*
X153394671Y-88401617D01*
X153408921Y-88420830D01*
X153421218Y-88441347D01*
X153431446Y-88462971D01*
X153439504Y-88485493D01*
X153445316Y-88508697D01*
X153448826Y-88532358D01*
X153450000Y-88556250D01*
X153450000Y-89043750D01*
X153448826Y-89067642D01*
X153445316Y-89091303D01*
X153439504Y-89114507D01*
X153431446Y-89137029D01*
X153421218Y-89158653D01*
X153408921Y-89179170D01*
X153394671Y-89198383D01*
X153378607Y-89216107D01*
X153360883Y-89232171D01*
X153341670Y-89246421D01*
X153321153Y-89258718D01*
X153299529Y-89268946D01*
X153277007Y-89277004D01*
X153253803Y-89282816D01*
X153230142Y-89286326D01*
X153206250Y-89287500D01*
X152293750Y-89287500D01*
X152269858Y-89286326D01*
X152246197Y-89282816D01*
X152222993Y-89277004D01*
X152200471Y-89268946D01*
X152178847Y-89258718D01*
X152158330Y-89246421D01*
X152139117Y-89232171D01*
X152121393Y-89216107D01*
X152105329Y-89198383D01*
X152091079Y-89179170D01*
X152078782Y-89158653D01*
X152068554Y-89137029D01*
X152060496Y-89114507D01*
X152054684Y-89091303D01*
X152051174Y-89067642D01*
X152050000Y-89043750D01*
X152050000Y-88556250D01*
X152051174Y-88532358D01*
X152054684Y-88508697D01*
X152060496Y-88485493D01*
X152068554Y-88462971D01*
X152078782Y-88441347D01*
X152091079Y-88420830D01*
X152105329Y-88401617D01*
X152121393Y-88383893D01*
X152139117Y-88367829D01*
X152158330Y-88353579D01*
X152178847Y-88341282D01*
X152200471Y-88331054D01*
X152222993Y-88322996D01*
X152246197Y-88317184D01*
X152269858Y-88313674D01*
X152293750Y-88312500D01*
X153206250Y-88312500D01*
X153230142Y-88313674D01*
X153230142Y-88313674D01*
G37*
D11*
G04 #@! TD*
G04 #@! TO.P,C4,2*
G04 #@! TO.N,GND*
X152750000Y-88800000D03*
D14*
G04 #@! TO.P,D1,1*
G04 #@! TO.N,Net-(C2-Pad1)*
X160700000Y-90350000D03*
G04 #@! TO.P,D1,2*
G04 #@! TO.N,GND*
X156400000Y-90350000D03*
G04 #@! TD*
D10*
G04 #@! TO.N,Net-(D2-Pad1)*
G04 #@! TO.C,D2*
G36*
X170152691Y-71176053D02*
X170173926Y-71179203D01*
X170194750Y-71184419D01*
X170214962Y-71191651D01*
X170234368Y-71200830D01*
X170252781Y-71211866D01*
X170270024Y-71224654D01*
X170285930Y-71239070D01*
X170300346Y-71254976D01*
X170313134Y-71272219D01*
X170324170Y-71290632D01*
X170333349Y-71310038D01*
X170340581Y-71330250D01*
X170345797Y-71351074D01*
X170348947Y-71372309D01*
X170350000Y-71393750D01*
X170350000Y-71906250D01*
X170348947Y-71927691D01*
X170345797Y-71948926D01*
X170340581Y-71969750D01*
X170333349Y-71989962D01*
X170324170Y-72009368D01*
X170313134Y-72027781D01*
X170300346Y-72045024D01*
X170285930Y-72060930D01*
X170270024Y-72075346D01*
X170252781Y-72088134D01*
X170234368Y-72099170D01*
X170214962Y-72108349D01*
X170194750Y-72115581D01*
X170173926Y-72120797D01*
X170152691Y-72123947D01*
X170131250Y-72125000D01*
X169693750Y-72125000D01*
X169672309Y-72123947D01*
X169651074Y-72120797D01*
X169630250Y-72115581D01*
X169610038Y-72108349D01*
X169590632Y-72099170D01*
X169572219Y-72088134D01*
X169554976Y-72075346D01*
X169539070Y-72060930D01*
X169524654Y-72045024D01*
X169511866Y-72027781D01*
X169500830Y-72009368D01*
X169491651Y-71989962D01*
X169484419Y-71969750D01*
X169479203Y-71948926D01*
X169476053Y-71927691D01*
X169475000Y-71906250D01*
X169475000Y-71393750D01*
X169476053Y-71372309D01*
X169479203Y-71351074D01*
X169484419Y-71330250D01*
X169491651Y-71310038D01*
X169500830Y-71290632D01*
X169511866Y-71272219D01*
X169524654Y-71254976D01*
X169539070Y-71239070D01*
X169554976Y-71224654D01*
X169572219Y-71211866D01*
X169590632Y-71200830D01*
X169610038Y-71191651D01*
X169630250Y-71184419D01*
X169651074Y-71179203D01*
X169672309Y-71176053D01*
X169693750Y-71175000D01*
X170131250Y-71175000D01*
X170152691Y-71176053D01*
X170152691Y-71176053D01*
G37*
D15*
G04 #@! TD*
G04 #@! TO.P,D2,1*
G04 #@! TO.N,Net-(D2-Pad1)*
X169912500Y-71650000D03*
D10*
G04 #@! TO.N,Net-(D2-Pad2)*
G04 #@! TO.C,D2*
G36*
X171727691Y-71176053D02*
X171748926Y-71179203D01*
X171769750Y-71184419D01*
X171789962Y-71191651D01*
X171809368Y-71200830D01*
X171827781Y-71211866D01*
X171845024Y-71224654D01*
X171860930Y-71239070D01*
X171875346Y-71254976D01*
X171888134Y-71272219D01*
X171899170Y-71290632D01*
X171908349Y-71310038D01*
X171915581Y-71330250D01*
X171920797Y-71351074D01*
X171923947Y-71372309D01*
X171925000Y-71393750D01*
X171925000Y-71906250D01*
X171923947Y-71927691D01*
X171920797Y-71948926D01*
X171915581Y-71969750D01*
X171908349Y-71989962D01*
X171899170Y-72009368D01*
X171888134Y-72027781D01*
X171875346Y-72045024D01*
X171860930Y-72060930D01*
X171845024Y-72075346D01*
X171827781Y-72088134D01*
X171809368Y-72099170D01*
X171789962Y-72108349D01*
X171769750Y-72115581D01*
X171748926Y-72120797D01*
X171727691Y-72123947D01*
X171706250Y-72125000D01*
X171268750Y-72125000D01*
X171247309Y-72123947D01*
X171226074Y-72120797D01*
X171205250Y-72115581D01*
X171185038Y-72108349D01*
X171165632Y-72099170D01*
X171147219Y-72088134D01*
X171129976Y-72075346D01*
X171114070Y-72060930D01*
X171099654Y-72045024D01*
X171086866Y-72027781D01*
X171075830Y-72009368D01*
X171066651Y-71989962D01*
X171059419Y-71969750D01*
X171054203Y-71948926D01*
X171051053Y-71927691D01*
X171050000Y-71906250D01*
X171050000Y-71393750D01*
X171051053Y-71372309D01*
X171054203Y-71351074D01*
X171059419Y-71330250D01*
X171066651Y-71310038D01*
X171075830Y-71290632D01*
X171086866Y-71272219D01*
X171099654Y-71254976D01*
X171114070Y-71239070D01*
X171129976Y-71224654D01*
X171147219Y-71211866D01*
X171165632Y-71200830D01*
X171185038Y-71191651D01*
X171205250Y-71184419D01*
X171226074Y-71179203D01*
X171247309Y-71176053D01*
X171268750Y-71175000D01*
X171706250Y-71175000D01*
X171727691Y-71176053D01*
X171727691Y-71176053D01*
G37*
D15*
G04 #@! TD*
G04 #@! TO.P,D2,2*
G04 #@! TO.N,Net-(D2-Pad2)*
X171487500Y-71650000D03*
D16*
G04 #@! TO.P,J2,1*
G04 #@! TO.N,Net-(J2-Pad1)*
X238160000Y-99700000D03*
D17*
G04 #@! TO.P,J2,3*
G04 #@! TO.N,Net-(J2-Pad3)*
X238160000Y-87000000D03*
G04 #@! TO.P,J2,2*
G04 #@! TO.N,GND*
X233970000Y-93350000D03*
G04 #@! TD*
D18*
G04 #@! TO.P,K1,1*
G04 #@! TO.N,Net-(K1-Pad1)*
X198250000Y-97350000D03*
G04 #@! TO.P,K1,2*
G04 #@! TO.N,/12VDC*
X198250000Y-89850000D03*
D19*
G04 #@! TO.P,K1,3*
G04 #@! TO.N,/VAC+*
X218250000Y-97350000D03*
G04 #@! TO.P,K1,4*
G04 #@! TO.N,Net-(J2-Pad1)*
X213250000Y-97350000D03*
G04 #@! TO.P,K1,5*
G04 #@! TO.N,/VAC-*
X213250000Y-89850000D03*
G04 #@! TO.P,K1,6*
G04 #@! TO.N,Net-(J2-Pad3)*
X218250000Y-89850000D03*
G04 #@! TD*
D20*
G04 #@! TO.P,L1,1*
G04 #@! TO.N,/5VDC*
X153348600Y-78150000D03*
G04 #@! TO.P,L1,2*
G04 #@! TO.N,Net-(C2-Pad1)*
X163051400Y-78150000D03*
G04 #@! TD*
D10*
G04 #@! TO.N,Net-(D2-Pad1)*
G04 #@! TO.C,R2*
G36*
X167480142Y-71026174D02*
X167503803Y-71029684D01*
X167527007Y-71035496D01*
X167549529Y-71043554D01*
X167571153Y-71053782D01*
X167591670Y-71066079D01*
X167610883Y-71080329D01*
X167628607Y-71096393D01*
X167644671Y-71114117D01*
X167658921Y-71133330D01*
X167671218Y-71153847D01*
X167681446Y-71175471D01*
X167689504Y-71197993D01*
X167695316Y-71221197D01*
X167698826Y-71244858D01*
X167700000Y-71268750D01*
X167700000Y-71756250D01*
X167698826Y-71780142D01*
X167695316Y-71803803D01*
X167689504Y-71827007D01*
X167681446Y-71849529D01*
X167671218Y-71871153D01*
X167658921Y-71891670D01*
X167644671Y-71910883D01*
X167628607Y-71928607D01*
X167610883Y-71944671D01*
X167591670Y-71958921D01*
X167571153Y-71971218D01*
X167549529Y-71981446D01*
X167527007Y-71989504D01*
X167503803Y-71995316D01*
X167480142Y-71998826D01*
X167456250Y-72000000D01*
X166543750Y-72000000D01*
X166519858Y-71998826D01*
X166496197Y-71995316D01*
X166472993Y-71989504D01*
X166450471Y-71981446D01*
X166428847Y-71971218D01*
X166408330Y-71958921D01*
X166389117Y-71944671D01*
X166371393Y-71928607D01*
X166355329Y-71910883D01*
X166341079Y-71891670D01*
X166328782Y-71871153D01*
X166318554Y-71849529D01*
X166310496Y-71827007D01*
X166304684Y-71803803D01*
X166301174Y-71780142D01*
X166300000Y-71756250D01*
X166300000Y-71268750D01*
X166301174Y-71244858D01*
X166304684Y-71221197D01*
X166310496Y-71197993D01*
X166318554Y-71175471D01*
X166328782Y-71153847D01*
X166341079Y-71133330D01*
X166355329Y-71114117D01*
X166371393Y-71096393D01*
X166389117Y-71080329D01*
X166408330Y-71066079D01*
X166428847Y-71053782D01*
X166450471Y-71043554D01*
X166472993Y-71035496D01*
X166496197Y-71029684D01*
X166519858Y-71026174D01*
X166543750Y-71025000D01*
X167456250Y-71025000D01*
X167480142Y-71026174D01*
X167480142Y-71026174D01*
G37*
D11*
G04 #@! TD*
G04 #@! TO.P,R2,1*
G04 #@! TO.N,Net-(D2-Pad1)*
X167000000Y-71512500D03*
D10*
G04 #@! TO.N,GND*
G04 #@! TO.C,R2*
G36*
X167480142Y-72901174D02*
X167503803Y-72904684D01*
X167527007Y-72910496D01*
X167549529Y-72918554D01*
X167571153Y-72928782D01*
X167591670Y-72941079D01*
X167610883Y-72955329D01*
X167628607Y-72971393D01*
X167644671Y-72989117D01*
X167658921Y-73008330D01*
X167671218Y-73028847D01*
X167681446Y-73050471D01*
X167689504Y-73072993D01*
X167695316Y-73096197D01*
X167698826Y-73119858D01*
X167700000Y-73143750D01*
X167700000Y-73631250D01*
X167698826Y-73655142D01*
X167695316Y-73678803D01*
X167689504Y-73702007D01*
X167681446Y-73724529D01*
X167671218Y-73746153D01*
X167658921Y-73766670D01*
X167644671Y-73785883D01*
X167628607Y-73803607D01*
X167610883Y-73819671D01*
X167591670Y-73833921D01*
X167571153Y-73846218D01*
X167549529Y-73856446D01*
X167527007Y-73864504D01*
X167503803Y-73870316D01*
X167480142Y-73873826D01*
X167456250Y-73875000D01*
X166543750Y-73875000D01*
X166519858Y-73873826D01*
X166496197Y-73870316D01*
X166472993Y-73864504D01*
X166450471Y-73856446D01*
X166428847Y-73846218D01*
X166408330Y-73833921D01*
X166389117Y-73819671D01*
X166371393Y-73803607D01*
X166355329Y-73785883D01*
X166341079Y-73766670D01*
X166328782Y-73746153D01*
X166318554Y-73724529D01*
X166310496Y-73702007D01*
X166304684Y-73678803D01*
X166301174Y-73655142D01*
X166300000Y-73631250D01*
X166300000Y-73143750D01*
X166301174Y-73119858D01*
X166304684Y-73096197D01*
X166310496Y-73072993D01*
X166318554Y-73050471D01*
X166328782Y-73028847D01*
X166341079Y-73008330D01*
X166355329Y-72989117D01*
X166371393Y-72971393D01*
X166389117Y-72955329D01*
X166408330Y-72941079D01*
X166428847Y-72928782D01*
X166450471Y-72918554D01*
X166472993Y-72910496D01*
X166496197Y-72904684D01*
X166519858Y-72901174D01*
X166543750Y-72900000D01*
X167456250Y-72900000D01*
X167480142Y-72901174D01*
X167480142Y-72901174D01*
G37*
D11*
G04 #@! TD*
G04 #@! TO.P,R2,2*
G04 #@! TO.N,GND*
X167000000Y-73387500D03*
D21*
G04 #@! TO.P,RV1,1*
G04 #@! TO.N,/VAC+*
X95800000Y-104440000D03*
G04 #@! TO.P,RV1,2*
G04 #@! TO.N,/VAC-*
X95800000Y-98060000D03*
G04 #@! TD*
D22*
G04 #@! TO.P,U1,2*
G04 #@! TO.N,/VAC-*
X119400000Y-94130000D03*
D23*
G04 #@! TO.P,U1,1*
G04 #@! TO.N,/VAC+*
X119400000Y-109370000D03*
D22*
G04 #@! TO.P,U1,3*
G04 #@! TO.N,GND*
X147400000Y-94130000D03*
G04 #@! TO.P,U1,4*
G04 #@! TO.N,/12VDC*
X147400000Y-101750000D03*
G04 #@! TD*
D24*
G04 #@! TO.P,U2,8*
G04 #@! TO.N,Net-(C2-Pad1)*
X160675000Y-98695000D03*
G04 #@! TO.P,U2,7*
G04 #@! TO.N,GND*
X160675000Y-99965000D03*
G04 #@! TO.P,U2,6*
G04 #@! TO.N,Net-(U2-Pad6)*
X160675000Y-101235000D03*
G04 #@! TO.P,U2,5*
G04 #@! TO.N,/5VDC*
X160675000Y-102505000D03*
G04 #@! TO.P,U2,1*
G04 #@! TO.N,Net-(C2-Pad2)*
X155725000Y-98695000D03*
G04 #@! TO.P,U2,2*
G04 #@! TO.N,/12VDC*
X155725000Y-99965000D03*
G04 #@! TO.P,U2,3*
X155725000Y-101235000D03*
G04 #@! TO.P,U2,4*
G04 #@! TO.N,Net-(R1-Pad2)*
X155725000Y-102505000D03*
D25*
G04 #@! TO.P,U2,9*
G04 #@! TO.N,GND*
X158200000Y-100600000D03*
G04 #@! TD*
D26*
G04 #@! TO.P,U3,12*
G04 #@! TO.N,Net-(U3-Pad12)*
X170350000Y-109850000D03*
G04 #@! TO.P,U3,11*
G04 #@! TO.N,Net-(U3-Pad11)*
X170350000Y-107310000D03*
G04 #@! TO.P,U3,10*
G04 #@! TO.N,Net-(U3-Pad10)*
X170350000Y-104770000D03*
G04 #@! TO.P,U3,9*
G04 #@! TO.N,Net-(U3-Pad9)*
X170350000Y-102230000D03*
G04 #@! TO.P,U3,8*
G04 #@! TO.N,Net-(U3-Pad8)*
X170350000Y-99690000D03*
G04 #@! TO.P,U3,7*
G04 #@! TO.N,Net-(U3-Pad7)*
X170350000Y-97150000D03*
G04 #@! TO.P,U3,6*
G04 #@! TO.N,Net-(U3-Pad6)*
X170350000Y-94610000D03*
G04 #@! TO.P,U3,5*
G04 #@! TO.N,Net-(U3-Pad5)*
X170350000Y-92070000D03*
G04 #@! TO.P,U3,4*
G04 #@! TO.N,Net-(U3-Pad4)*
X170350000Y-89530000D03*
G04 #@! TO.P,U3,3*
G04 #@! TO.N,Net-(U3-Pad3)*
X170350000Y-86990000D03*
G04 #@! TO.P,U3,2*
G04 #@! TO.N,GND*
X170350000Y-84450000D03*
D27*
G04 #@! TO.P,U3,1*
G04 #@! TO.N,/5VDC*
X170350000Y-81910000D03*
D26*
G04 #@! TO.P,U3,13*
G04 #@! TO.N,Net-(U3-Pad13)*
X188130000Y-109850000D03*
G04 #@! TO.P,U3,14*
G04 #@! TO.N,Net-(U3-Pad14)*
X188130000Y-107310000D03*
G04 #@! TO.P,U3,15*
G04 #@! TO.N,Net-(U3-Pad15)*
X188130000Y-104770000D03*
G04 #@! TO.P,U3,16*
G04 #@! TO.N,Net-(U3-Pad16)*
X188130000Y-102230000D03*
G04 #@! TO.P,U3,17*
G04 #@! TO.N,Net-(U3-Pad17)*
X188130000Y-99690000D03*
G04 #@! TO.P,U3,18*
G04 #@! TO.N,Net-(U3-Pad18)*
X188130000Y-97150000D03*
G04 #@! TO.P,U3,19*
G04 #@! TO.N,Net-(U3-Pad19)*
X188130000Y-94610000D03*
G04 #@! TO.P,U3,20*
G04 #@! TO.N,Net-(D2-Pad2)*
X188130000Y-92070000D03*
G04 #@! TO.P,U3,21*
G04 #@! TO.N,N/C*
X188130000Y-89530000D03*
G04 #@! TO.P,U3,22*
G04 #@! TO.N,Net-(U3-Pad22)*
X188130000Y-86990000D03*
G04 #@! TO.P,U3,23*
G04 #@! TO.N,Net-(U3-Pad23)*
X188130000Y-84450000D03*
G04 #@! TO.P,U3,24*
G04 #@! TO.N,Net-(U3-Pad24)*
X188130000Y-81910000D03*
G04 #@! TD*
D28*
G04 #@! TO.P,U4,1*
G04 #@! TO.N,Net-(D2-Pad2)*
X192255400Y-92010200D03*
G04 #@! TO.P,U4,2*
G04 #@! TO.N,GND*
X192255400Y-93889800D03*
G04 #@! TO.P,U4,3*
G04 #@! TO.N,Net-(K1-Pad1)*
X194744600Y-92950000D03*
G04 #@! TD*
D29*
G04 #@! TO.N,GND*
X130150000Y-100850000D03*
X140950000Y-92850000D03*
X163050000Y-109400000D03*
X192400000Y-113450000D03*
D30*
G04 #@! TO.N,/12VDC*
X141450000Y-99200000D03*
D31*
G04 #@! TO.N,Net-(C2-Pad2)*
X155150000Y-97700000D03*
X157500000Y-94750000D03*
G04 #@! TO.N,/5VDC*
X162750000Y-102600000D03*
X156800000Y-86250000D03*
X156650000Y-73750000D03*
D32*
G04 #@! TO.N,/VAC-*
X95900000Y-91700000D03*
G04 #@! TO.N,/VAC+*
X95750000Y-110550000D03*
G04 #@! TD*
D33*
G04 #@! TO.N,GND*
X158835000Y-99965000D02*
X158200000Y-100600000D01*
X160675000Y-99965000D02*
X158835000Y-99965000D01*
D34*
X138150000Y-92850000D02*
X130150000Y-100850000D01*
X140950000Y-92850000D02*
X138150000Y-92850000D01*
D35*
X169020923Y-84450000D02*
X166800000Y-86670923D01*
X170350000Y-84450000D02*
X169020923Y-84450000D01*
X166800000Y-105650000D02*
X163050000Y-109400000D01*
X166800000Y-86670923D02*
X166800000Y-105650000D01*
X192255400Y-113305400D02*
X192400000Y-113450000D01*
X192255400Y-93889800D02*
X192255400Y-113305400D01*
X212500000Y-93350000D02*
X192400000Y-113450000D01*
D36*
X167556237Y-73943737D02*
X167000000Y-73387500D01*
X171939801Y-78327301D02*
X167556237Y-73943737D01*
X171939801Y-83369801D02*
X171939801Y-78327301D01*
X171289799Y-83510201D02*
X171799401Y-83510201D01*
X171799401Y-83510201D02*
X171939801Y-83369801D01*
X170350000Y-84450000D02*
X171289799Y-83510201D01*
D34*
X129350000Y-101650000D02*
X130150000Y-100850000D01*
D35*
X212500000Y-93350000D02*
X233970000Y-93350000D01*
D37*
G04 #@! TO.N,Net-(C2-Pad2)*
X155725000Y-98275000D02*
X155150000Y-97700000D01*
X155725000Y-98695000D02*
X155725000Y-98275000D01*
X158050000Y-95300000D02*
X157500000Y-94750000D01*
X158812500Y-95300000D02*
X158050000Y-95300000D01*
G04 #@! TO.N,/5VDC*
X162655000Y-102505000D02*
X162750000Y-102600000D01*
X160675000Y-102505000D02*
X162655000Y-102505000D01*
X157215685Y-73750000D02*
X156650000Y-73750000D01*
X170350000Y-79945698D02*
X164154302Y-73750000D01*
X164154302Y-73750000D02*
X157215685Y-73750000D01*
X170350000Y-81910000D02*
X170350000Y-79945698D01*
G04 #@! TO.N,Net-(D2-Pad1)*
X167137500Y-71650000D02*
X167000000Y-71512500D01*
X169912500Y-71650000D02*
X167137500Y-71650000D01*
G04 #@! TO.N,Net-(D2-Pad2)*
X188189800Y-92010200D02*
X188130000Y-92070000D01*
X192255400Y-92010200D02*
X188189800Y-92010200D01*
X171487500Y-75427500D02*
X188130000Y-92070000D01*
X171487500Y-71650000D02*
X171487500Y-75427500D01*
D38*
G04 #@! TO.N,/VAC-*
X95800000Y-92550000D02*
X95750000Y-92500000D01*
X95800000Y-98060000D02*
X95800000Y-92550000D01*
G04 #@! TO.N,/VAC+*
X95800000Y-110500000D02*
X95750000Y-110550000D01*
X95800000Y-104440000D02*
X95800000Y-110500000D01*
D37*
G04 #@! TO.N,Net-(K1-Pad1)*
X194744600Y-93844600D02*
X198250000Y-97350000D01*
X194744600Y-92950000D02*
X194744600Y-93844600D01*
D33*
G04 #@! TO.N,Net-(R1-Pad2)*
X155630000Y-102600000D02*
X155725000Y-102505000D01*
X153550000Y-102600000D02*
X155630000Y-102600000D01*
G04 #@! TD*
D39*
G04 #@! TO.N,Net-(C2-Pad1)*
G36*
X163962624Y-74809900D02*
X163337150Y-74809900D01*
X163178400Y-74968650D01*
X163178400Y-78023000D01*
X163198400Y-78023000D01*
X163198400Y-78277000D01*
X163178400Y-78277000D01*
X163178400Y-81331350D01*
X163337150Y-81490100D01*
X164607410Y-81490100D01*
X164599258Y-83200474D01*
X164599257Y-83201269D01*
X164622811Y-98948746D01*
X162276796Y-98962546D01*
X162136250Y-98822000D01*
X160802000Y-98822000D01*
X160802000Y-98842000D01*
X160627000Y-98842000D01*
X160627000Y-97918750D01*
X160802000Y-97918750D01*
X160802000Y-98568000D01*
X162136250Y-98568000D01*
X162295000Y-98409250D01*
X162295000Y-98268690D01*
X162198327Y-98035301D01*
X162019698Y-97856673D01*
X161786309Y-97760000D01*
X160960750Y-97760000D01*
X160802000Y-97918750D01*
X160627000Y-97918750D01*
X160627000Y-97900000D01*
X160617333Y-97851399D01*
X160589803Y-97810197D01*
X160548601Y-97782667D01*
X160499998Y-97773000D01*
X160402251Y-97773001D01*
X160389250Y-97760000D01*
X159923160Y-97760000D01*
X159919754Y-96571237D01*
X160073691Y-96635000D01*
X160401750Y-96635000D01*
X160560500Y-96476250D01*
X160560500Y-95427000D01*
X160814500Y-95427000D01*
X160814500Y-96476250D01*
X160973250Y-96635000D01*
X161301309Y-96635000D01*
X161534698Y-96538327D01*
X161713327Y-96359699D01*
X161810000Y-96126310D01*
X161810000Y-95585750D01*
X161651250Y-95427000D01*
X160814500Y-95427000D01*
X160560500Y-95427000D01*
X160540500Y-95427000D01*
X160540500Y-95173000D01*
X160560500Y-95173000D01*
X160560500Y-94123750D01*
X160814500Y-94123750D01*
X160814500Y-95173000D01*
X161651250Y-95173000D01*
X161810000Y-95014250D01*
X161810000Y-94473690D01*
X161713327Y-94240301D01*
X161534698Y-94061673D01*
X161301309Y-93965000D01*
X160973250Y-93965000D01*
X160814500Y-94123750D01*
X160560500Y-94123750D01*
X160401750Y-93965000D01*
X160073691Y-93965000D01*
X159912477Y-94031777D01*
X159907043Y-92135000D01*
X160414250Y-92135000D01*
X160573000Y-91976250D01*
X160573000Y-90477000D01*
X160827000Y-90477000D01*
X160827000Y-91976250D01*
X160985750Y-92135000D01*
X162076309Y-92135000D01*
X162309698Y-92038327D01*
X162488327Y-91859699D01*
X162585000Y-91626310D01*
X162585000Y-90635750D01*
X162426250Y-90477000D01*
X160827000Y-90477000D01*
X160573000Y-90477000D01*
X160553000Y-90477000D01*
X160553000Y-90223000D01*
X160573000Y-90223000D01*
X160573000Y-88723750D01*
X160827000Y-88723750D01*
X160827000Y-90223000D01*
X162426250Y-90223000D01*
X162585000Y-90064250D01*
X162585000Y-89073690D01*
X162488327Y-88840301D01*
X162309698Y-88661673D01*
X162076309Y-88565000D01*
X160985750Y-88565000D01*
X160827000Y-88723750D01*
X160573000Y-88723750D01*
X160414250Y-88565000D01*
X159896813Y-88565000D01*
X159867791Y-78435750D01*
X160968600Y-78435750D01*
X160968600Y-80981409D01*
X161065273Y-81214798D01*
X161243901Y-81393427D01*
X161477290Y-81490100D01*
X162765650Y-81490100D01*
X162924400Y-81331350D01*
X162924400Y-78277000D01*
X161127350Y-78277000D01*
X160968600Y-78435750D01*
X159867791Y-78435750D01*
X159858859Y-75318591D01*
X160968600Y-75318591D01*
X160968600Y-77864250D01*
X161127350Y-78023000D01*
X162924400Y-78023000D01*
X162924400Y-74968650D01*
X162765650Y-74809900D01*
X161477290Y-74809900D01*
X161243901Y-74906573D01*
X161065273Y-75085202D01*
X160968600Y-75318591D01*
X159858859Y-75318591D01*
X159856900Y-74635000D01*
X163787724Y-74635000D01*
X163962624Y-74809900D01*
X163962624Y-74809900D01*
G37*
X163962624Y-74809900D02*
X163337150Y-74809900D01*
X163178400Y-74968650D01*
X163178400Y-78023000D01*
X163198400Y-78023000D01*
X163198400Y-78277000D01*
X163178400Y-78277000D01*
X163178400Y-81331350D01*
X163337150Y-81490100D01*
X164607410Y-81490100D01*
X164599258Y-83200474D01*
X164599257Y-83201269D01*
X164622811Y-98948746D01*
X162276796Y-98962546D01*
X162136250Y-98822000D01*
X160802000Y-98822000D01*
X160802000Y-98842000D01*
X160627000Y-98842000D01*
X160627000Y-97918750D01*
X160802000Y-97918750D01*
X160802000Y-98568000D01*
X162136250Y-98568000D01*
X162295000Y-98409250D01*
X162295000Y-98268690D01*
X162198327Y-98035301D01*
X162019698Y-97856673D01*
X161786309Y-97760000D01*
X160960750Y-97760000D01*
X160802000Y-97918750D01*
X160627000Y-97918750D01*
X160627000Y-97900000D01*
X160617333Y-97851399D01*
X160589803Y-97810197D01*
X160548601Y-97782667D01*
X160499998Y-97773000D01*
X160402251Y-97773001D01*
X160389250Y-97760000D01*
X159923160Y-97760000D01*
X159919754Y-96571237D01*
X160073691Y-96635000D01*
X160401750Y-96635000D01*
X160560500Y-96476250D01*
X160560500Y-95427000D01*
X160814500Y-95427000D01*
X160814500Y-96476250D01*
X160973250Y-96635000D01*
X161301309Y-96635000D01*
X161534698Y-96538327D01*
X161713327Y-96359699D01*
X161810000Y-96126310D01*
X161810000Y-95585750D01*
X161651250Y-95427000D01*
X160814500Y-95427000D01*
X160560500Y-95427000D01*
X160540500Y-95427000D01*
X160540500Y-95173000D01*
X160560500Y-95173000D01*
X160560500Y-94123750D01*
X160814500Y-94123750D01*
X160814500Y-95173000D01*
X161651250Y-95173000D01*
X161810000Y-95014250D01*
X161810000Y-94473690D01*
X161713327Y-94240301D01*
X161534698Y-94061673D01*
X161301309Y-93965000D01*
X160973250Y-93965000D01*
X160814500Y-94123750D01*
X160560500Y-94123750D01*
X160401750Y-93965000D01*
X160073691Y-93965000D01*
X159912477Y-94031777D01*
X159907043Y-92135000D01*
X160414250Y-92135000D01*
X160573000Y-91976250D01*
X160573000Y-90477000D01*
X160827000Y-90477000D01*
X160827000Y-91976250D01*
X160985750Y-92135000D01*
X162076309Y-92135000D01*
X162309698Y-92038327D01*
X162488327Y-91859699D01*
X162585000Y-91626310D01*
X162585000Y-90635750D01*
X162426250Y-90477000D01*
X160827000Y-90477000D01*
X160573000Y-90477000D01*
X160553000Y-90477000D01*
X160553000Y-90223000D01*
X160573000Y-90223000D01*
X160573000Y-88723750D01*
X160827000Y-88723750D01*
X160827000Y-90223000D01*
X162426250Y-90223000D01*
X162585000Y-90064250D01*
X162585000Y-89073690D01*
X162488327Y-88840301D01*
X162309698Y-88661673D01*
X162076309Y-88565000D01*
X160985750Y-88565000D01*
X160827000Y-88723750D01*
X160573000Y-88723750D01*
X160414250Y-88565000D01*
X159896813Y-88565000D01*
X159867791Y-78435750D01*
X160968600Y-78435750D01*
X160968600Y-80981409D01*
X161065273Y-81214798D01*
X161243901Y-81393427D01*
X161477290Y-81490100D01*
X162765650Y-81490100D01*
X162924400Y-81331350D01*
X162924400Y-78277000D01*
X161127350Y-78277000D01*
X160968600Y-78435750D01*
X159867791Y-78435750D01*
X159858859Y-75318591D01*
X160968600Y-75318591D01*
X160968600Y-77864250D01*
X161127350Y-78023000D01*
X162924400Y-78023000D01*
X162924400Y-74968650D01*
X162765650Y-74809900D01*
X161477290Y-74809900D01*
X161243901Y-74906573D01*
X161065273Y-75085202D01*
X160968600Y-75318591D01*
X159858859Y-75318591D01*
X159856900Y-74635000D01*
X163787724Y-74635000D01*
X163962624Y-74809900D01*
G04 #@! TO.N,/12VDC*
G36*
X150965000Y-95701750D02*
X151123750Y-95860500D01*
X152173000Y-95860500D01*
X152173000Y-95840500D01*
X152427000Y-95840500D01*
X152427000Y-95860500D01*
X152447000Y-95860500D01*
X152447000Y-96114500D01*
X152427000Y-96114500D01*
X152427000Y-96951250D01*
X152585750Y-97110000D01*
X153126310Y-97110000D01*
X153359699Y-97013327D01*
X153466893Y-96906132D01*
X153498010Y-99426568D01*
X153508276Y-99475046D01*
X153536313Y-99515904D01*
X153577851Y-99542924D01*
X153627478Y-99551976D01*
X154105000Y-99542658D01*
X154105000Y-99679250D01*
X154263750Y-99838000D01*
X155598000Y-99838000D01*
X155598000Y-99818000D01*
X155852000Y-99818000D01*
X155852000Y-99838000D01*
X155872000Y-99838000D01*
X155872000Y-100092000D01*
X155852000Y-100092000D01*
X155852000Y-101108000D01*
X155872000Y-101108000D01*
X155872000Y-101362000D01*
X155852000Y-101362000D01*
X155852000Y-101382000D01*
X155598000Y-101382000D01*
X155598000Y-101362000D01*
X154649556Y-101362000D01*
X154587294Y-101320398D01*
X154246250Y-101252560D01*
X153758750Y-101252560D01*
X153417706Y-101320398D01*
X153128584Y-101513584D01*
X153127793Y-101514767D01*
X152974698Y-101361673D01*
X152741309Y-101265000D01*
X152413250Y-101265000D01*
X152254500Y-101423750D01*
X152254500Y-102473000D01*
X152274500Y-102473000D01*
X152274500Y-102727000D01*
X152254500Y-102727000D01*
X152254500Y-102747000D01*
X152000500Y-102747000D01*
X152000500Y-102727000D01*
X151163750Y-102727000D01*
X151005000Y-102885750D01*
X151005000Y-103426310D01*
X151101673Y-103659699D01*
X151280302Y-103838327D01*
X151484720Y-103923000D01*
X138927000Y-103923000D01*
X138927000Y-102724416D01*
X146605189Y-102724416D01*
X146673671Y-102965772D01*
X147194214Y-103151181D01*
X147746088Y-103123273D01*
X148126329Y-102965772D01*
X148194811Y-102724416D01*
X147400000Y-101929605D01*
X146605189Y-102724416D01*
X138927000Y-102724416D01*
X138927000Y-101544214D01*
X145998819Y-101544214D01*
X146026727Y-102096088D01*
X146184228Y-102476329D01*
X146425584Y-102544811D01*
X147220395Y-101750000D01*
X147579605Y-101750000D01*
X148374416Y-102544811D01*
X148615772Y-102476329D01*
X148801181Y-101955786D01*
X148791973Y-101773690D01*
X151005000Y-101773690D01*
X151005000Y-102314250D01*
X151163750Y-102473000D01*
X152000500Y-102473000D01*
X152000500Y-101423750D01*
X151841750Y-101265000D01*
X151513691Y-101265000D01*
X151280302Y-101361673D01*
X151101673Y-101540301D01*
X151005000Y-101773690D01*
X148791973Y-101773690D01*
X148773273Y-101403912D01*
X148615772Y-101023671D01*
X148374416Y-100955189D01*
X147579605Y-101750000D01*
X147220395Y-101750000D01*
X146425584Y-100955189D01*
X146184228Y-101023671D01*
X145998819Y-101544214D01*
X138927000Y-101544214D01*
X138927000Y-100775584D01*
X146605189Y-100775584D01*
X147400000Y-101570395D01*
X148194811Y-100775584D01*
X148126329Y-100534228D01*
X147605786Y-100348819D01*
X147053912Y-100376727D01*
X146673671Y-100534228D01*
X146605189Y-100775584D01*
X138927000Y-100775584D01*
X138927000Y-100250750D01*
X154105000Y-100250750D01*
X154105000Y-100391310D01*
X154191442Y-100600000D01*
X154105000Y-100808690D01*
X154105000Y-100949250D01*
X154263750Y-101108000D01*
X155598000Y-101108000D01*
X155598000Y-100092000D01*
X154263750Y-100092000D01*
X154105000Y-100250750D01*
X138927000Y-100250750D01*
X138927000Y-96273250D01*
X150965000Y-96273250D01*
X150965000Y-96601309D01*
X151061673Y-96834698D01*
X151240301Y-97013327D01*
X151473690Y-97110000D01*
X152014250Y-97110000D01*
X152173000Y-96951250D01*
X152173000Y-96114500D01*
X151123750Y-96114500D01*
X150965000Y-96273250D01*
X138927000Y-96273250D01*
X138927000Y-95799453D01*
X139145233Y-95581220D01*
X146998451Y-95676991D01*
X147002886Y-95676967D01*
X149202886Y-95626967D01*
X149203627Y-95626948D01*
X150965000Y-95576623D01*
X150965000Y-95701750D01*
X150965000Y-95701750D01*
G37*
X150965000Y-95701750D02*
X151123750Y-95860500D01*
X152173000Y-95860500D01*
X152173000Y-95840500D01*
X152427000Y-95840500D01*
X152427000Y-95860500D01*
X152447000Y-95860500D01*
X152447000Y-96114500D01*
X152427000Y-96114500D01*
X152427000Y-96951250D01*
X152585750Y-97110000D01*
X153126310Y-97110000D01*
X153359699Y-97013327D01*
X153466893Y-96906132D01*
X153498010Y-99426568D01*
X153508276Y-99475046D01*
X153536313Y-99515904D01*
X153577851Y-99542924D01*
X153627478Y-99551976D01*
X154105000Y-99542658D01*
X154105000Y-99679250D01*
X154263750Y-99838000D01*
X155598000Y-99838000D01*
X155598000Y-99818000D01*
X155852000Y-99818000D01*
X155852000Y-99838000D01*
X155872000Y-99838000D01*
X155872000Y-100092000D01*
X155852000Y-100092000D01*
X155852000Y-101108000D01*
X155872000Y-101108000D01*
X155872000Y-101362000D01*
X155852000Y-101362000D01*
X155852000Y-101382000D01*
X155598000Y-101382000D01*
X155598000Y-101362000D01*
X154649556Y-101362000D01*
X154587294Y-101320398D01*
X154246250Y-101252560D01*
X153758750Y-101252560D01*
X153417706Y-101320398D01*
X153128584Y-101513584D01*
X153127793Y-101514767D01*
X152974698Y-101361673D01*
X152741309Y-101265000D01*
X152413250Y-101265000D01*
X152254500Y-101423750D01*
X152254500Y-102473000D01*
X152274500Y-102473000D01*
X152274500Y-102727000D01*
X152254500Y-102727000D01*
X152254500Y-102747000D01*
X152000500Y-102747000D01*
X152000500Y-102727000D01*
X151163750Y-102727000D01*
X151005000Y-102885750D01*
X151005000Y-103426310D01*
X151101673Y-103659699D01*
X151280302Y-103838327D01*
X151484720Y-103923000D01*
X138927000Y-103923000D01*
X138927000Y-102724416D01*
X146605189Y-102724416D01*
X146673671Y-102965772D01*
X147194214Y-103151181D01*
X147746088Y-103123273D01*
X148126329Y-102965772D01*
X148194811Y-102724416D01*
X147400000Y-101929605D01*
X146605189Y-102724416D01*
X138927000Y-102724416D01*
X138927000Y-101544214D01*
X145998819Y-101544214D01*
X146026727Y-102096088D01*
X146184228Y-102476329D01*
X146425584Y-102544811D01*
X147220395Y-101750000D01*
X147579605Y-101750000D01*
X148374416Y-102544811D01*
X148615772Y-102476329D01*
X148801181Y-101955786D01*
X148791973Y-101773690D01*
X151005000Y-101773690D01*
X151005000Y-102314250D01*
X151163750Y-102473000D01*
X152000500Y-102473000D01*
X152000500Y-101423750D01*
X151841750Y-101265000D01*
X151513691Y-101265000D01*
X151280302Y-101361673D01*
X151101673Y-101540301D01*
X151005000Y-101773690D01*
X148791973Y-101773690D01*
X148773273Y-101403912D01*
X148615772Y-101023671D01*
X148374416Y-100955189D01*
X147579605Y-101750000D01*
X147220395Y-101750000D01*
X146425584Y-100955189D01*
X146184228Y-101023671D01*
X145998819Y-101544214D01*
X138927000Y-101544214D01*
X138927000Y-100775584D01*
X146605189Y-100775584D01*
X147400000Y-101570395D01*
X148194811Y-100775584D01*
X148126329Y-100534228D01*
X147605786Y-100348819D01*
X147053912Y-100376727D01*
X146673671Y-100534228D01*
X146605189Y-100775584D01*
X138927000Y-100775584D01*
X138927000Y-100250750D01*
X154105000Y-100250750D01*
X154105000Y-100391310D01*
X154191442Y-100600000D01*
X154105000Y-100808690D01*
X154105000Y-100949250D01*
X154263750Y-101108000D01*
X155598000Y-101108000D01*
X155598000Y-100092000D01*
X154263750Y-100092000D01*
X154105000Y-100250750D01*
X138927000Y-100250750D01*
X138927000Y-96273250D01*
X150965000Y-96273250D01*
X150965000Y-96601309D01*
X151061673Y-96834698D01*
X151240301Y-97013327D01*
X151473690Y-97110000D01*
X152014250Y-97110000D01*
X152173000Y-96951250D01*
X152173000Y-96114500D01*
X151123750Y-96114500D01*
X150965000Y-96273250D01*
X138927000Y-96273250D01*
X138927000Y-95799453D01*
X139145233Y-95581220D01*
X146998451Y-95676991D01*
X147002886Y-95676967D01*
X149202886Y-95626967D01*
X149203627Y-95626948D01*
X150965000Y-95576623D01*
X150965000Y-95701750D01*
G04 #@! TO.N,GND*
G36*
X146615000Y-88451750D02*
X146773750Y-88610500D01*
X147823000Y-88610500D01*
X147823000Y-88590500D01*
X148077000Y-88590500D01*
X148077000Y-88610500D01*
X149126250Y-88610500D01*
X149285000Y-88451750D01*
X149285000Y-88327000D01*
X151415000Y-88327000D01*
X151415000Y-88514250D01*
X151573750Y-88673000D01*
X152623000Y-88673000D01*
X152623000Y-88653000D01*
X152877000Y-88653000D01*
X152877000Y-88673000D01*
X153926250Y-88673000D01*
X154085000Y-88514250D01*
X154085000Y-88327000D01*
X158173000Y-88327000D01*
X158173000Y-88824974D01*
X158009698Y-88661673D01*
X157776309Y-88565000D01*
X156685750Y-88565000D01*
X156527000Y-88723750D01*
X156527000Y-90223000D01*
X156547000Y-90223000D01*
X156547000Y-90477000D01*
X156527000Y-90477000D01*
X156527000Y-91976250D01*
X156685750Y-92135000D01*
X157776309Y-92135000D01*
X158009698Y-92038327D01*
X158173000Y-91875026D01*
X158173000Y-93670627D01*
X156952351Y-93648022D01*
X156903580Y-93656788D01*
X156861876Y-93683550D01*
X156833587Y-93724235D01*
X156823207Y-93767755D01*
X156811369Y-93974920D01*
X156622569Y-94163720D01*
X156465000Y-94544126D01*
X156465000Y-94955874D01*
X156622569Y-95336280D01*
X156727577Y-95441288D01*
X156723207Y-95517755D01*
X156730086Y-95566828D01*
X156757312Y-95611821D01*
X158593618Y-97572201D01*
X159042560Y-98526203D01*
X159042560Y-98820000D01*
X158485750Y-98820000D01*
X158327000Y-98978750D01*
X158327000Y-100473000D01*
X158347000Y-100473000D01*
X158347000Y-100727000D01*
X158327000Y-100727000D01*
X158327000Y-100747000D01*
X158073000Y-100747000D01*
X158073000Y-100727000D01*
X158053000Y-100727000D01*
X158053000Y-100473000D01*
X158073000Y-100473000D01*
X158073000Y-98978750D01*
X157914250Y-98820000D01*
X157357440Y-98820000D01*
X157357440Y-98395000D01*
X157308157Y-98147235D01*
X157167809Y-97937191D01*
X157105587Y-97895615D01*
X157101999Y-97149389D01*
X157092098Y-97100836D01*
X157064370Y-97059767D01*
X157023036Y-97032435D01*
X156991356Y-97024058D01*
X155780517Y-96866806D01*
X155736280Y-96822569D01*
X155355874Y-96665000D01*
X155181725Y-96665000D01*
X155226975Y-94402539D01*
X155218281Y-94353755D01*
X155191580Y-94312011D01*
X155150937Y-94283663D01*
X155090732Y-94273339D01*
X153617860Y-94381110D01*
X153476250Y-94239500D01*
X152427000Y-94239500D01*
X152427000Y-94259500D01*
X152173000Y-94259500D01*
X152173000Y-94239500D01*
X151123750Y-94239500D01*
X150965000Y-94398250D01*
X150965000Y-94575222D01*
X148655713Y-94744194D01*
X148801181Y-94335786D01*
X148773273Y-93783912D01*
X148655131Y-93498691D01*
X150965000Y-93498691D01*
X150965000Y-93826750D01*
X151123750Y-93985500D01*
X152173000Y-93985500D01*
X152173000Y-93148750D01*
X152427000Y-93148750D01*
X152427000Y-93985500D01*
X153476250Y-93985500D01*
X153635000Y-93826750D01*
X153635000Y-93498691D01*
X153538327Y-93265302D01*
X153359699Y-93086673D01*
X153126310Y-92990000D01*
X152585750Y-92990000D01*
X152427000Y-93148750D01*
X152173000Y-93148750D01*
X152014250Y-92990000D01*
X151473690Y-92990000D01*
X151240301Y-93086673D01*
X151061673Y-93265302D01*
X150965000Y-93498691D01*
X148655131Y-93498691D01*
X148615772Y-93403671D01*
X148374416Y-93335189D01*
X147579605Y-94130000D01*
X147593748Y-94144143D01*
X147414143Y-94323748D01*
X147400000Y-94309605D01*
X147385858Y-94323748D01*
X147206253Y-94144143D01*
X147220395Y-94130000D01*
X146425584Y-93335189D01*
X146184228Y-93403671D01*
X145998819Y-93924214D01*
X146026727Y-94476088D01*
X146183699Y-94855053D01*
X139027000Y-94676136D01*
X139027000Y-93155584D01*
X146605189Y-93155584D01*
X147400000Y-93950395D01*
X148194811Y-93155584D01*
X148126329Y-92914228D01*
X147605786Y-92728819D01*
X147053912Y-92756727D01*
X146673671Y-92914228D01*
X146605189Y-93155584D01*
X139027000Y-93155584D01*
X139027000Y-90635750D01*
X154515000Y-90635750D01*
X154515000Y-91626310D01*
X154611673Y-91859699D01*
X154790302Y-92038327D01*
X155023691Y-92135000D01*
X156114250Y-92135000D01*
X156273000Y-91976250D01*
X156273000Y-90477000D01*
X154673750Y-90477000D01*
X154515000Y-90635750D01*
X139027000Y-90635750D01*
X139027000Y-89023250D01*
X146615000Y-89023250D01*
X146615000Y-89351309D01*
X146711673Y-89584698D01*
X146890301Y-89763327D01*
X147123690Y-89860000D01*
X147664250Y-89860000D01*
X147823000Y-89701250D01*
X147823000Y-88864500D01*
X148077000Y-88864500D01*
X148077000Y-89701250D01*
X148235750Y-89860000D01*
X148776310Y-89860000D01*
X149009699Y-89763327D01*
X149188327Y-89584698D01*
X149285000Y-89351309D01*
X149285000Y-89085750D01*
X151415000Y-89085750D01*
X151415000Y-89413809D01*
X151511673Y-89647198D01*
X151690301Y-89825827D01*
X151923690Y-89922500D01*
X152464250Y-89922500D01*
X152623000Y-89763750D01*
X152623000Y-88927000D01*
X152877000Y-88927000D01*
X152877000Y-89763750D01*
X153035750Y-89922500D01*
X153576310Y-89922500D01*
X153809699Y-89825827D01*
X153988327Y-89647198D01*
X154085000Y-89413809D01*
X154085000Y-89085750D01*
X154072940Y-89073690D01*
X154515000Y-89073690D01*
X154515000Y-90064250D01*
X154673750Y-90223000D01*
X156273000Y-90223000D01*
X156273000Y-88723750D01*
X156114250Y-88565000D01*
X155023691Y-88565000D01*
X154790302Y-88661673D01*
X154611673Y-88840301D01*
X154515000Y-89073690D01*
X154072940Y-89073690D01*
X153926250Y-88927000D01*
X152877000Y-88927000D01*
X152623000Y-88927000D01*
X151573750Y-88927000D01*
X151415000Y-89085750D01*
X149285000Y-89085750D01*
X149285000Y-89023250D01*
X149126250Y-88864500D01*
X148077000Y-88864500D01*
X147823000Y-88864500D01*
X146773750Y-88864500D01*
X146615000Y-89023250D01*
X139027000Y-89023250D01*
X139027000Y-88327000D01*
X146615000Y-88327000D01*
X146615000Y-88451750D01*
X146615000Y-88451750D01*
G37*
X146615000Y-88451750D02*
X146773750Y-88610500D01*
X147823000Y-88610500D01*
X147823000Y-88590500D01*
X148077000Y-88590500D01*
X148077000Y-88610500D01*
X149126250Y-88610500D01*
X149285000Y-88451750D01*
X149285000Y-88327000D01*
X151415000Y-88327000D01*
X151415000Y-88514250D01*
X151573750Y-88673000D01*
X152623000Y-88673000D01*
X152623000Y-88653000D01*
X152877000Y-88653000D01*
X152877000Y-88673000D01*
X153926250Y-88673000D01*
X154085000Y-88514250D01*
X154085000Y-88327000D01*
X158173000Y-88327000D01*
X158173000Y-88824974D01*
X158009698Y-88661673D01*
X157776309Y-88565000D01*
X156685750Y-88565000D01*
X156527000Y-88723750D01*
X156527000Y-90223000D01*
X156547000Y-90223000D01*
X156547000Y-90477000D01*
X156527000Y-90477000D01*
X156527000Y-91976250D01*
X156685750Y-92135000D01*
X157776309Y-92135000D01*
X158009698Y-92038327D01*
X158173000Y-91875026D01*
X158173000Y-93670627D01*
X156952351Y-93648022D01*
X156903580Y-93656788D01*
X156861876Y-93683550D01*
X156833587Y-93724235D01*
X156823207Y-93767755D01*
X156811369Y-93974920D01*
X156622569Y-94163720D01*
X156465000Y-94544126D01*
X156465000Y-94955874D01*
X156622569Y-95336280D01*
X156727577Y-95441288D01*
X156723207Y-95517755D01*
X156730086Y-95566828D01*
X156757312Y-95611821D01*
X158593618Y-97572201D01*
X159042560Y-98526203D01*
X159042560Y-98820000D01*
X158485750Y-98820000D01*
X158327000Y-98978750D01*
X158327000Y-100473000D01*
X158347000Y-100473000D01*
X158347000Y-100727000D01*
X158327000Y-100727000D01*
X158327000Y-100747000D01*
X158073000Y-100747000D01*
X158073000Y-100727000D01*
X158053000Y-100727000D01*
X158053000Y-100473000D01*
X158073000Y-100473000D01*
X158073000Y-98978750D01*
X157914250Y-98820000D01*
X157357440Y-98820000D01*
X157357440Y-98395000D01*
X157308157Y-98147235D01*
X157167809Y-97937191D01*
X157105587Y-97895615D01*
X157101999Y-97149389D01*
X157092098Y-97100836D01*
X157064370Y-97059767D01*
X157023036Y-97032435D01*
X156991356Y-97024058D01*
X155780517Y-96866806D01*
X155736280Y-96822569D01*
X155355874Y-96665000D01*
X155181725Y-96665000D01*
X155226975Y-94402539D01*
X155218281Y-94353755D01*
X155191580Y-94312011D01*
X155150937Y-94283663D01*
X155090732Y-94273339D01*
X153617860Y-94381110D01*
X153476250Y-94239500D01*
X152427000Y-94239500D01*
X152427000Y-94259500D01*
X152173000Y-94259500D01*
X152173000Y-94239500D01*
X151123750Y-94239500D01*
X150965000Y-94398250D01*
X150965000Y-94575222D01*
X148655713Y-94744194D01*
X148801181Y-94335786D01*
X148773273Y-93783912D01*
X148655131Y-93498691D01*
X150965000Y-93498691D01*
X150965000Y-93826750D01*
X151123750Y-93985500D01*
X152173000Y-93985500D01*
X152173000Y-93148750D01*
X152427000Y-93148750D01*
X152427000Y-93985500D01*
X153476250Y-93985500D01*
X153635000Y-93826750D01*
X153635000Y-93498691D01*
X153538327Y-93265302D01*
X153359699Y-93086673D01*
X153126310Y-92990000D01*
X152585750Y-92990000D01*
X152427000Y-93148750D01*
X152173000Y-93148750D01*
X152014250Y-92990000D01*
X151473690Y-92990000D01*
X151240301Y-93086673D01*
X151061673Y-93265302D01*
X150965000Y-93498691D01*
X148655131Y-93498691D01*
X148615772Y-93403671D01*
X148374416Y-93335189D01*
X147579605Y-94130000D01*
X147593748Y-94144143D01*
X147414143Y-94323748D01*
X147400000Y-94309605D01*
X147385858Y-94323748D01*
X147206253Y-94144143D01*
X147220395Y-94130000D01*
X146425584Y-93335189D01*
X146184228Y-93403671D01*
X145998819Y-93924214D01*
X146026727Y-94476088D01*
X146183699Y-94855053D01*
X139027000Y-94676136D01*
X139027000Y-93155584D01*
X146605189Y-93155584D01*
X147400000Y-93950395D01*
X148194811Y-93155584D01*
X148126329Y-92914228D01*
X147605786Y-92728819D01*
X147053912Y-92756727D01*
X146673671Y-92914228D01*
X146605189Y-93155584D01*
X139027000Y-93155584D01*
X139027000Y-90635750D01*
X154515000Y-90635750D01*
X154515000Y-91626310D01*
X154611673Y-91859699D01*
X154790302Y-92038327D01*
X155023691Y-92135000D01*
X156114250Y-92135000D01*
X156273000Y-91976250D01*
X156273000Y-90477000D01*
X154673750Y-90477000D01*
X154515000Y-90635750D01*
X139027000Y-90635750D01*
X139027000Y-89023250D01*
X146615000Y-89023250D01*
X146615000Y-89351309D01*
X146711673Y-89584698D01*
X146890301Y-89763327D01*
X147123690Y-89860000D01*
X147664250Y-89860000D01*
X147823000Y-89701250D01*
X147823000Y-88864500D01*
X148077000Y-88864500D01*
X148077000Y-89701250D01*
X148235750Y-89860000D01*
X148776310Y-89860000D01*
X149009699Y-89763327D01*
X149188327Y-89584698D01*
X149285000Y-89351309D01*
X149285000Y-89085750D01*
X151415000Y-89085750D01*
X151415000Y-89413809D01*
X151511673Y-89647198D01*
X151690301Y-89825827D01*
X151923690Y-89922500D01*
X152464250Y-89922500D01*
X152623000Y-89763750D01*
X152623000Y-88927000D01*
X152877000Y-88927000D01*
X152877000Y-89763750D01*
X153035750Y-89922500D01*
X153576310Y-89922500D01*
X153809699Y-89825827D01*
X153988327Y-89647198D01*
X154085000Y-89413809D01*
X154085000Y-89085750D01*
X154072940Y-89073690D01*
X154515000Y-89073690D01*
X154515000Y-90064250D01*
X154673750Y-90223000D01*
X156273000Y-90223000D01*
X156273000Y-88723750D01*
X156114250Y-88565000D01*
X155023691Y-88565000D01*
X154790302Y-88661673D01*
X154611673Y-88840301D01*
X154515000Y-89073690D01*
X154072940Y-89073690D01*
X153926250Y-88927000D01*
X152877000Y-88927000D01*
X152623000Y-88927000D01*
X151573750Y-88927000D01*
X151415000Y-89085750D01*
X149285000Y-89085750D01*
X149285000Y-89023250D01*
X149126250Y-88864500D01*
X148077000Y-88864500D01*
X147823000Y-88864500D01*
X146773750Y-88864500D01*
X146615000Y-89023250D01*
X139027000Y-89023250D01*
X139027000Y-88327000D01*
X146615000Y-88327000D01*
X146615000Y-88451750D01*
G36*
X160802000Y-99838000D02*
X160822000Y-99838000D01*
X160822000Y-100092000D01*
X160802000Y-100092000D01*
X160802000Y-100112000D01*
X160548000Y-100112000D01*
X160548000Y-100092000D01*
X160528000Y-100092000D01*
X160528000Y-99838000D01*
X160548000Y-99838000D01*
X160548000Y-99818000D01*
X160802000Y-99818000D01*
X160802000Y-99838000D01*
X160802000Y-99838000D01*
G37*
X160802000Y-99838000D02*
X160822000Y-99838000D01*
X160822000Y-100092000D01*
X160802000Y-100092000D01*
X160802000Y-100112000D01*
X160548000Y-100112000D01*
X160548000Y-100092000D01*
X160528000Y-100092000D01*
X160528000Y-99838000D01*
X160548000Y-99838000D01*
X160548000Y-99818000D01*
X160802000Y-99818000D01*
X160802000Y-99838000D01*
G04 #@! TO.N,/5VDC*
G36*
X158073422Y-72725493D02*
X158122571Y-87322667D01*
X154085000Y-87312152D01*
X154085000Y-87210750D01*
X153926250Y-87052000D01*
X152877000Y-87052000D01*
X152877000Y-87072000D01*
X152623000Y-87072000D01*
X152623000Y-87052000D01*
X151573750Y-87052000D01*
X151415000Y-87210750D01*
X151415000Y-87305199D01*
X149285000Y-87299652D01*
X149285000Y-87148250D01*
X149126250Y-86989500D01*
X148077000Y-86989500D01*
X148077000Y-87009500D01*
X147823000Y-87009500D01*
X147823000Y-86989500D01*
X146773750Y-86989500D01*
X146615000Y-87148250D01*
X146615000Y-87292699D01*
X139175660Y-87273326D01*
X139164760Y-86248691D01*
X146615000Y-86248691D01*
X146615000Y-86576750D01*
X146773750Y-86735500D01*
X147823000Y-86735500D01*
X147823000Y-85898750D01*
X148077000Y-85898750D01*
X148077000Y-86735500D01*
X149126250Y-86735500D01*
X149285000Y-86576750D01*
X149285000Y-86311191D01*
X151415000Y-86311191D01*
X151415000Y-86639250D01*
X151573750Y-86798000D01*
X152623000Y-86798000D01*
X152623000Y-85961250D01*
X152877000Y-85961250D01*
X152877000Y-86798000D01*
X153926250Y-86798000D01*
X154085000Y-86639250D01*
X154085000Y-86311191D01*
X153988327Y-86077802D01*
X153809699Y-85899173D01*
X153576310Y-85802500D01*
X153035750Y-85802500D01*
X152877000Y-85961250D01*
X152623000Y-85961250D01*
X152464250Y-85802500D01*
X151923690Y-85802500D01*
X151690301Y-85899173D01*
X151511673Y-86077802D01*
X151415000Y-86311191D01*
X149285000Y-86311191D01*
X149285000Y-86248691D01*
X149188327Y-86015302D01*
X149009699Y-85836673D01*
X148776310Y-85740000D01*
X148235750Y-85740000D01*
X148077000Y-85898750D01*
X147823000Y-85898750D01*
X147664250Y-85740000D01*
X147123690Y-85740000D01*
X146890301Y-85836673D01*
X146711673Y-86015302D01*
X146615000Y-86248691D01*
X139164760Y-86248691D01*
X139128358Y-82827000D01*
X149850000Y-82827000D01*
X149898601Y-82817333D01*
X149939803Y-82789803D01*
X149967333Y-82748601D01*
X149977000Y-82700000D01*
X149977000Y-78435750D01*
X151265800Y-78435750D01*
X151265800Y-80981409D01*
X151362473Y-81214798D01*
X151541101Y-81393427D01*
X151774490Y-81490100D01*
X153062850Y-81490100D01*
X153221600Y-81331350D01*
X153221600Y-78277000D01*
X153475600Y-78277000D01*
X153475600Y-81331350D01*
X153634350Y-81490100D01*
X154922710Y-81490100D01*
X155156099Y-81393427D01*
X155334727Y-81214798D01*
X155431400Y-80981409D01*
X155431400Y-78435750D01*
X155272650Y-78277000D01*
X153475600Y-78277000D01*
X153221600Y-78277000D01*
X151424550Y-78277000D01*
X151265800Y-78435750D01*
X149977000Y-78435750D01*
X149977000Y-75318591D01*
X151265800Y-75318591D01*
X151265800Y-77864250D01*
X151424550Y-78023000D01*
X153221600Y-78023000D01*
X153221600Y-74968650D01*
X153475600Y-74968650D01*
X153475600Y-78023000D01*
X155272650Y-78023000D01*
X155431400Y-77864250D01*
X155431400Y-75318591D01*
X155334727Y-75085202D01*
X155156099Y-74906573D01*
X154922710Y-74809900D01*
X153634350Y-74809900D01*
X153475600Y-74968650D01*
X153221600Y-74968650D01*
X153062850Y-74809900D01*
X151774490Y-74809900D01*
X151541101Y-74906573D01*
X151362473Y-75085202D01*
X151265800Y-75318591D01*
X149977000Y-75318591D01*
X149977000Y-72628530D01*
X158073422Y-72725493D01*
X158073422Y-72725493D01*
G37*
X158073422Y-72725493D02*
X158122571Y-87322667D01*
X154085000Y-87312152D01*
X154085000Y-87210750D01*
X153926250Y-87052000D01*
X152877000Y-87052000D01*
X152877000Y-87072000D01*
X152623000Y-87072000D01*
X152623000Y-87052000D01*
X151573750Y-87052000D01*
X151415000Y-87210750D01*
X151415000Y-87305199D01*
X149285000Y-87299652D01*
X149285000Y-87148250D01*
X149126250Y-86989500D01*
X148077000Y-86989500D01*
X148077000Y-87009500D01*
X147823000Y-87009500D01*
X147823000Y-86989500D01*
X146773750Y-86989500D01*
X146615000Y-87148250D01*
X146615000Y-87292699D01*
X139175660Y-87273326D01*
X139164760Y-86248691D01*
X146615000Y-86248691D01*
X146615000Y-86576750D01*
X146773750Y-86735500D01*
X147823000Y-86735500D01*
X147823000Y-85898750D01*
X148077000Y-85898750D01*
X148077000Y-86735500D01*
X149126250Y-86735500D01*
X149285000Y-86576750D01*
X149285000Y-86311191D01*
X151415000Y-86311191D01*
X151415000Y-86639250D01*
X151573750Y-86798000D01*
X152623000Y-86798000D01*
X152623000Y-85961250D01*
X152877000Y-85961250D01*
X152877000Y-86798000D01*
X153926250Y-86798000D01*
X154085000Y-86639250D01*
X154085000Y-86311191D01*
X153988327Y-86077802D01*
X153809699Y-85899173D01*
X153576310Y-85802500D01*
X153035750Y-85802500D01*
X152877000Y-85961250D01*
X152623000Y-85961250D01*
X152464250Y-85802500D01*
X151923690Y-85802500D01*
X151690301Y-85899173D01*
X151511673Y-86077802D01*
X151415000Y-86311191D01*
X149285000Y-86311191D01*
X149285000Y-86248691D01*
X149188327Y-86015302D01*
X149009699Y-85836673D01*
X148776310Y-85740000D01*
X148235750Y-85740000D01*
X148077000Y-85898750D01*
X147823000Y-85898750D01*
X147664250Y-85740000D01*
X147123690Y-85740000D01*
X146890301Y-85836673D01*
X146711673Y-86015302D01*
X146615000Y-86248691D01*
X139164760Y-86248691D01*
X139128358Y-82827000D01*
X149850000Y-82827000D01*
X149898601Y-82817333D01*
X149939803Y-82789803D01*
X149967333Y-82748601D01*
X149977000Y-82700000D01*
X149977000Y-78435750D01*
X151265800Y-78435750D01*
X151265800Y-80981409D01*
X151362473Y-81214798D01*
X151541101Y-81393427D01*
X151774490Y-81490100D01*
X153062850Y-81490100D01*
X153221600Y-81331350D01*
X153221600Y-78277000D01*
X153475600Y-78277000D01*
X153475600Y-81331350D01*
X153634350Y-81490100D01*
X154922710Y-81490100D01*
X155156099Y-81393427D01*
X155334727Y-81214798D01*
X155431400Y-80981409D01*
X155431400Y-78435750D01*
X155272650Y-78277000D01*
X153475600Y-78277000D01*
X153221600Y-78277000D01*
X151424550Y-78277000D01*
X151265800Y-78435750D01*
X149977000Y-78435750D01*
X149977000Y-75318591D01*
X151265800Y-75318591D01*
X151265800Y-77864250D01*
X151424550Y-78023000D01*
X153221600Y-78023000D01*
X153221600Y-74968650D01*
X153475600Y-74968650D01*
X153475600Y-78023000D01*
X155272650Y-78023000D01*
X155431400Y-77864250D01*
X155431400Y-75318591D01*
X155334727Y-75085202D01*
X155156099Y-74906573D01*
X154922710Y-74809900D01*
X153634350Y-74809900D01*
X153475600Y-74968650D01*
X153221600Y-74968650D01*
X153062850Y-74809900D01*
X151774490Y-74809900D01*
X151541101Y-74906573D01*
X151362473Y-75085202D01*
X151265800Y-75318591D01*
X149977000Y-75318591D01*
X149977000Y-72628530D01*
X158073422Y-72725493D01*
G04 #@! TO.N,Net-(J2-Pad3)*
G36*
X242817547Y-56269976D02*
X241377971Y-88685256D01*
X239606662Y-88873545D01*
X239695140Y-88714745D01*
X238160000Y-87179605D01*
X236624860Y-88714745D01*
X236818561Y-89062398D01*
X237031013Y-89147334D01*
X234230748Y-89445000D01*
X233193247Y-89445000D01*
X232835078Y-89593359D01*
X226911784Y-90223000D01*
X220147356Y-90223000D01*
X220164261Y-90178964D01*
X220144436Y-89421368D01*
X219892657Y-88813520D01*
X219597777Y-88681828D01*
X218429605Y-89850000D01*
X218443748Y-89864143D01*
X218264143Y-90043748D01*
X218250000Y-90029605D01*
X218235858Y-90043748D01*
X218056253Y-89864143D01*
X218070395Y-89850000D01*
X216902223Y-88681828D01*
X216607343Y-88813520D01*
X216554538Y-88951073D01*
X216368619Y-88502223D01*
X217081828Y-88502223D01*
X218250000Y-89670395D01*
X219418172Y-88502223D01*
X219286480Y-88207343D01*
X218578964Y-87935739D01*
X217821368Y-87955564D01*
X217213520Y-88207343D01*
X217081828Y-88502223D01*
X216368619Y-88502223D01*
X216160535Y-87999865D01*
X216132992Y-86549918D01*
X235741247Y-86549918D01*
X235753124Y-87509796D01*
X236097602Y-88341439D01*
X236445255Y-88535140D01*
X237980395Y-87000000D01*
X238339605Y-87000000D01*
X239874745Y-88535140D01*
X240222398Y-88341439D01*
X240578753Y-87450082D01*
X240566876Y-86490204D01*
X240222398Y-85658561D01*
X239874745Y-85464860D01*
X238339605Y-87000000D01*
X237980395Y-87000000D01*
X236445255Y-85464860D01*
X236097602Y-85658561D01*
X235741247Y-86549918D01*
X216132992Y-86549918D01*
X216108969Y-85285255D01*
X236624860Y-85285255D01*
X238160000Y-86820395D01*
X239695140Y-85285255D01*
X239501439Y-84937602D01*
X238610082Y-84581247D01*
X237650204Y-84593124D01*
X236818561Y-84937602D01*
X236624860Y-85285255D01*
X216108969Y-85285255D01*
X215537509Y-55202000D01*
X223202380Y-55202000D01*
X242817547Y-56269976D01*
X242817547Y-56269976D01*
G37*
X242817547Y-56269976D02*
X241377971Y-88685256D01*
X239606662Y-88873545D01*
X239695140Y-88714745D01*
X238160000Y-87179605D01*
X236624860Y-88714745D01*
X236818561Y-89062398D01*
X237031013Y-89147334D01*
X234230748Y-89445000D01*
X233193247Y-89445000D01*
X232835078Y-89593359D01*
X226911784Y-90223000D01*
X220147356Y-90223000D01*
X220164261Y-90178964D01*
X220144436Y-89421368D01*
X219892657Y-88813520D01*
X219597777Y-88681828D01*
X218429605Y-89850000D01*
X218443748Y-89864143D01*
X218264143Y-90043748D01*
X218250000Y-90029605D01*
X218235858Y-90043748D01*
X218056253Y-89864143D01*
X218070395Y-89850000D01*
X216902223Y-88681828D01*
X216607343Y-88813520D01*
X216554538Y-88951073D01*
X216368619Y-88502223D01*
X217081828Y-88502223D01*
X218250000Y-89670395D01*
X219418172Y-88502223D01*
X219286480Y-88207343D01*
X218578964Y-87935739D01*
X217821368Y-87955564D01*
X217213520Y-88207343D01*
X217081828Y-88502223D01*
X216368619Y-88502223D01*
X216160535Y-87999865D01*
X216132992Y-86549918D01*
X235741247Y-86549918D01*
X235753124Y-87509796D01*
X236097602Y-88341439D01*
X236445255Y-88535140D01*
X237980395Y-87000000D01*
X238339605Y-87000000D01*
X239874745Y-88535140D01*
X240222398Y-88341439D01*
X240578753Y-87450082D01*
X240566876Y-86490204D01*
X240222398Y-85658561D01*
X239874745Y-85464860D01*
X238339605Y-87000000D01*
X237980395Y-87000000D01*
X236445255Y-85464860D01*
X236097602Y-85658561D01*
X235741247Y-86549918D01*
X216132992Y-86549918D01*
X216108969Y-85285255D01*
X236624860Y-85285255D01*
X238160000Y-86820395D01*
X239695140Y-85285255D01*
X239501439Y-84937602D01*
X238610082Y-84581247D01*
X237650204Y-84593124D01*
X236818561Y-84937602D01*
X236624860Y-85285255D01*
X216108969Y-85285255D01*
X215537509Y-55202000D01*
X223202380Y-55202000D01*
X242817547Y-56269976D01*
G04 #@! TO.N,Net-(J2-Pad1)*
G36*
X233193247Y-97255000D02*
X234746753Y-97255000D01*
X235055772Y-97127000D01*
X242323657Y-97127000D01*
X242373000Y-106650183D01*
X242348165Y-125449721D01*
X209651467Y-125896261D01*
X209547023Y-100725222D01*
X211574468Y-98697777D01*
X212081828Y-98697777D01*
X212213520Y-98992657D01*
X212921036Y-99264261D01*
X213678632Y-99244436D01*
X214286480Y-98992657D01*
X214418172Y-98697777D01*
X213250000Y-97529605D01*
X212081828Y-98697777D01*
X211574468Y-98697777D01*
X211799810Y-98472435D01*
X211902223Y-98518172D01*
X213070395Y-97350000D01*
X213056253Y-97335858D01*
X213235858Y-97156253D01*
X213250000Y-97170395D01*
X213264143Y-97156253D01*
X213443748Y-97335858D01*
X213429605Y-97350000D01*
X214597777Y-98518172D01*
X214866966Y-98397953D01*
X214898004Y-102525955D01*
X214908036Y-102574482D01*
X214935875Y-102615475D01*
X214977283Y-102642695D01*
X215025428Y-102651999D01*
X222450428Y-102626999D01*
X222498996Y-102617168D01*
X222540104Y-102589500D01*
X222567496Y-102548205D01*
X222576995Y-102501154D01*
X222599862Y-99985750D01*
X235747000Y-99985750D01*
X235747000Y-101604309D01*
X235843673Y-101837698D01*
X236022301Y-102016327D01*
X236255690Y-102113000D01*
X237874250Y-102113000D01*
X238033000Y-101954250D01*
X238033000Y-99827000D01*
X238287000Y-99827000D01*
X238287000Y-101954250D01*
X238445750Y-102113000D01*
X240064310Y-102113000D01*
X240297699Y-102016327D01*
X240476327Y-101837698D01*
X240573000Y-101604309D01*
X240573000Y-99985750D01*
X240414250Y-99827000D01*
X238287000Y-99827000D01*
X238033000Y-99827000D01*
X235905750Y-99827000D01*
X235747000Y-99985750D01*
X222599862Y-99985750D01*
X222619771Y-97795691D01*
X235747000Y-97795691D01*
X235747000Y-99414250D01*
X235905750Y-99573000D01*
X238033000Y-99573000D01*
X238033000Y-97445750D01*
X238287000Y-97445750D01*
X238287000Y-99573000D01*
X240414250Y-99573000D01*
X240573000Y-99414250D01*
X240573000Y-97795691D01*
X240476327Y-97562302D01*
X240297699Y-97383673D01*
X240064310Y-97287000D01*
X238445750Y-97287000D01*
X238287000Y-97445750D01*
X238033000Y-97445750D01*
X237874250Y-97287000D01*
X236255690Y-97287000D01*
X236022301Y-97383673D01*
X235843673Y-97562302D01*
X235747000Y-97795691D01*
X222619771Y-97795691D01*
X222625851Y-97127000D01*
X232884228Y-97127000D01*
X233193247Y-97255000D01*
X233193247Y-97255000D01*
G37*
X233193247Y-97255000D02*
X234746753Y-97255000D01*
X235055772Y-97127000D01*
X242323657Y-97127000D01*
X242373000Y-106650183D01*
X242348165Y-125449721D01*
X209651467Y-125896261D01*
X209547023Y-100725222D01*
X211574468Y-98697777D01*
X212081828Y-98697777D01*
X212213520Y-98992657D01*
X212921036Y-99264261D01*
X213678632Y-99244436D01*
X214286480Y-98992657D01*
X214418172Y-98697777D01*
X213250000Y-97529605D01*
X212081828Y-98697777D01*
X211574468Y-98697777D01*
X211799810Y-98472435D01*
X211902223Y-98518172D01*
X213070395Y-97350000D01*
X213056253Y-97335858D01*
X213235858Y-97156253D01*
X213250000Y-97170395D01*
X213264143Y-97156253D01*
X213443748Y-97335858D01*
X213429605Y-97350000D01*
X214597777Y-98518172D01*
X214866966Y-98397953D01*
X214898004Y-102525955D01*
X214908036Y-102574482D01*
X214935875Y-102615475D01*
X214977283Y-102642695D01*
X215025428Y-102651999D01*
X222450428Y-102626999D01*
X222498996Y-102617168D01*
X222540104Y-102589500D01*
X222567496Y-102548205D01*
X222576995Y-102501154D01*
X222599862Y-99985750D01*
X235747000Y-99985750D01*
X235747000Y-101604309D01*
X235843673Y-101837698D01*
X236022301Y-102016327D01*
X236255690Y-102113000D01*
X237874250Y-102113000D01*
X238033000Y-101954250D01*
X238033000Y-99827000D01*
X238287000Y-99827000D01*
X238287000Y-101954250D01*
X238445750Y-102113000D01*
X240064310Y-102113000D01*
X240297699Y-102016327D01*
X240476327Y-101837698D01*
X240573000Y-101604309D01*
X240573000Y-99985750D01*
X240414250Y-99827000D01*
X238287000Y-99827000D01*
X238033000Y-99827000D01*
X235905750Y-99827000D01*
X235747000Y-99985750D01*
X222599862Y-99985750D01*
X222619771Y-97795691D01*
X235747000Y-97795691D01*
X235747000Y-99414250D01*
X235905750Y-99573000D01*
X238033000Y-99573000D01*
X238033000Y-97445750D01*
X238287000Y-97445750D01*
X238287000Y-99573000D01*
X240414250Y-99573000D01*
X240573000Y-99414250D01*
X240573000Y-97795691D01*
X240476327Y-97562302D01*
X240297699Y-97383673D01*
X240064310Y-97287000D01*
X238445750Y-97287000D01*
X238287000Y-97445750D01*
X238033000Y-97445750D01*
X237874250Y-97287000D01*
X236255690Y-97287000D01*
X236022301Y-97383673D01*
X235843673Y-97562302D01*
X235747000Y-97795691D01*
X222619771Y-97795691D01*
X222625851Y-97127000D01*
X232884228Y-97127000D01*
X233193247Y-97255000D01*
G04 #@! TO.N,GND*
G36*
X135067975Y-98876155D02*
X134823097Y-105145043D01*
X134830860Y-105193984D01*
X134856761Y-105236229D01*
X134896856Y-105265346D01*
X134950215Y-105277000D01*
X164331800Y-105227201D01*
X164819004Y-112017631D01*
X164832124Y-112065415D01*
X164862532Y-112104541D01*
X164905599Y-112129052D01*
X164945744Y-112135542D01*
X197789274Y-112118523D01*
X197956583Y-116952110D01*
X123278052Y-117072793D01*
X123376996Y-105051045D01*
X123367729Y-105002367D01*
X123340539Y-104960940D01*
X123299565Y-104933071D01*
X123250858Y-104923003D01*
X110676772Y-104838043D01*
X110547765Y-104751843D01*
X110300000Y-104702560D01*
X107700000Y-104702560D01*
X107582829Y-104725867D01*
X104078941Y-104336545D01*
X104101264Y-103019459D01*
X107810146Y-103019459D01*
X107945504Y-103317455D01*
X108663880Y-103594066D01*
X109433427Y-103574710D01*
X110054496Y-103317455D01*
X110189854Y-103019459D01*
X109000000Y-101829605D01*
X107810146Y-103019459D01*
X104101264Y-103019459D01*
X104130172Y-101313880D01*
X107055934Y-101313880D01*
X107075290Y-102083427D01*
X107332545Y-102704496D01*
X107630541Y-102839854D01*
X108820395Y-101650000D01*
X109179605Y-101650000D01*
X110369459Y-102839854D01*
X110667455Y-102704496D01*
X110944066Y-101986120D01*
X110924710Y-101216573D01*
X110667455Y-100595504D01*
X110369459Y-100460146D01*
X109179605Y-101650000D01*
X108820395Y-101650000D01*
X107630541Y-100460146D01*
X107332545Y-100595504D01*
X107055934Y-101313880D01*
X104130172Y-101313880D01*
X104147686Y-100280541D01*
X107810146Y-100280541D01*
X109000000Y-101470395D01*
X110189854Y-100280541D01*
X110054496Y-99982545D01*
X109336120Y-99705934D01*
X108566573Y-99725290D01*
X107945504Y-99982545D01*
X107810146Y-100280541D01*
X104147686Y-100280541D01*
X104174852Y-98677804D01*
X135067975Y-98876155D01*
X135067975Y-98876155D01*
G37*
X135067975Y-98876155D02*
X134823097Y-105145043D01*
X134830860Y-105193984D01*
X134856761Y-105236229D01*
X134896856Y-105265346D01*
X134950215Y-105277000D01*
X164331800Y-105227201D01*
X164819004Y-112017631D01*
X164832124Y-112065415D01*
X164862532Y-112104541D01*
X164905599Y-112129052D01*
X164945744Y-112135542D01*
X197789274Y-112118523D01*
X197956583Y-116952110D01*
X123278052Y-117072793D01*
X123376996Y-105051045D01*
X123367729Y-105002367D01*
X123340539Y-104960940D01*
X123299565Y-104933071D01*
X123250858Y-104923003D01*
X110676772Y-104838043D01*
X110547765Y-104751843D01*
X110300000Y-104702560D01*
X107700000Y-104702560D01*
X107582829Y-104725867D01*
X104078941Y-104336545D01*
X104101264Y-103019459D01*
X107810146Y-103019459D01*
X107945504Y-103317455D01*
X108663880Y-103594066D01*
X109433427Y-103574710D01*
X110054496Y-103317455D01*
X110189854Y-103019459D01*
X109000000Y-101829605D01*
X107810146Y-103019459D01*
X104101264Y-103019459D01*
X104130172Y-101313880D01*
X107055934Y-101313880D01*
X107075290Y-102083427D01*
X107332545Y-102704496D01*
X107630541Y-102839854D01*
X108820395Y-101650000D01*
X109179605Y-101650000D01*
X110369459Y-102839854D01*
X110667455Y-102704496D01*
X110944066Y-101986120D01*
X110924710Y-101216573D01*
X110667455Y-100595504D01*
X110369459Y-100460146D01*
X109179605Y-101650000D01*
X108820395Y-101650000D01*
X107630541Y-100460146D01*
X107332545Y-100595504D01*
X107055934Y-101313880D01*
X104130172Y-101313880D01*
X104147686Y-100280541D01*
X107810146Y-100280541D01*
X109000000Y-101470395D01*
X110189854Y-100280541D01*
X110054496Y-99982545D01*
X109336120Y-99705934D01*
X108566573Y-99725290D01*
X107945504Y-99982545D01*
X107810146Y-100280541D01*
X104147686Y-100280541D01*
X104174852Y-98677804D01*
X135067975Y-98876155D01*
G04 #@! TD*
M02*
