G04 #@! TF.GenerationSoftware,KiCad,Pcbnew,(5.0.2)-1*
G04 #@! TF.CreationDate,2019-04-08T19:56:43-07:00*
G04 #@! TF.ProjectId,smartplug,736d6172-7470-46c7-9567-2e6b69636164,rev?*
G04 #@! TF.SameCoordinates,Original*
G04 #@! TF.FileFunction,Copper,L1,Top*
G04 #@! TF.FilePolarity,Positive*
%FSLAX46Y46*%
G04 Gerber Fmt 4.6, Leading zero omitted, Abs format (unit mm)*
G04 Created by KiCad (PCBNEW (5.0.2)-1) date 4/8/2019 7:56:43 PM*
%MOMM*%
%LPD*%
G01*
G04 APERTURE LIST*
G04 #@! TA.AperFunction,SMDPad,CuDef*
%ADD10R,2.032000X2.540000*%
G04 #@! TD*
G04 #@! TA.AperFunction,SMDPad,CuDef*
%ADD11R,1.143000X1.143000*%
G04 #@! TD*
G04 #@! TA.AperFunction,SMDPad,CuDef*
%ADD12R,1.778000X1.778000*%
G04 #@! TD*
G04 #@! TA.AperFunction,SMDPad,CuDef*
%ADD13R,1.778000X1.524000*%
G04 #@! TD*
G04 #@! TA.AperFunction,SMDPad,CuDef*
%ADD14R,1.016000X0.558800*%
G04 #@! TD*
G04 #@! TA.AperFunction,Conductor*
%ADD15C,0.100000*%
G04 #@! TD*
G04 #@! TA.AperFunction,SMDPad,CuDef*
%ADD16C,0.975000*%
G04 #@! TD*
G04 #@! TA.AperFunction,ComponentPad*
%ADD17R,2.600000X2.600000*%
G04 #@! TD*
G04 #@! TA.AperFunction,ComponentPad*
%ADD18C,2.600000*%
G04 #@! TD*
G04 #@! TA.AperFunction,SMDPad,CuDef*
%ADD19R,2.300000X2.500000*%
G04 #@! TD*
G04 #@! TA.AperFunction,SMDPad,CuDef*
%ADD20C,0.875000*%
G04 #@! TD*
G04 #@! TA.AperFunction,ComponentPad*
%ADD21R,3.556000X3.556000*%
G04 #@! TD*
G04 #@! TA.AperFunction,ComponentPad*
%ADD22C,3.556000*%
G04 #@! TD*
G04 #@! TA.AperFunction,ComponentPad*
%ADD23C,1.676400*%
G04 #@! TD*
G04 #@! TA.AperFunction,ComponentPad*
%ADD24C,2.540000*%
G04 #@! TD*
G04 #@! TA.AperFunction,SMDPad,CuDef*
%ADD25R,5.410200X2.895600*%
G04 #@! TD*
G04 #@! TA.AperFunction,ComponentPad*
%ADD26C,1.508000*%
G04 #@! TD*
G04 #@! TA.AperFunction,ComponentPad*
%ADD27R,1.508000X1.508000*%
G04 #@! TD*
G04 #@! TA.AperFunction,SMDPad,CuDef*
%ADD28R,0.600000X1.970000*%
G04 #@! TD*
G04 #@! TA.AperFunction,SMDPad,CuDef*
%ADD29R,2.290000X2.290000*%
G04 #@! TD*
G04 #@! TA.AperFunction,ViaPad*
%ADD30C,0.800000*%
G04 #@! TD*
G04 #@! TA.AperFunction,Conductor*
%ADD31C,2.000000*%
G04 #@! TD*
G04 #@! TA.AperFunction,Conductor*
%ADD32C,1.000000*%
G04 #@! TD*
G04 #@! TA.AperFunction,Conductor*
%ADD33C,0.500000*%
G04 #@! TD*
G04 #@! TA.AperFunction,Conductor*
%ADD34C,0.254000*%
G04 #@! TD*
G04 APERTURE END LIST*
D10*
G04 #@! TO.P,U3,24*
G04 #@! TO.N,Net-(U3-Pad24)*
X190079863Y-109984805D03*
G04 #@! TO.P,U3,1*
G04 #@! TO.N,/5VDC*
X190079863Y-130304805D03*
G04 #@! TO.P,U3,23*
G04 #@! TO.N,Net-(U3-Pad23)*
X192619863Y-109984805D03*
G04 #@! TO.P,U3,2*
G04 #@! TO.N,GND*
X192619863Y-130304805D03*
G04 #@! TO.P,U3,22*
G04 #@! TO.N,Net-(U3-Pad22)*
X195159863Y-109984805D03*
G04 #@! TO.P,U3,3*
G04 #@! TO.N,Net-(U3-Pad3)*
X195159863Y-130304805D03*
G04 #@! TO.P,U3,21*
G04 #@! TO.N,N/C*
X197699863Y-109984805D03*
G04 #@! TO.P,U3,4*
G04 #@! TO.N,Net-(U3-Pad4)*
X197699863Y-130304805D03*
G04 #@! TO.P,U3,20*
G04 #@! TO.N,Net-(D2-Pad2)*
X200239863Y-109984805D03*
G04 #@! TO.P,U3,5*
G04 #@! TO.N,Net-(U3-Pad5)*
X200239863Y-130304805D03*
G04 #@! TO.P,U3,19*
G04 #@! TO.N,Net-(U3-Pad19)*
X202779863Y-109984805D03*
G04 #@! TO.P,U3,6*
G04 #@! TO.N,Net-(U3-Pad6)*
X202779863Y-130304805D03*
G04 #@! TO.P,U3,18*
G04 #@! TO.N,Net-(U3-Pad18)*
X205319863Y-109984805D03*
G04 #@! TO.P,U3,7*
G04 #@! TO.N,Net-(U3-Pad7)*
X205319863Y-130304805D03*
G04 #@! TO.P,U3,17*
G04 #@! TO.N,Net-(U3-Pad17)*
X207859863Y-109984805D03*
G04 #@! TO.P,U3,8*
G04 #@! TO.N,Net-(U3-Pad8)*
X207859863Y-130304805D03*
G04 #@! TO.P,U3,16*
G04 #@! TO.N,Net-(U3-Pad16)*
X210399863Y-109984805D03*
G04 #@! TO.P,U3,9*
G04 #@! TO.N,Net-(U3-Pad9)*
X210399863Y-130304805D03*
G04 #@! TO.P,U3,15*
G04 #@! TO.N,Net-(U3-Pad15)*
X212939863Y-109984805D03*
G04 #@! TO.P,U3,10*
G04 #@! TO.N,Net-(U3-Pad10)*
X212939863Y-130304805D03*
G04 #@! TO.P,U3,14*
G04 #@! TO.N,Net-(U3-Pad14)*
X215479863Y-109984805D03*
G04 #@! TO.P,U3,11*
G04 #@! TO.N,Net-(U3-Pad11)*
X215479863Y-130304805D03*
G04 #@! TO.P,U3,13*
G04 #@! TO.N,Net-(U3-Pad13)*
X218019863Y-109984805D03*
G04 #@! TO.P,U3,12*
G04 #@! TO.N,Net-(U3-Pad12)*
X218019863Y-130304805D03*
D11*
G04 #@! TO.P,U3,27*
G04 #@! TO.N,N/C*
X207859863Y-126494805D03*
D12*
G04 #@! TO.P,U3,26*
X197699863Y-126494805D03*
G04 #@! TO.P,U3,25*
X190079863Y-126494805D03*
D11*
G04 #@! TO.P,U3,29*
X190079863Y-113794805D03*
G04 #@! TO.P,U3,28*
X192619863Y-113794805D03*
D13*
G04 #@! TO.P,U3,30*
X187285863Y-119128805D03*
G04 #@! TO.P,U3,31*
X187285863Y-121160805D03*
G04 #@! TD*
D14*
G04 #@! TO.P,U4,1*
G04 #@! TO.N,Net-(D2-Pad2)*
X199744600Y-104339800D03*
G04 #@! TO.P,U4,2*
G04 #@! TO.N,GND*
X199744600Y-102460200D03*
G04 #@! TO.P,U4,3*
G04 #@! TO.N,Net-(K1-Pad1)*
X197255400Y-103400000D03*
G04 #@! TD*
D15*
G04 #@! TO.N,/12VDC*
G04 #@! TO.C,R1*
G36*
X179980142Y-121051174D02*
X180003803Y-121054684D01*
X180027007Y-121060496D01*
X180049529Y-121068554D01*
X180071153Y-121078782D01*
X180091670Y-121091079D01*
X180110883Y-121105329D01*
X180128607Y-121121393D01*
X180144671Y-121139117D01*
X180158921Y-121158330D01*
X180171218Y-121178847D01*
X180181446Y-121200471D01*
X180189504Y-121222993D01*
X180195316Y-121246197D01*
X180198826Y-121269858D01*
X180200000Y-121293750D01*
X180200000Y-121781250D01*
X180198826Y-121805142D01*
X180195316Y-121828803D01*
X180189504Y-121852007D01*
X180181446Y-121874529D01*
X180171218Y-121896153D01*
X180158921Y-121916670D01*
X180144671Y-121935883D01*
X180128607Y-121953607D01*
X180110883Y-121969671D01*
X180091670Y-121983921D01*
X180071153Y-121996218D01*
X180049529Y-122006446D01*
X180027007Y-122014504D01*
X180003803Y-122020316D01*
X179980142Y-122023826D01*
X179956250Y-122025000D01*
X179043750Y-122025000D01*
X179019858Y-122023826D01*
X178996197Y-122020316D01*
X178972993Y-122014504D01*
X178950471Y-122006446D01*
X178928847Y-121996218D01*
X178908330Y-121983921D01*
X178889117Y-121969671D01*
X178871393Y-121953607D01*
X178855329Y-121935883D01*
X178841079Y-121916670D01*
X178828782Y-121896153D01*
X178818554Y-121874529D01*
X178810496Y-121852007D01*
X178804684Y-121828803D01*
X178801174Y-121805142D01*
X178800000Y-121781250D01*
X178800000Y-121293750D01*
X178801174Y-121269858D01*
X178804684Y-121246197D01*
X178810496Y-121222993D01*
X178818554Y-121200471D01*
X178828782Y-121178847D01*
X178841079Y-121158330D01*
X178855329Y-121139117D01*
X178871393Y-121121393D01*
X178889117Y-121105329D01*
X178908330Y-121091079D01*
X178928847Y-121078782D01*
X178950471Y-121068554D01*
X178972993Y-121060496D01*
X178996197Y-121054684D01*
X179019858Y-121051174D01*
X179043750Y-121050000D01*
X179956250Y-121050000D01*
X179980142Y-121051174D01*
X179980142Y-121051174D01*
G37*
D16*
G04 #@! TD*
G04 #@! TO.P,R1,1*
G04 #@! TO.N,/12VDC*
X179500000Y-121537500D03*
D15*
G04 #@! TO.N,Net-(R1-Pad2)*
G04 #@! TO.C,R1*
G36*
X179980142Y-119176174D02*
X180003803Y-119179684D01*
X180027007Y-119185496D01*
X180049529Y-119193554D01*
X180071153Y-119203782D01*
X180091670Y-119216079D01*
X180110883Y-119230329D01*
X180128607Y-119246393D01*
X180144671Y-119264117D01*
X180158921Y-119283330D01*
X180171218Y-119303847D01*
X180181446Y-119325471D01*
X180189504Y-119347993D01*
X180195316Y-119371197D01*
X180198826Y-119394858D01*
X180200000Y-119418750D01*
X180200000Y-119906250D01*
X180198826Y-119930142D01*
X180195316Y-119953803D01*
X180189504Y-119977007D01*
X180181446Y-119999529D01*
X180171218Y-120021153D01*
X180158921Y-120041670D01*
X180144671Y-120060883D01*
X180128607Y-120078607D01*
X180110883Y-120094671D01*
X180091670Y-120108921D01*
X180071153Y-120121218D01*
X180049529Y-120131446D01*
X180027007Y-120139504D01*
X180003803Y-120145316D01*
X179980142Y-120148826D01*
X179956250Y-120150000D01*
X179043750Y-120150000D01*
X179019858Y-120148826D01*
X178996197Y-120145316D01*
X178972993Y-120139504D01*
X178950471Y-120131446D01*
X178928847Y-120121218D01*
X178908330Y-120108921D01*
X178889117Y-120094671D01*
X178871393Y-120078607D01*
X178855329Y-120060883D01*
X178841079Y-120041670D01*
X178828782Y-120021153D01*
X178818554Y-119999529D01*
X178810496Y-119977007D01*
X178804684Y-119953803D01*
X178801174Y-119930142D01*
X178800000Y-119906250D01*
X178800000Y-119418750D01*
X178801174Y-119394858D01*
X178804684Y-119371197D01*
X178810496Y-119347993D01*
X178818554Y-119325471D01*
X178828782Y-119303847D01*
X178841079Y-119283330D01*
X178855329Y-119264117D01*
X178871393Y-119246393D01*
X178889117Y-119230329D01*
X178908330Y-119216079D01*
X178928847Y-119203782D01*
X178950471Y-119193554D01*
X178972993Y-119185496D01*
X178996197Y-119179684D01*
X179019858Y-119176174D01*
X179043750Y-119175000D01*
X179956250Y-119175000D01*
X179980142Y-119176174D01*
X179980142Y-119176174D01*
G37*
D16*
G04 #@! TD*
G04 #@! TO.P,R1,2*
G04 #@! TO.N,Net-(R1-Pad2)*
X179500000Y-119662500D03*
D17*
G04 #@! TO.P,J1,1*
G04 #@! TO.N,/VAC+*
X151100000Y-100300000D03*
D18*
G04 #@! TO.P,J1,2*
G04 #@! TO.N,GND*
X151100000Y-95300000D03*
G04 #@! TO.P,J1,3*
G04 #@! TO.N,/VAC-*
X151100000Y-90300000D03*
G04 #@! TD*
D15*
G04 #@! TO.N,GND*
G04 #@! TO.C,C1*
G36*
X169192642Y-122201174D02*
X169216303Y-122204684D01*
X169239507Y-122210496D01*
X169262029Y-122218554D01*
X169283653Y-122228782D01*
X169304170Y-122241079D01*
X169323383Y-122255329D01*
X169341107Y-122271393D01*
X169357171Y-122289117D01*
X169371421Y-122308330D01*
X169383718Y-122328847D01*
X169393946Y-122350471D01*
X169402004Y-122372993D01*
X169407816Y-122396197D01*
X169411326Y-122419858D01*
X169412500Y-122443750D01*
X169412500Y-123356250D01*
X169411326Y-123380142D01*
X169407816Y-123403803D01*
X169402004Y-123427007D01*
X169393946Y-123449529D01*
X169383718Y-123471153D01*
X169371421Y-123491670D01*
X169357171Y-123510883D01*
X169341107Y-123528607D01*
X169323383Y-123544671D01*
X169304170Y-123558921D01*
X169283653Y-123571218D01*
X169262029Y-123581446D01*
X169239507Y-123589504D01*
X169216303Y-123595316D01*
X169192642Y-123598826D01*
X169168750Y-123600000D01*
X168681250Y-123600000D01*
X168657358Y-123598826D01*
X168633697Y-123595316D01*
X168610493Y-123589504D01*
X168587971Y-123581446D01*
X168566347Y-123571218D01*
X168545830Y-123558921D01*
X168526617Y-123544671D01*
X168508893Y-123528607D01*
X168492829Y-123510883D01*
X168478579Y-123491670D01*
X168466282Y-123471153D01*
X168456054Y-123449529D01*
X168447996Y-123427007D01*
X168442184Y-123403803D01*
X168438674Y-123380142D01*
X168437500Y-123356250D01*
X168437500Y-122443750D01*
X168438674Y-122419858D01*
X168442184Y-122396197D01*
X168447996Y-122372993D01*
X168456054Y-122350471D01*
X168466282Y-122328847D01*
X168478579Y-122308330D01*
X168492829Y-122289117D01*
X168508893Y-122271393D01*
X168526617Y-122255329D01*
X168545830Y-122241079D01*
X168566347Y-122228782D01*
X168587971Y-122218554D01*
X168610493Y-122210496D01*
X168633697Y-122204684D01*
X168657358Y-122201174D01*
X168681250Y-122200000D01*
X169168750Y-122200000D01*
X169192642Y-122201174D01*
X169192642Y-122201174D01*
G37*
D16*
G04 #@! TD*
G04 #@! TO.P,C1,2*
G04 #@! TO.N,GND*
X168925000Y-122900000D03*
D15*
G04 #@! TO.N,/12VDC*
G04 #@! TO.C,C1*
G36*
X171067642Y-122201174D02*
X171091303Y-122204684D01*
X171114507Y-122210496D01*
X171137029Y-122218554D01*
X171158653Y-122228782D01*
X171179170Y-122241079D01*
X171198383Y-122255329D01*
X171216107Y-122271393D01*
X171232171Y-122289117D01*
X171246421Y-122308330D01*
X171258718Y-122328847D01*
X171268946Y-122350471D01*
X171277004Y-122372993D01*
X171282816Y-122396197D01*
X171286326Y-122419858D01*
X171287500Y-122443750D01*
X171287500Y-123356250D01*
X171286326Y-123380142D01*
X171282816Y-123403803D01*
X171277004Y-123427007D01*
X171268946Y-123449529D01*
X171258718Y-123471153D01*
X171246421Y-123491670D01*
X171232171Y-123510883D01*
X171216107Y-123528607D01*
X171198383Y-123544671D01*
X171179170Y-123558921D01*
X171158653Y-123571218D01*
X171137029Y-123581446D01*
X171114507Y-123589504D01*
X171091303Y-123595316D01*
X171067642Y-123598826D01*
X171043750Y-123600000D01*
X170556250Y-123600000D01*
X170532358Y-123598826D01*
X170508697Y-123595316D01*
X170485493Y-123589504D01*
X170462971Y-123581446D01*
X170441347Y-123571218D01*
X170420830Y-123558921D01*
X170401617Y-123544671D01*
X170383893Y-123528607D01*
X170367829Y-123510883D01*
X170353579Y-123491670D01*
X170341282Y-123471153D01*
X170331054Y-123449529D01*
X170322996Y-123427007D01*
X170317184Y-123403803D01*
X170313674Y-123380142D01*
X170312500Y-123356250D01*
X170312500Y-122443750D01*
X170313674Y-122419858D01*
X170317184Y-122396197D01*
X170322996Y-122372993D01*
X170331054Y-122350471D01*
X170341282Y-122328847D01*
X170353579Y-122308330D01*
X170367829Y-122289117D01*
X170383893Y-122271393D01*
X170401617Y-122255329D01*
X170420830Y-122241079D01*
X170441347Y-122228782D01*
X170462971Y-122218554D01*
X170485493Y-122210496D01*
X170508697Y-122204684D01*
X170532358Y-122201174D01*
X170556250Y-122200000D01*
X171043750Y-122200000D01*
X171067642Y-122201174D01*
X171067642Y-122201174D01*
G37*
D16*
G04 #@! TD*
G04 #@! TO.P,C1,1*
G04 #@! TO.N,/12VDC*
X170800000Y-122900000D03*
D15*
G04 #@! TO.N,Net-(C2-Pad2)*
G04 #@! TO.C,C2*
G36*
X169263142Y-110735674D02*
X169286803Y-110739184D01*
X169310007Y-110744996D01*
X169332529Y-110753054D01*
X169354153Y-110763282D01*
X169374670Y-110775579D01*
X169393883Y-110789829D01*
X169411607Y-110805893D01*
X169427671Y-110823617D01*
X169441921Y-110842830D01*
X169454218Y-110863347D01*
X169464446Y-110884971D01*
X169472504Y-110907493D01*
X169478316Y-110930697D01*
X169481826Y-110954358D01*
X169483000Y-110978250D01*
X169483000Y-111465750D01*
X169481826Y-111489642D01*
X169478316Y-111513303D01*
X169472504Y-111536507D01*
X169464446Y-111559029D01*
X169454218Y-111580653D01*
X169441921Y-111601170D01*
X169427671Y-111620383D01*
X169411607Y-111638107D01*
X169393883Y-111654171D01*
X169374670Y-111668421D01*
X169354153Y-111680718D01*
X169332529Y-111690946D01*
X169310007Y-111699004D01*
X169286803Y-111704816D01*
X169263142Y-111708326D01*
X169239250Y-111709500D01*
X168326750Y-111709500D01*
X168302858Y-111708326D01*
X168279197Y-111704816D01*
X168255993Y-111699004D01*
X168233471Y-111690946D01*
X168211847Y-111680718D01*
X168191330Y-111668421D01*
X168172117Y-111654171D01*
X168154393Y-111638107D01*
X168138329Y-111620383D01*
X168124079Y-111601170D01*
X168111782Y-111580653D01*
X168101554Y-111559029D01*
X168093496Y-111536507D01*
X168087684Y-111513303D01*
X168084174Y-111489642D01*
X168083000Y-111465750D01*
X168083000Y-110978250D01*
X168084174Y-110954358D01*
X168087684Y-110930697D01*
X168093496Y-110907493D01*
X168101554Y-110884971D01*
X168111782Y-110863347D01*
X168124079Y-110842830D01*
X168138329Y-110823617D01*
X168154393Y-110805893D01*
X168172117Y-110789829D01*
X168191330Y-110775579D01*
X168211847Y-110763282D01*
X168233471Y-110753054D01*
X168255993Y-110744996D01*
X168279197Y-110739184D01*
X168302858Y-110735674D01*
X168326750Y-110734500D01*
X169239250Y-110734500D01*
X169263142Y-110735674D01*
X169263142Y-110735674D01*
G37*
D16*
G04 #@! TD*
G04 #@! TO.P,C2,2*
G04 #@! TO.N,Net-(C2-Pad2)*
X168783000Y-111222000D03*
D15*
G04 #@! TO.N,Net-(C2-Pad1)*
G04 #@! TO.C,C2*
G36*
X169263142Y-108860674D02*
X169286803Y-108864184D01*
X169310007Y-108869996D01*
X169332529Y-108878054D01*
X169354153Y-108888282D01*
X169374670Y-108900579D01*
X169393883Y-108914829D01*
X169411607Y-108930893D01*
X169427671Y-108948617D01*
X169441921Y-108967830D01*
X169454218Y-108988347D01*
X169464446Y-109009971D01*
X169472504Y-109032493D01*
X169478316Y-109055697D01*
X169481826Y-109079358D01*
X169483000Y-109103250D01*
X169483000Y-109590750D01*
X169481826Y-109614642D01*
X169478316Y-109638303D01*
X169472504Y-109661507D01*
X169464446Y-109684029D01*
X169454218Y-109705653D01*
X169441921Y-109726170D01*
X169427671Y-109745383D01*
X169411607Y-109763107D01*
X169393883Y-109779171D01*
X169374670Y-109793421D01*
X169354153Y-109805718D01*
X169332529Y-109815946D01*
X169310007Y-109824004D01*
X169286803Y-109829816D01*
X169263142Y-109833326D01*
X169239250Y-109834500D01*
X168326750Y-109834500D01*
X168302858Y-109833326D01*
X168279197Y-109829816D01*
X168255993Y-109824004D01*
X168233471Y-109815946D01*
X168211847Y-109805718D01*
X168191330Y-109793421D01*
X168172117Y-109779171D01*
X168154393Y-109763107D01*
X168138329Y-109745383D01*
X168124079Y-109726170D01*
X168111782Y-109705653D01*
X168101554Y-109684029D01*
X168093496Y-109661507D01*
X168087684Y-109638303D01*
X168084174Y-109614642D01*
X168083000Y-109590750D01*
X168083000Y-109103250D01*
X168084174Y-109079358D01*
X168087684Y-109055697D01*
X168093496Y-109032493D01*
X168101554Y-109009971D01*
X168111782Y-108988347D01*
X168124079Y-108967830D01*
X168138329Y-108948617D01*
X168154393Y-108930893D01*
X168172117Y-108914829D01*
X168191330Y-108900579D01*
X168211847Y-108888282D01*
X168233471Y-108878054D01*
X168255993Y-108869996D01*
X168279197Y-108864184D01*
X168302858Y-108860674D01*
X168326750Y-108859500D01*
X169239250Y-108859500D01*
X169263142Y-108860674D01*
X169263142Y-108860674D01*
G37*
D16*
G04 #@! TD*
G04 #@! TO.P,C2,1*
G04 #@! TO.N,Net-(C2-Pad1)*
X168783000Y-109347000D03*
D15*
G04 #@! TO.N,/5VDC*
G04 #@! TO.C,C3*
G36*
X161530142Y-121001174D02*
X161553803Y-121004684D01*
X161577007Y-121010496D01*
X161599529Y-121018554D01*
X161621153Y-121028782D01*
X161641670Y-121041079D01*
X161660883Y-121055329D01*
X161678607Y-121071393D01*
X161694671Y-121089117D01*
X161708921Y-121108330D01*
X161721218Y-121128847D01*
X161731446Y-121150471D01*
X161739504Y-121172993D01*
X161745316Y-121196197D01*
X161748826Y-121219858D01*
X161750000Y-121243750D01*
X161750000Y-122156250D01*
X161748826Y-122180142D01*
X161745316Y-122203803D01*
X161739504Y-122227007D01*
X161731446Y-122249529D01*
X161721218Y-122271153D01*
X161708921Y-122291670D01*
X161694671Y-122310883D01*
X161678607Y-122328607D01*
X161660883Y-122344671D01*
X161641670Y-122358921D01*
X161621153Y-122371218D01*
X161599529Y-122381446D01*
X161577007Y-122389504D01*
X161553803Y-122395316D01*
X161530142Y-122398826D01*
X161506250Y-122400000D01*
X161018750Y-122400000D01*
X160994858Y-122398826D01*
X160971197Y-122395316D01*
X160947993Y-122389504D01*
X160925471Y-122381446D01*
X160903847Y-122371218D01*
X160883330Y-122358921D01*
X160864117Y-122344671D01*
X160846393Y-122328607D01*
X160830329Y-122310883D01*
X160816079Y-122291670D01*
X160803782Y-122271153D01*
X160793554Y-122249529D01*
X160785496Y-122227007D01*
X160779684Y-122203803D01*
X160776174Y-122180142D01*
X160775000Y-122156250D01*
X160775000Y-121243750D01*
X160776174Y-121219858D01*
X160779684Y-121196197D01*
X160785496Y-121172993D01*
X160793554Y-121150471D01*
X160803782Y-121128847D01*
X160816079Y-121108330D01*
X160830329Y-121089117D01*
X160846393Y-121071393D01*
X160864117Y-121055329D01*
X160883330Y-121041079D01*
X160903847Y-121028782D01*
X160925471Y-121018554D01*
X160947993Y-121010496D01*
X160971197Y-121004684D01*
X160994858Y-121001174D01*
X161018750Y-121000000D01*
X161506250Y-121000000D01*
X161530142Y-121001174D01*
X161530142Y-121001174D01*
G37*
D16*
G04 #@! TD*
G04 #@! TO.P,C3,1*
G04 #@! TO.N,/5VDC*
X161262500Y-121700000D03*
D15*
G04 #@! TO.N,GND*
G04 #@! TO.C,C3*
G36*
X163405142Y-121001174D02*
X163428803Y-121004684D01*
X163452007Y-121010496D01*
X163474529Y-121018554D01*
X163496153Y-121028782D01*
X163516670Y-121041079D01*
X163535883Y-121055329D01*
X163553607Y-121071393D01*
X163569671Y-121089117D01*
X163583921Y-121108330D01*
X163596218Y-121128847D01*
X163606446Y-121150471D01*
X163614504Y-121172993D01*
X163620316Y-121196197D01*
X163623826Y-121219858D01*
X163625000Y-121243750D01*
X163625000Y-122156250D01*
X163623826Y-122180142D01*
X163620316Y-122203803D01*
X163614504Y-122227007D01*
X163606446Y-122249529D01*
X163596218Y-122271153D01*
X163583921Y-122291670D01*
X163569671Y-122310883D01*
X163553607Y-122328607D01*
X163535883Y-122344671D01*
X163516670Y-122358921D01*
X163496153Y-122371218D01*
X163474529Y-122381446D01*
X163452007Y-122389504D01*
X163428803Y-122395316D01*
X163405142Y-122398826D01*
X163381250Y-122400000D01*
X162893750Y-122400000D01*
X162869858Y-122398826D01*
X162846197Y-122395316D01*
X162822993Y-122389504D01*
X162800471Y-122381446D01*
X162778847Y-122371218D01*
X162758330Y-122358921D01*
X162739117Y-122344671D01*
X162721393Y-122328607D01*
X162705329Y-122310883D01*
X162691079Y-122291670D01*
X162678782Y-122271153D01*
X162668554Y-122249529D01*
X162660496Y-122227007D01*
X162654684Y-122203803D01*
X162651174Y-122180142D01*
X162650000Y-122156250D01*
X162650000Y-121243750D01*
X162651174Y-121219858D01*
X162654684Y-121196197D01*
X162660496Y-121172993D01*
X162668554Y-121150471D01*
X162678782Y-121128847D01*
X162691079Y-121108330D01*
X162705329Y-121089117D01*
X162721393Y-121071393D01*
X162739117Y-121055329D01*
X162758330Y-121041079D01*
X162778847Y-121028782D01*
X162800471Y-121018554D01*
X162822993Y-121010496D01*
X162846197Y-121004684D01*
X162869858Y-121001174D01*
X162893750Y-121000000D01*
X163381250Y-121000000D01*
X163405142Y-121001174D01*
X163405142Y-121001174D01*
G37*
D16*
G04 #@! TD*
G04 #@! TO.P,C3,2*
G04 #@! TO.N,GND*
X163137500Y-121700000D03*
D15*
G04 #@! TO.N,/5VDC*
G04 #@! TO.C,C4*
G36*
X161507386Y-123666112D02*
X161531047Y-123669622D01*
X161554251Y-123675434D01*
X161576773Y-123683492D01*
X161598397Y-123693720D01*
X161618914Y-123706017D01*
X161638127Y-123720267D01*
X161655851Y-123736331D01*
X161671915Y-123754055D01*
X161686165Y-123773268D01*
X161698462Y-123793785D01*
X161708690Y-123815409D01*
X161716748Y-123837931D01*
X161722560Y-123861135D01*
X161726070Y-123884796D01*
X161727244Y-123908688D01*
X161727244Y-124821188D01*
X161726070Y-124845080D01*
X161722560Y-124868741D01*
X161716748Y-124891945D01*
X161708690Y-124914467D01*
X161698462Y-124936091D01*
X161686165Y-124956608D01*
X161671915Y-124975821D01*
X161655851Y-124993545D01*
X161638127Y-125009609D01*
X161618914Y-125023859D01*
X161598397Y-125036156D01*
X161576773Y-125046384D01*
X161554251Y-125054442D01*
X161531047Y-125060254D01*
X161507386Y-125063764D01*
X161483494Y-125064938D01*
X160995994Y-125064938D01*
X160972102Y-125063764D01*
X160948441Y-125060254D01*
X160925237Y-125054442D01*
X160902715Y-125046384D01*
X160881091Y-125036156D01*
X160860574Y-125023859D01*
X160841361Y-125009609D01*
X160823637Y-124993545D01*
X160807573Y-124975821D01*
X160793323Y-124956608D01*
X160781026Y-124936091D01*
X160770798Y-124914467D01*
X160762740Y-124891945D01*
X160756928Y-124868741D01*
X160753418Y-124845080D01*
X160752244Y-124821188D01*
X160752244Y-123908688D01*
X160753418Y-123884796D01*
X160756928Y-123861135D01*
X160762740Y-123837931D01*
X160770798Y-123815409D01*
X160781026Y-123793785D01*
X160793323Y-123773268D01*
X160807573Y-123754055D01*
X160823637Y-123736331D01*
X160841361Y-123720267D01*
X160860574Y-123706017D01*
X160881091Y-123693720D01*
X160902715Y-123683492D01*
X160925237Y-123675434D01*
X160948441Y-123669622D01*
X160972102Y-123666112D01*
X160995994Y-123664938D01*
X161483494Y-123664938D01*
X161507386Y-123666112D01*
X161507386Y-123666112D01*
G37*
D16*
G04 #@! TD*
G04 #@! TO.P,C4,1*
G04 #@! TO.N,/5VDC*
X161239744Y-124364938D03*
D15*
G04 #@! TO.N,GND*
G04 #@! TO.C,C4*
G36*
X163382386Y-123666112D02*
X163406047Y-123669622D01*
X163429251Y-123675434D01*
X163451773Y-123683492D01*
X163473397Y-123693720D01*
X163493914Y-123706017D01*
X163513127Y-123720267D01*
X163530851Y-123736331D01*
X163546915Y-123754055D01*
X163561165Y-123773268D01*
X163573462Y-123793785D01*
X163583690Y-123815409D01*
X163591748Y-123837931D01*
X163597560Y-123861135D01*
X163601070Y-123884796D01*
X163602244Y-123908688D01*
X163602244Y-124821188D01*
X163601070Y-124845080D01*
X163597560Y-124868741D01*
X163591748Y-124891945D01*
X163583690Y-124914467D01*
X163573462Y-124936091D01*
X163561165Y-124956608D01*
X163546915Y-124975821D01*
X163530851Y-124993545D01*
X163513127Y-125009609D01*
X163493914Y-125023859D01*
X163473397Y-125036156D01*
X163451773Y-125046384D01*
X163429251Y-125054442D01*
X163406047Y-125060254D01*
X163382386Y-125063764D01*
X163358494Y-125064938D01*
X162870994Y-125064938D01*
X162847102Y-125063764D01*
X162823441Y-125060254D01*
X162800237Y-125054442D01*
X162777715Y-125046384D01*
X162756091Y-125036156D01*
X162735574Y-125023859D01*
X162716361Y-125009609D01*
X162698637Y-124993545D01*
X162682573Y-124975821D01*
X162668323Y-124956608D01*
X162656026Y-124936091D01*
X162645798Y-124914467D01*
X162637740Y-124891945D01*
X162631928Y-124868741D01*
X162628418Y-124845080D01*
X162627244Y-124821188D01*
X162627244Y-123908688D01*
X162628418Y-123884796D01*
X162631928Y-123861135D01*
X162637740Y-123837931D01*
X162645798Y-123815409D01*
X162656026Y-123793785D01*
X162668323Y-123773268D01*
X162682573Y-123754055D01*
X162698637Y-123736331D01*
X162716361Y-123720267D01*
X162735574Y-123706017D01*
X162756091Y-123693720D01*
X162777715Y-123683492D01*
X162800237Y-123675434D01*
X162823441Y-123669622D01*
X162847102Y-123666112D01*
X162870994Y-123664938D01*
X163358494Y-123664938D01*
X163382386Y-123666112D01*
X163382386Y-123666112D01*
G37*
D16*
G04 #@! TD*
G04 #@! TO.P,C4,2*
G04 #@! TO.N,GND*
X163114744Y-124364938D03*
D19*
G04 #@! TO.P,D1,1*
G04 #@! TO.N,Net-(C2-Pad1)*
X164200000Y-108250000D03*
G04 #@! TO.P,D1,2*
G04 #@! TO.N,GND*
X164200000Y-112550000D03*
G04 #@! TD*
D15*
G04 #@! TO.N,Net-(D2-Pad1)*
G04 #@! TO.C,D2*
G36*
X248994815Y-116896004D02*
X249016050Y-116899154D01*
X249036874Y-116904370D01*
X249057086Y-116911602D01*
X249076492Y-116920781D01*
X249094905Y-116931817D01*
X249112148Y-116944605D01*
X249128054Y-116959021D01*
X249142470Y-116974927D01*
X249155258Y-116992170D01*
X249166294Y-117010583D01*
X249175473Y-117029989D01*
X249182705Y-117050201D01*
X249187921Y-117071025D01*
X249191071Y-117092260D01*
X249192124Y-117113701D01*
X249192124Y-117626201D01*
X249191071Y-117647642D01*
X249187921Y-117668877D01*
X249182705Y-117689701D01*
X249175473Y-117709913D01*
X249166294Y-117729319D01*
X249155258Y-117747732D01*
X249142470Y-117764975D01*
X249128054Y-117780881D01*
X249112148Y-117795297D01*
X249094905Y-117808085D01*
X249076492Y-117819121D01*
X249057086Y-117828300D01*
X249036874Y-117835532D01*
X249016050Y-117840748D01*
X248994815Y-117843898D01*
X248973374Y-117844951D01*
X248535874Y-117844951D01*
X248514433Y-117843898D01*
X248493198Y-117840748D01*
X248472374Y-117835532D01*
X248452162Y-117828300D01*
X248432756Y-117819121D01*
X248414343Y-117808085D01*
X248397100Y-117795297D01*
X248381194Y-117780881D01*
X248366778Y-117764975D01*
X248353990Y-117747732D01*
X248342954Y-117729319D01*
X248333775Y-117709913D01*
X248326543Y-117689701D01*
X248321327Y-117668877D01*
X248318177Y-117647642D01*
X248317124Y-117626201D01*
X248317124Y-117113701D01*
X248318177Y-117092260D01*
X248321327Y-117071025D01*
X248326543Y-117050201D01*
X248333775Y-117029989D01*
X248342954Y-117010583D01*
X248353990Y-116992170D01*
X248366778Y-116974927D01*
X248381194Y-116959021D01*
X248397100Y-116944605D01*
X248414343Y-116931817D01*
X248432756Y-116920781D01*
X248452162Y-116911602D01*
X248472374Y-116904370D01*
X248493198Y-116899154D01*
X248514433Y-116896004D01*
X248535874Y-116894951D01*
X248973374Y-116894951D01*
X248994815Y-116896004D01*
X248994815Y-116896004D01*
G37*
D20*
G04 #@! TD*
G04 #@! TO.P,D2,1*
G04 #@! TO.N,Net-(D2-Pad1)*
X248754624Y-117369951D03*
D15*
G04 #@! TO.N,Net-(D2-Pad2)*
G04 #@! TO.C,D2*
G36*
X247419815Y-116896004D02*
X247441050Y-116899154D01*
X247461874Y-116904370D01*
X247482086Y-116911602D01*
X247501492Y-116920781D01*
X247519905Y-116931817D01*
X247537148Y-116944605D01*
X247553054Y-116959021D01*
X247567470Y-116974927D01*
X247580258Y-116992170D01*
X247591294Y-117010583D01*
X247600473Y-117029989D01*
X247607705Y-117050201D01*
X247612921Y-117071025D01*
X247616071Y-117092260D01*
X247617124Y-117113701D01*
X247617124Y-117626201D01*
X247616071Y-117647642D01*
X247612921Y-117668877D01*
X247607705Y-117689701D01*
X247600473Y-117709913D01*
X247591294Y-117729319D01*
X247580258Y-117747732D01*
X247567470Y-117764975D01*
X247553054Y-117780881D01*
X247537148Y-117795297D01*
X247519905Y-117808085D01*
X247501492Y-117819121D01*
X247482086Y-117828300D01*
X247461874Y-117835532D01*
X247441050Y-117840748D01*
X247419815Y-117843898D01*
X247398374Y-117844951D01*
X246960874Y-117844951D01*
X246939433Y-117843898D01*
X246918198Y-117840748D01*
X246897374Y-117835532D01*
X246877162Y-117828300D01*
X246857756Y-117819121D01*
X246839343Y-117808085D01*
X246822100Y-117795297D01*
X246806194Y-117780881D01*
X246791778Y-117764975D01*
X246778990Y-117747732D01*
X246767954Y-117729319D01*
X246758775Y-117709913D01*
X246751543Y-117689701D01*
X246746327Y-117668877D01*
X246743177Y-117647642D01*
X246742124Y-117626201D01*
X246742124Y-117113701D01*
X246743177Y-117092260D01*
X246746327Y-117071025D01*
X246751543Y-117050201D01*
X246758775Y-117029989D01*
X246767954Y-117010583D01*
X246778990Y-116992170D01*
X246791778Y-116974927D01*
X246806194Y-116959021D01*
X246822100Y-116944605D01*
X246839343Y-116931817D01*
X246857756Y-116920781D01*
X246877162Y-116911602D01*
X246897374Y-116904370D01*
X246918198Y-116899154D01*
X246939433Y-116896004D01*
X246960874Y-116894951D01*
X247398374Y-116894951D01*
X247419815Y-116896004D01*
X247419815Y-116896004D01*
G37*
D20*
G04 #@! TD*
G04 #@! TO.P,D2,2*
G04 #@! TO.N,Net-(D2-Pad2)*
X247179624Y-117369951D03*
D21*
G04 #@! TO.P,J2,1*
G04 #@! TO.N,/out_VAC+*
X236690000Y-101350000D03*
D22*
G04 #@! TO.P,J2,3*
G04 #@! TO.N,/out_VAC-*
X236690000Y-88650000D03*
G04 #@! TO.P,J2,2*
G04 #@! TO.N,GND*
X240880000Y-95000000D03*
G04 #@! TD*
D23*
G04 #@! TO.P,K1,1*
G04 #@! TO.N,Net-(K1-Pad1)*
X197750000Y-98750000D03*
G04 #@! TO.P,K1,2*
G04 #@! TO.N,/12VDC*
X197750000Y-91250000D03*
D24*
G04 #@! TO.P,K1,3*
G04 #@! TO.N,/out_VAC+*
X217750000Y-98750000D03*
G04 #@! TO.P,K1,4*
G04 #@! TO.N,/VAC+*
X212750000Y-98750000D03*
G04 #@! TO.P,K1,5*
G04 #@! TO.N,/VAC-*
X212750000Y-91250000D03*
G04 #@! TO.P,K1,6*
G04 #@! TO.N,/out_VAC-*
X217750000Y-91250000D03*
G04 #@! TD*
D25*
G04 #@! TO.P,L1,1*
G04 #@! TO.N,/5VDC*
X153600000Y-117551400D03*
G04 #@! TO.P,L1,2*
G04 #@! TO.N,Net-(C2-Pad1)*
X153600000Y-107848600D03*
G04 #@! TD*
D15*
G04 #@! TO.N,Net-(D2-Pad1)*
G04 #@! TO.C,R2*
G36*
X251397266Y-116571125D02*
X251420927Y-116574635D01*
X251444131Y-116580447D01*
X251466653Y-116588505D01*
X251488277Y-116598733D01*
X251508794Y-116611030D01*
X251528007Y-116625280D01*
X251545731Y-116641344D01*
X251561795Y-116659068D01*
X251576045Y-116678281D01*
X251588342Y-116698798D01*
X251598570Y-116720422D01*
X251606628Y-116742944D01*
X251612440Y-116766148D01*
X251615950Y-116789809D01*
X251617124Y-116813701D01*
X251617124Y-117726201D01*
X251615950Y-117750093D01*
X251612440Y-117773754D01*
X251606628Y-117796958D01*
X251598570Y-117819480D01*
X251588342Y-117841104D01*
X251576045Y-117861621D01*
X251561795Y-117880834D01*
X251545731Y-117898558D01*
X251528007Y-117914622D01*
X251508794Y-117928872D01*
X251488277Y-117941169D01*
X251466653Y-117951397D01*
X251444131Y-117959455D01*
X251420927Y-117965267D01*
X251397266Y-117968777D01*
X251373374Y-117969951D01*
X250885874Y-117969951D01*
X250861982Y-117968777D01*
X250838321Y-117965267D01*
X250815117Y-117959455D01*
X250792595Y-117951397D01*
X250770971Y-117941169D01*
X250750454Y-117928872D01*
X250731241Y-117914622D01*
X250713517Y-117898558D01*
X250697453Y-117880834D01*
X250683203Y-117861621D01*
X250670906Y-117841104D01*
X250660678Y-117819480D01*
X250652620Y-117796958D01*
X250646808Y-117773754D01*
X250643298Y-117750093D01*
X250642124Y-117726201D01*
X250642124Y-116813701D01*
X250643298Y-116789809D01*
X250646808Y-116766148D01*
X250652620Y-116742944D01*
X250660678Y-116720422D01*
X250670906Y-116698798D01*
X250683203Y-116678281D01*
X250697453Y-116659068D01*
X250713517Y-116641344D01*
X250731241Y-116625280D01*
X250750454Y-116611030D01*
X250770971Y-116598733D01*
X250792595Y-116588505D01*
X250815117Y-116580447D01*
X250838321Y-116574635D01*
X250861982Y-116571125D01*
X250885874Y-116569951D01*
X251373374Y-116569951D01*
X251397266Y-116571125D01*
X251397266Y-116571125D01*
G37*
D16*
G04 #@! TD*
G04 #@! TO.P,R2,1*
G04 #@! TO.N,Net-(D2-Pad1)*
X251129624Y-117269951D03*
D15*
G04 #@! TO.N,GND*
G04 #@! TO.C,R2*
G36*
X253272266Y-116571125D02*
X253295927Y-116574635D01*
X253319131Y-116580447D01*
X253341653Y-116588505D01*
X253363277Y-116598733D01*
X253383794Y-116611030D01*
X253403007Y-116625280D01*
X253420731Y-116641344D01*
X253436795Y-116659068D01*
X253451045Y-116678281D01*
X253463342Y-116698798D01*
X253473570Y-116720422D01*
X253481628Y-116742944D01*
X253487440Y-116766148D01*
X253490950Y-116789809D01*
X253492124Y-116813701D01*
X253492124Y-117726201D01*
X253490950Y-117750093D01*
X253487440Y-117773754D01*
X253481628Y-117796958D01*
X253473570Y-117819480D01*
X253463342Y-117841104D01*
X253451045Y-117861621D01*
X253436795Y-117880834D01*
X253420731Y-117898558D01*
X253403007Y-117914622D01*
X253383794Y-117928872D01*
X253363277Y-117941169D01*
X253341653Y-117951397D01*
X253319131Y-117959455D01*
X253295927Y-117965267D01*
X253272266Y-117968777D01*
X253248374Y-117969951D01*
X252760874Y-117969951D01*
X252736982Y-117968777D01*
X252713321Y-117965267D01*
X252690117Y-117959455D01*
X252667595Y-117951397D01*
X252645971Y-117941169D01*
X252625454Y-117928872D01*
X252606241Y-117914622D01*
X252588517Y-117898558D01*
X252572453Y-117880834D01*
X252558203Y-117861621D01*
X252545906Y-117841104D01*
X252535678Y-117819480D01*
X252527620Y-117796958D01*
X252521808Y-117773754D01*
X252518298Y-117750093D01*
X252517124Y-117726201D01*
X252517124Y-116813701D01*
X252518298Y-116789809D01*
X252521808Y-116766148D01*
X252527620Y-116742944D01*
X252535678Y-116720422D01*
X252545906Y-116698798D01*
X252558203Y-116678281D01*
X252572453Y-116659068D01*
X252588517Y-116641344D01*
X252606241Y-116625280D01*
X252625454Y-116611030D01*
X252645971Y-116598733D01*
X252667595Y-116588505D01*
X252690117Y-116580447D01*
X252713321Y-116574635D01*
X252736982Y-116571125D01*
X252760874Y-116569951D01*
X253248374Y-116569951D01*
X253272266Y-116571125D01*
X253272266Y-116571125D01*
G37*
D16*
G04 #@! TD*
G04 #@! TO.P,R2,2*
G04 #@! TO.N,GND*
X253004624Y-117269951D03*
D26*
G04 #@! TO.P,U1,2*
G04 #@! TO.N,/VAC-*
X160000000Y-84880000D03*
D27*
G04 #@! TO.P,U1,1*
G04 #@! TO.N,/VAC+*
X160000000Y-100120000D03*
D26*
G04 #@! TO.P,U1,3*
G04 #@! TO.N,GND*
X188000000Y-84880000D03*
G04 #@! TO.P,U1,4*
G04 #@! TO.N,/12VDC*
X188000000Y-92500000D03*
G04 #@! TD*
D28*
G04 #@! TO.P,U2,8*
G04 #@! TO.N,Net-(C2-Pad1)*
X173295000Y-109425000D03*
G04 #@! TO.P,U2,7*
G04 #@! TO.N,GND*
X174565000Y-109425000D03*
G04 #@! TO.P,U2,6*
G04 #@! TO.N,Net-(U2-Pad6)*
X175835000Y-109425000D03*
G04 #@! TO.P,U2,5*
G04 #@! TO.N,/5VDC*
X177105000Y-109425000D03*
G04 #@! TO.P,U2,1*
G04 #@! TO.N,Net-(C2-Pad2)*
X173295000Y-114375000D03*
G04 #@! TO.P,U2,2*
G04 #@! TO.N,/12VDC*
X174565000Y-114375000D03*
G04 #@! TO.P,U2,3*
X175835000Y-114375000D03*
G04 #@! TO.P,U2,4*
G04 #@! TO.N,Net-(R1-Pad2)*
X177105000Y-114375000D03*
D29*
G04 #@! TO.P,U2,9*
G04 #@! TO.N,GND*
X175200000Y-111900000D03*
G04 #@! TD*
D30*
G04 #@! TO.N,/5VDC*
X155900000Y-125900000D03*
G04 #@! TO.N,/12VDC*
X178600000Y-125800000D03*
X184150000Y-125800000D03*
G04 #@! TD*
D31*
G04 #@! TO.N,GND*
X161050000Y-112550000D02*
X161000000Y-112600000D01*
X164200000Y-112550000D02*
X161050000Y-112550000D01*
X238365529Y-95000000D02*
X240880000Y-95000000D01*
X235968558Y-95000000D02*
X238365529Y-95000000D01*
X191750000Y-84880000D02*
X192503999Y-84126001D01*
D32*
G04 #@! TO.N,/5VDC*
X155900000Y-126465685D02*
X157437120Y-128002805D01*
X155900000Y-125900000D02*
X155900000Y-126465685D01*
X179025000Y-109425000D02*
X177105000Y-109425000D01*
D31*
G04 #@! TO.N,GND*
X234083998Y-95000000D02*
X235968558Y-95000000D01*
X226583998Y-102500000D02*
X234083998Y-95000000D01*
X202292400Y-102500000D02*
X226583998Y-102500000D01*
X202252600Y-102460200D02*
X202292400Y-102500000D01*
X199744600Y-102460200D02*
X202252600Y-102460200D01*
X253004624Y-116469951D02*
X253004624Y-117269951D01*
X253004624Y-104610153D02*
X253004624Y-116469951D01*
X243394471Y-95000000D02*
X253004624Y-104610153D01*
X240880000Y-95000000D02*
X243394471Y-95000000D01*
D33*
X174565000Y-111265000D02*
X175200000Y-111900000D01*
X174565000Y-109425000D02*
X174565000Y-111265000D01*
D31*
X192600000Y-84222002D02*
X192503999Y-84126001D01*
X191942002Y-84880000D02*
X188000000Y-84880000D01*
X192600000Y-84222002D02*
X191942002Y-84880000D01*
X149261523Y-95300000D02*
X151100000Y-95300000D01*
X148099998Y-95300000D02*
X149261523Y-95300000D01*
X142850000Y-100549998D02*
X148099998Y-95300000D01*
X142850000Y-112550000D02*
X142850000Y-100549998D01*
X161050000Y-112550000D02*
X142850000Y-112550000D01*
X192619863Y-127034805D02*
X192619863Y-130304805D01*
X192619863Y-120111803D02*
X192619863Y-127034805D01*
X187071000Y-114562940D02*
X192619863Y-120111803D01*
X187071000Y-106623666D02*
X187071000Y-114562940D01*
X192600000Y-101094666D02*
X187071000Y-106623666D01*
X192600000Y-84222002D02*
X192600000Y-101094666D01*
D32*
G04 #@! TO.N,/12VDC*
X185900000Y-94600000D02*
X188000000Y-92500000D01*
X187246001Y-91746001D02*
X188000000Y-92500000D01*
X185499990Y-89999990D02*
X187246001Y-91746001D01*
X185499990Y-83844462D02*
X185499990Y-89999990D01*
X187718460Y-81625992D02*
X185499990Y-83844462D01*
X193539538Y-81625992D02*
X187718460Y-81625992D01*
X195100010Y-83186464D02*
X193539538Y-81625992D01*
X195100010Y-88600010D02*
X195100010Y-83186464D01*
X197750000Y-91250000D02*
X195100010Y-88600010D01*
X184150000Y-96350000D02*
X185900000Y-94600000D01*
X184150000Y-125800000D02*
X184150000Y-96350000D01*
D33*
G04 #@! TO.N,Net-(C2-Pad2)*
X173295000Y-114375000D02*
X173295000Y-113690000D01*
X168783000Y-111222000D02*
X168783000Y-113157000D01*
X170001000Y-114375000D02*
X173295000Y-114375000D01*
X168783000Y-113157000D02*
X170001000Y-114375000D01*
D32*
G04 #@! TO.N,/5VDC*
X185902000Y-130304805D02*
X190079863Y-130304805D01*
X183600000Y-128002805D02*
X185902000Y-130304805D01*
X179025000Y-111031000D02*
X179025000Y-109425000D01*
X181610000Y-113616000D02*
X179025000Y-111031000D01*
X181610000Y-128002805D02*
X181610000Y-113616000D01*
X181610000Y-128002805D02*
X183600000Y-128002805D01*
X157437120Y-128002805D02*
X181610000Y-128002805D01*
D33*
G04 #@! TO.N,Net-(D2-Pad1)*
X248854624Y-117269951D02*
X248754624Y-117369951D01*
X251129624Y-117269951D02*
X248854624Y-117269951D01*
G04 #@! TO.N,Net-(D2-Pad2)*
X201157863Y-105753063D02*
X199744600Y-104339800D01*
X235272173Y-106000000D02*
X201157863Y-106000000D01*
X246642124Y-117369951D02*
X235272173Y-106000000D01*
X247179624Y-117369951D02*
X246642124Y-117369951D01*
X201157863Y-106000000D02*
X201157863Y-105753063D01*
X200239863Y-106918000D02*
X200239863Y-109984805D01*
X201157863Y-106000000D02*
X200239863Y-106918000D01*
G04 #@! TO.N,Net-(K1-Pad1)*
X197255400Y-99244600D02*
X197750000Y-98750000D01*
X197255400Y-103400000D02*
X197255400Y-99244600D01*
D32*
G04 #@! TO.N,Net-(R1-Pad2)*
X179500000Y-116770000D02*
X177105000Y-114375000D01*
X179500000Y-119662500D02*
X179500000Y-116770000D01*
G04 #@! TD*
D34*
G04 #@! TO.N,Net-(C2-Pad1)*
G36*
X173773000Y-107826411D02*
X173721310Y-107805000D01*
X173580750Y-107805000D01*
X173422000Y-107963750D01*
X173422000Y-109298000D01*
X173442000Y-109298000D01*
X173442000Y-109478797D01*
X170007600Y-109522350D01*
X169959250Y-109474000D01*
X168910000Y-109474000D01*
X168910000Y-109494000D01*
X168656000Y-109494000D01*
X168656000Y-109474000D01*
X167606750Y-109474000D01*
X167526943Y-109553807D01*
X165985000Y-109573361D01*
X165985000Y-108733191D01*
X167448000Y-108733191D01*
X167448000Y-109061250D01*
X167606750Y-109220000D01*
X168656000Y-109220000D01*
X168656000Y-108383250D01*
X168910000Y-108383250D01*
X168910000Y-109220000D01*
X169959250Y-109220000D01*
X170118000Y-109061250D01*
X170118000Y-108733191D01*
X170021327Y-108499802D01*
X169842699Y-108321173D01*
X169824636Y-108313691D01*
X172360000Y-108313691D01*
X172360000Y-109139250D01*
X172518750Y-109298000D01*
X173168000Y-109298000D01*
X173168000Y-107963750D01*
X173009250Y-107805000D01*
X172868690Y-107805000D01*
X172635301Y-107901673D01*
X172456673Y-108080302D01*
X172360000Y-108313691D01*
X169824636Y-108313691D01*
X169609310Y-108224500D01*
X169068750Y-108224500D01*
X168910000Y-108383250D01*
X168656000Y-108383250D01*
X168497250Y-108224500D01*
X167956690Y-108224500D01*
X167723301Y-108321173D01*
X167544673Y-108499802D01*
X167448000Y-108733191D01*
X165985000Y-108733191D01*
X165985000Y-108535750D01*
X165826250Y-108377000D01*
X164327000Y-108377000D01*
X164327000Y-108397000D01*
X164073000Y-108397000D01*
X164073000Y-108377000D01*
X162573750Y-108377000D01*
X162415000Y-108535750D01*
X162415000Y-109618633D01*
X156809813Y-109689713D01*
X156843427Y-109656099D01*
X156940100Y-109422710D01*
X156940100Y-108134350D01*
X156781350Y-107975600D01*
X153727000Y-107975600D01*
X153727000Y-107995600D01*
X153473000Y-107995600D01*
X153473000Y-107975600D01*
X150418650Y-107975600D01*
X150259900Y-108134350D01*
X150259900Y-109422710D01*
X150356573Y-109656099D01*
X150470576Y-109770102D01*
X146427000Y-109821379D01*
X146427000Y-106274490D01*
X150259900Y-106274490D01*
X150259900Y-107562850D01*
X150418650Y-107721600D01*
X153473000Y-107721600D01*
X153473000Y-105924550D01*
X153727000Y-105924550D01*
X153727000Y-107721600D01*
X156781350Y-107721600D01*
X156940100Y-107562850D01*
X156940100Y-106873691D01*
X162415000Y-106873691D01*
X162415000Y-107964250D01*
X162573750Y-108123000D01*
X164073000Y-108123000D01*
X164073000Y-106523750D01*
X164327000Y-106523750D01*
X164327000Y-108123000D01*
X165826250Y-108123000D01*
X165985000Y-107964250D01*
X165985000Y-106873691D01*
X165888327Y-106640302D01*
X165709699Y-106461673D01*
X165476310Y-106365000D01*
X164485750Y-106365000D01*
X164327000Y-106523750D01*
X164073000Y-106523750D01*
X163914250Y-106365000D01*
X162923690Y-106365000D01*
X162690301Y-106461673D01*
X162511673Y-106640302D01*
X162415000Y-106873691D01*
X156940100Y-106873691D01*
X156940100Y-106274490D01*
X156843427Y-106041101D01*
X156664798Y-105862473D01*
X156431409Y-105765800D01*
X153885750Y-105765800D01*
X153727000Y-105924550D01*
X153473000Y-105924550D01*
X153314250Y-105765800D01*
X150768591Y-105765800D01*
X150535202Y-105862473D01*
X150356573Y-106041101D01*
X150259900Y-106274490D01*
X146427000Y-106274490D01*
X146427000Y-104576312D01*
X173773000Y-104427692D01*
X173773000Y-107826411D01*
X173773000Y-107826411D01*
G37*
X173773000Y-107826411D02*
X173721310Y-107805000D01*
X173580750Y-107805000D01*
X173422000Y-107963750D01*
X173422000Y-109298000D01*
X173442000Y-109298000D01*
X173442000Y-109478797D01*
X170007600Y-109522350D01*
X169959250Y-109474000D01*
X168910000Y-109474000D01*
X168910000Y-109494000D01*
X168656000Y-109494000D01*
X168656000Y-109474000D01*
X167606750Y-109474000D01*
X167526943Y-109553807D01*
X165985000Y-109573361D01*
X165985000Y-108733191D01*
X167448000Y-108733191D01*
X167448000Y-109061250D01*
X167606750Y-109220000D01*
X168656000Y-109220000D01*
X168656000Y-108383250D01*
X168910000Y-108383250D01*
X168910000Y-109220000D01*
X169959250Y-109220000D01*
X170118000Y-109061250D01*
X170118000Y-108733191D01*
X170021327Y-108499802D01*
X169842699Y-108321173D01*
X169824636Y-108313691D01*
X172360000Y-108313691D01*
X172360000Y-109139250D01*
X172518750Y-109298000D01*
X173168000Y-109298000D01*
X173168000Y-107963750D01*
X173009250Y-107805000D01*
X172868690Y-107805000D01*
X172635301Y-107901673D01*
X172456673Y-108080302D01*
X172360000Y-108313691D01*
X169824636Y-108313691D01*
X169609310Y-108224500D01*
X169068750Y-108224500D01*
X168910000Y-108383250D01*
X168656000Y-108383250D01*
X168497250Y-108224500D01*
X167956690Y-108224500D01*
X167723301Y-108321173D01*
X167544673Y-108499802D01*
X167448000Y-108733191D01*
X165985000Y-108733191D01*
X165985000Y-108535750D01*
X165826250Y-108377000D01*
X164327000Y-108377000D01*
X164327000Y-108397000D01*
X164073000Y-108397000D01*
X164073000Y-108377000D01*
X162573750Y-108377000D01*
X162415000Y-108535750D01*
X162415000Y-109618633D01*
X156809813Y-109689713D01*
X156843427Y-109656099D01*
X156940100Y-109422710D01*
X156940100Y-108134350D01*
X156781350Y-107975600D01*
X153727000Y-107975600D01*
X153727000Y-107995600D01*
X153473000Y-107995600D01*
X153473000Y-107975600D01*
X150418650Y-107975600D01*
X150259900Y-108134350D01*
X150259900Y-109422710D01*
X150356573Y-109656099D01*
X150470576Y-109770102D01*
X146427000Y-109821379D01*
X146427000Y-106274490D01*
X150259900Y-106274490D01*
X150259900Y-107562850D01*
X150418650Y-107721600D01*
X153473000Y-107721600D01*
X153473000Y-105924550D01*
X153727000Y-105924550D01*
X153727000Y-107721600D01*
X156781350Y-107721600D01*
X156940100Y-107562850D01*
X156940100Y-106873691D01*
X162415000Y-106873691D01*
X162415000Y-107964250D01*
X162573750Y-108123000D01*
X164073000Y-108123000D01*
X164073000Y-106523750D01*
X164327000Y-106523750D01*
X164327000Y-108123000D01*
X165826250Y-108123000D01*
X165985000Y-107964250D01*
X165985000Y-106873691D01*
X165888327Y-106640302D01*
X165709699Y-106461673D01*
X165476310Y-106365000D01*
X164485750Y-106365000D01*
X164327000Y-106523750D01*
X164073000Y-106523750D01*
X163914250Y-106365000D01*
X162923690Y-106365000D01*
X162690301Y-106461673D01*
X162511673Y-106640302D01*
X162415000Y-106873691D01*
X156940100Y-106873691D01*
X156940100Y-106274490D01*
X156843427Y-106041101D01*
X156664798Y-105862473D01*
X156431409Y-105765800D01*
X153885750Y-105765800D01*
X153727000Y-105924550D01*
X153473000Y-105924550D01*
X153314250Y-105765800D01*
X150768591Y-105765800D01*
X150535202Y-105862473D01*
X150356573Y-106041101D01*
X150259900Y-106274490D01*
X146427000Y-106274490D01*
X146427000Y-104576312D01*
X173773000Y-104427692D01*
X173773000Y-107826411D01*
G04 #@! TO.N,/5VDC*
G36*
X161617425Y-120365000D02*
X161548250Y-120365000D01*
X161389500Y-120523750D01*
X161389500Y-121573000D01*
X161409500Y-121573000D01*
X161409500Y-121827000D01*
X161389500Y-121827000D01*
X161389500Y-122876250D01*
X161543188Y-123029938D01*
X161525494Y-123029938D01*
X161366744Y-123188688D01*
X161366744Y-124237938D01*
X161386744Y-124237938D01*
X161386744Y-124491938D01*
X161366744Y-124491938D01*
X161366744Y-125541188D01*
X161525494Y-125699938D01*
X161664222Y-125699938D01*
X161671888Y-126573830D01*
X146527000Y-126672173D01*
X146527000Y-124650688D01*
X160117244Y-124650688D01*
X160117244Y-125191248D01*
X160213917Y-125424637D01*
X160392546Y-125603265D01*
X160625935Y-125699938D01*
X160953994Y-125699938D01*
X161112744Y-125541188D01*
X161112744Y-124491938D01*
X160275994Y-124491938D01*
X160117244Y-124650688D01*
X146527000Y-124650688D01*
X146527000Y-123538628D01*
X160117244Y-123538628D01*
X160117244Y-124079188D01*
X160275994Y-124237938D01*
X161112744Y-124237938D01*
X161112744Y-123188688D01*
X160959056Y-123035000D01*
X160976750Y-123035000D01*
X161135500Y-122876250D01*
X161135500Y-121827000D01*
X160298750Y-121827000D01*
X160140000Y-121985750D01*
X160140000Y-122526310D01*
X160236673Y-122759699D01*
X160415302Y-122938327D01*
X160636470Y-123029938D01*
X160625935Y-123029938D01*
X160392546Y-123126611D01*
X160213917Y-123305239D01*
X160117244Y-123538628D01*
X146527000Y-123538628D01*
X146527000Y-120873690D01*
X160140000Y-120873690D01*
X160140000Y-121414250D01*
X160298750Y-121573000D01*
X161135500Y-121573000D01*
X161135500Y-120523750D01*
X160976750Y-120365000D01*
X160648691Y-120365000D01*
X160415302Y-120461673D01*
X160236673Y-120640301D01*
X160140000Y-120873690D01*
X146527000Y-120873690D01*
X146527000Y-117837150D01*
X150259900Y-117837150D01*
X150259900Y-119125510D01*
X150356573Y-119358899D01*
X150535202Y-119537527D01*
X150768591Y-119634200D01*
X153314250Y-119634200D01*
X153473000Y-119475450D01*
X153473000Y-117678400D01*
X153727000Y-117678400D01*
X153727000Y-119475450D01*
X153885750Y-119634200D01*
X156431409Y-119634200D01*
X156664798Y-119537527D01*
X156843427Y-119358899D01*
X156940100Y-119125510D01*
X156940100Y-117837150D01*
X156781350Y-117678400D01*
X153727000Y-117678400D01*
X153473000Y-117678400D01*
X150418650Y-117678400D01*
X150259900Y-117837150D01*
X146527000Y-117837150D01*
X146527000Y-115977290D01*
X150259900Y-115977290D01*
X150259900Y-117265650D01*
X150418650Y-117424400D01*
X153473000Y-117424400D01*
X153473000Y-115627350D01*
X153727000Y-115627350D01*
X153727000Y-117424400D01*
X156781350Y-117424400D01*
X156940100Y-117265650D01*
X156940100Y-115977290D01*
X156843427Y-115743901D01*
X156664798Y-115565273D01*
X156431409Y-115468600D01*
X153885750Y-115468600D01*
X153727000Y-115627350D01*
X153473000Y-115627350D01*
X153314250Y-115468600D01*
X150768591Y-115468600D01*
X150535202Y-115565273D01*
X150356573Y-115743901D01*
X150259900Y-115977290D01*
X146527000Y-115977290D01*
X146527000Y-115427000D01*
X161574109Y-115427000D01*
X161617425Y-120365000D01*
X161617425Y-120365000D01*
G37*
X161617425Y-120365000D02*
X161548250Y-120365000D01*
X161389500Y-120523750D01*
X161389500Y-121573000D01*
X161409500Y-121573000D01*
X161409500Y-121827000D01*
X161389500Y-121827000D01*
X161389500Y-122876250D01*
X161543188Y-123029938D01*
X161525494Y-123029938D01*
X161366744Y-123188688D01*
X161366744Y-124237938D01*
X161386744Y-124237938D01*
X161386744Y-124491938D01*
X161366744Y-124491938D01*
X161366744Y-125541188D01*
X161525494Y-125699938D01*
X161664222Y-125699938D01*
X161671888Y-126573830D01*
X146527000Y-126672173D01*
X146527000Y-124650688D01*
X160117244Y-124650688D01*
X160117244Y-125191248D01*
X160213917Y-125424637D01*
X160392546Y-125603265D01*
X160625935Y-125699938D01*
X160953994Y-125699938D01*
X161112744Y-125541188D01*
X161112744Y-124491938D01*
X160275994Y-124491938D01*
X160117244Y-124650688D01*
X146527000Y-124650688D01*
X146527000Y-123538628D01*
X160117244Y-123538628D01*
X160117244Y-124079188D01*
X160275994Y-124237938D01*
X161112744Y-124237938D01*
X161112744Y-123188688D01*
X160959056Y-123035000D01*
X160976750Y-123035000D01*
X161135500Y-122876250D01*
X161135500Y-121827000D01*
X160298750Y-121827000D01*
X160140000Y-121985750D01*
X160140000Y-122526310D01*
X160236673Y-122759699D01*
X160415302Y-122938327D01*
X160636470Y-123029938D01*
X160625935Y-123029938D01*
X160392546Y-123126611D01*
X160213917Y-123305239D01*
X160117244Y-123538628D01*
X146527000Y-123538628D01*
X146527000Y-120873690D01*
X160140000Y-120873690D01*
X160140000Y-121414250D01*
X160298750Y-121573000D01*
X161135500Y-121573000D01*
X161135500Y-120523750D01*
X160976750Y-120365000D01*
X160648691Y-120365000D01*
X160415302Y-120461673D01*
X160236673Y-120640301D01*
X160140000Y-120873690D01*
X146527000Y-120873690D01*
X146527000Y-117837150D01*
X150259900Y-117837150D01*
X150259900Y-119125510D01*
X150356573Y-119358899D01*
X150535202Y-119537527D01*
X150768591Y-119634200D01*
X153314250Y-119634200D01*
X153473000Y-119475450D01*
X153473000Y-117678400D01*
X153727000Y-117678400D01*
X153727000Y-119475450D01*
X153885750Y-119634200D01*
X156431409Y-119634200D01*
X156664798Y-119537527D01*
X156843427Y-119358899D01*
X156940100Y-119125510D01*
X156940100Y-117837150D01*
X156781350Y-117678400D01*
X153727000Y-117678400D01*
X153473000Y-117678400D01*
X150418650Y-117678400D01*
X150259900Y-117837150D01*
X146527000Y-117837150D01*
X146527000Y-115977290D01*
X150259900Y-115977290D01*
X150259900Y-117265650D01*
X150418650Y-117424400D01*
X153473000Y-117424400D01*
X153473000Y-115627350D01*
X153727000Y-115627350D01*
X153727000Y-117424400D01*
X156781350Y-117424400D01*
X156940100Y-117265650D01*
X156940100Y-115977290D01*
X156843427Y-115743901D01*
X156664798Y-115565273D01*
X156431409Y-115468600D01*
X153885750Y-115468600D01*
X153727000Y-115627350D01*
X153473000Y-115627350D01*
X153314250Y-115468600D01*
X150768591Y-115468600D01*
X150535202Y-115565273D01*
X150356573Y-115743901D01*
X150259900Y-115977290D01*
X146527000Y-115977290D01*
X146527000Y-115427000D01*
X161574109Y-115427000D01*
X161617425Y-120365000D01*
G04 #@! TO.N,GND*
G36*
X170873000Y-110700000D02*
X170882667Y-110748601D01*
X170910197Y-110789803D01*
X170951399Y-110817333D01*
X171000000Y-110827000D01*
X173420000Y-110827000D01*
X173420000Y-111614250D01*
X173578750Y-111773000D01*
X175073000Y-111773000D01*
X175073000Y-111753000D01*
X175327000Y-111753000D01*
X175327000Y-111773000D01*
X176821250Y-111773000D01*
X176980000Y-111614250D01*
X176980000Y-110742787D01*
X177973000Y-110728801D01*
X177973000Y-113073000D01*
X176980000Y-113073000D01*
X176980000Y-112185750D01*
X176821250Y-112027000D01*
X175327000Y-112027000D01*
X175327000Y-112047000D01*
X175073000Y-112047000D01*
X175073000Y-112027000D01*
X173578750Y-112027000D01*
X173420000Y-112185750D01*
X173420000Y-113073000D01*
X169600000Y-113073000D01*
X169551399Y-113082667D01*
X169510197Y-113110197D01*
X169504362Y-113118930D01*
X169320000Y-112934569D01*
X169320000Y-111986060D01*
X169444511Y-111961293D01*
X169618522Y-111845022D01*
X169734793Y-111671011D01*
X169775622Y-111465750D01*
X169775622Y-110978250D01*
X169734793Y-110772989D01*
X169618522Y-110598978D01*
X169444511Y-110482707D01*
X169239250Y-110441878D01*
X168326750Y-110441878D01*
X168121489Y-110482707D01*
X167947478Y-110598978D01*
X167831207Y-110772989D01*
X167790378Y-110978250D01*
X167790378Y-111465750D01*
X167831207Y-111671011D01*
X167947478Y-111845022D01*
X168121489Y-111961293D01*
X168246000Y-111986060D01*
X168246001Y-113104112D01*
X168235481Y-113157000D01*
X168246001Y-113209888D01*
X168277158Y-113366527D01*
X168395846Y-113544155D01*
X168440684Y-113574115D01*
X169473000Y-114606432D01*
X169473000Y-121565000D01*
X169210750Y-121565000D01*
X169052000Y-121723750D01*
X169052000Y-122773000D01*
X169072000Y-122773000D01*
X169072000Y-123027000D01*
X169052000Y-123027000D01*
X169052000Y-124076250D01*
X169210750Y-124235000D01*
X169473000Y-124235000D01*
X169473000Y-126473000D01*
X162328559Y-126473000D01*
X162338806Y-125632782D01*
X162500935Y-125699938D01*
X162828994Y-125699938D01*
X162987744Y-125541188D01*
X162987744Y-124491938D01*
X163241744Y-124491938D01*
X163241744Y-125541188D01*
X163400494Y-125699938D01*
X163728553Y-125699938D01*
X163961942Y-125603265D01*
X164140571Y-125424637D01*
X164237244Y-125191248D01*
X164237244Y-124650688D01*
X164078494Y-124491938D01*
X163241744Y-124491938D01*
X162987744Y-124491938D01*
X162967744Y-124491938D01*
X162967744Y-124237938D01*
X162987744Y-124237938D01*
X162987744Y-123188688D01*
X163241744Y-123188688D01*
X163241744Y-124237938D01*
X164078494Y-124237938D01*
X164237244Y-124079188D01*
X164237244Y-123538628D01*
X164140571Y-123305239D01*
X164021082Y-123185750D01*
X167802500Y-123185750D01*
X167802500Y-123726310D01*
X167899173Y-123959699D01*
X168077802Y-124138327D01*
X168311191Y-124235000D01*
X168639250Y-124235000D01*
X168798000Y-124076250D01*
X168798000Y-123027000D01*
X167961250Y-123027000D01*
X167802500Y-123185750D01*
X164021082Y-123185750D01*
X163961942Y-123126611D01*
X163740774Y-123035000D01*
X163751309Y-123035000D01*
X163984698Y-122938327D01*
X164163327Y-122759699D01*
X164260000Y-122526310D01*
X164260000Y-122073690D01*
X167802500Y-122073690D01*
X167802500Y-122614250D01*
X167961250Y-122773000D01*
X168798000Y-122773000D01*
X168798000Y-121723750D01*
X168639250Y-121565000D01*
X168311191Y-121565000D01*
X168077802Y-121661673D01*
X167899173Y-121840301D01*
X167802500Y-122073690D01*
X164260000Y-122073690D01*
X164260000Y-121985750D01*
X164101250Y-121827000D01*
X163264500Y-121827000D01*
X163264500Y-122876250D01*
X163418188Y-123029938D01*
X163400494Y-123029938D01*
X163241744Y-123188688D01*
X162987744Y-123188688D01*
X162834056Y-123035000D01*
X162851750Y-123035000D01*
X163010500Y-122876250D01*
X163010500Y-121827000D01*
X162990500Y-121827000D01*
X162990500Y-121573000D01*
X163010500Y-121573000D01*
X163010500Y-120523750D01*
X163264500Y-120523750D01*
X163264500Y-121573000D01*
X164101250Y-121573000D01*
X164260000Y-121414250D01*
X164260000Y-120873690D01*
X164163327Y-120640301D01*
X163984698Y-120461673D01*
X163751309Y-120365000D01*
X163423250Y-120365000D01*
X163264500Y-120523750D01*
X163010500Y-120523750D01*
X162851750Y-120365000D01*
X162523691Y-120365000D01*
X162402434Y-120415226D01*
X162479664Y-114082420D01*
X162511673Y-114159698D01*
X162690301Y-114338327D01*
X162923690Y-114435000D01*
X163914250Y-114435000D01*
X164073000Y-114276250D01*
X164073000Y-112677000D01*
X164327000Y-112677000D01*
X164327000Y-114276250D01*
X164485750Y-114435000D01*
X165476310Y-114435000D01*
X165709699Y-114338327D01*
X165888327Y-114159698D01*
X165985000Y-113926309D01*
X165985000Y-112835750D01*
X165826250Y-112677000D01*
X164327000Y-112677000D01*
X164073000Y-112677000D01*
X164053000Y-112677000D01*
X164053000Y-112423000D01*
X164073000Y-112423000D01*
X164073000Y-110823750D01*
X164327000Y-110823750D01*
X164327000Y-112423000D01*
X165826250Y-112423000D01*
X165985000Y-112264250D01*
X165985000Y-111173691D01*
X165888327Y-110940302D01*
X165709699Y-110761673D01*
X165476310Y-110665000D01*
X164485750Y-110665000D01*
X164327000Y-110823750D01*
X164073000Y-110823750D01*
X163914250Y-110665000D01*
X162923690Y-110665000D01*
X162690301Y-110761673D01*
X162518060Y-110933915D01*
X162525479Y-110325549D01*
X170873000Y-110228485D01*
X170873000Y-110700000D01*
X170873000Y-110700000D01*
G37*
X170873000Y-110700000D02*
X170882667Y-110748601D01*
X170910197Y-110789803D01*
X170951399Y-110817333D01*
X171000000Y-110827000D01*
X173420000Y-110827000D01*
X173420000Y-111614250D01*
X173578750Y-111773000D01*
X175073000Y-111773000D01*
X175073000Y-111753000D01*
X175327000Y-111753000D01*
X175327000Y-111773000D01*
X176821250Y-111773000D01*
X176980000Y-111614250D01*
X176980000Y-110742787D01*
X177973000Y-110728801D01*
X177973000Y-113073000D01*
X176980000Y-113073000D01*
X176980000Y-112185750D01*
X176821250Y-112027000D01*
X175327000Y-112027000D01*
X175327000Y-112047000D01*
X175073000Y-112047000D01*
X175073000Y-112027000D01*
X173578750Y-112027000D01*
X173420000Y-112185750D01*
X173420000Y-113073000D01*
X169600000Y-113073000D01*
X169551399Y-113082667D01*
X169510197Y-113110197D01*
X169504362Y-113118930D01*
X169320000Y-112934569D01*
X169320000Y-111986060D01*
X169444511Y-111961293D01*
X169618522Y-111845022D01*
X169734793Y-111671011D01*
X169775622Y-111465750D01*
X169775622Y-110978250D01*
X169734793Y-110772989D01*
X169618522Y-110598978D01*
X169444511Y-110482707D01*
X169239250Y-110441878D01*
X168326750Y-110441878D01*
X168121489Y-110482707D01*
X167947478Y-110598978D01*
X167831207Y-110772989D01*
X167790378Y-110978250D01*
X167790378Y-111465750D01*
X167831207Y-111671011D01*
X167947478Y-111845022D01*
X168121489Y-111961293D01*
X168246000Y-111986060D01*
X168246001Y-113104112D01*
X168235481Y-113157000D01*
X168246001Y-113209888D01*
X168277158Y-113366527D01*
X168395846Y-113544155D01*
X168440684Y-113574115D01*
X169473000Y-114606432D01*
X169473000Y-121565000D01*
X169210750Y-121565000D01*
X169052000Y-121723750D01*
X169052000Y-122773000D01*
X169072000Y-122773000D01*
X169072000Y-123027000D01*
X169052000Y-123027000D01*
X169052000Y-124076250D01*
X169210750Y-124235000D01*
X169473000Y-124235000D01*
X169473000Y-126473000D01*
X162328559Y-126473000D01*
X162338806Y-125632782D01*
X162500935Y-125699938D01*
X162828994Y-125699938D01*
X162987744Y-125541188D01*
X162987744Y-124491938D01*
X163241744Y-124491938D01*
X163241744Y-125541188D01*
X163400494Y-125699938D01*
X163728553Y-125699938D01*
X163961942Y-125603265D01*
X164140571Y-125424637D01*
X164237244Y-125191248D01*
X164237244Y-124650688D01*
X164078494Y-124491938D01*
X163241744Y-124491938D01*
X162987744Y-124491938D01*
X162967744Y-124491938D01*
X162967744Y-124237938D01*
X162987744Y-124237938D01*
X162987744Y-123188688D01*
X163241744Y-123188688D01*
X163241744Y-124237938D01*
X164078494Y-124237938D01*
X164237244Y-124079188D01*
X164237244Y-123538628D01*
X164140571Y-123305239D01*
X164021082Y-123185750D01*
X167802500Y-123185750D01*
X167802500Y-123726310D01*
X167899173Y-123959699D01*
X168077802Y-124138327D01*
X168311191Y-124235000D01*
X168639250Y-124235000D01*
X168798000Y-124076250D01*
X168798000Y-123027000D01*
X167961250Y-123027000D01*
X167802500Y-123185750D01*
X164021082Y-123185750D01*
X163961942Y-123126611D01*
X163740774Y-123035000D01*
X163751309Y-123035000D01*
X163984698Y-122938327D01*
X164163327Y-122759699D01*
X164260000Y-122526310D01*
X164260000Y-122073690D01*
X167802500Y-122073690D01*
X167802500Y-122614250D01*
X167961250Y-122773000D01*
X168798000Y-122773000D01*
X168798000Y-121723750D01*
X168639250Y-121565000D01*
X168311191Y-121565000D01*
X168077802Y-121661673D01*
X167899173Y-121840301D01*
X167802500Y-122073690D01*
X164260000Y-122073690D01*
X164260000Y-121985750D01*
X164101250Y-121827000D01*
X163264500Y-121827000D01*
X163264500Y-122876250D01*
X163418188Y-123029938D01*
X163400494Y-123029938D01*
X163241744Y-123188688D01*
X162987744Y-123188688D01*
X162834056Y-123035000D01*
X162851750Y-123035000D01*
X163010500Y-122876250D01*
X163010500Y-121827000D01*
X162990500Y-121827000D01*
X162990500Y-121573000D01*
X163010500Y-121573000D01*
X163010500Y-120523750D01*
X163264500Y-120523750D01*
X163264500Y-121573000D01*
X164101250Y-121573000D01*
X164260000Y-121414250D01*
X164260000Y-120873690D01*
X164163327Y-120640301D01*
X163984698Y-120461673D01*
X163751309Y-120365000D01*
X163423250Y-120365000D01*
X163264500Y-120523750D01*
X163010500Y-120523750D01*
X162851750Y-120365000D01*
X162523691Y-120365000D01*
X162402434Y-120415226D01*
X162479664Y-114082420D01*
X162511673Y-114159698D01*
X162690301Y-114338327D01*
X162923690Y-114435000D01*
X163914250Y-114435000D01*
X164073000Y-114276250D01*
X164073000Y-112677000D01*
X164327000Y-112677000D01*
X164327000Y-114276250D01*
X164485750Y-114435000D01*
X165476310Y-114435000D01*
X165709699Y-114338327D01*
X165888327Y-114159698D01*
X165985000Y-113926309D01*
X165985000Y-112835750D01*
X165826250Y-112677000D01*
X164327000Y-112677000D01*
X164073000Y-112677000D01*
X164053000Y-112677000D01*
X164053000Y-112423000D01*
X164073000Y-112423000D01*
X164073000Y-110823750D01*
X164327000Y-110823750D01*
X164327000Y-112423000D01*
X165826250Y-112423000D01*
X165985000Y-112264250D01*
X165985000Y-111173691D01*
X165888327Y-110940302D01*
X165709699Y-110761673D01*
X165476310Y-110665000D01*
X164485750Y-110665000D01*
X164327000Y-110823750D01*
X164073000Y-110823750D01*
X163914250Y-110665000D01*
X162923690Y-110665000D01*
X162690301Y-110761673D01*
X162518060Y-110933915D01*
X162525479Y-110325549D01*
X170873000Y-110228485D01*
X170873000Y-110700000D01*
G36*
X174712000Y-109552000D02*
X174692000Y-109552000D01*
X174692000Y-109572000D01*
X174438000Y-109572000D01*
X174438000Y-109552000D01*
X174418000Y-109552000D01*
X174418000Y-109327000D01*
X174712000Y-109327000D01*
X174712000Y-109552000D01*
X174712000Y-109552000D01*
G37*
X174712000Y-109552000D02*
X174692000Y-109552000D01*
X174692000Y-109572000D01*
X174438000Y-109572000D01*
X174438000Y-109552000D01*
X174418000Y-109552000D01*
X174418000Y-109327000D01*
X174712000Y-109327000D01*
X174712000Y-109552000D01*
G04 #@! TO.N,/12VDC*
G36*
X174692000Y-114248000D02*
X175708000Y-114248000D01*
X175708000Y-114228000D01*
X175962000Y-114228000D01*
X175962000Y-114248000D01*
X175982000Y-114248000D01*
X175982000Y-114502000D01*
X175962000Y-114502000D01*
X175962000Y-115836250D01*
X176120750Y-115995000D01*
X176253067Y-115995000D01*
X176323446Y-120428388D01*
X176333884Y-120476829D01*
X176362064Y-120517589D01*
X176403698Y-120544461D01*
X176445587Y-120553280D01*
X178326897Y-120625078D01*
X178261673Y-120690302D01*
X178165000Y-120923691D01*
X178165000Y-121251750D01*
X178323750Y-121410500D01*
X179373000Y-121410500D01*
X179373000Y-121390500D01*
X179627000Y-121390500D01*
X179627000Y-121410500D01*
X179647000Y-121410500D01*
X179647000Y-121664500D01*
X179627000Y-121664500D01*
X179627000Y-122501250D01*
X179785750Y-122660000D01*
X180326310Y-122660000D01*
X180559699Y-122563327D01*
X180738327Y-122384698D01*
X180823000Y-122180279D01*
X180823000Y-126471385D01*
X170127000Y-126374149D01*
X170127000Y-124210482D01*
X170186191Y-124235000D01*
X170514250Y-124235000D01*
X170673000Y-124076250D01*
X170673000Y-123027000D01*
X170927000Y-123027000D01*
X170927000Y-124076250D01*
X171085750Y-124235000D01*
X171413809Y-124235000D01*
X171647198Y-124138327D01*
X171825827Y-123959699D01*
X171922500Y-123726310D01*
X171922500Y-123185750D01*
X171763750Y-123027000D01*
X170927000Y-123027000D01*
X170673000Y-123027000D01*
X170653000Y-123027000D01*
X170653000Y-122773000D01*
X170673000Y-122773000D01*
X170673000Y-121723750D01*
X170927000Y-121723750D01*
X170927000Y-122773000D01*
X171763750Y-122773000D01*
X171922500Y-122614250D01*
X171922500Y-122073690D01*
X171825827Y-121840301D01*
X171808776Y-121823250D01*
X178165000Y-121823250D01*
X178165000Y-122151309D01*
X178261673Y-122384698D01*
X178440301Y-122563327D01*
X178673690Y-122660000D01*
X179214250Y-122660000D01*
X179373000Y-122501250D01*
X179373000Y-121664500D01*
X178323750Y-121664500D01*
X178165000Y-121823250D01*
X171808776Y-121823250D01*
X171647198Y-121661673D01*
X171413809Y-121565000D01*
X171085750Y-121565000D01*
X170927000Y-121723750D01*
X170673000Y-121723750D01*
X170514250Y-121565000D01*
X170186191Y-121565000D01*
X170127000Y-121589518D01*
X170127000Y-120530298D01*
X173896745Y-120626958D01*
X173945577Y-120618540D01*
X173987471Y-120592075D01*
X174016048Y-120551592D01*
X174026965Y-120502976D01*
X174132679Y-115992510D01*
X174138690Y-115995000D01*
X174279250Y-115995000D01*
X174438000Y-115836250D01*
X174438000Y-114502000D01*
X174692000Y-114502000D01*
X174692000Y-115836250D01*
X174850750Y-115995000D01*
X174991310Y-115995000D01*
X175200000Y-115908558D01*
X175408690Y-115995000D01*
X175549250Y-115995000D01*
X175708000Y-115836250D01*
X175708000Y-114502000D01*
X174692000Y-114502000D01*
X174438000Y-114502000D01*
X174418000Y-114502000D01*
X174418000Y-114248000D01*
X174438000Y-114248000D01*
X174438000Y-114228000D01*
X174692000Y-114228000D01*
X174692000Y-114248000D01*
X174692000Y-114248000D01*
G37*
X174692000Y-114248000D02*
X175708000Y-114248000D01*
X175708000Y-114228000D01*
X175962000Y-114228000D01*
X175962000Y-114248000D01*
X175982000Y-114248000D01*
X175982000Y-114502000D01*
X175962000Y-114502000D01*
X175962000Y-115836250D01*
X176120750Y-115995000D01*
X176253067Y-115995000D01*
X176323446Y-120428388D01*
X176333884Y-120476829D01*
X176362064Y-120517589D01*
X176403698Y-120544461D01*
X176445587Y-120553280D01*
X178326897Y-120625078D01*
X178261673Y-120690302D01*
X178165000Y-120923691D01*
X178165000Y-121251750D01*
X178323750Y-121410500D01*
X179373000Y-121410500D01*
X179373000Y-121390500D01*
X179627000Y-121390500D01*
X179627000Y-121410500D01*
X179647000Y-121410500D01*
X179647000Y-121664500D01*
X179627000Y-121664500D01*
X179627000Y-122501250D01*
X179785750Y-122660000D01*
X180326310Y-122660000D01*
X180559699Y-122563327D01*
X180738327Y-122384698D01*
X180823000Y-122180279D01*
X180823000Y-126471385D01*
X170127000Y-126374149D01*
X170127000Y-124210482D01*
X170186191Y-124235000D01*
X170514250Y-124235000D01*
X170673000Y-124076250D01*
X170673000Y-123027000D01*
X170927000Y-123027000D01*
X170927000Y-124076250D01*
X171085750Y-124235000D01*
X171413809Y-124235000D01*
X171647198Y-124138327D01*
X171825827Y-123959699D01*
X171922500Y-123726310D01*
X171922500Y-123185750D01*
X171763750Y-123027000D01*
X170927000Y-123027000D01*
X170673000Y-123027000D01*
X170653000Y-123027000D01*
X170653000Y-122773000D01*
X170673000Y-122773000D01*
X170673000Y-121723750D01*
X170927000Y-121723750D01*
X170927000Y-122773000D01*
X171763750Y-122773000D01*
X171922500Y-122614250D01*
X171922500Y-122073690D01*
X171825827Y-121840301D01*
X171808776Y-121823250D01*
X178165000Y-121823250D01*
X178165000Y-122151309D01*
X178261673Y-122384698D01*
X178440301Y-122563327D01*
X178673690Y-122660000D01*
X179214250Y-122660000D01*
X179373000Y-122501250D01*
X179373000Y-121664500D01*
X178323750Y-121664500D01*
X178165000Y-121823250D01*
X171808776Y-121823250D01*
X171647198Y-121661673D01*
X171413809Y-121565000D01*
X171085750Y-121565000D01*
X170927000Y-121723750D01*
X170673000Y-121723750D01*
X170514250Y-121565000D01*
X170186191Y-121565000D01*
X170127000Y-121589518D01*
X170127000Y-120530298D01*
X173896745Y-120626958D01*
X173945577Y-120618540D01*
X173987471Y-120592075D01*
X174016048Y-120551592D01*
X174026965Y-120502976D01*
X174132679Y-115992510D01*
X174138690Y-115995000D01*
X174279250Y-115995000D01*
X174438000Y-115836250D01*
X174438000Y-114502000D01*
X174692000Y-114502000D01*
X174692000Y-115836250D01*
X174850750Y-115995000D01*
X174991310Y-115995000D01*
X175200000Y-115908558D01*
X175408690Y-115995000D01*
X175549250Y-115995000D01*
X175708000Y-115836250D01*
X175708000Y-114502000D01*
X174692000Y-114502000D01*
X174438000Y-114502000D01*
X174418000Y-114502000D01*
X174418000Y-114248000D01*
X174438000Y-114248000D01*
X174438000Y-114228000D01*
X174692000Y-114228000D01*
X174692000Y-114248000D01*
G04 #@! TO.N,GND*
G36*
X254719001Y-70196366D02*
X254719001Y-97442368D01*
X238615980Y-97432765D01*
X238468000Y-97403330D01*
X234912000Y-97403330D01*
X234775534Y-97430475D01*
X220876887Y-97422186D01*
X220629837Y-96825754D01*
X220518828Y-96714745D01*
X239344860Y-96714745D01*
X239538561Y-97062398D01*
X240429918Y-97418753D01*
X241389796Y-97406876D01*
X242221439Y-97062398D01*
X242415140Y-96714745D01*
X240880000Y-95179605D01*
X239344860Y-96714745D01*
X220518828Y-96714745D01*
X219674246Y-95870163D01*
X218425705Y-95353000D01*
X217074295Y-95353000D01*
X215825754Y-95870163D01*
X215250000Y-96445917D01*
X214674246Y-95870163D01*
X213425705Y-95353000D01*
X212074295Y-95353000D01*
X210825754Y-95870163D01*
X209870163Y-96825754D01*
X209625892Y-97415476D01*
X200404454Y-97409977D01*
X200263775Y-97070349D01*
X199429651Y-96236225D01*
X198339815Y-95784800D01*
X197160185Y-95784800D01*
X196070349Y-96236225D01*
X195236225Y-97070349D01*
X195096857Y-97406812D01*
X186813266Y-97401872D01*
X187940520Y-96274619D01*
X187940522Y-96274616D01*
X189018744Y-95196394D01*
X189631955Y-94942394D01*
X190442394Y-94131955D01*
X190881000Y-93073067D01*
X190881000Y-91926933D01*
X190442394Y-90868045D01*
X189631955Y-90057606D01*
X189018745Y-89803606D01*
X188126990Y-88911852D01*
X188126990Y-86264353D01*
X188346088Y-86253273D01*
X188726329Y-86095772D01*
X188794811Y-85854416D01*
X188126990Y-85186595D01*
X188126990Y-84932600D01*
X188193740Y-84865850D01*
X188193748Y-84865858D01*
X188179605Y-84880000D01*
X188974416Y-85674811D01*
X189215772Y-85606329D01*
X189401181Y-85085786D01*
X189373273Y-84533912D01*
X189256912Y-84252992D01*
X192451400Y-84252992D01*
X192473011Y-84274603D01*
X192473010Y-88341279D01*
X192421545Y-88600010D01*
X192473010Y-88858741D01*
X192625431Y-89625013D01*
X193206049Y-90493971D01*
X193425395Y-90640533D01*
X194898025Y-92113163D01*
X195236225Y-92929651D01*
X196070349Y-93763775D01*
X197160185Y-94215200D01*
X198339815Y-94215200D01*
X199429651Y-93763775D01*
X200263775Y-92929651D01*
X200715200Y-91839815D01*
X200715200Y-90660185D01*
X200679624Y-90574295D01*
X209353000Y-90574295D01*
X209353000Y-91925705D01*
X209870163Y-93174246D01*
X210825754Y-94129837D01*
X212074295Y-94647000D01*
X213425705Y-94647000D01*
X214674246Y-94129837D01*
X215250000Y-93554083D01*
X215825754Y-94129837D01*
X217074295Y-94647000D01*
X218425705Y-94647000D01*
X218660081Y-94549918D01*
X238461247Y-94549918D01*
X238473124Y-95509796D01*
X238817602Y-96341439D01*
X239165255Y-96535140D01*
X240700395Y-95000000D01*
X241059605Y-95000000D01*
X242594745Y-96535140D01*
X242942398Y-96341439D01*
X243298753Y-95450082D01*
X243286876Y-94490204D01*
X242942398Y-93658561D01*
X242594745Y-93464860D01*
X241059605Y-95000000D01*
X240700395Y-95000000D01*
X239165255Y-93464860D01*
X238817602Y-93658561D01*
X238461247Y-94549918D01*
X218660081Y-94549918D01*
X219674246Y-94129837D01*
X220518828Y-93285255D01*
X239344860Y-93285255D01*
X240880000Y-94820395D01*
X242415140Y-93285255D01*
X242221439Y-92937602D01*
X241330082Y-92581247D01*
X240370204Y-92593124D01*
X239538561Y-92937602D01*
X239344860Y-93285255D01*
X220518828Y-93285255D01*
X220629837Y-93174246D01*
X221147000Y-91925705D01*
X221147000Y-90574295D01*
X220629837Y-89325754D01*
X219674246Y-88370163D01*
X218474586Y-87873247D01*
X232785000Y-87873247D01*
X232785000Y-89426753D01*
X233379501Y-90862005D01*
X234477995Y-91960499D01*
X235913247Y-92555000D01*
X237466753Y-92555000D01*
X238902005Y-91960499D01*
X240000499Y-90862005D01*
X240595000Y-89426753D01*
X240595000Y-87873247D01*
X240000499Y-86437995D01*
X238902005Y-85339501D01*
X237466753Y-84745000D01*
X235913247Y-84745000D01*
X234477995Y-85339501D01*
X233379501Y-86437995D01*
X232785000Y-87873247D01*
X218474586Y-87873247D01*
X218425705Y-87853000D01*
X217074295Y-87853000D01*
X215825754Y-88370163D01*
X215250000Y-88945917D01*
X214674246Y-88370163D01*
X213425705Y-87853000D01*
X212074295Y-87853000D01*
X210825754Y-88370163D01*
X209870163Y-89325754D01*
X209353000Y-90574295D01*
X200679624Y-90574295D01*
X200263775Y-89570349D01*
X199429651Y-88736225D01*
X198613163Y-88398025D01*
X197727010Y-87511872D01*
X197727010Y-83445196D01*
X197778475Y-83186464D01*
X197574589Y-82161459D01*
X197417627Y-81926550D01*
X196993971Y-81292503D01*
X196774624Y-81145940D01*
X195580062Y-79951378D01*
X195433499Y-79732031D01*
X194564542Y-79151413D01*
X193798270Y-78998992D01*
X193798269Y-78998992D01*
X193539538Y-78947527D01*
X193280807Y-78998992D01*
X187977190Y-78998992D01*
X187718459Y-78947527D01*
X187459728Y-78998992D01*
X186693456Y-79151413D01*
X185824499Y-79732031D01*
X185677938Y-79951375D01*
X183825375Y-81803939D01*
X183606029Y-81950501D01*
X183025411Y-82819459D01*
X182940160Y-83248045D01*
X182821525Y-83844462D01*
X182872990Y-84103193D01*
X182872991Y-89741255D01*
X182821525Y-89999990D01*
X182952847Y-90660185D01*
X183025412Y-91024994D01*
X183606030Y-91893951D01*
X183825373Y-92040511D01*
X184284862Y-92500000D01*
X184225384Y-92559478D01*
X184225381Y-92559480D01*
X182475383Y-94309479D01*
X182256040Y-94456039D01*
X182109480Y-94675382D01*
X181675422Y-95324996D01*
X181471535Y-96350000D01*
X181523001Y-96608736D01*
X181523001Y-97398717D01*
X161620488Y-97386848D01*
X161583914Y-97362410D01*
X160754000Y-97197330D01*
X159246000Y-97197330D01*
X158416086Y-97362410D01*
X158382402Y-97384917D01*
X153807272Y-97382188D01*
X153229914Y-96996410D01*
X152400000Y-96831330D01*
X152216328Y-96831330D01*
X152289854Y-96669459D01*
X151100000Y-95479605D01*
X149910146Y-96669459D01*
X149983672Y-96831330D01*
X149800000Y-96831330D01*
X148970086Y-96996410D01*
X148397557Y-97378962D01*
X140124000Y-97374028D01*
X140124000Y-94963880D01*
X149155934Y-94963880D01*
X149175290Y-95733427D01*
X149432545Y-96354496D01*
X149730541Y-96489854D01*
X150920395Y-95300000D01*
X151279605Y-95300000D01*
X152469459Y-96489854D01*
X152767455Y-96354496D01*
X153044066Y-95636120D01*
X153024710Y-94866573D01*
X152767455Y-94245504D01*
X152469459Y-94110146D01*
X151279605Y-95300000D01*
X150920395Y-95300000D01*
X149730541Y-94110146D01*
X149432545Y-94245504D01*
X149155934Y-94963880D01*
X140124000Y-94963880D01*
X140124000Y-89618327D01*
X147673000Y-89618327D01*
X147673000Y-90981673D01*
X148194730Y-92241240D01*
X149158760Y-93205270D01*
X150117898Y-93602558D01*
X150045504Y-93632545D01*
X149910146Y-93930541D01*
X151100000Y-95120395D01*
X152289854Y-93930541D01*
X152154496Y-93632545D01*
X152079460Y-93603652D01*
X153041240Y-93205270D01*
X154005270Y-92241240D01*
X154527000Y-90981673D01*
X154527000Y-89618327D01*
X154005270Y-88358760D01*
X153041240Y-87394730D01*
X151781673Y-86873000D01*
X150418327Y-86873000D01*
X149158760Y-87394730D01*
X148194730Y-88358760D01*
X147673000Y-89618327D01*
X140124000Y-89618327D01*
X140124000Y-84306933D01*
X157119000Y-84306933D01*
X157119000Y-85453067D01*
X157557606Y-86511955D01*
X158368045Y-87322394D01*
X159426933Y-87761000D01*
X160573067Y-87761000D01*
X161631955Y-87322394D01*
X162442394Y-86511955D01*
X162881000Y-85453067D01*
X162881000Y-84306933D01*
X162442394Y-83248045D01*
X161631955Y-82437606D01*
X160573067Y-81999000D01*
X159426933Y-81999000D01*
X158368045Y-82437606D01*
X157557606Y-83248045D01*
X157119000Y-84306933D01*
X140124000Y-84306933D01*
X140124000Y-70147000D01*
X172222167Y-70147000D01*
X254719001Y-70196366D01*
X254719001Y-70196366D01*
G37*
X254719001Y-70196366D02*
X254719001Y-97442368D01*
X238615980Y-97432765D01*
X238468000Y-97403330D01*
X234912000Y-97403330D01*
X234775534Y-97430475D01*
X220876887Y-97422186D01*
X220629837Y-96825754D01*
X220518828Y-96714745D01*
X239344860Y-96714745D01*
X239538561Y-97062398D01*
X240429918Y-97418753D01*
X241389796Y-97406876D01*
X242221439Y-97062398D01*
X242415140Y-96714745D01*
X240880000Y-95179605D01*
X239344860Y-96714745D01*
X220518828Y-96714745D01*
X219674246Y-95870163D01*
X218425705Y-95353000D01*
X217074295Y-95353000D01*
X215825754Y-95870163D01*
X215250000Y-96445917D01*
X214674246Y-95870163D01*
X213425705Y-95353000D01*
X212074295Y-95353000D01*
X210825754Y-95870163D01*
X209870163Y-96825754D01*
X209625892Y-97415476D01*
X200404454Y-97409977D01*
X200263775Y-97070349D01*
X199429651Y-96236225D01*
X198339815Y-95784800D01*
X197160185Y-95784800D01*
X196070349Y-96236225D01*
X195236225Y-97070349D01*
X195096857Y-97406812D01*
X186813266Y-97401872D01*
X187940520Y-96274619D01*
X187940522Y-96274616D01*
X189018744Y-95196394D01*
X189631955Y-94942394D01*
X190442394Y-94131955D01*
X190881000Y-93073067D01*
X190881000Y-91926933D01*
X190442394Y-90868045D01*
X189631955Y-90057606D01*
X189018745Y-89803606D01*
X188126990Y-88911852D01*
X188126990Y-86264353D01*
X188346088Y-86253273D01*
X188726329Y-86095772D01*
X188794811Y-85854416D01*
X188126990Y-85186595D01*
X188126990Y-84932600D01*
X188193740Y-84865850D01*
X188193748Y-84865858D01*
X188179605Y-84880000D01*
X188974416Y-85674811D01*
X189215772Y-85606329D01*
X189401181Y-85085786D01*
X189373273Y-84533912D01*
X189256912Y-84252992D01*
X192451400Y-84252992D01*
X192473011Y-84274603D01*
X192473010Y-88341279D01*
X192421545Y-88600010D01*
X192473010Y-88858741D01*
X192625431Y-89625013D01*
X193206049Y-90493971D01*
X193425395Y-90640533D01*
X194898025Y-92113163D01*
X195236225Y-92929651D01*
X196070349Y-93763775D01*
X197160185Y-94215200D01*
X198339815Y-94215200D01*
X199429651Y-93763775D01*
X200263775Y-92929651D01*
X200715200Y-91839815D01*
X200715200Y-90660185D01*
X200679624Y-90574295D01*
X209353000Y-90574295D01*
X209353000Y-91925705D01*
X209870163Y-93174246D01*
X210825754Y-94129837D01*
X212074295Y-94647000D01*
X213425705Y-94647000D01*
X214674246Y-94129837D01*
X215250000Y-93554083D01*
X215825754Y-94129837D01*
X217074295Y-94647000D01*
X218425705Y-94647000D01*
X218660081Y-94549918D01*
X238461247Y-94549918D01*
X238473124Y-95509796D01*
X238817602Y-96341439D01*
X239165255Y-96535140D01*
X240700395Y-95000000D01*
X241059605Y-95000000D01*
X242594745Y-96535140D01*
X242942398Y-96341439D01*
X243298753Y-95450082D01*
X243286876Y-94490204D01*
X242942398Y-93658561D01*
X242594745Y-93464860D01*
X241059605Y-95000000D01*
X240700395Y-95000000D01*
X239165255Y-93464860D01*
X238817602Y-93658561D01*
X238461247Y-94549918D01*
X218660081Y-94549918D01*
X219674246Y-94129837D01*
X220518828Y-93285255D01*
X239344860Y-93285255D01*
X240880000Y-94820395D01*
X242415140Y-93285255D01*
X242221439Y-92937602D01*
X241330082Y-92581247D01*
X240370204Y-92593124D01*
X239538561Y-92937602D01*
X239344860Y-93285255D01*
X220518828Y-93285255D01*
X220629837Y-93174246D01*
X221147000Y-91925705D01*
X221147000Y-90574295D01*
X220629837Y-89325754D01*
X219674246Y-88370163D01*
X218474586Y-87873247D01*
X232785000Y-87873247D01*
X232785000Y-89426753D01*
X233379501Y-90862005D01*
X234477995Y-91960499D01*
X235913247Y-92555000D01*
X237466753Y-92555000D01*
X238902005Y-91960499D01*
X240000499Y-90862005D01*
X240595000Y-89426753D01*
X240595000Y-87873247D01*
X240000499Y-86437995D01*
X238902005Y-85339501D01*
X237466753Y-84745000D01*
X235913247Y-84745000D01*
X234477995Y-85339501D01*
X233379501Y-86437995D01*
X232785000Y-87873247D01*
X218474586Y-87873247D01*
X218425705Y-87853000D01*
X217074295Y-87853000D01*
X215825754Y-88370163D01*
X215250000Y-88945917D01*
X214674246Y-88370163D01*
X213425705Y-87853000D01*
X212074295Y-87853000D01*
X210825754Y-88370163D01*
X209870163Y-89325754D01*
X209353000Y-90574295D01*
X200679624Y-90574295D01*
X200263775Y-89570349D01*
X199429651Y-88736225D01*
X198613163Y-88398025D01*
X197727010Y-87511872D01*
X197727010Y-83445196D01*
X197778475Y-83186464D01*
X197574589Y-82161459D01*
X197417627Y-81926550D01*
X196993971Y-81292503D01*
X196774624Y-81145940D01*
X195580062Y-79951378D01*
X195433499Y-79732031D01*
X194564542Y-79151413D01*
X193798270Y-78998992D01*
X193798269Y-78998992D01*
X193539538Y-78947527D01*
X193280807Y-78998992D01*
X187977190Y-78998992D01*
X187718459Y-78947527D01*
X187459728Y-78998992D01*
X186693456Y-79151413D01*
X185824499Y-79732031D01*
X185677938Y-79951375D01*
X183825375Y-81803939D01*
X183606029Y-81950501D01*
X183025411Y-82819459D01*
X182940160Y-83248045D01*
X182821525Y-83844462D01*
X182872990Y-84103193D01*
X182872991Y-89741255D01*
X182821525Y-89999990D01*
X182952847Y-90660185D01*
X183025412Y-91024994D01*
X183606030Y-91893951D01*
X183825373Y-92040511D01*
X184284862Y-92500000D01*
X184225384Y-92559478D01*
X184225381Y-92559480D01*
X182475383Y-94309479D01*
X182256040Y-94456039D01*
X182109480Y-94675382D01*
X181675422Y-95324996D01*
X181471535Y-96350000D01*
X181523001Y-96608736D01*
X181523001Y-97398717D01*
X161620488Y-97386848D01*
X161583914Y-97362410D01*
X160754000Y-97197330D01*
X159246000Y-97197330D01*
X158416086Y-97362410D01*
X158382402Y-97384917D01*
X153807272Y-97382188D01*
X153229914Y-96996410D01*
X152400000Y-96831330D01*
X152216328Y-96831330D01*
X152289854Y-96669459D01*
X151100000Y-95479605D01*
X149910146Y-96669459D01*
X149983672Y-96831330D01*
X149800000Y-96831330D01*
X148970086Y-96996410D01*
X148397557Y-97378962D01*
X140124000Y-97374028D01*
X140124000Y-94963880D01*
X149155934Y-94963880D01*
X149175290Y-95733427D01*
X149432545Y-96354496D01*
X149730541Y-96489854D01*
X150920395Y-95300000D01*
X151279605Y-95300000D01*
X152469459Y-96489854D01*
X152767455Y-96354496D01*
X153044066Y-95636120D01*
X153024710Y-94866573D01*
X152767455Y-94245504D01*
X152469459Y-94110146D01*
X151279605Y-95300000D01*
X150920395Y-95300000D01*
X149730541Y-94110146D01*
X149432545Y-94245504D01*
X149155934Y-94963880D01*
X140124000Y-94963880D01*
X140124000Y-89618327D01*
X147673000Y-89618327D01*
X147673000Y-90981673D01*
X148194730Y-92241240D01*
X149158760Y-93205270D01*
X150117898Y-93602558D01*
X150045504Y-93632545D01*
X149910146Y-93930541D01*
X151100000Y-95120395D01*
X152289854Y-93930541D01*
X152154496Y-93632545D01*
X152079460Y-93603652D01*
X153041240Y-93205270D01*
X154005270Y-92241240D01*
X154527000Y-90981673D01*
X154527000Y-89618327D01*
X154005270Y-88358760D01*
X153041240Y-87394730D01*
X151781673Y-86873000D01*
X150418327Y-86873000D01*
X149158760Y-87394730D01*
X148194730Y-88358760D01*
X147673000Y-89618327D01*
X140124000Y-89618327D01*
X140124000Y-84306933D01*
X157119000Y-84306933D01*
X157119000Y-85453067D01*
X157557606Y-86511955D01*
X158368045Y-87322394D01*
X159426933Y-87761000D01*
X160573067Y-87761000D01*
X161631955Y-87322394D01*
X162442394Y-86511955D01*
X162881000Y-85453067D01*
X162881000Y-84306933D01*
X162442394Y-83248045D01*
X161631955Y-82437606D01*
X160573067Y-81999000D01*
X159426933Y-81999000D01*
X158368045Y-82437606D01*
X157557606Y-83248045D01*
X157119000Y-84306933D01*
X140124000Y-84306933D01*
X140124000Y-70147000D01*
X172222167Y-70147000D01*
X254719001Y-70196366D01*
G04 #@! TD*
M02*
