G04 #@! TF.GenerationSoftware,KiCad,Pcbnew,(5.0.2)-1*
G04 #@! TF.CreationDate,2019-04-08T19:56:43-07:00*
G04 #@! TF.ProjectId,smartplug,736d6172-7470-46c7-9567-2e6b69636164,rev?*
G04 #@! TF.SameCoordinates,Original*
G04 #@! TF.FileFunction,Copper,L2,Bot*
G04 #@! TF.FilePolarity,Positive*
%FSLAX46Y46*%
G04 Gerber Fmt 4.6, Leading zero omitted, Abs format (unit mm)*
G04 Created by KiCad (PCBNEW (5.0.2)-1) date 4/8/2019 7:56:43 PM*
%MOMM*%
%LPD*%
G01*
G04 APERTURE LIST*
G04 #@! TA.AperFunction,ComponentPad*
%ADD10R,2.600000X2.600000*%
G04 #@! TD*
G04 #@! TA.AperFunction,ComponentPad*
%ADD11C,2.600000*%
G04 #@! TD*
G04 #@! TA.AperFunction,ComponentPad*
%ADD12R,3.556000X3.556000*%
G04 #@! TD*
G04 #@! TA.AperFunction,ComponentPad*
%ADD13C,3.556000*%
G04 #@! TD*
G04 #@! TA.AperFunction,ComponentPad*
%ADD14C,1.676400*%
G04 #@! TD*
G04 #@! TA.AperFunction,ComponentPad*
%ADD15C,2.540000*%
G04 #@! TD*
G04 #@! TA.AperFunction,SMDPad,CuDef*
%ADD16R,3.810000X4.240000*%
G04 #@! TD*
G04 #@! TA.AperFunction,ComponentPad*
%ADD17C,1.508000*%
G04 #@! TD*
G04 #@! TA.AperFunction,ComponentPad*
%ADD18R,1.508000X1.508000*%
G04 #@! TD*
G04 #@! TA.AperFunction,ViaPad*
%ADD19C,0.800000*%
G04 #@! TD*
G04 #@! TA.AperFunction,Conductor*
%ADD20C,1.000000*%
G04 #@! TD*
G04 #@! TA.AperFunction,Conductor*
%ADD21C,0.254000*%
G04 #@! TD*
G04 APERTURE END LIST*
D10*
G04 #@! TO.P,J1,1*
G04 #@! TO.N,/VAC+*
X151100000Y-100300000D03*
D11*
G04 #@! TO.P,J1,2*
G04 #@! TO.N,GND*
X151100000Y-95300000D03*
G04 #@! TO.P,J1,3*
G04 #@! TO.N,/VAC-*
X151100000Y-90300000D03*
G04 #@! TD*
D12*
G04 #@! TO.P,J2,1*
G04 #@! TO.N,/out_VAC+*
X236690000Y-101350000D03*
D13*
G04 #@! TO.P,J2,3*
G04 #@! TO.N,/out_VAC-*
X236690000Y-88650000D03*
G04 #@! TO.P,J2,2*
G04 #@! TO.N,GND*
X240880000Y-95000000D03*
G04 #@! TD*
D14*
G04 #@! TO.P,K1,1*
G04 #@! TO.N,Net-(K1-Pad1)*
X197750000Y-98750000D03*
G04 #@! TO.P,K1,2*
G04 #@! TO.N,/12VDC*
X197750000Y-91250000D03*
D15*
G04 #@! TO.P,K1,3*
G04 #@! TO.N,/out_VAC+*
X217750000Y-98750000D03*
G04 #@! TO.P,K1,4*
G04 #@! TO.N,/VAC+*
X212750000Y-98750000D03*
G04 #@! TO.P,K1,5*
G04 #@! TO.N,/VAC-*
X212750000Y-91250000D03*
G04 #@! TO.P,K1,6*
G04 #@! TO.N,/out_VAC-*
X217750000Y-91250000D03*
G04 #@! TD*
D16*
G04 #@! TO.P,RV1,1*
G04 #@! TO.N,/VAC+*
X142600000Y-98440000D03*
G04 #@! TO.P,RV1,2*
G04 #@! TO.N,/VAC-*
X142600000Y-92060000D03*
G04 #@! TD*
D17*
G04 #@! TO.P,U1,2*
G04 #@! TO.N,/VAC-*
X160000000Y-84880000D03*
D18*
G04 #@! TO.P,U1,1*
G04 #@! TO.N,/VAC+*
X160000000Y-100120000D03*
D17*
G04 #@! TO.P,U1,3*
G04 #@! TO.N,GND*
X188000000Y-84880000D03*
G04 #@! TO.P,U1,4*
G04 #@! TO.N,/12VDC*
X188000000Y-92500000D03*
G04 #@! TD*
D19*
G04 #@! TO.N,/5VDC*
X155900000Y-125900000D03*
G04 #@! TO.N,/12VDC*
X178600000Y-125800000D03*
X184150000Y-125800000D03*
G04 #@! TD*
D20*
G04 #@! TO.N,/12VDC*
X178600000Y-125800000D02*
X184150000Y-125800000D01*
G04 #@! TD*
D21*
G04 #@! TO.N,/VAC-*
G36*
X214073000Y-89829662D02*
X214031865Y-89788527D01*
X213918171Y-89902221D01*
X213786480Y-89607343D01*
X213078964Y-89335739D01*
X212321368Y-89355564D01*
X211713520Y-89607343D01*
X211581828Y-89902223D01*
X212750000Y-91070395D01*
X212764143Y-91056253D01*
X212943748Y-91235858D01*
X212929605Y-91250000D01*
X212943748Y-91264143D01*
X212764143Y-91443748D01*
X212750000Y-91429605D01*
X211581828Y-92597777D01*
X211638239Y-92724091D01*
X200352196Y-92716183D01*
X200715200Y-91839815D01*
X200715200Y-90921036D01*
X210835739Y-90921036D01*
X210855564Y-91678632D01*
X211107343Y-92286480D01*
X211402223Y-92418172D01*
X212570395Y-91250000D01*
X211402223Y-90081828D01*
X211107343Y-90213520D01*
X210835739Y-90921036D01*
X200715200Y-90921036D01*
X200715200Y-90660185D01*
X200263775Y-89570349D01*
X199429651Y-88736225D01*
X198339815Y-88284800D01*
X197160185Y-88284800D01*
X196070349Y-88736225D01*
X195236225Y-89570349D01*
X194784800Y-90660185D01*
X194784800Y-91839815D01*
X195146293Y-92712535D01*
X190881000Y-92709547D01*
X190881000Y-91926933D01*
X190442394Y-90868045D01*
X189631955Y-90057606D01*
X188573067Y-89619000D01*
X187426933Y-89619000D01*
X186368045Y-90057606D01*
X185557606Y-90868045D01*
X185119000Y-91926933D01*
X185119000Y-92705510D01*
X153329746Y-92683236D01*
X153041240Y-92394730D01*
X152082102Y-91997442D01*
X152154496Y-91967455D01*
X152289854Y-91669459D01*
X151100000Y-90479605D01*
X149910146Y-91669459D01*
X150045504Y-91967455D01*
X150120540Y-91996348D01*
X149158760Y-92394730D01*
X148873377Y-92680113D01*
X145140000Y-92677497D01*
X145140000Y-92345750D01*
X144981250Y-92187000D01*
X142727000Y-92187000D01*
X142727000Y-92207000D01*
X142473000Y-92207000D01*
X142473000Y-92187000D01*
X142453000Y-92187000D01*
X142453000Y-91933000D01*
X142473000Y-91933000D01*
X142473000Y-89463750D01*
X142727000Y-89463750D01*
X142727000Y-91933000D01*
X144981250Y-91933000D01*
X145140000Y-91774250D01*
X145140000Y-89963880D01*
X149155934Y-89963880D01*
X149175290Y-90733427D01*
X149432545Y-91354496D01*
X149730541Y-91489854D01*
X150920395Y-90300000D01*
X151279605Y-90300000D01*
X152469459Y-91489854D01*
X152767455Y-91354496D01*
X153044066Y-90636120D01*
X153024710Y-89866573D01*
X152767455Y-89245504D01*
X152469459Y-89110146D01*
X151279605Y-90300000D01*
X150920395Y-90300000D01*
X149730541Y-89110146D01*
X149432545Y-89245504D01*
X149155934Y-89963880D01*
X145140000Y-89963880D01*
X145140000Y-89813691D01*
X145043327Y-89580302D01*
X144864699Y-89401673D01*
X144631310Y-89305000D01*
X142885750Y-89305000D01*
X142727000Y-89463750D01*
X142473000Y-89463750D01*
X142314250Y-89305000D01*
X140568690Y-89305000D01*
X140335301Y-89401673D01*
X140156673Y-89580302D01*
X140124000Y-89659182D01*
X140124000Y-88930541D01*
X149910146Y-88930541D01*
X151100000Y-90120395D01*
X152289854Y-88930541D01*
X152154496Y-88632545D01*
X151436120Y-88355934D01*
X150666573Y-88375290D01*
X150045504Y-88632545D01*
X149910146Y-88930541D01*
X140124000Y-88930541D01*
X140124000Y-85854416D01*
X159205189Y-85854416D01*
X159273671Y-86095772D01*
X159794214Y-86281181D01*
X160346088Y-86253273D01*
X160726329Y-86095772D01*
X160794811Y-85854416D01*
X160000000Y-85059605D01*
X159205189Y-85854416D01*
X140124000Y-85854416D01*
X140124000Y-84674214D01*
X158598819Y-84674214D01*
X158626727Y-85226088D01*
X158784228Y-85606329D01*
X159025584Y-85674811D01*
X159820395Y-84880000D01*
X160179605Y-84880000D01*
X160974416Y-85674811D01*
X161215772Y-85606329D01*
X161401181Y-85085786D01*
X161373273Y-84533912D01*
X161279256Y-84306933D01*
X185119000Y-84306933D01*
X185119000Y-85453067D01*
X185557606Y-86511955D01*
X186368045Y-87322394D01*
X187426933Y-87761000D01*
X188573067Y-87761000D01*
X189631955Y-87322394D01*
X190442394Y-86511955D01*
X190881000Y-85453067D01*
X190881000Y-84306933D01*
X190442394Y-83248045D01*
X189631955Y-82437606D01*
X188573067Y-81999000D01*
X187426933Y-81999000D01*
X186368045Y-82437606D01*
X185557606Y-83248045D01*
X185119000Y-84306933D01*
X161279256Y-84306933D01*
X161215772Y-84153671D01*
X160974416Y-84085189D01*
X160179605Y-84880000D01*
X159820395Y-84880000D01*
X159025584Y-84085189D01*
X158784228Y-84153671D01*
X158598819Y-84674214D01*
X140124000Y-84674214D01*
X140124000Y-83905584D01*
X159205189Y-83905584D01*
X160000000Y-84700395D01*
X160794811Y-83905584D01*
X160726329Y-83664228D01*
X160205786Y-83478819D01*
X159653912Y-83506727D01*
X159273671Y-83664228D01*
X159205189Y-83905584D01*
X140124000Y-83905584D01*
X140124000Y-70147000D01*
X214073000Y-70147000D01*
X214073000Y-89829662D01*
X214073000Y-89829662D01*
G37*
X214073000Y-89829662D02*
X214031865Y-89788527D01*
X213918171Y-89902221D01*
X213786480Y-89607343D01*
X213078964Y-89335739D01*
X212321368Y-89355564D01*
X211713520Y-89607343D01*
X211581828Y-89902223D01*
X212750000Y-91070395D01*
X212764143Y-91056253D01*
X212943748Y-91235858D01*
X212929605Y-91250000D01*
X212943748Y-91264143D01*
X212764143Y-91443748D01*
X212750000Y-91429605D01*
X211581828Y-92597777D01*
X211638239Y-92724091D01*
X200352196Y-92716183D01*
X200715200Y-91839815D01*
X200715200Y-90921036D01*
X210835739Y-90921036D01*
X210855564Y-91678632D01*
X211107343Y-92286480D01*
X211402223Y-92418172D01*
X212570395Y-91250000D01*
X211402223Y-90081828D01*
X211107343Y-90213520D01*
X210835739Y-90921036D01*
X200715200Y-90921036D01*
X200715200Y-90660185D01*
X200263775Y-89570349D01*
X199429651Y-88736225D01*
X198339815Y-88284800D01*
X197160185Y-88284800D01*
X196070349Y-88736225D01*
X195236225Y-89570349D01*
X194784800Y-90660185D01*
X194784800Y-91839815D01*
X195146293Y-92712535D01*
X190881000Y-92709547D01*
X190881000Y-91926933D01*
X190442394Y-90868045D01*
X189631955Y-90057606D01*
X188573067Y-89619000D01*
X187426933Y-89619000D01*
X186368045Y-90057606D01*
X185557606Y-90868045D01*
X185119000Y-91926933D01*
X185119000Y-92705510D01*
X153329746Y-92683236D01*
X153041240Y-92394730D01*
X152082102Y-91997442D01*
X152154496Y-91967455D01*
X152289854Y-91669459D01*
X151100000Y-90479605D01*
X149910146Y-91669459D01*
X150045504Y-91967455D01*
X150120540Y-91996348D01*
X149158760Y-92394730D01*
X148873377Y-92680113D01*
X145140000Y-92677497D01*
X145140000Y-92345750D01*
X144981250Y-92187000D01*
X142727000Y-92187000D01*
X142727000Y-92207000D01*
X142473000Y-92207000D01*
X142473000Y-92187000D01*
X142453000Y-92187000D01*
X142453000Y-91933000D01*
X142473000Y-91933000D01*
X142473000Y-89463750D01*
X142727000Y-89463750D01*
X142727000Y-91933000D01*
X144981250Y-91933000D01*
X145140000Y-91774250D01*
X145140000Y-89963880D01*
X149155934Y-89963880D01*
X149175290Y-90733427D01*
X149432545Y-91354496D01*
X149730541Y-91489854D01*
X150920395Y-90300000D01*
X151279605Y-90300000D01*
X152469459Y-91489854D01*
X152767455Y-91354496D01*
X153044066Y-90636120D01*
X153024710Y-89866573D01*
X152767455Y-89245504D01*
X152469459Y-89110146D01*
X151279605Y-90300000D01*
X150920395Y-90300000D01*
X149730541Y-89110146D01*
X149432545Y-89245504D01*
X149155934Y-89963880D01*
X145140000Y-89963880D01*
X145140000Y-89813691D01*
X145043327Y-89580302D01*
X144864699Y-89401673D01*
X144631310Y-89305000D01*
X142885750Y-89305000D01*
X142727000Y-89463750D01*
X142473000Y-89463750D01*
X142314250Y-89305000D01*
X140568690Y-89305000D01*
X140335301Y-89401673D01*
X140156673Y-89580302D01*
X140124000Y-89659182D01*
X140124000Y-88930541D01*
X149910146Y-88930541D01*
X151100000Y-90120395D01*
X152289854Y-88930541D01*
X152154496Y-88632545D01*
X151436120Y-88355934D01*
X150666573Y-88375290D01*
X150045504Y-88632545D01*
X149910146Y-88930541D01*
X140124000Y-88930541D01*
X140124000Y-85854416D01*
X159205189Y-85854416D01*
X159273671Y-86095772D01*
X159794214Y-86281181D01*
X160346088Y-86253273D01*
X160726329Y-86095772D01*
X160794811Y-85854416D01*
X160000000Y-85059605D01*
X159205189Y-85854416D01*
X140124000Y-85854416D01*
X140124000Y-84674214D01*
X158598819Y-84674214D01*
X158626727Y-85226088D01*
X158784228Y-85606329D01*
X159025584Y-85674811D01*
X159820395Y-84880000D01*
X160179605Y-84880000D01*
X160974416Y-85674811D01*
X161215772Y-85606329D01*
X161401181Y-85085786D01*
X161373273Y-84533912D01*
X161279256Y-84306933D01*
X185119000Y-84306933D01*
X185119000Y-85453067D01*
X185557606Y-86511955D01*
X186368045Y-87322394D01*
X187426933Y-87761000D01*
X188573067Y-87761000D01*
X189631955Y-87322394D01*
X190442394Y-86511955D01*
X190881000Y-85453067D01*
X190881000Y-84306933D01*
X190442394Y-83248045D01*
X189631955Y-82437606D01*
X188573067Y-81999000D01*
X187426933Y-81999000D01*
X186368045Y-82437606D01*
X185557606Y-83248045D01*
X185119000Y-84306933D01*
X161279256Y-84306933D01*
X161215772Y-84153671D01*
X160974416Y-84085189D01*
X160179605Y-84880000D01*
X159820395Y-84880000D01*
X159025584Y-84085189D01*
X158784228Y-84153671D01*
X158598819Y-84674214D01*
X140124000Y-84674214D01*
X140124000Y-83905584D01*
X159205189Y-83905584D01*
X160000000Y-84700395D01*
X160794811Y-83905584D01*
X160726329Y-83664228D01*
X160205786Y-83478819D01*
X159653912Y-83506727D01*
X159273671Y-83664228D01*
X159205189Y-83905584D01*
X140124000Y-83905584D01*
X140124000Y-70147000D01*
X214073000Y-70147000D01*
X214073000Y-89829662D01*
G04 #@! TO.N,/out_VAC+*
G36*
X238105369Y-97747873D02*
X238667995Y-98310499D01*
X240103247Y-98905000D01*
X241656753Y-98905000D01*
X243092005Y-98310499D01*
X243624114Y-97778390D01*
X254719001Y-97839741D01*
X254719000Y-130640000D01*
X227080583Y-130640000D01*
X227202997Y-111760823D01*
X227193645Y-111712161D01*
X227166383Y-111670782D01*
X227125361Y-111642985D01*
X227077489Y-111633009D01*
X216373696Y-111507481D01*
X216373696Y-101635750D01*
X234277000Y-101635750D01*
X234277000Y-103254309D01*
X234373673Y-103487698D01*
X234552301Y-103666327D01*
X234785690Y-103763000D01*
X236404250Y-103763000D01*
X236563000Y-103604250D01*
X236563000Y-101477000D01*
X236817000Y-101477000D01*
X236817000Y-103604250D01*
X236975750Y-103763000D01*
X238594310Y-103763000D01*
X238827699Y-103666327D01*
X239006327Y-103487698D01*
X239103000Y-103254309D01*
X239103000Y-101635750D01*
X238944250Y-101477000D01*
X236817000Y-101477000D01*
X236563000Y-101477000D01*
X234435750Y-101477000D01*
X234277000Y-101635750D01*
X216373696Y-101635750D01*
X216373696Y-100097777D01*
X216581828Y-100097777D01*
X216713520Y-100392657D01*
X217421036Y-100664261D01*
X218178632Y-100644436D01*
X218786480Y-100392657D01*
X218918172Y-100097777D01*
X217750000Y-98929605D01*
X216581828Y-100097777D01*
X216373696Y-100097777D01*
X216373696Y-99905432D01*
X216402223Y-99918172D01*
X217570395Y-98750000D01*
X217556253Y-98735858D01*
X217735858Y-98556253D01*
X217750000Y-98570395D01*
X217764143Y-98556253D01*
X217943748Y-98735858D01*
X217929605Y-98750000D01*
X219097777Y-99918172D01*
X219392657Y-99786480D01*
X219523480Y-99445691D01*
X234277000Y-99445691D01*
X234277000Y-101064250D01*
X234435750Y-101223000D01*
X236563000Y-101223000D01*
X236563000Y-99095750D01*
X236817000Y-99095750D01*
X236817000Y-101223000D01*
X238944250Y-101223000D01*
X239103000Y-101064250D01*
X239103000Y-99445691D01*
X239006327Y-99212302D01*
X238827699Y-99033673D01*
X238594310Y-98937000D01*
X236975750Y-98937000D01*
X236817000Y-99095750D01*
X236563000Y-99095750D01*
X236404250Y-98937000D01*
X234785690Y-98937000D01*
X234552301Y-99033673D01*
X234373673Y-99212302D01*
X234277000Y-99445691D01*
X219523480Y-99445691D01*
X219664261Y-99078964D01*
X219644436Y-98321368D01*
X219392657Y-97713520D01*
X219235941Y-97643531D01*
X238105369Y-97747873D01*
X238105369Y-97747873D01*
G37*
X238105369Y-97747873D02*
X238667995Y-98310499D01*
X240103247Y-98905000D01*
X241656753Y-98905000D01*
X243092005Y-98310499D01*
X243624114Y-97778390D01*
X254719001Y-97839741D01*
X254719000Y-130640000D01*
X227080583Y-130640000D01*
X227202997Y-111760823D01*
X227193645Y-111712161D01*
X227166383Y-111670782D01*
X227125361Y-111642985D01*
X227077489Y-111633009D01*
X216373696Y-111507481D01*
X216373696Y-101635750D01*
X234277000Y-101635750D01*
X234277000Y-103254309D01*
X234373673Y-103487698D01*
X234552301Y-103666327D01*
X234785690Y-103763000D01*
X236404250Y-103763000D01*
X236563000Y-103604250D01*
X236563000Y-101477000D01*
X236817000Y-101477000D01*
X236817000Y-103604250D01*
X236975750Y-103763000D01*
X238594310Y-103763000D01*
X238827699Y-103666327D01*
X239006327Y-103487698D01*
X239103000Y-103254309D01*
X239103000Y-101635750D01*
X238944250Y-101477000D01*
X236817000Y-101477000D01*
X236563000Y-101477000D01*
X234435750Y-101477000D01*
X234277000Y-101635750D01*
X216373696Y-101635750D01*
X216373696Y-100097777D01*
X216581828Y-100097777D01*
X216713520Y-100392657D01*
X217421036Y-100664261D01*
X218178632Y-100644436D01*
X218786480Y-100392657D01*
X218918172Y-100097777D01*
X217750000Y-98929605D01*
X216581828Y-100097777D01*
X216373696Y-100097777D01*
X216373696Y-99905432D01*
X216402223Y-99918172D01*
X217570395Y-98750000D01*
X217556253Y-98735858D01*
X217735858Y-98556253D01*
X217750000Y-98570395D01*
X217764143Y-98556253D01*
X217943748Y-98735858D01*
X217929605Y-98750000D01*
X219097777Y-99918172D01*
X219392657Y-99786480D01*
X219523480Y-99445691D01*
X234277000Y-99445691D01*
X234277000Y-101064250D01*
X234435750Y-101223000D01*
X236563000Y-101223000D01*
X236563000Y-99095750D01*
X236817000Y-99095750D01*
X236817000Y-101223000D01*
X238944250Y-101223000D01*
X239103000Y-101064250D01*
X239103000Y-99445691D01*
X239006327Y-99212302D01*
X238827699Y-99033673D01*
X238594310Y-98937000D01*
X236975750Y-98937000D01*
X236817000Y-99095750D01*
X236563000Y-99095750D01*
X236404250Y-98937000D01*
X234785690Y-98937000D01*
X234552301Y-99033673D01*
X234373673Y-99212302D01*
X234277000Y-99445691D01*
X219523480Y-99445691D01*
X219664261Y-99078964D01*
X219644436Y-98321368D01*
X219392657Y-97713520D01*
X219235941Y-97643531D01*
X238105369Y-97747873D01*
G04 #@! TO.N,/out_VAC-*
G36*
X254719001Y-92779362D02*
X244176191Y-92773687D01*
X243092005Y-91689501D01*
X241656753Y-91095000D01*
X240103247Y-91095000D01*
X238667995Y-91689501D01*
X237587356Y-92770140D01*
X218845701Y-92760052D01*
X218918172Y-92597777D01*
X217750000Y-91429605D01*
X216581828Y-92597777D01*
X216653772Y-92758872D01*
X216377000Y-92758723D01*
X216377000Y-92406908D01*
X216402223Y-92418172D01*
X217570395Y-91250000D01*
X217929605Y-91250000D01*
X219097777Y-92418172D01*
X219392657Y-92286480D01*
X219664261Y-91578964D01*
X219644436Y-90821368D01*
X219455297Y-90364745D01*
X235154860Y-90364745D01*
X235348561Y-90712398D01*
X236239918Y-91068753D01*
X237199796Y-91056876D01*
X238031439Y-90712398D01*
X238225140Y-90364745D01*
X236690000Y-88829605D01*
X235154860Y-90364745D01*
X219455297Y-90364745D01*
X219392657Y-90213520D01*
X219097777Y-90081828D01*
X217929605Y-91250000D01*
X217570395Y-91250000D01*
X216402223Y-90081828D01*
X216377000Y-90093092D01*
X216377000Y-89902223D01*
X216581828Y-89902223D01*
X217750000Y-91070395D01*
X218918172Y-89902223D01*
X218786480Y-89607343D01*
X218078964Y-89335739D01*
X217321368Y-89355564D01*
X216713520Y-89607343D01*
X216581828Y-89902223D01*
X216377000Y-89902223D01*
X216377000Y-88199918D01*
X234271247Y-88199918D01*
X234283124Y-89159796D01*
X234627602Y-89991439D01*
X234975255Y-90185140D01*
X236510395Y-88650000D01*
X236869605Y-88650000D01*
X238404745Y-90185140D01*
X238752398Y-89991439D01*
X239108753Y-89100082D01*
X239096876Y-88140204D01*
X238752398Y-87308561D01*
X238404745Y-87114860D01*
X236869605Y-88650000D01*
X236510395Y-88650000D01*
X234975255Y-87114860D01*
X234627602Y-87308561D01*
X234271247Y-88199918D01*
X216377000Y-88199918D01*
X216377000Y-86935255D01*
X235154860Y-86935255D01*
X236690000Y-88470395D01*
X238225140Y-86935255D01*
X238031439Y-86587602D01*
X237140082Y-86231247D01*
X236180204Y-86243124D01*
X235348561Y-86587602D01*
X235154860Y-86935255D01*
X216377000Y-86935255D01*
X216377000Y-70147000D01*
X254719001Y-70147000D01*
X254719001Y-92779362D01*
X254719001Y-92779362D01*
G37*
X254719001Y-92779362D02*
X244176191Y-92773687D01*
X243092005Y-91689501D01*
X241656753Y-91095000D01*
X240103247Y-91095000D01*
X238667995Y-91689501D01*
X237587356Y-92770140D01*
X218845701Y-92760052D01*
X218918172Y-92597777D01*
X217750000Y-91429605D01*
X216581828Y-92597777D01*
X216653772Y-92758872D01*
X216377000Y-92758723D01*
X216377000Y-92406908D01*
X216402223Y-92418172D01*
X217570395Y-91250000D01*
X217929605Y-91250000D01*
X219097777Y-92418172D01*
X219392657Y-92286480D01*
X219664261Y-91578964D01*
X219644436Y-90821368D01*
X219455297Y-90364745D01*
X235154860Y-90364745D01*
X235348561Y-90712398D01*
X236239918Y-91068753D01*
X237199796Y-91056876D01*
X238031439Y-90712398D01*
X238225140Y-90364745D01*
X236690000Y-88829605D01*
X235154860Y-90364745D01*
X219455297Y-90364745D01*
X219392657Y-90213520D01*
X219097777Y-90081828D01*
X217929605Y-91250000D01*
X217570395Y-91250000D01*
X216402223Y-90081828D01*
X216377000Y-90093092D01*
X216377000Y-89902223D01*
X216581828Y-89902223D01*
X217750000Y-91070395D01*
X218918172Y-89902223D01*
X218786480Y-89607343D01*
X218078964Y-89335739D01*
X217321368Y-89355564D01*
X216713520Y-89607343D01*
X216581828Y-89902223D01*
X216377000Y-89902223D01*
X216377000Y-88199918D01*
X234271247Y-88199918D01*
X234283124Y-89159796D01*
X234627602Y-89991439D01*
X234975255Y-90185140D01*
X236510395Y-88650000D01*
X236869605Y-88650000D01*
X238404745Y-90185140D01*
X238752398Y-89991439D01*
X239108753Y-89100082D01*
X239096876Y-88140204D01*
X238752398Y-87308561D01*
X238404745Y-87114860D01*
X236869605Y-88650000D01*
X236510395Y-88650000D01*
X234975255Y-87114860D01*
X234627602Y-87308561D01*
X234271247Y-88199918D01*
X216377000Y-88199918D01*
X216377000Y-86935255D01*
X235154860Y-86935255D01*
X236690000Y-88470395D01*
X238225140Y-86935255D01*
X238031439Y-86587602D01*
X237140082Y-86231247D01*
X236180204Y-86243124D01*
X235348561Y-86587602D01*
X235154860Y-86935255D01*
X216377000Y-86935255D01*
X216377000Y-70147000D01*
X254719001Y-70147000D01*
X254719001Y-92779362D01*
G04 #@! TO.N,/VAC+*
G36*
X149158760Y-98205270D02*
X149609036Y-98391781D01*
X149440301Y-98461673D01*
X149261673Y-98640302D01*
X149165000Y-98873691D01*
X149165000Y-100014250D01*
X149323750Y-100173000D01*
X150973000Y-100173000D01*
X150973000Y-100153000D01*
X151227000Y-100153000D01*
X151227000Y-100173000D01*
X152876250Y-100173000D01*
X153035000Y-100014250D01*
X153035000Y-99239690D01*
X158611000Y-99239690D01*
X158611000Y-99834250D01*
X158769750Y-99993000D01*
X159873000Y-99993000D01*
X159873000Y-98889750D01*
X160127000Y-98889750D01*
X160127000Y-99993000D01*
X161230250Y-99993000D01*
X161389000Y-99834250D01*
X161389000Y-99239690D01*
X161292327Y-99006301D01*
X161113698Y-98827673D01*
X160880309Y-98731000D01*
X160285750Y-98731000D01*
X160127000Y-98889750D01*
X159873000Y-98889750D01*
X159714250Y-98731000D01*
X159119691Y-98731000D01*
X158886302Y-98827673D01*
X158707673Y-99006301D01*
X158611000Y-99239690D01*
X153035000Y-99239690D01*
X153035000Y-98873691D01*
X152938327Y-98640302D01*
X152759699Y-98461673D01*
X152590964Y-98391781D01*
X153041240Y-98205270D01*
X153575373Y-97671137D01*
X194987370Y-97671137D01*
X194784800Y-98160185D01*
X194784800Y-99339815D01*
X195236225Y-100429651D01*
X196070349Y-101263775D01*
X197160185Y-101715200D01*
X198339815Y-101715200D01*
X199429651Y-101263775D01*
X200263775Y-100429651D01*
X200715200Y-99339815D01*
X200715200Y-98160185D01*
X200512630Y-97671137D01*
X211202245Y-97671137D01*
X211107343Y-97713520D01*
X210835739Y-98421036D01*
X210855564Y-99178632D01*
X211107343Y-99786480D01*
X211402223Y-99918172D01*
X212570395Y-98750000D01*
X212556253Y-98735858D01*
X212735858Y-98556253D01*
X212750000Y-98570395D01*
X212764143Y-98556253D01*
X212943748Y-98735858D01*
X212929605Y-98750000D01*
X212943748Y-98764143D01*
X212764143Y-98943748D01*
X212750000Y-98929605D01*
X211581828Y-100097777D01*
X211713520Y-100392657D01*
X212421036Y-100664261D01*
X213178632Y-100644436D01*
X213786480Y-100392657D01*
X213918171Y-100097779D01*
X214031865Y-100211473D01*
X214073647Y-100169691D01*
X214078950Y-121666000D01*
X140124000Y-121666000D01*
X140124000Y-100840818D01*
X140156673Y-100919698D01*
X140335301Y-101098327D01*
X140568690Y-101195000D01*
X142314250Y-101195000D01*
X142473000Y-101036250D01*
X142473000Y-98567000D01*
X142727000Y-98567000D01*
X142727000Y-101036250D01*
X142885750Y-101195000D01*
X144631310Y-101195000D01*
X144864699Y-101098327D01*
X145043327Y-100919698D01*
X145140000Y-100686309D01*
X145140000Y-100585750D01*
X149165000Y-100585750D01*
X149165000Y-101726309D01*
X149261673Y-101959698D01*
X149440301Y-102138327D01*
X149673690Y-102235000D01*
X150814250Y-102235000D01*
X150973000Y-102076250D01*
X150973000Y-100427000D01*
X151227000Y-100427000D01*
X151227000Y-102076250D01*
X151385750Y-102235000D01*
X152526310Y-102235000D01*
X152759699Y-102138327D01*
X152938327Y-101959698D01*
X153035000Y-101726309D01*
X153035000Y-100585750D01*
X152876250Y-100427000D01*
X151227000Y-100427000D01*
X150973000Y-100427000D01*
X149323750Y-100427000D01*
X149165000Y-100585750D01*
X145140000Y-100585750D01*
X145140000Y-100405750D01*
X158611000Y-100405750D01*
X158611000Y-101000310D01*
X158707673Y-101233699D01*
X158886302Y-101412327D01*
X159119691Y-101509000D01*
X159714250Y-101509000D01*
X159873000Y-101350250D01*
X159873000Y-100247000D01*
X160127000Y-100247000D01*
X160127000Y-101350250D01*
X160285750Y-101509000D01*
X160880309Y-101509000D01*
X161113698Y-101412327D01*
X161292327Y-101233699D01*
X161389000Y-101000310D01*
X161389000Y-100405750D01*
X161230250Y-100247000D01*
X160127000Y-100247000D01*
X159873000Y-100247000D01*
X158769750Y-100247000D01*
X158611000Y-100405750D01*
X145140000Y-100405750D01*
X145140000Y-98725750D01*
X144981250Y-98567000D01*
X142727000Y-98567000D01*
X142473000Y-98567000D01*
X142453000Y-98567000D01*
X142453000Y-98313000D01*
X142473000Y-98313000D01*
X142473000Y-98293000D01*
X142727000Y-98293000D01*
X142727000Y-98313000D01*
X144981250Y-98313000D01*
X145140000Y-98154250D01*
X145140000Y-97671137D01*
X148624627Y-97671137D01*
X149158760Y-98205270D01*
X149158760Y-98205270D01*
G37*
X149158760Y-98205270D02*
X149609036Y-98391781D01*
X149440301Y-98461673D01*
X149261673Y-98640302D01*
X149165000Y-98873691D01*
X149165000Y-100014250D01*
X149323750Y-100173000D01*
X150973000Y-100173000D01*
X150973000Y-100153000D01*
X151227000Y-100153000D01*
X151227000Y-100173000D01*
X152876250Y-100173000D01*
X153035000Y-100014250D01*
X153035000Y-99239690D01*
X158611000Y-99239690D01*
X158611000Y-99834250D01*
X158769750Y-99993000D01*
X159873000Y-99993000D01*
X159873000Y-98889750D01*
X160127000Y-98889750D01*
X160127000Y-99993000D01*
X161230250Y-99993000D01*
X161389000Y-99834250D01*
X161389000Y-99239690D01*
X161292327Y-99006301D01*
X161113698Y-98827673D01*
X160880309Y-98731000D01*
X160285750Y-98731000D01*
X160127000Y-98889750D01*
X159873000Y-98889750D01*
X159714250Y-98731000D01*
X159119691Y-98731000D01*
X158886302Y-98827673D01*
X158707673Y-99006301D01*
X158611000Y-99239690D01*
X153035000Y-99239690D01*
X153035000Y-98873691D01*
X152938327Y-98640302D01*
X152759699Y-98461673D01*
X152590964Y-98391781D01*
X153041240Y-98205270D01*
X153575373Y-97671137D01*
X194987370Y-97671137D01*
X194784800Y-98160185D01*
X194784800Y-99339815D01*
X195236225Y-100429651D01*
X196070349Y-101263775D01*
X197160185Y-101715200D01*
X198339815Y-101715200D01*
X199429651Y-101263775D01*
X200263775Y-100429651D01*
X200715200Y-99339815D01*
X200715200Y-98160185D01*
X200512630Y-97671137D01*
X211202245Y-97671137D01*
X211107343Y-97713520D01*
X210835739Y-98421036D01*
X210855564Y-99178632D01*
X211107343Y-99786480D01*
X211402223Y-99918172D01*
X212570395Y-98750000D01*
X212556253Y-98735858D01*
X212735858Y-98556253D01*
X212750000Y-98570395D01*
X212764143Y-98556253D01*
X212943748Y-98735858D01*
X212929605Y-98750000D01*
X212943748Y-98764143D01*
X212764143Y-98943748D01*
X212750000Y-98929605D01*
X211581828Y-100097777D01*
X211713520Y-100392657D01*
X212421036Y-100664261D01*
X213178632Y-100644436D01*
X213786480Y-100392657D01*
X213918171Y-100097779D01*
X214031865Y-100211473D01*
X214073647Y-100169691D01*
X214078950Y-121666000D01*
X140124000Y-121666000D01*
X140124000Y-100840818D01*
X140156673Y-100919698D01*
X140335301Y-101098327D01*
X140568690Y-101195000D01*
X142314250Y-101195000D01*
X142473000Y-101036250D01*
X142473000Y-98567000D01*
X142727000Y-98567000D01*
X142727000Y-101036250D01*
X142885750Y-101195000D01*
X144631310Y-101195000D01*
X144864699Y-101098327D01*
X145043327Y-100919698D01*
X145140000Y-100686309D01*
X145140000Y-100585750D01*
X149165000Y-100585750D01*
X149165000Y-101726309D01*
X149261673Y-101959698D01*
X149440301Y-102138327D01*
X149673690Y-102235000D01*
X150814250Y-102235000D01*
X150973000Y-102076250D01*
X150973000Y-100427000D01*
X151227000Y-100427000D01*
X151227000Y-102076250D01*
X151385750Y-102235000D01*
X152526310Y-102235000D01*
X152759699Y-102138327D01*
X152938327Y-101959698D01*
X153035000Y-101726309D01*
X153035000Y-100585750D01*
X152876250Y-100427000D01*
X151227000Y-100427000D01*
X150973000Y-100427000D01*
X149323750Y-100427000D01*
X149165000Y-100585750D01*
X145140000Y-100585750D01*
X145140000Y-100405750D01*
X158611000Y-100405750D01*
X158611000Y-101000310D01*
X158707673Y-101233699D01*
X158886302Y-101412327D01*
X159119691Y-101509000D01*
X159714250Y-101509000D01*
X159873000Y-101350250D01*
X159873000Y-100247000D01*
X160127000Y-100247000D01*
X160127000Y-101350250D01*
X160285750Y-101509000D01*
X160880309Y-101509000D01*
X161113698Y-101412327D01*
X161292327Y-101233699D01*
X161389000Y-101000310D01*
X161389000Y-100405750D01*
X161230250Y-100247000D01*
X160127000Y-100247000D01*
X159873000Y-100247000D01*
X158769750Y-100247000D01*
X158611000Y-100405750D01*
X145140000Y-100405750D01*
X145140000Y-98725750D01*
X144981250Y-98567000D01*
X142727000Y-98567000D01*
X142473000Y-98567000D01*
X142453000Y-98567000D01*
X142453000Y-98313000D01*
X142473000Y-98313000D01*
X142473000Y-98293000D01*
X142727000Y-98293000D01*
X142727000Y-98313000D01*
X144981250Y-98313000D01*
X145140000Y-98154250D01*
X145140000Y-97671137D01*
X148624627Y-97671137D01*
X149158760Y-98205270D01*
G04 #@! TD*
M02*
